<svg width="83" height="37" viewBox="0 0 83 37" fill="none" xmlns="http://www.w3.org/2000/svg">
<path d="M8.298 12.676C8.352 12.838 8.01 13.108 7.884 13.108C7.758 13.108 7.488 13.036 7.272 12.838C7.074 12.622 6.894 12.532 6.768 12.298C6.642 12.064 6.066 12.064 6.066 11.884C6.066 11.722 5.346 11.758 5.274 11.578C5.202 11.416 4.716 11.38 4.68 11.254C4.662 11.128 3.492 11.164 3.492 10.948C3.492 10.75 2.736 10.552 2.682 10.444C2.628 10.336 2.142 10.264 2.088 10.138C2.052 10.012 1.584 9.994 1.566 9.832C1.53 9.688 0.9 9.526 0.9 8.842C0.9 8.158 0.954 7.924 1.188 7.78C1.404 7.618 1.53 7.222 1.764 7.096C1.998 6.97 2.862 6.358 3.006 6.052C3.168 5.746 3.51 5.296 3.672 5.296C3.816 5.296 3.87 5.152 3.942 4.864C4.032 4.558 4.536 4.198 4.608 3.964C4.68 3.73 4.914 3.532 5.148 3.532C5.364 3.532 5.4 3.082 5.58 3.046C5.76 3.028 6.138 2.416 6.39 2.416C6.588 2.416 7.128 2.794 7.128 2.956C7.128 3.1 6.912 3.442 6.912 3.604C6.912 3.784 6.39 4.144 6.318 4.324C6.228 4.504 5.634 4.72 5.49 5.08C5.364 5.44 5.166 5.8 4.914 5.854C4.662 5.89 4.68 6.322 4.536 6.376C4.374 6.43 4.104 6.718 4.05 6.916C3.996 7.114 3.618 7.294 3.618 7.438C3.618 7.6 3.24 7.726 3.204 7.87C3.186 8.032 2.754 8.266 2.754 8.446C2.754 8.608 3.006 9.076 3.204 9.076C3.42 9.076 3.816 9.292 3.87 9.382C3.924 9.454 4.554 9.58 4.662 9.706C4.77 9.832 5.04 9.994 5.328 9.994C5.598 9.994 6.066 10.156 6.066 10.3C6.066 10.426 6.768 10.462 6.768 10.57C6.768 10.678 7.272 10.732 7.326 10.894C7.38 11.074 8.262 11.236 8.262 11.542C8.262 11.848 8.244 12.532 8.298 12.676ZM22.0809 11.866C22.2969 12.208 22.4049 12.694 22.0269 12.694C21.6489 12.694 21.4689 12.838 21.2709 12.694C21.0549 12.532 20.5689 12.73 20.4249 12.91C20.2809 13.09 19.7229 13.252 19.4349 13.27C19.1469 13.288 18.9309 13.594 18.5529 13.594C18.1569 13.594 17.7789 13.63 17.2749 13.324C16.7709 13.018 16.3929 12.892 16.3929 12.046C16.3929 11.218 17.0769 10.048 17.4549 9.292C17.8329 8.518 18.5169 7.15 18.5169 6.466C18.5169 5.782 18.8229 5.368 18.2469 5.674C17.6529 5.98 17.3289 6.034 17.1669 6.358C17.0229 6.7 16.3929 6.52 16.2669 6.826C16.1409 7.132 15.7809 7.258 15.7449 7.474C15.7269 7.708 15.5469 7.78 15.2949 7.78C15.0429 7.78 14.7369 7.78 14.5029 7.474C14.2869 7.168 14.1789 6.916 14.1789 6.736C14.1789 6.574 14.3049 6.304 14.5389 6.304C14.6829 6.304 15.0429 5.998 15.2409 5.782C15.4389 5.548 16.7169 4.558 16.9689 4.54C17.2209 4.504 17.5989 4.324 17.7249 4.234C17.8509 4.126 18.2109 4.126 18.2829 4.252C18.3729 4.378 19.1469 4.324 19.3629 4.666C19.5609 4.99 19.6869 5.35 19.9209 5.404C20.1549 5.44 20.1729 6.034 20.1729 6.646C20.1729 7.258 19.8669 7.456 19.8669 7.726C19.8669 8.014 19.5609 8.806 19.2369 9.364C18.8949 9.922 18.2649 10.75 18.2649 10.966C18.2649 11.164 17.9409 11.578 18.3369 11.794C18.7509 12.028 18.7689 11.83 19.3809 11.704C19.9929 11.578 20.4969 11.542 20.9109 11.542C21.3069 11.542 21.8469 11.542 22.0809 11.866ZM29.6407 14.998C29.6047 15.286 29.7487 15.754 29.4427 15.88C29.1367 16.024 28.9567 16.312 28.8307 16.312C28.7047 16.312 28.5067 15.988 28.3807 15.916C28.2547 15.844 27.9487 15.484 27.9487 15.196C27.9487 14.926 28.2187 14.368 28.2187 13.936C28.2187 13.504 28.2007 12.028 28.0747 11.722C27.9487 11.416 27.8407 10.228 27.8407 9.976C27.8407 9.724 27.7507 9.544 27.3367 9.67C26.9227 9.796 26.1487 9.616 25.9867 9.742C25.8427 9.868 25.4107 9.76 25.0687 9.76C24.7447 9.76 24.0067 9.382 23.5747 9.022C23.1427 8.68 22.8727 8.032 22.8727 7.564C22.8727 7.078 23.1967 7.204 23.2687 6.79C23.3587 6.394 23.1967 5.44 23.3947 5.368C23.6107 5.296 23.8087 4.486 23.8087 4.288C23.8087 4.072 23.9887 3.946 24.1867 3.946C24.6187 3.946 24.8167 4.306 24.9427 4.378C25.0687 4.45 25.3027 4.72 25.1047 5.152C24.9067 5.584 24.6907 6.412 24.6907 6.844C24.6907 7.276 24.6367 8.086 25.0507 8.086C25.4647 8.086 25.6807 8.428 26.1487 8.212C26.5987 8.014 26.8327 7.87 26.8507 7.636C26.8867 7.402 27.2287 7.438 27.5167 7.438C27.7867 7.438 28.1467 7.204 28.1467 6.736C28.1467 6.286 28.3807 5.098 28.3087 4.864C28.2187 4.63 28.2187 4.018 28.5607 4.018C28.8847 4.018 29.5687 4.378 29.5687 4.882C29.5687 5.404 29.3167 6.97 29.3167 7.348C29.3167 7.726 29.4247 7.906 29.4787 8.122C29.5147 8.32 29.3707 9.292 29.4427 9.76C29.5147 10.246 29.5687 12.208 29.5687 12.694C29.5687 13.162 29.6947 14.728 29.6407 14.998ZM40.6398 12.622C40.6398 12.874 40.2258 12.838 40.0278 12.838C39.8118 12.838 39.6498 12.586 39.2898 12.406C38.9298 12.244 38.8218 11.776 38.6238 11.578C38.4258 11.38 38.4438 10.714 38.1198 10.48C37.7958 10.246 37.6158 9.904 37.2378 9.904C36.8418 9.904 36.4638 10.21 36.2118 10.678C35.9598 11.164 35.6358 11.686 35.6358 12.028C35.6358 12.388 35.5998 12.928 35.3478 13C35.0958 13.072 35.0418 13.252 34.7898 13.252C34.5378 13.252 33.9978 13.144 33.9978 12.712C33.9978 12.28 33.4938 10.966 33.4398 10.12C33.3858 9.292 32.9358 5.908 32.8638 5.242C32.7918 4.594 32.8098 3.856 32.8098 3.568C32.8098 3.298 33.3138 3.1 33.4758 3.1C33.7998 3.1 34.1058 3.694 34.1058 3.982C34.1058 4.252 33.9978 4.918 34.0518 5.404C34.1058 5.89 34.6638 8.914 34.6458 9.238C34.6098 9.562 34.6458 10.642 34.8078 10.642C34.9878 10.642 35.1678 10.174 35.3478 9.922C35.5278 9.67 36.3378 8.482 37.2378 8.482C38.1198 8.482 38.7858 9.13 38.9298 9.544C39.0918 9.958 39.3438 10.102 39.3798 10.48C39.4338 10.858 39.9198 11.416 40.0998 11.686C40.2798 11.938 40.6398 12.37 40.6398 12.622ZM46.7769 8.194C46.7769 8.374 46.4889 8.464 46.2189 8.464C45.9669 8.464 45.3549 8.59 45.1389 8.806C44.9049 9.004 44.4549 9.364 44.3289 9.67C44.2029 9.958 43.9329 10.048 43.9329 10.498C43.9329 10.948 43.9329 11.65 44.0229 12.028C44.0949 12.406 43.9869 13.072 43.4829 13.072C42.9789 13.072 42.6909 12.604 42.6009 12.298C42.4929 11.992 42.4929 10.93 42.3489 10.876C42.1869 10.822 42.2409 10.372 42.3669 10.12C42.4929 9.868 42.3849 9.436 42.2949 9.076C42.1869 8.716 42.0789 8.032 42.6729 8.032C42.8709 8.032 43.2129 8.158 43.2309 8.338C43.2489 8.518 43.3749 8.698 43.6089 8.518C43.8429 8.338 44.0229 8.212 44.3469 8.032C44.6709 7.852 45.0849 7.888 45.3189 7.708C45.5349 7.528 45.8949 7.528 46.1289 7.528C46.3449 7.528 46.7769 8.014 46.7769 8.194ZM52.0335 8.302C52.0335 8.554 51.5835 9.148 51.2775 9.148C50.9715 9.148 51.0255 8.842 50.8275 8.842C50.6115 8.842 50.5755 9.13 50.3415 9.13C50.1075 9.13 50.1615 9.472 50.1615 9.688C50.1615 9.886 50.4675 10.516 50.6475 10.75C50.8275 10.984 51.2055 11.74 51.2055 12.316C51.2055 12.91 50.7375 13.054 50.4495 13.234C50.1435 13.414 49.5315 13.522 49.2255 13.522C48.9195 13.522 48.6855 13.306 48.3795 13.468C48.0735 13.612 47.7315 13.648 47.4615 13.54C47.2095 13.432 46.6335 13.09 46.6335 12.748C46.6335 12.424 47.1915 12.01 47.5515 12.118C47.8935 12.226 47.8755 12.118 48.1995 11.92C48.5415 11.704 48.7215 12.01 48.7215 12.136C48.7215 12.28 48.8115 12.442 49.3695 12.28C49.9275 12.1 49.9815 11.92 49.6215 11.542C49.2795 11.146 48.8115 9.832 48.8115 9.292C48.8115 8.77 49.1175 8.338 49.2435 8.158C49.3695 7.978 49.7115 7.438 50.1795 7.438C50.5935 7.438 51.0075 7.618 51.3315 7.69C51.6555 7.78 52.0335 8.05 52.0335 8.302Z" fill="#873DE6"/>
<path d="M73.4585 36.1091C73.5345 36.5162 73.9262 36.7847 74.3334 36.7087L80.9688 35.4701C81.376 35.3941 81.6444 35.0024 81.5684 34.5952C81.4924 34.188 81.1007 33.9196 80.6935 33.9956L74.7954 35.0966L73.6944 29.1984C73.6184 28.7912 73.2267 28.5228 72.8196 28.5988C72.4124 28.6748 72.1439 29.0665 72.2199 29.4737L73.4585 36.1091ZM77.0473 19.999L77.7347 19.6991L77.0473 19.999ZM65.8072 11.1642C65.4058 11.0619 64.9975 11.3043 64.8951 11.7056C64.7927 12.107 65.0351 12.5154 65.4365 12.6177L65.8072 11.1642ZM74.8144 36.3955C77.5026 32.4733 80.6962 26.4879 77.7347 19.6991L76.3599 20.2989C78.9847 26.3161 76.2224 31.688 73.5771 35.5474L74.8144 36.3955ZM77.7347 19.6991C75.8024 15.2693 71.4342 12.5993 65.8072 11.1642L65.4365 12.6177C70.8576 14.0002 74.6937 16.4794 76.3599 20.2989L77.7347 19.6991Z" fill="black"/>
</svg>
