<svg width="86" height="39" viewBox="0 0 86 39" fill="none" xmlns="http://www.w3.org/2000/svg">
<path d="M3.186 4.594C3.186 5.152 2.754 5.512 2.538 5.512C2.304 5.512 1.98 5.134 1.764 5.026C1.566 4.918 1.26 4.648 1.26 4.396C1.26 4.144 1.566 3.73 1.8 3.73C2.142 3.73 2.574 3.928 2.61 4.108C2.628 4.288 3.186 4.036 3.186 4.594ZM3.222 11.758C3.042 11.884 3.006 12.514 3.006 12.73C3.006 12.928 2.862 12.946 2.61 12.946C2.358 12.946 1.98 12.73 1.98 12.118C1.98 11.506 1.818 10.516 1.746 10.066C1.674 9.598 1.746 8.896 1.62 8.68C1.494 8.482 1.422 8.302 1.422 8.176C1.422 8.05 1.638 7.546 1.872 7.546C2.124 7.546 2.664 7.798 2.664 8.104C2.664 8.41 2.664 9.094 2.79 9.418C2.916 9.76 3.042 10.336 3.042 10.66C3.042 11.002 3.402 11.632 3.222 11.758ZM13.515 12.244C13.515 12.46 12.885 13.198 12.633 13.198C12.381 13.198 11.769 12.928 11.769 12.496C11.769 12.064 11.481 11.164 11.355 10.696C11.229 10.246 10.797 9.688 10.653 9.562C10.491 9.436 10.293 9.184 9.82505 9.436C9.37505 9.688 8.81705 9.886 8.49305 10.444C8.15105 11.002 7.82705 11.794 7.89905 12.064C7.97105 12.352 7.77305 12.478 7.53905 12.586C7.32305 12.676 7.32305 12.964 7.10705 12.964C6.90905 12.964 6.17105 11.974 6.17105 11.686C6.17105 11.416 6.15305 9.778 5.97305 9.382C5.79305 8.968 5.61305 8.05 6.27905 8.05C6.60305 8.05 7.14305 8.266 7.14305 8.842C7.14305 9.436 7.08905 10.39 7.57505 9.688C8.06105 8.968 8.20505 8.914 8.43905 8.788C8.65505 8.662 8.94305 8.32 9.24905 8.32C9.55505 8.32 9.87905 8.014 10.059 8.014C10.239 8.014 10.905 8.446 11.229 8.482C11.553 8.536 12.147 9.184 12.327 9.634C12.507 10.084 12.669 10.912 12.777 11.2C13.029 11.92 13.515 12.046 13.515 12.244ZM21.0808 8.122C21.0808 8.41 20.5408 8.518 20.3068 8.536C20.0908 8.554 19.8028 8.644 19.4248 8.518C19.0468 8.392 18.7948 8.428 18.6688 8.554C18.5428 8.698 18.2008 8.644 18.1108 8.554C18.0028 8.482 17.7508 8.41 17.7508 8.698C17.7508 8.968 17.9308 10.822 17.9308 11.452C17.9308 12.1 17.7508 12.658 17.5888 12.856C17.4448 13.054 17.2108 13.306 16.9588 13.306C16.7068 13.306 16.3288 13.108 16.2208 12.874C16.1308 12.658 15.9148 12.622 15.9148 12.442C15.9148 12.262 16.1668 12.064 16.3468 11.884C16.5268 11.704 16.5808 10.948 16.5808 10.264C16.5808 9.58 16.5988 8.608 16.3468 8.608C16.0948 8.608 15.7168 8.824 15.5908 8.716C15.4648 8.608 14.9788 8.59 14.9788 8.176C14.9788 7.78 15.1048 7.438 15.3388 7.438C15.5728 7.438 16.4548 7.69 16.4548 7.24C16.4548 6.79 16.3288 5.98 16.3288 5.674C16.3288 5.368 16.4008 4.27 16.7788 4.27C17.1388 4.27 17.4268 4.396 17.4988 4.63C17.5708 4.846 17.7328 5.368 17.7328 5.764V7.006C17.7328 7.258 17.9848 7.312 18.1828 7.294C18.3808 7.258 18.5068 7.438 18.9928 7.474C19.4788 7.492 19.9828 7.87 20.2168 7.744C20.4508 7.618 21.0808 7.852 21.0808 8.122ZM27.0555 9.85C27.0555 10.714 26.6415 11.578 26.2635 12.046C25.8855 12.496 25.1655 13.18 24.6615 13.18C24.1575 13.18 23.1675 12.604 22.9335 12.568C22.6995 12.55 22.6815 11.578 22.4475 11.452C22.2135 11.326 22.0155 10.624 22.0155 10.264C22.0155 9.904 22.3755 9.454 22.4655 9.076C22.5735 8.698 22.7715 8.464 23.0055 8.464C23.2395 8.464 23.7255 8.59 23.7255 8.824C23.7255 9.04 23.2935 9.706 23.2935 10.156C23.2935 10.624 23.6895 10.984 23.6895 11.146C23.6895 11.326 23.9055 11.74 24.4275 11.74C24.9675 11.74 25.2375 11.434 25.5435 10.93C25.8495 10.408 25.8855 10.246 25.8855 10.012C25.8855 9.778 25.4715 9.13 25.2195 8.986C24.9675 8.86 24.5535 8.698 24.3555 8.698C24.1575 8.698 23.8515 8.356 23.8515 7.978C23.8515 7.6 24.3555 7.132 24.5535 7.132C24.7875 7.132 25.7595 7.924 26.0295 8.032C26.3175 8.122 27.0555 8.986 27.0555 9.85ZM39.5027 8.122C39.5027 8.41 38.9627 8.518 38.7287 8.536C38.5127 8.554 38.2247 8.644 37.8467 8.518C37.4687 8.392 37.2167 8.428 37.0907 8.554C36.9647 8.698 36.6227 8.644 36.5327 8.554C36.4247 8.482 36.1727 8.41 36.1727 8.698C36.1727 8.968 36.3527 10.822 36.3527 11.452C36.3527 12.1 36.1727 12.658 36.0107 12.856C35.8667 13.054 35.6327 13.306 35.3807 13.306C35.1287 13.306 34.7507 13.108 34.6427 12.874C34.5527 12.658 34.3367 12.622 34.3367 12.442C34.3367 12.262 34.5887 12.064 34.7687 11.884C34.9487 11.704 35.0027 10.948 35.0027 10.264C35.0027 9.58 35.0207 8.608 34.7687 8.608C34.5167 8.608 34.1387 8.824 34.0127 8.716C33.8867 8.608 33.4007 8.59 33.4007 8.176C33.4007 7.78 33.5267 7.438 33.7607 7.438C33.9947 7.438 34.8767 7.69 34.8767 7.24C34.8767 6.79 34.7507 5.98 34.7507 5.674C34.7507 5.368 34.8227 4.27 35.2007 4.27C35.5607 4.27 35.8487 4.396 35.9207 4.63C35.9927 4.846 36.1547 5.368 36.1547 5.764V7.006C36.1547 7.258 36.4067 7.312 36.6047 7.294C36.8027 7.258 36.9287 7.438 37.4147 7.474C37.9007 7.492 38.4047 7.87 38.6387 7.744C38.8727 7.618 39.5027 7.852 39.5027 8.122ZM48.3214 12.622C48.3214 12.874 47.9074 12.838 47.7094 12.838C47.4934 12.838 47.3314 12.586 46.9714 12.406C46.6114 12.244 46.5034 11.776 46.3054 11.578C46.1074 11.38 46.1254 10.714 45.8014 10.48C45.4774 10.246 45.2974 9.904 44.9194 9.904C44.5234 9.904 44.1454 10.21 43.8934 10.678C43.6414 11.164 43.3174 11.686 43.3174 12.028C43.3174 12.388 43.2814 12.928 43.0294 13C42.7774 13.072 42.7234 13.252 42.4714 13.252C42.2194 13.252 41.6794 13.144 41.6794 12.712C41.6794 12.28 41.1754 10.966 41.1214 10.12C41.0674 9.292 40.6174 5.908 40.5454 5.242C40.4734 4.594 40.4914 3.856 40.4914 3.568C40.4914 3.298 40.9954 3.1 41.1574 3.1C41.4814 3.1 41.7874 3.694 41.7874 3.982C41.7874 4.252 41.6794 4.918 41.7334 5.404C41.7874 5.89 42.3454 8.914 42.3274 9.238C42.2914 9.562 42.3274 10.642 42.4894 10.642C42.6694 10.642 42.8494 10.174 43.0294 9.922C43.2094 9.67 44.0194 8.482 44.9194 8.482C45.8014 8.482 46.4674 9.13 46.6114 9.544C46.7734 9.958 47.0254 10.102 47.0614 10.48C47.1154 10.858 47.6014 11.416 47.7814 11.686C47.9614 11.938 48.3214 12.37 48.3214 12.622ZM51.5786 4.594C51.5786 5.152 51.1466 5.512 50.9306 5.512C50.6966 5.512 50.3726 5.134 50.1566 5.026C49.9586 4.918 49.6526 4.648 49.6526 4.396C49.6526 4.144 49.9586 3.73 50.1926 3.73C50.5346 3.73 50.9666 3.928 51.0026 4.108C51.0206 4.288 51.5786 4.036 51.5786 4.594ZM51.6146 11.758C51.4346 11.884 51.3986 12.514 51.3986 12.73C51.3986 12.928 51.2546 12.946 51.0026 12.946C50.7506 12.946 50.3726 12.73 50.3726 12.118C50.3726 11.506 50.2106 10.516 50.1386 10.066C50.0666 9.598 50.1386 8.896 50.0126 8.68C49.8866 8.482 49.8146 8.302 49.8146 8.176C49.8146 8.05 50.0306 7.546 50.2646 7.546C50.5166 7.546 51.0566 7.798 51.0566 8.104C51.0566 8.41 51.0566 9.094 51.1826 9.418C51.3086 9.76 51.4346 10.336 51.4346 10.66C51.4346 11.002 51.7946 11.632 51.6146 11.758ZM58.3616 8.302C58.3616 8.554 57.9116 9.148 57.6056 9.148C57.2996 9.148 57.3536 8.842 57.1556 8.842C56.9396 8.842 56.9036 9.13 56.6696 9.13C56.4356 9.13 56.4896 9.472 56.4896 9.688C56.4896 9.886 56.7956 10.516 56.9756 10.75C57.1556 10.984 57.5336 11.74 57.5336 12.316C57.5336 12.91 57.0656 13.054 56.7776 13.234C56.4716 13.414 55.8596 13.522 55.5536 13.522C55.2476 13.522 55.0136 13.306 54.7076 13.468C54.4016 13.612 54.0596 13.648 53.7896 13.54C53.5376 13.432 52.9616 13.09 52.9616 12.748C52.9616 12.424 53.5196 12.01 53.8796 12.118C54.2216 12.226 54.2036 12.118 54.5276 11.92C54.8696 11.704 55.0496 12.01 55.0496 12.136C55.0496 12.28 55.1396 12.442 55.6976 12.28C56.2556 12.1 56.3096 11.92 55.9496 11.542C55.6076 11.146 55.1396 9.832 55.1396 9.292C55.1396 8.77 55.4456 8.338 55.5716 8.158C55.6976 7.978 56.0396 7.438 56.5076 7.438C56.9216 7.438 57.3356 7.618 57.6596 7.69C57.9836 7.78 58.3616 8.05 58.3616 8.302Z" fill="#873DE6"/>
<path d="M76.4587 38.1091C76.5347 38.5162 76.9264 38.7847 77.3336 38.7087L83.969 37.4701C84.3762 37.3941 84.6447 37.0024 84.5687 36.5952C84.4927 36.188 84.101 35.9196 83.6938 35.9956L77.7957 37.0966L76.6947 31.1984C76.6187 30.7912 76.227 30.5228 75.8198 30.5988C75.4126 30.6748 75.1441 31.0665 75.2202 31.4737L76.4587 38.1091ZM80.0476 21.999L80.735 21.6991L80.0476 21.999ZM68.8074 13.1642C68.4061 13.0619 67.9977 13.3043 67.8953 13.7056C67.793 14.107 68.0354 14.5154 68.4367 14.6177L68.8074 13.1642ZM77.8146 38.3955C80.5029 34.4733 83.6964 28.4879 80.735 21.6991L79.3601 22.2989C81.985 28.3161 79.2226 33.688 76.5774 37.5474L77.8146 38.3955ZM80.735 21.6991C78.8026 17.2693 74.4345 14.5993 68.8074 13.1642L68.4367 14.6177C73.8578 16.0002 77.694 18.4794 79.3601 22.2989L80.735 21.6991Z" fill="#873DE6"/>
</svg>
