<svg width="17" height="20" viewBox="0 0 17 20" fill="none" xmlns="http://www.w3.org/2000/svg">
<path opacity="1.0" fill-rule="evenodd" clip-rule="evenodd" d="M1.61872 3.07497H4.4001C4.50822 2.23387 4.87482 1.46458 5.43328 0.9082C5.99648 0.347104 6.74679 0 7.62235 0H10.221C11.0969 0 11.8472 0.347104 12.41 0.9082C12.9685 1.46458 13.3351 2.23423 13.4436 3.07497H16.2275C16.6524 3.07497 17 3.42135 17 3.84462C17 4.26789 16.6524 4.61427 16.2275 4.61427C11.3579 4.61427 6.48832 4.61427 1.61872 4.61427C1.19386 4.61427 0.846191 4.26789 0.846191 3.84462C0.846191 3.42135 1.19386 3.07497 1.61872 3.07497ZM4.64838 20H13.1978C14.554 20 15.6636 18.8945 15.6636 17.5431V6.15393H2.18264V17.5431C2.18264 18.8945 3.29228 20 4.64838 20ZM5.83265 9.02035C6.2575 9.02035 6.60518 9.36673 6.60518 9.79V16.3636C6.60518 16.7868 6.2575 17.1332 5.83265 17.1332C5.4078 17.1332 5.05976 16.7868 5.05976 16.3636V9.79C5.05976 9.36673 5.40744 9.02035 5.83265 9.02035ZM12.0136 9.02035C12.4388 9.02035 12.7865 9.36673 12.7865 9.79V16.3636C12.7865 16.7868 12.4388 17.1332 12.0136 17.1332C11.5887 17.1332 11.2411 16.7868 11.2411 16.3636V9.79C11.2411 9.36673 11.5887 9.02035 12.0136 9.02035ZM8.92311 9.02035C9.34797 9.02035 9.69564 9.36673 9.69564 9.79V16.3636C9.69564 16.7868 9.34797 17.1332 8.92311 17.1332C8.49826 17.1332 8.15059 16.7868 8.15059 16.3636V9.79C8.15059 9.36673 8.49826 9.02035 8.92311 9.02035ZM5.95861 3.07497H11.8847C11.7959 2.65025 11.5993 2.27159 11.3204 1.99376C11.0365 1.71086 10.6593 1.53531 10.221 1.53531H7.62235C7.18402 1.53531 6.80723 1.71049 6.5229 1.99376C6.24403 2.27159 6.04744 2.65025 5.95861 3.07497Z" fill="white"/>
</svg>
