<svg width="145" height="30" viewBox="0 0 145 30" fill="none" xmlns="http://www.w3.org/2000/svg">
<path fill-rule="evenodd" clip-rule="evenodd" d="M18.2401 0.0146947C16.4503 -0.134025 15.6153 0.855017 15.3936 2.57703C16.8692 2.43055 17.768 1.50972 18.2401 0.0146947ZM14.4967 0.152255C13.4813 1.34872 13.0353 2.6749 14.0523 4.33374C15.1069 2.86164 15.373 1.45719 14.4967 0.152255ZM17.6873 3.50228C16.2149 2.87218 14.9626 2.81907 14.3802 4.52711C15.9012 5.18237 16.8638 4.5081 17.6873 3.50228ZM16.0288 5.96243C14.4774 5.5336 13.4662 6.1391 12.9956 7.77837C14.3525 7.98412 15.3632 7.37862 16.0288 5.96243ZM12.2186 3.50297C13.3145 4.67875 13.2863 6.09047 12.5208 7.65594C11.4955 6.44997 11.257 5.09193 12.2186 3.50297ZM10.6164 6.78522C11.992 7.76196 12.2456 9.14908 11.843 10.7766C10.5583 10.0051 9.98214 8.7812 10.6164 6.78522ZM15.1601 8.61193C14.4626 10.4228 13.4383 10.8002 12.3329 10.8209C12.5342 9.15034 13.3996 8.31672 15.1601 8.61193ZM9.83358 10.6443C11.3353 11.4147 11.8817 12.6509 11.7891 14.1985C10.1959 13.7948 9.43568 12.7001 9.83358 10.6443ZM14.5543 11.0327C12.8947 11.3687 12.3106 12.5574 12.3117 14.2101C13.7705 13.7857 14.4518 12.6675 14.5543 11.0327ZM14.562 14.086C14.6895 15.9925 14.1128 17.0867 13.0132 17.5781C12.5657 15.6196 13.1377 14.5014 14.562 14.086ZM9.32867 15.1091C10.891 15.3081 12.0225 16.0115 12.3158 17.6938C10.6798 17.9728 9.73599 17.0184 9.32867 15.1091ZM10.6327 18.4982C12.2243 18.5731 13.1916 19.4436 13.6899 20.9124C12.1077 21.1584 11.0327 20.4578 10.6327 18.4982ZM15.0034 16.9005C13.794 17.7397 13.6319 18.9815 14.4168 20.5878C15.2361 19.5657 15.4667 18.348 15.0034 16.9005ZM16.0033 19.2034C15.1296 20.6448 15.1782 21.9123 16.3589 22.9667C17.0365 21.484 16.8775 20.2411 16.0033 19.2034ZM15.7155 23.6098C14.5066 21.9448 13.2292 21.7497 11.9294 22.051C12.9851 23.593 14.2065 24.3143 15.7155 23.6098ZM17.6838 21.289C18.6098 22.0996 19.2106 23.1015 18.5904 24.8241C17.2848 24.0213 17.0365 22.8226 17.6838 21.289ZM14.1686 24.9185C15.5552 24.3476 16.8567 24.4321 18.008 25.6789C16.6465 26.6897 15.3717 26.3604 14.1686 24.9185ZM19.6963 23.0566C20.7608 23.7673 21.6366 24.6339 21.4385 26.3827C19.7925 25.8203 19.3841 24.6232 19.6963 23.0566ZM20.9432 27.2757C19.3213 26.2743 18.139 26.6897 17.0682 27.4657C18.4784 28.6946 19.7699 28.6315 20.9432 27.2757ZM21.9673 24.7201C23.4407 25.1987 24.1523 26.1397 24.2428 27.4575C22.6533 27.16 21.8094 26.3113 21.9673 24.7201ZM23.9256 28.4989C21.7364 27.9146 20.7361 28.5995 20.1217 29.6965C21.8639 30.3489 23.1319 29.9497 23.9256 28.4989Z" fill="#BEC6D5"/>
<path d="M32.9153 5.828C32.8993 5.348 32.9553 4.904 33.0833 4.496C33.2113 4.08 33.4033 3.72 33.6593 3.416C33.9153 3.104 34.2353 2.864 34.6193 2.696C35.0113 2.52 35.4593 2.432 35.9633 2.432C36.3473 2.432 36.7113 2.492 37.0553 2.612C37.4073 2.732 37.7153 2.904 37.9793 3.128C38.2433 3.352 38.4513 3.628 38.6033 3.956C38.7633 4.284 38.8433 4.652 38.8433 5.06C38.8433 5.484 38.7753 5.848 38.6393 6.152C38.5033 6.456 38.3233 6.728 38.0993 6.968C37.8753 7.2 37.6193 7.412 37.3313 7.604C37.0513 7.796 36.7673 7.988 36.4793 8.18C36.1913 8.364 35.9113 8.564 35.6393 8.78C35.3673 8.996 35.1273 9.248 34.9193 9.536H38.8913V11H32.7233C32.7233 10.512 32.7913 10.088 32.9273 9.728C33.0713 9.368 33.2633 9.048 33.5033 8.768C33.7433 8.48 34.0233 8.216 34.3433 7.976C34.6713 7.736 35.0153 7.492 35.3753 7.244C35.5593 7.116 35.7553 6.988 35.9633 6.86C36.1713 6.724 36.3593 6.576 36.5273 6.416C36.7033 6.256 36.8473 6.076 36.9593 5.876C37.0793 5.676 37.1393 5.448 37.1393 5.192C37.1393 4.784 37.0193 4.468 36.7793 4.244C36.5473 4.012 36.2473 3.896 35.8793 3.896C35.6313 3.896 35.4193 3.956 35.2433 4.076C35.0753 4.188 34.9393 4.34 34.8353 4.532C34.7313 4.716 34.6553 4.924 34.6073 5.156C34.5673 5.38 34.5473 5.604 34.5473 5.828H32.9153ZM43.8433 11H42.1393V5.552H40.0273V4.268C40.3233 4.276 40.6073 4.256 40.8793 4.208C41.1593 4.152 41.4073 4.06 41.6233 3.932C41.8473 3.796 42.0353 3.62 42.1873 3.404C42.3393 3.188 42.4393 2.92 42.4873 2.6H43.8433V11ZM49.2392 6.644C49.0152 6.644 48.8152 6.688 48.6392 6.776C48.4712 6.856 48.3312 6.968 48.2192 7.112C48.1072 7.256 48.0232 7.424 47.9672 7.616C47.9112 7.8 47.8832 7.996 47.8832 8.204C47.8832 8.396 47.9112 8.588 47.9672 8.78C48.0312 8.964 48.1192 9.132 48.2312 9.284C48.3512 9.428 48.4952 9.544 48.6632 9.632C48.8312 9.72 49.0232 9.764 49.2392 9.764C49.4472 9.764 49.6272 9.72 49.7792 9.632C49.9392 9.544 50.0752 9.428 50.1872 9.284C50.2992 9.14 50.3832 8.976 50.4392 8.792C50.4952 8.608 50.5232 8.42 50.5232 8.228C50.5232 8.028 50.4952 7.836 50.4392 7.652C50.3912 7.46 50.3152 7.292 50.2112 7.148C50.1072 6.996 49.9712 6.876 49.8032 6.788C49.6432 6.692 49.4552 6.644 49.2392 6.644ZM50.4632 4.76C50.4072 4.48 50.2792 4.236 50.0792 4.028C49.8792 3.82 49.6312 3.716 49.3352 3.716C49.0312 3.716 48.7752 3.808 48.5672 3.992C48.3672 4.168 48.2072 4.388 48.0872 4.652C47.9672 4.908 47.8792 5.184 47.8232 5.48C47.7672 5.776 47.7352 6.04 47.7272 6.272L47.7512 6.296C47.9832 5.96 48.2552 5.72 48.5672 5.576C48.8792 5.432 49.2392 5.36 49.6472 5.36C50.0072 5.36 50.3592 5.44 50.7032 5.6C51.0472 5.752 51.3392 5.96 51.5792 6.224C51.8032 6.48 51.9672 6.772 52.0712 7.1C52.1752 7.428 52.2272 7.76 52.2272 8.096C52.2272 8.528 52.1552 8.932 52.0112 9.308C51.8752 9.676 51.6752 10 51.4112 10.28C51.1552 10.552 50.8472 10.768 50.4872 10.928C50.1272 11.08 49.7272 11.156 49.2872 11.156C48.6552 11.156 48.1312 11.032 47.7152 10.784C47.2992 10.528 46.9672 10.196 46.7192 9.788C46.4712 9.38 46.2992 8.92 46.2032 8.408C46.1072 7.888 46.0592 7.36 46.0592 6.824C46.0592 6.304 46.1192 5.784 46.2392 5.264C46.3592 4.744 46.5512 4.276 46.8152 3.86C47.0792 3.436 47.4192 3.092 47.8352 2.828C48.2512 2.564 48.7592 2.432 49.3592 2.432C49.7192 2.432 50.0552 2.484 50.3672 2.588C50.6792 2.692 50.9552 2.844 51.1952 3.044C51.4352 3.236 51.6312 3.476 51.7832 3.764C51.9352 4.052 52.0352 4.384 52.0832 4.76H50.4632ZM56.7232 7.328H59.1112V8.612H56.7232V11H55.4392V8.612H53.0512V7.328H55.4392V4.94H56.7232V7.328ZM65.1223 8.156C65.1223 8.444 65.1743 8.688 65.2783 8.888C65.3823 9.088 65.5183 9.252 65.6863 9.38C65.8623 9.5 66.0663 9.592 66.2983 9.656C66.5303 9.712 66.7703 9.74 67.0183 9.74C67.1863 9.74 67.3663 9.728 67.5583 9.704C67.7503 9.672 67.9303 9.616 68.0983 9.536C68.2663 9.456 68.4063 9.348 68.5183 9.212C68.6303 9.068 68.6863 8.888 68.6863 8.672C68.6863 8.44 68.6103 8.252 68.4583 8.108C68.3143 7.964 68.1223 7.844 67.8823 7.748C67.6423 7.652 67.3703 7.568 67.0663 7.496C66.7623 7.424 66.4543 7.344 66.1423 7.256C65.8223 7.176 65.5103 7.08 65.2063 6.968C64.9023 6.848 64.6303 6.696 64.3903 6.512C64.1503 6.328 63.9543 6.1 63.8023 5.828C63.6583 5.548 63.5863 5.212 63.5863 4.82C63.5863 4.38 63.6783 4 63.8623 3.68C64.0543 3.352 64.3023 3.08 64.6063 2.864C64.9103 2.648 65.2543 2.488 65.6383 2.384C66.0223 2.28 66.4063 2.228 66.7903 2.228C67.2383 2.228 67.6663 2.28 68.0743 2.384C68.4903 2.48 68.8583 2.64 69.1783 2.864C69.4983 3.088 69.7503 3.376 69.9343 3.728C70.1263 4.072 70.2223 4.492 70.2223 4.988H68.3983C68.3823 4.732 68.3263 4.52 68.2303 4.352C68.1423 4.184 68.0223 4.052 67.8703 3.956C67.7183 3.86 67.5423 3.792 67.3423 3.752C67.1503 3.712 66.9383 3.692 66.7063 3.692C66.5543 3.692 66.4023 3.708 66.2503 3.74C66.0983 3.772 65.9583 3.828 65.8303 3.908C65.7103 3.988 65.6103 4.088 65.5303 4.208C65.4503 4.328 65.4103 4.48 65.4103 4.664C65.4103 4.832 65.4423 4.968 65.5063 5.072C65.5703 5.176 65.6943 5.272 65.8783 5.36C66.0703 5.448 66.3303 5.536 66.6583 5.624C66.9943 5.712 67.4303 5.824 67.9663 5.96C68.1263 5.992 68.3463 6.052 68.6263 6.14C68.9143 6.22 69.1983 6.352 69.4783 6.536C69.7583 6.72 69.9983 6.968 70.1983 7.28C70.4063 7.584 70.5103 7.976 70.5103 8.456C70.5103 8.848 70.4343 9.212 70.2823 9.548C70.1303 9.884 69.9023 10.176 69.5983 10.424C69.3023 10.664 68.9303 10.852 68.4823 10.988C68.0423 11.124 67.5303 11.192 66.9463 11.192C66.4743 11.192 66.0143 11.132 65.5663 11.012C65.1263 10.9 64.7343 10.72 64.3903 10.472C64.0543 10.224 63.7863 9.908 63.5863 9.524C63.3863 9.14 63.2903 8.684 63.2983 8.156H65.1223ZM71.3793 6.704C71.4033 6.304 71.5033 5.972 71.6793 5.708C71.8553 5.444 72.0793 5.232 72.3513 5.072C72.6233 4.912 72.9273 4.8 73.2633 4.736C73.6073 4.664 73.9513 4.628 74.2953 4.628C74.6073 4.628 74.9233 4.652 75.2433 4.7C75.5633 4.74 75.8553 4.824 76.1193 4.952C76.3833 5.08 76.5993 5.26 76.7673 5.492C76.9353 5.716 77.0193 6.016 77.0193 6.392V9.62C77.0193 9.9 77.0353 10.168 77.0673 10.424C77.0993 10.68 77.1553 10.872 77.2353 11H75.5073C75.4753 10.904 75.4473 10.808 75.4233 10.712C75.4073 10.608 75.3953 10.504 75.3873 10.4C75.1153 10.68 74.7953 10.876 74.4273 10.988C74.0593 11.1 73.6833 11.156 73.2993 11.156C73.0033 11.156 72.7273 11.12 72.4713 11.048C72.2153 10.976 71.9913 10.864 71.7993 10.712C71.6073 10.56 71.4553 10.368 71.3433 10.136C71.2393 9.904 71.1873 9.628 71.1873 9.308C71.1873 8.956 71.2473 8.668 71.3673 8.444C71.4953 8.212 71.6553 8.028 71.8473 7.892C72.0473 7.756 72.2713 7.656 72.5193 7.592C72.7753 7.52 73.0313 7.464 73.2873 7.424C73.5433 7.384 73.7953 7.352 74.0433 7.328C74.2913 7.304 74.5113 7.268 74.7033 7.22C74.8953 7.172 75.0473 7.104 75.1593 7.016C75.2713 6.92 75.3233 6.784 75.3153 6.608C75.3153 6.424 75.2833 6.28 75.2193 6.176C75.1633 6.064 75.0833 5.98 74.9793 5.924C74.8833 5.86 74.7673 5.82 74.6313 5.804C74.5033 5.78 74.3633 5.768 74.2113 5.768C73.8753 5.768 73.6113 5.84 73.4193 5.984C73.2273 6.128 73.1153 6.368 73.0833 6.704H71.3793ZM75.3153 7.964C75.2433 8.028 75.1513 8.08 75.0393 8.12C74.9353 8.152 74.8193 8.18 74.6913 8.204C74.5713 8.228 74.4433 8.248 74.3073 8.264C74.1713 8.28 74.0353 8.3 73.8993 8.324C73.7713 8.348 73.6433 8.38 73.5153 8.42C73.3953 8.46 73.2873 8.516 73.1913 8.588C73.1033 8.652 73.0313 8.736 72.9753 8.84C72.9193 8.944 72.8913 9.076 72.8913 9.236C72.8913 9.388 72.9193 9.516 72.9753 9.62C73.0313 9.724 73.1073 9.808 73.2033 9.872C73.2993 9.928 73.4113 9.968 73.5393 9.992C73.6673 10.016 73.7993 10.028 73.9353 10.028C74.2713 10.028 74.5313 9.972 74.7153 9.86C74.8993 9.748 75.0353 9.616 75.1233 9.464C75.2113 9.304 75.2633 9.144 75.2793 8.984C75.3033 8.824 75.3153 8.696 75.3153 8.6V7.964ZM80.5019 4.796H81.7499V5.936H80.5019V9.008C80.5019 9.296 80.5499 9.488 80.6459 9.584C80.7419 9.68 80.9339 9.728 81.2219 9.728C81.3179 9.728 81.4099 9.724 81.4979 9.716C81.5859 9.708 81.6699 9.696 81.7499 9.68V11C81.6059 11.024 81.4459 11.04 81.2699 11.048C81.0939 11.056 80.9219 11.06 80.7539 11.06C80.4899 11.06 80.2379 11.04 79.9979 11C79.7659 10.968 79.5579 10.9 79.3739 10.796C79.1979 10.692 79.0579 10.544 78.9539 10.352C78.8499 10.16 78.7979 9.908 78.7979 9.596V5.936H77.7659V4.796H78.7979V2.936H80.5019V4.796ZM84.3127 3.836H82.6087V2.432H84.3127V3.836ZM82.6087 4.796H84.3127V11H82.6087V4.796ZM86.9744 8.984C86.9744 9.168 87.0104 9.328 87.0824 9.464C87.1624 9.592 87.2624 9.7 87.3824 9.788C87.5024 9.868 87.6384 9.928 87.7904 9.968C87.9504 10.008 88.1144 10.028 88.2824 10.028C88.4024 10.028 88.5264 10.016 88.6544 9.992C88.7904 9.96 88.9104 9.916 89.0144 9.86C89.1264 9.796 89.2184 9.716 89.2904 9.62C89.3624 9.516 89.3984 9.388 89.3984 9.236C89.3984 8.98 89.2264 8.788 88.8824 8.66C88.5464 8.532 88.0744 8.404 87.4664 8.276C87.2184 8.22 86.9744 8.156 86.7344 8.084C86.5024 8.004 86.2944 7.904 86.1104 7.784C85.9264 7.656 85.7784 7.5 85.6664 7.316C85.5544 7.124 85.4984 6.892 85.4984 6.62C85.4984 6.22 85.5744 5.892 85.7264 5.636C85.8864 5.38 86.0944 5.18 86.3504 5.036C86.6064 4.884 86.8944 4.78 87.2144 4.724C87.5344 4.66 87.8624 4.628 88.1984 4.628C88.5344 4.628 88.8584 4.66 89.1704 4.724C89.4904 4.788 89.7744 4.896 90.0224 5.048C90.2704 5.2 90.4744 5.404 90.6344 5.66C90.8024 5.908 90.9024 6.224 90.9344 6.608H89.3144C89.2904 6.28 89.1664 6.06 88.9424 5.948C88.7184 5.828 88.4544 5.768 88.1504 5.768C88.0544 5.768 87.9504 5.776 87.8384 5.792C87.7264 5.8 87.6224 5.824 87.5264 5.864C87.4384 5.904 87.3624 5.964 87.2984 6.044C87.2344 6.116 87.2024 6.216 87.2024 6.344C87.2024 6.496 87.2584 6.62 87.3704 6.716C87.4824 6.812 87.6264 6.892 87.8024 6.956C87.9864 7.012 88.1944 7.064 88.4264 7.112C88.6584 7.16 88.8944 7.212 89.1344 7.268C89.3824 7.324 89.6224 7.392 89.8544 7.472C90.0944 7.552 90.3064 7.66 90.4904 7.796C90.6744 7.924 90.8224 8.088 90.9344 8.288C91.0464 8.48 91.1024 8.72 91.1024 9.008C91.1024 9.416 91.0184 9.76 90.8504 10.04C90.6904 10.312 90.4784 10.532 90.2144 10.7C89.9504 10.868 89.6464 10.984 89.3024 11.048C88.9664 11.12 88.6224 11.156 88.2704 11.156C87.9104 11.156 87.5584 11.12 87.2144 11.048C86.8704 10.976 86.5624 10.856 86.2904 10.688C86.0264 10.52 85.8064 10.3 85.6304 10.028C85.4624 9.748 85.3704 9.4 85.3544 8.984H86.9744ZM92.4718 5.936H91.4518V4.796H92.4718V4.316C92.4718 3.764 92.6438 3.312 92.9878 2.96C93.3318 2.608 93.8518 2.432 94.5478 2.432C94.6998 2.432 94.8518 2.44 95.0038 2.456C95.1558 2.464 95.3038 2.472 95.4478 2.48V3.752C95.2478 3.728 95.0398 3.716 94.8238 3.716C94.5918 3.716 94.4238 3.772 94.3198 3.884C94.2238 3.988 94.1758 4.168 94.1758 4.424V4.796H95.3518V5.936H94.1758V11H92.4718V5.936ZM96.3838 4.796H98.0878V11H96.3838V4.796ZM98.0878 3.836H96.3838V2.432H98.0878V3.836ZM103.612 7.232C103.532 6.8 103.388 6.472 103.18 6.248C102.98 6.024 102.672 5.912 102.256 5.912C101.984 5.912 101.756 5.96 101.572 6.056C101.396 6.144 101.252 6.256 101.14 6.392C101.036 6.528 100.96 6.672 100.912 6.824C100.872 6.976 100.848 7.112 100.84 7.232H103.612ZM100.84 8.312C100.864 8.864 101.004 9.264 101.26 9.512C101.516 9.76 101.884 9.884 102.364 9.884C102.708 9.884 103.004 9.8 103.252 9.632C103.5 9.456 103.652 9.272 103.708 9.08H105.208C104.968 9.824 104.6 10.356 104.104 10.676C103.608 10.996 103.008 11.156 102.304 11.156C101.816 11.156 101.376 11.08 100.984 10.928C100.592 10.768 100.26 10.544 99.9877 10.256C99.7157 9.968 99.5037 9.624 99.3517 9.224C99.2077 8.824 99.1357 8.384 99.1357 7.904C99.1357 7.44 99.2117 7.008 99.3637 6.608C99.5157 6.208 99.7317 5.864 100.012 5.576C100.292 5.28 100.624 5.048 101.008 4.88C101.4 4.712 101.832 4.628 102.304 4.628C102.832 4.628 103.292 4.732 103.684 4.94C104.076 5.14 104.396 5.412 104.644 5.756C104.9 6.1 105.084 6.492 105.196 6.932C105.308 7.372 105.348 7.832 105.316 8.312H100.84ZM110.73 7.88C110.73 7.624 110.706 7.38 110.658 7.148C110.61 6.908 110.526 6.7 110.406 6.524C110.294 6.34 110.146 6.192 109.962 6.08C109.778 5.968 109.546 5.912 109.266 5.912C108.986 5.912 108.75 5.968 108.558 6.08C108.366 6.192 108.21 6.34 108.09 6.524C107.978 6.708 107.894 6.92 107.838 7.16C107.79 7.392 107.766 7.636 107.766 7.892C107.766 8.132 107.794 8.372 107.85 8.612C107.906 8.852 107.994 9.068 108.114 9.26C108.242 9.444 108.398 9.596 108.582 9.716C108.774 9.828 109.002 9.884 109.266 9.884C109.546 9.884 109.778 9.828 109.962 9.716C110.154 9.604 110.306 9.456 110.418 9.272C110.53 9.08 110.61 8.864 110.658 8.624C110.706 8.384 110.73 8.136 110.73 7.88ZM110.754 10.208H110.73C110.53 10.544 110.266 10.788 109.938 10.94C109.618 11.084 109.254 11.156 108.846 11.156C108.382 11.156 107.974 11.068 107.622 10.892C107.27 10.708 106.978 10.464 106.746 10.16C106.522 9.848 106.35 9.492 106.23 9.092C106.118 8.692 106.062 8.276 106.062 7.844C106.062 7.428 106.118 7.028 106.23 6.644C106.35 6.252 106.522 5.908 106.746 5.612C106.978 5.316 107.266 5.08 107.61 4.904C107.954 4.72 108.354 4.628 108.81 4.628C109.178 4.628 109.526 4.708 109.854 4.868C110.19 5.02 110.454 5.248 110.646 5.552H110.67V2.432H112.374V11H110.754V10.208Z" fill="#1F1F23"/>
<path d="M39.2614 20.012C39.1334 19.404 38.8494 18.948 38.4094 18.644C37.9774 18.34 37.4614 18.188 36.8614 18.188C36.3494 18.188 35.9094 18.284 35.5414 18.476C35.1814 18.668 34.8814 18.928 34.6414 19.256C34.4094 19.576 34.2374 19.944 34.1254 20.36C34.0134 20.776 33.9574 21.208 33.9574 21.656C33.9574 22.144 34.0134 22.608 34.1254 23.048C34.2374 23.48 34.4094 23.86 34.6414 24.188C34.8814 24.508 35.1854 24.764 35.5534 24.956C35.9214 25.148 36.3614 25.244 36.8734 25.244C37.2494 25.244 37.5814 25.184 37.8694 25.064C38.1654 24.936 38.4174 24.764 38.6254 24.548C38.8414 24.324 39.0094 24.06 39.1294 23.756C39.2494 23.452 39.3214 23.124 39.3454 22.772H40.4854C40.3734 23.852 40.0014 24.692 39.3694 25.292C38.7374 25.892 37.8734 26.192 36.7774 26.192C36.1134 26.192 35.5334 26.08 35.0374 25.856C34.5414 25.624 34.1294 25.308 33.8014 24.908C33.4734 24.508 33.2254 24.036 33.0574 23.492C32.8974 22.948 32.8174 22.364 32.8174 21.74C32.8174 21.116 32.9054 20.532 33.0814 19.988C33.2574 19.436 33.5134 18.956 33.8494 18.548C34.1934 18.14 34.6174 17.82 35.1214 17.588C35.6334 17.348 36.2174 17.228 36.8734 17.228C37.3214 17.228 37.7454 17.288 38.1454 17.408C38.5454 17.528 38.9014 17.704 39.2134 17.936C39.5254 18.168 39.7854 18.46 39.9934 18.812C40.2014 19.156 40.3374 19.556 40.4014 20.012H39.2614ZM41.5615 22.184H45.0295V23.144H41.5615V22.184ZM51.5176 19.94C51.4536 19.324 51.2296 18.88 50.8456 18.608C50.4696 18.328 49.9856 18.188 49.3936 18.188C49.1536 18.188 48.9176 18.212 48.6856 18.26C48.4536 18.308 48.2456 18.388 48.0616 18.5C47.8856 18.612 47.7416 18.764 47.6296 18.956C47.5256 19.14 47.4736 19.372 47.4736 19.652C47.4736 19.916 47.5496 20.132 47.7016 20.3C47.8616 20.46 48.0696 20.592 48.3256 20.696C48.5896 20.8 48.8856 20.888 49.2136 20.96C49.5416 21.024 49.8736 21.096 50.2096 21.176C50.5536 21.256 50.8896 21.352 51.2176 21.464C51.5456 21.568 51.8376 21.712 52.0936 21.896C52.3576 22.08 52.5656 22.312 52.7176 22.592C52.8776 22.872 52.9576 23.224 52.9576 23.648C52.9576 24.104 52.8536 24.496 52.6456 24.824C52.4456 25.144 52.1856 25.408 51.8656 25.616C51.5456 25.816 51.1856 25.96 50.7856 26.048C50.3936 26.144 50.0016 26.192 49.6096 26.192C49.1296 26.192 48.6736 26.132 48.2416 26.012C47.8176 25.892 47.4416 25.712 47.1136 25.472C46.7936 25.224 46.5376 24.912 46.3456 24.536C46.1616 24.152 46.0696 23.7 46.0696 23.18H47.1496C47.1496 23.54 47.2176 23.852 47.3536 24.116C47.4976 24.372 47.6816 24.584 47.9056 24.752C48.1376 24.92 48.4056 25.044 48.7096 25.124C49.0136 25.204 49.3256 25.244 49.6456 25.244C49.9016 25.244 50.1576 25.22 50.4136 25.172C50.6776 25.124 50.9136 25.044 51.1216 24.932C51.3296 24.812 51.4976 24.652 51.6256 24.452C51.7536 24.252 51.8176 23.996 51.8176 23.684C51.8176 23.388 51.7376 23.148 51.5776 22.964C51.4256 22.78 51.2176 22.632 50.9536 22.52C50.6976 22.4 50.4056 22.304 50.0776 22.232C49.7496 22.16 49.4136 22.088 49.0696 22.016C48.7336 21.936 48.4016 21.848 48.0736 21.752C47.7456 21.648 47.4496 21.516 47.1856 21.356C46.9296 21.188 46.7216 20.976 46.5616 20.72C46.4096 20.456 46.3336 20.128 46.3336 19.736C46.3336 19.304 46.4216 18.932 46.5976 18.62C46.7736 18.3 47.0056 18.04 47.2936 17.84C47.5896 17.632 47.9216 17.48 48.2896 17.384C48.6656 17.28 49.0496 17.228 49.4416 17.228C49.8816 17.228 50.2896 17.28 50.6656 17.384C51.0416 17.488 51.3696 17.652 51.6496 17.876C51.9376 18.1 52.1616 18.384 52.3216 18.728C52.4896 19.064 52.5816 19.468 52.5976 19.94H51.5176ZM59.3108 26H58.3508V25.016H58.3268C58.1108 25.4 57.8348 25.684 57.4988 25.868C57.1628 26.044 56.7668 26.132 56.3108 26.132C55.9028 26.132 55.5628 26.08 55.2908 25.976C55.0188 25.864 54.7988 25.708 54.6308 25.508C54.4628 25.308 54.3428 25.072 54.2708 24.8C54.2068 24.52 54.1748 24.212 54.1748 23.876V19.796H55.1948V23.996C55.1948 24.38 55.3068 24.684 55.5308 24.908C55.7548 25.132 56.0628 25.244 56.4548 25.244C56.7668 25.244 57.0348 25.196 57.2588 25.1C57.4908 25.004 57.6828 24.868 57.8348 24.692C57.9868 24.516 58.0988 24.312 58.1708 24.08C58.2508 23.84 58.2908 23.58 58.2908 23.3V19.796H59.3108V26ZM61.9228 18.68H60.9028V17.432H61.9228V18.68ZM60.9028 19.796H61.9228V26H60.9028V19.796ZM64.919 19.796H66.155V20.696H64.919V24.548C64.919 24.668 64.927 24.764 64.943 24.836C64.967 24.908 65.007 24.964 65.063 25.004C65.119 25.044 65.195 25.072 65.291 25.088C65.395 25.096 65.527 25.1 65.687 25.1H66.155V26H65.375C65.111 26 64.883 25.984 64.691 25.952C64.507 25.912 64.355 25.844 64.235 25.748C64.123 25.652 64.039 25.516 63.983 25.34C63.927 25.164 63.899 24.932 63.899 24.644V20.696H62.843V19.796H63.899V17.936H64.919V19.796ZM71.5961 22.304C71.5801 22.064 71.5241 21.836 71.4281 21.62C71.3401 21.404 71.2161 21.22 71.0561 21.068C70.9041 20.908 70.7201 20.784 70.5041 20.696C70.2961 20.6 70.0641 20.552 69.8081 20.552C69.5441 20.552 69.3041 20.6 69.0881 20.696C68.8801 20.784 68.7001 20.908 68.5481 21.068C68.3961 21.228 68.2761 21.416 68.1881 21.632C68.1001 21.84 68.0481 22.064 68.0321 22.304H71.5961ZM72.5801 24.032C72.4441 24.728 72.1441 25.252 71.6801 25.604C71.2161 25.956 70.6321 26.132 69.9281 26.132C69.4321 26.132 69.0001 26.052 68.6321 25.892C68.2721 25.732 67.9681 25.508 67.7201 25.22C67.4721 24.932 67.2841 24.588 67.1561 24.188C67.0361 23.788 66.9681 23.352 66.9521 22.88C66.9521 22.408 67.0241 21.976 67.1681 21.584C67.3121 21.192 67.5121 20.852 67.7681 20.564C68.0321 20.276 68.3401 20.052 68.6921 19.892C69.0521 19.732 69.4441 19.652 69.8681 19.652C70.4201 19.652 70.8761 19.768 71.2361 20C71.6041 20.224 71.8961 20.512 72.1121 20.864C72.3361 21.216 72.4881 21.6 72.5681 22.016C72.6561 22.432 72.6921 22.828 72.6761 23.204H68.0321C68.0241 23.476 68.0561 23.736 68.1281 23.984C68.2001 24.224 68.3161 24.44 68.4761 24.632C68.6361 24.816 68.8401 24.964 69.0881 25.076C69.3361 25.188 69.6281 25.244 69.9641 25.244C70.3961 25.244 70.7481 25.144 71.0201 24.944C71.3001 24.744 71.4841 24.44 71.5721 24.032H72.5801ZM83.2653 20.012C83.1373 19.404 82.8533 18.948 82.4133 18.644C81.9813 18.34 81.4653 18.188 80.8653 18.188C80.3533 18.188 79.9133 18.284 79.5453 18.476C79.1853 18.668 78.8853 18.928 78.6453 19.256C78.4133 19.576 78.2413 19.944 78.1293 20.36C78.0173 20.776 77.9613 21.208 77.9613 21.656C77.9613 22.144 78.0173 22.608 78.1293 23.048C78.2413 23.48 78.4133 23.86 78.6453 24.188C78.8853 24.508 79.1893 24.764 79.5573 24.956C79.9253 25.148 80.3653 25.244 80.8773 25.244C81.2533 25.244 81.5853 25.184 81.8733 25.064C82.1693 24.936 82.4213 24.764 82.6293 24.548C82.8453 24.324 83.0133 24.06 83.1333 23.756C83.2533 23.452 83.3253 23.124 83.3493 22.772H84.4893C84.3773 23.852 84.0053 24.692 83.3733 25.292C82.7413 25.892 81.8773 26.192 80.7813 26.192C80.1173 26.192 79.5373 26.08 79.0413 25.856C78.5453 25.624 78.1333 25.308 77.8053 24.908C77.4773 24.508 77.2293 24.036 77.0613 23.492C76.9013 22.948 76.8213 22.364 76.8213 21.74C76.8213 21.116 76.9093 20.532 77.0853 19.988C77.2613 19.436 77.5173 18.956 77.8533 18.548C78.1973 18.14 78.6213 17.82 79.1253 17.588C79.6373 17.348 80.2213 17.228 80.8773 17.228C81.3253 17.228 81.7493 17.288 82.1493 17.408C82.5493 17.528 82.9053 17.704 83.2173 17.936C83.5293 18.168 83.7893 18.46 83.9973 18.812C84.2053 19.156 84.3413 19.556 84.4053 20.012H83.2653ZM85.7934 17.432H86.8134V26H85.7934V17.432ZM89.4736 18.68H88.4536V17.432H89.4736V18.68ZM88.4536 19.796H89.4736V26H88.4536V19.796ZM95.3617 22.304C95.3457 22.064 95.2897 21.836 95.1937 21.62C95.1057 21.404 94.9817 21.22 94.8217 21.068C94.6697 20.908 94.4857 20.784 94.2697 20.696C94.0617 20.6 93.8297 20.552 93.5737 20.552C93.3097 20.552 93.0697 20.6 92.8537 20.696C92.6457 20.784 92.4657 20.908 92.3137 21.068C92.1617 21.228 92.0417 21.416 91.9537 21.632C91.8657 21.84 91.8137 22.064 91.7977 22.304H95.3617ZM96.3457 24.032C96.2097 24.728 95.9097 25.252 95.4457 25.604C94.9817 25.956 94.3977 26.132 93.6937 26.132C93.1977 26.132 92.7657 26.052 92.3977 25.892C92.0377 25.732 91.7337 25.508 91.4857 25.22C91.2377 24.932 91.0497 24.588 90.9217 24.188C90.8017 23.788 90.7337 23.352 90.7177 22.88C90.7177 22.408 90.7897 21.976 90.9337 21.584C91.0777 21.192 91.2777 20.852 91.5337 20.564C91.7977 20.276 92.1057 20.052 92.4577 19.892C92.8177 19.732 93.2097 19.652 93.6337 19.652C94.1857 19.652 94.6417 19.768 95.0017 20C95.3697 20.224 95.6617 20.512 95.8777 20.864C96.1017 21.216 96.2537 21.6 96.3337 22.016C96.4217 22.432 96.4577 22.828 96.4417 23.204H91.7977C91.7897 23.476 91.8217 23.736 91.8937 23.984C91.9657 24.224 92.0817 24.44 92.2417 24.632C92.4017 24.816 92.6057 24.964 92.8537 25.076C93.1017 25.188 93.3937 25.244 93.7297 25.244C94.1617 25.244 94.5137 25.144 94.7857 24.944C95.0657 24.744 95.2497 24.44 95.3377 24.032H96.3457ZM97.499 19.796H98.459V20.78H98.483C98.907 20.028 99.579 19.652 100.499 19.652C100.907 19.652 101.247 19.708 101.519 19.82C101.791 19.932 102.011 20.088 102.179 20.288C102.347 20.488 102.463 20.728 102.527 21.008C102.599 21.28 102.635 21.584 102.635 21.92V26H101.615V21.8C101.615 21.416 101.503 21.112 101.279 20.888C101.055 20.664 100.747 20.552 100.355 20.552C100.043 20.552 99.771 20.6 99.539 20.696C99.315 20.792 99.127 20.928 98.975 21.104C98.823 21.28 98.707 21.488 98.627 21.728C98.555 21.96 98.519 22.216 98.519 22.496V26H97.499V19.796ZM105.583 19.796H106.819V20.696H105.583V24.548C105.583 24.668 105.591 24.764 105.607 24.836C105.631 24.908 105.671 24.964 105.727 25.004C105.783 25.044 105.859 25.072 105.955 25.088C106.059 25.096 106.191 25.1 106.351 25.1H106.819V26H106.039C105.775 26 105.547 25.984 105.355 25.952C105.171 25.912 105.019 25.844 104.899 25.748C104.787 25.652 104.703 25.516 104.647 25.34C104.591 25.164 104.563 24.932 104.563 24.644V20.696H103.507V19.796H104.563V17.936H105.583V19.796ZM108.576 24.044C108.584 24.268 108.636 24.46 108.732 24.62C108.828 24.772 108.952 24.896 109.104 24.992C109.264 25.08 109.44 25.144 109.632 25.184C109.832 25.224 110.036 25.244 110.244 25.244C110.404 25.244 110.572 25.232 110.748 25.208C110.924 25.184 111.084 25.14 111.228 25.076C111.38 25.012 111.504 24.92 111.6 24.8C111.696 24.672 111.744 24.512 111.744 24.32C111.744 24.056 111.644 23.856 111.444 23.72C111.244 23.584 110.992 23.476 110.688 23.396C110.392 23.308 110.068 23.232 109.716 23.168C109.364 23.096 109.036 23 108.732 22.88C108.436 22.752 108.188 22.576 107.988 22.352C107.788 22.128 107.688 21.816 107.688 21.416C107.688 21.104 107.756 20.836 107.892 20.612C108.036 20.388 108.216 20.208 108.432 20.072C108.656 19.928 108.904 19.824 109.176 19.76C109.456 19.688 109.732 19.652 110.004 19.652C110.356 19.652 110.68 19.684 110.976 19.748C111.272 19.804 111.532 19.908 111.756 20.06C111.988 20.204 112.172 20.404 112.308 20.66C112.444 20.908 112.524 21.22 112.548 21.596H111.528C111.512 21.396 111.46 21.232 111.372 21.104C111.284 20.968 111.172 20.86 111.036 20.78C110.9 20.7 110.748 20.644 110.58 20.612C110.42 20.572 110.256 20.552 110.088 20.552C109.936 20.552 109.78 20.564 109.62 20.588C109.468 20.612 109.328 20.656 109.2 20.72C109.072 20.776 108.968 20.856 108.888 20.96C108.808 21.056 108.768 21.184 108.768 21.344C108.768 21.52 108.828 21.668 108.948 21.788C109.076 21.9 109.236 21.996 109.428 22.076C109.62 22.148 109.836 22.212 110.076 22.268C110.316 22.316 110.556 22.368 110.796 22.424C111.052 22.48 111.3 22.548 111.54 22.628C111.788 22.708 112.004 22.816 112.188 22.952C112.38 23.08 112.532 23.244 112.644 23.444C112.764 23.644 112.824 23.892 112.824 24.188C112.824 24.564 112.744 24.876 112.584 25.124C112.432 25.372 112.228 25.572 111.972 25.724C111.724 25.876 111.44 25.98 111.12 26.036C110.808 26.1 110.496 26.132 110.184 26.132C109.84 26.132 109.512 26.096 109.2 26.024C108.888 25.952 108.612 25.836 108.372 25.676C108.132 25.508 107.94 25.292 107.796 25.028C107.652 24.756 107.572 24.428 107.556 24.044H108.576Z" fill="#4C4C4C"/>
<path fill-rule="evenodd" clip-rule="evenodd" d="M127.246 0.0146947C129.036 -0.134025 129.871 0.855017 130.093 2.57703C128.617 2.43055 127.718 1.50972 127.246 0.0146947ZM130.99 0.152255C132.005 1.34872 132.451 2.6749 131.434 4.33374C130.38 2.86164 130.113 1.45719 130.99 0.152255ZM127.799 3.50228C129.272 2.87218 130.524 2.81907 131.106 4.52711C129.585 5.18237 128.623 4.5081 127.799 3.50228ZM129.457 5.96243C131.008 5.5336 132.019 6.1391 132.49 7.77837C131.133 7.98412 130.122 7.37862 129.457 5.96243ZM133.268 3.50297C132.172 4.67875 132.2 6.09047 132.965 7.65594C133.991 6.44997 134.229 5.09193 133.268 3.50297ZM134.87 6.78522C133.494 7.76196 133.241 9.14908 133.643 10.7766C134.928 10.0051 135.504 8.7812 134.87 6.78522ZM130.326 8.61193C131.024 10.4228 132.048 10.8002 133.153 10.8209C132.952 9.15034 132.087 8.31672 130.326 8.61193ZM135.653 10.6443C134.152 11.4147 133.605 12.6509 133.698 14.1985C135.291 13.7948 136.051 12.7001 135.653 10.6443ZM130.932 11.0327C132.591 11.3687 133.175 12.5574 133.174 14.2101C131.715 13.7857 131.034 12.6675 130.932 11.0327ZM130.924 14.086C130.796 15.9925 131.373 17.0867 132.473 17.5781C132.92 15.6196 132.348 14.5014 130.924 14.086ZM136.157 15.109C134.595 15.308 133.464 16.0114 133.17 17.6937C134.806 17.9727 135.75 17.0183 136.157 15.109ZM134.854 18.4982C133.262 18.5731 132.295 19.4436 131.796 20.9124C133.379 21.1584 134.454 20.4578 134.854 18.4982ZM130.483 16.9005C131.693 17.7397 131.855 18.9815 131.07 20.5878C130.25 19.5657 130.02 18.348 130.483 16.9005ZM129.483 19.2034C130.357 20.6448 130.308 21.9123 129.128 22.9667C128.45 21.484 128.609 20.2411 129.483 19.2034ZM129.77 23.6098C130.979 21.9448 132.257 21.7497 133.556 22.051C132.501 23.593 131.279 24.3143 129.77 23.6098ZM127.802 21.289C126.876 22.0996 126.276 23.1015 126.896 24.8241C128.201 24.0213 128.45 22.8226 127.802 21.289ZM131.317 24.9185C129.931 24.3476 128.629 24.4321 127.478 25.6789C128.84 26.6897 130.114 26.3604 131.317 24.9185ZM125.791 23.0566C124.726 23.7673 123.85 24.6339 124.048 26.3827C125.694 25.8203 126.103 24.6232 125.791 23.0566ZM124.544 27.2757C126.166 26.2743 127.348 26.6897 128.419 27.4657C127.008 28.6946 125.717 28.6315 124.544 27.2757ZM123.518 24.72C122.045 25.1986 121.333 26.1396 121.243 27.4573C122.832 27.1599 123.676 26.3112 123.518 24.72ZM121.561 28.4989C123.75 27.9146 124.75 28.5995 125.364 29.6965C123.622 30.3489 122.354 29.9497 121.561 28.4989Z" fill="#BEC6D5"/>
</svg>
