<svg width="144" height="30" viewBox="0 0 144 30" fill="none" xmlns="http://www.w3.org/2000/svg">
<path fill-rule="evenodd" clip-rule="evenodd" d="M8.91145 0.0146947C7.12167 -0.134025 6.28665 0.855017 6.06495 2.57703C7.54049 2.43055 8.4393 1.50972 8.91145 0.0146947ZM5.16802 0.152255C4.1526 1.34872 3.7066 2.6749 4.72358 4.33374C5.7782 2.86164 6.04434 1.45719 5.16802 0.152255ZM8.35864 3.50228C6.88624 2.87218 5.63397 2.81907 5.05149 4.52711C6.57252 5.18237 7.53512 4.5081 8.35864 3.50228ZM6.7001 5.96243C5.14875 5.5336 4.13752 6.1391 3.66694 7.77837C5.02378 7.98412 6.03449 7.37862 6.7001 5.96243ZM2.88991 3.50297C3.98585 4.67875 3.95761 6.09047 3.19213 7.65594C2.16679 6.44997 1.92836 5.09193 2.88991 3.50297ZM1.28771 6.78522C2.66337 7.76196 2.91697 9.14908 2.51436 10.7766C1.22967 10.0051 0.653466 8.7812 1.28771 6.78522ZM5.83141 8.61193C5.13391 10.4228 4.10961 10.8002 3.00426 10.8209C3.20557 9.15034 4.07091 8.31672 5.83141 8.61193ZM0.504909 10.6443C2.00659 11.4147 2.55299 12.6509 2.46044 14.1985C0.867257 13.7948 0.107006 12.7001 0.504909 10.6443ZM5.2256 11.0327C3.56601 11.3687 2.98197 12.5574 2.98301 14.2101C4.44182 13.7857 5.12311 12.6675 5.2256 11.0327ZM5.23329 14.086C5.36087 15.9925 4.78415 17.0867 3.68455 17.5781C3.23698 15.6196 3.809 14.5014 5.23329 14.086ZM0 15.1091C1.56233 15.3081 2.69382 16.0115 2.98715 17.6938C1.35109 17.9728 0.407315 17.0184 0 15.1091ZM1.30399 18.4982C2.8956 18.5731 3.86291 19.4436 4.3612 20.9124C2.779 21.1584 1.70398 20.4578 1.30399 18.4982ZM5.67476 16.9005C4.46536 17.7397 4.30327 18.9815 5.0881 20.5878C5.90743 19.5657 6.13802 18.348 5.67476 16.9005ZM6.67464 19.2034C5.80092 20.6448 5.84955 21.9123 7.03019 22.9667C7.70783 21.484 7.54887 20.2411 6.67464 19.2034ZM6.3868 23.6098C5.17793 21.9448 3.90056 21.7497 2.60071 22.051C3.65638 23.593 4.8778 24.3143 6.3868 23.6098ZM8.35512 21.289C9.28112 22.0996 9.8819 23.1015 9.26178 24.8241C7.95617 24.0213 7.70781 22.8226 8.35512 21.289ZM4.83992 24.9185C6.22657 24.3476 7.52799 24.4321 8.67935 25.6789C7.3178 26.6897 6.04304 26.3604 4.83992 24.9185ZM10.3676 23.0566C11.4321 23.7673 12.308 24.6339 12.1098 26.3827C10.4638 25.8203 10.0554 24.6232 10.3676 23.0566ZM11.6145 27.2757C9.99258 26.2743 8.81037 26.6897 7.73954 27.4657C9.14971 28.6946 10.4412 28.6315 11.6145 27.2757ZM12.6386 24.7201C14.112 25.1987 14.8237 26.1397 14.9141 27.4575C13.3246 27.16 12.4807 26.3113 12.6386 24.7201ZM14.5969 28.4989C12.4077 27.9146 11.4074 28.5995 10.7931 29.6965C12.5353 30.3489 13.8032 29.9497 14.5969 28.4989Z" fill="#BEC6D5"/>
<path d="M26.3503 5.828C26.3343 5.348 26.3903 4.904 26.5183 4.496C26.6463 4.08 26.8383 3.72 27.0943 3.416C27.3503 3.104 27.6703 2.864 28.0543 2.696C28.4463 2.52 28.8943 2.432 29.3983 2.432C29.7823 2.432 30.1463 2.492 30.4903 2.612C30.8423 2.732 31.1503 2.904 31.4143 3.128C31.6783 3.352 31.8863 3.628 32.0383 3.956C32.1983 4.284 32.2783 4.652 32.2783 5.06C32.2783 5.484 32.2103 5.848 32.0743 6.152C31.9383 6.456 31.7583 6.728 31.5343 6.968C31.3103 7.2 31.0543 7.412 30.7663 7.604C30.4863 7.796 30.2023 7.988 29.9143 8.18C29.6263 8.364 29.3463 8.564 29.0743 8.78C28.8023 8.996 28.5623 9.248 28.3543 9.536H32.3263V11H26.1583C26.1583 10.512 26.2263 10.088 26.3623 9.728C26.5063 9.368 26.6983 9.048 26.9383 8.768C27.1783 8.48 27.4583 8.216 27.7783 7.976C28.1063 7.736 28.4503 7.492 28.8103 7.244C28.9943 7.116 29.1903 6.988 29.3983 6.86C29.6063 6.724 29.7943 6.576 29.9623 6.416C30.1383 6.256 30.2823 6.076 30.3943 5.876C30.5143 5.676 30.5743 5.448 30.5743 5.192C30.5743 4.784 30.4543 4.468 30.2143 4.244C29.9823 4.012 29.6823 3.896 29.3143 3.896C29.0663 3.896 28.8543 3.956 28.6783 4.076C28.5103 4.188 28.3743 4.34 28.2703 4.532C28.1663 4.716 28.0903 4.924 28.0423 5.156C28.0023 5.38 27.9823 5.604 27.9823 5.828H26.3503ZM36.3182 4.736H36.2822L34.1102 7.652H36.3182V4.736ZM36.3182 9.056H32.7662V7.496L36.4142 2.6H37.9382V7.652H39.0542V9.056H37.9382V11H36.3182V9.056ZM39.8902 2.432H41.5942V5.66H41.6302C41.8462 5.3 42.1222 5.04 42.4582 4.88C42.7942 4.712 43.1222 4.628 43.4422 4.628C43.8982 4.628 44.2702 4.692 44.5582 4.82C44.8542 4.94 45.0862 5.112 45.2542 5.336C45.4222 5.552 45.5382 5.82 45.6022 6.14C45.6742 6.452 45.7102 6.8 45.7102 7.184V11H44.0062V7.496C44.0062 6.984 43.9262 6.604 43.7662 6.356C43.6062 6.1 43.3222 5.972 42.9142 5.972C42.4502 5.972 42.1142 6.112 41.9062 6.392C41.6982 6.664 41.5942 7.116 41.5942 7.748V11H39.8902V2.432ZM47.0035 4.796H48.6235V5.948H48.6475C48.7275 5.756 48.8355 5.58 48.9715 5.42C49.1075 5.252 49.2635 5.112 49.4395 5C49.6155 4.88 49.8035 4.788 50.0035 4.724C50.2035 4.66 50.4115 4.628 50.6275 4.628C50.7395 4.628 50.8635 4.648 50.9995 4.688V6.272C50.9195 6.256 50.8235 6.244 50.7115 6.236C50.5995 6.22 50.4915 6.212 50.3875 6.212C50.0755 6.212 49.8115 6.264 49.5955 6.368C49.3795 6.472 49.2035 6.616 49.0675 6.8C48.9395 6.976 48.8475 7.184 48.7915 7.424C48.7355 7.664 48.7075 7.924 48.7075 8.204V11H47.0035V4.796ZM57.1674 4.796H58.4154V5.936H57.1674V9.008C57.1674 9.296 57.2154 9.488 57.3114 9.584C57.4074 9.68 57.5994 9.728 57.8874 9.728C57.9834 9.728 58.0754 9.724 58.1634 9.716C58.2514 9.708 58.3354 9.696 58.4154 9.68V11C58.2714 11.024 58.1114 11.04 57.9354 11.048C57.7594 11.056 57.5874 11.06 57.4194 11.06C57.1554 11.06 56.9034 11.04 56.6634 11C56.4314 10.968 56.2234 10.9 56.0394 10.796C55.8634 10.692 55.7234 10.544 55.6194 10.352C55.5154 10.16 55.4634 9.908 55.4634 9.596V5.936H54.4314V4.796H55.4634V2.936H57.1674V4.796ZM65.0462 11H63.4262V10.136H63.3902C63.1742 10.496 62.8942 10.756 62.5502 10.916C62.2062 11.076 61.8542 11.156 61.4942 11.156C61.0382 11.156 60.6622 11.096 60.3662 10.976C60.0782 10.856 59.8502 10.688 59.6822 10.472C59.5142 10.248 59.3942 9.98 59.3222 9.668C59.2582 9.348 59.2262 8.996 59.2262 8.612V4.796H60.9302V8.3C60.9302 8.812 61.0102 9.196 61.1702 9.452C61.3302 9.7 61.6142 9.824 62.0222 9.824C62.4862 9.824 62.8222 9.688 63.0302 9.416C63.2382 9.136 63.3422 8.68 63.3422 8.048V4.796H65.0462V11ZM66.3394 4.796H67.9594V5.948H67.9834C68.0634 5.756 68.1714 5.58 68.3074 5.42C68.4434 5.252 68.5994 5.112 68.7754 5C68.9514 4.88 69.1394 4.788 69.3394 4.724C69.5394 4.66 69.7474 4.628 69.9634 4.628C70.0754 4.628 70.1994 4.648 70.3354 4.688V6.272C70.2554 6.256 70.1594 6.244 70.0474 6.236C69.9354 6.22 69.8274 6.212 69.7234 6.212C69.4114 6.212 69.1474 6.264 68.9314 6.368C68.7154 6.472 68.5394 6.616 68.4034 6.8C68.2754 6.976 68.1834 7.184 68.1274 7.424C68.0714 7.664 68.0434 7.924 68.0434 8.204V11H66.3394V4.796ZM71.2144 4.796H72.8344V5.66H72.8704C73.0864 5.3 73.3664 5.04 73.7104 4.88C74.0544 4.712 74.4064 4.628 74.7664 4.628C75.2224 4.628 75.5944 4.692 75.8824 4.82C76.1784 4.94 76.4104 5.112 76.5784 5.336C76.7464 5.552 76.8624 5.82 76.9264 6.14C76.9984 6.452 77.0344 6.8 77.0344 7.184V11H75.3304V7.496C75.3304 6.984 75.2504 6.604 75.0904 6.356C74.9304 6.1 74.6464 5.972 74.2384 5.972C73.7744 5.972 73.4384 6.112 73.2304 6.392C73.0224 6.664 72.9184 7.116 72.9184 7.748V11H71.2144V4.796ZM78.2557 6.704C78.2797 6.304 78.3797 5.972 78.5557 5.708C78.7317 5.444 78.9557 5.232 79.2277 5.072C79.4997 4.912 79.8037 4.8 80.1397 4.736C80.4837 4.664 80.8277 4.628 81.1717 4.628C81.4837 4.628 81.7997 4.652 82.1197 4.7C82.4397 4.74 82.7317 4.824 82.9957 4.952C83.2597 5.08 83.4757 5.26 83.6437 5.492C83.8117 5.716 83.8957 6.016 83.8957 6.392V9.62C83.8957 9.9 83.9117 10.168 83.9437 10.424C83.9757 10.68 84.0317 10.872 84.1117 11H82.3837C82.3517 10.904 82.3237 10.808 82.2997 10.712C82.2837 10.608 82.2717 10.504 82.2637 10.4C81.9917 10.68 81.6717 10.876 81.3037 10.988C80.9357 11.1 80.5597 11.156 80.1757 11.156C79.8797 11.156 79.6037 11.12 79.3477 11.048C79.0917 10.976 78.8677 10.864 78.6757 10.712C78.4837 10.56 78.3317 10.368 78.2197 10.136C78.1157 9.904 78.0637 9.628 78.0637 9.308C78.0637 8.956 78.1237 8.668 78.2437 8.444C78.3717 8.212 78.5317 8.028 78.7237 7.892C78.9237 7.756 79.1477 7.656 79.3957 7.592C79.6517 7.52 79.9077 7.464 80.1637 7.424C80.4197 7.384 80.6717 7.352 80.9197 7.328C81.1677 7.304 81.3877 7.268 81.5797 7.22C81.7717 7.172 81.9237 7.104 82.0357 7.016C82.1477 6.92 82.1997 6.784 82.1917 6.608C82.1917 6.424 82.1597 6.28 82.0957 6.176C82.0397 6.064 81.9597 5.98 81.8557 5.924C81.7597 5.86 81.6437 5.82 81.5077 5.804C81.3797 5.78 81.2397 5.768 81.0877 5.768C80.7517 5.768 80.4877 5.84 80.2957 5.984C80.1037 6.128 79.9917 6.368 79.9597 6.704H78.2557ZM82.1917 7.964C82.1197 8.028 82.0277 8.08 81.9157 8.12C81.8117 8.152 81.6957 8.18 81.5677 8.204C81.4477 8.228 81.3197 8.248 81.1837 8.264C81.0477 8.28 80.9117 8.3 80.7757 8.324C80.6477 8.348 80.5197 8.38 80.3917 8.42C80.2717 8.46 80.1637 8.516 80.0677 8.588C79.9797 8.652 79.9077 8.736 79.8517 8.84C79.7957 8.944 79.7677 9.076 79.7677 9.236C79.7677 9.388 79.7957 9.516 79.8517 9.62C79.9077 9.724 79.9837 9.808 80.0797 9.872C80.1757 9.928 80.2877 9.968 80.4157 9.992C80.5437 10.016 80.6757 10.028 80.8117 10.028C81.1477 10.028 81.4077 9.972 81.5917 9.86C81.7757 9.748 81.9117 9.616 81.9997 9.464C82.0877 9.304 82.1397 9.144 82.1557 8.984C82.1797 8.824 82.1917 8.696 82.1917 8.6V7.964ZM85.2183 4.796H86.8383V5.948H86.8623C86.9423 5.756 87.0503 5.58 87.1863 5.42C87.3223 5.252 87.4783 5.112 87.6543 5C87.8303 4.88 88.0183 4.788 88.2183 4.724C88.4183 4.66 88.6263 4.628 88.8423 4.628C88.9543 4.628 89.0783 4.648 89.2143 4.688V6.272C89.1343 6.256 89.0383 6.244 88.9263 6.236C88.8143 6.22 88.7063 6.212 88.6023 6.212C88.2903 6.212 88.0263 6.264 87.8103 6.368C87.5943 6.472 87.4183 6.616 87.2823 6.8C87.1543 6.976 87.0623 7.184 87.0063 7.424C86.9503 7.664 86.9223 7.924 86.9223 8.204V11H85.2183V4.796ZM91.1835 7.904C91.1835 8.152 91.2075 8.396 91.2555 8.636C91.3035 8.868 91.3835 9.08 91.4955 9.272C91.6155 9.456 91.7715 9.604 91.9635 9.716C92.1555 9.828 92.3955 9.884 92.6835 9.884C92.9715 9.884 93.2115 9.828 93.4035 9.716C93.6035 9.604 93.7595 9.456 93.8715 9.272C93.9915 9.08 94.0755 8.868 94.1235 8.636C94.1715 8.396 94.1955 8.152 94.1955 7.904C94.1955 7.656 94.1715 7.412 94.1235 7.172C94.0755 6.932 93.9915 6.72 93.8715 6.536C93.7595 6.352 93.6035 6.204 93.4035 6.092C93.2115 5.972 92.9715 5.912 92.6835 5.912C92.3955 5.912 92.1555 5.972 91.9635 6.092C91.7715 6.204 91.6155 6.352 91.4955 6.536C91.3835 6.72 91.3035 6.932 91.2555 7.172C91.2075 7.412 91.1835 7.656 91.1835 7.904ZM89.4795 7.904C89.4795 7.408 89.5555 6.96 89.7075 6.56C89.8595 6.152 90.0755 5.808 90.3555 5.528C90.6355 5.24 90.9715 5.02 91.3635 4.868C91.7555 4.708 92.1955 4.628 92.6835 4.628C93.1715 4.628 93.6115 4.708 94.0035 4.868C94.4035 5.02 94.7435 5.24 95.0235 5.528C95.3035 5.808 95.5195 6.152 95.6715 6.56C95.8235 6.96 95.8995 7.408 95.8995 7.904C95.8995 8.4 95.8235 8.848 95.6715 9.248C95.5195 9.648 95.3035 9.992 95.0235 10.28C94.7435 10.56 94.4035 10.776 94.0035 10.928C93.6115 11.08 93.1715 11.156 92.6835 11.156C92.1955 11.156 91.7555 11.08 91.3635 10.928C90.9715 10.776 90.6355 10.56 90.3555 10.28C90.0755 9.992 89.8595 9.648 89.7075 9.248C89.5555 8.848 89.4795 8.4 89.4795 7.904ZM102.827 11H101.207V10.136H101.171C100.955 10.496 100.675 10.756 100.331 10.916C99.9874 11.076 99.6354 11.156 99.2754 11.156C98.8194 11.156 98.4434 11.096 98.1474 10.976C97.8594 10.856 97.6314 10.688 97.4634 10.472C97.2954 10.248 97.1754 9.98 97.1034 9.668C97.0394 9.348 97.0074 8.996 97.0074 8.612V4.796H98.7114V8.3C98.7114 8.812 98.7914 9.196 98.9514 9.452C99.1114 9.7 99.3954 9.824 99.8034 9.824C100.267 9.824 100.603 9.688 100.811 9.416C101.019 9.136 101.123 8.68 101.123 8.048V4.796H102.827V11ZM104.121 4.796H105.741V5.66H105.777C105.993 5.3 106.273 5.04 106.617 4.88C106.961 4.712 107.313 4.628 107.673 4.628C108.129 4.628 108.501 4.692 108.789 4.82C109.085 4.94 109.317 5.112 109.485 5.336C109.653 5.552 109.769 5.82 109.833 6.14C109.905 6.452 109.941 6.8 109.941 7.184V11H108.237V7.496C108.237 6.984 108.157 6.604 107.997 6.356C107.837 6.1 107.553 5.972 107.145 5.972C106.681 5.972 106.345 6.112 106.137 6.392C105.929 6.664 105.825 7.116 105.825 7.748V11H104.121V4.796ZM115.638 7.88C115.638 7.624 115.614 7.38 115.566 7.148C115.518 6.908 115.434 6.7 115.314 6.524C115.202 6.34 115.054 6.192 114.87 6.08C114.686 5.968 114.454 5.912 114.174 5.912C113.894 5.912 113.658 5.968 113.466 6.08C113.274 6.192 113.118 6.34 112.998 6.524C112.886 6.708 112.802 6.92 112.746 7.16C112.698 7.392 112.674 7.636 112.674 7.892C112.674 8.132 112.702 8.372 112.758 8.612C112.814 8.852 112.902 9.068 113.022 9.26C113.15 9.444 113.306 9.596 113.49 9.716C113.682 9.828 113.91 9.884 114.174 9.884C114.454 9.884 114.686 9.828 114.87 9.716C115.062 9.604 115.214 9.456 115.326 9.272C115.438 9.08 115.518 8.864 115.566 8.624C115.614 8.384 115.638 8.136 115.638 7.88ZM115.662 10.208H115.638C115.438 10.544 115.174 10.788 114.846 10.94C114.526 11.084 114.162 11.156 113.754 11.156C113.29 11.156 112.882 11.068 112.53 10.892C112.178 10.708 111.886 10.464 111.654 10.16C111.43 9.848 111.258 9.492 111.138 9.092C111.026 8.692 110.97 8.276 110.97 7.844C110.97 7.428 111.026 7.028 111.138 6.644C111.258 6.252 111.43 5.908 111.654 5.612C111.886 5.316 112.174 5.08 112.518 4.904C112.862 4.72 113.262 4.628 113.718 4.628C114.086 4.628 114.434 4.708 114.762 4.868C115.098 5.02 115.362 5.248 115.554 5.552H115.578V2.432H117.282V11H115.662V10.208Z" fill="#1F1F23"/>
<path d="M27.5181 26H26.4981V19.904H24.2901V19.088C24.5781 19.088 24.8581 19.068 25.1301 19.028C25.4021 18.98 25.6461 18.896 25.8621 18.776C26.0861 18.656 26.2741 18.492 26.4261 18.284C26.5781 18.076 26.6821 17.812 26.7381 17.492H27.5181V26ZM31.4981 21.812C31.4981 22.132 31.5061 22.492 31.5221 22.892C31.5461 23.284 31.6101 23.656 31.7141 24.008C31.8261 24.352 32.0021 24.644 32.2421 24.884C32.4821 25.124 32.8181 25.244 33.2501 25.244C33.6821 25.244 34.0181 25.124 34.2581 24.884C34.4981 24.644 34.6701 24.352 34.7741 24.008C34.8861 23.656 34.9501 23.284 34.9661 22.892C34.9901 22.492 35.0021 22.132 35.0021 21.812C35.0021 21.604 34.9981 21.376 34.9901 21.128C34.9901 20.872 34.9701 20.62 34.9301 20.372C34.8981 20.116 34.8461 19.868 34.7741 19.628C34.7101 19.388 34.6101 19.18 34.4741 19.004C34.3461 18.82 34.1821 18.672 33.9821 18.56C33.7821 18.448 33.5381 18.392 33.2501 18.392C32.9621 18.392 32.7181 18.448 32.5181 18.56C32.3181 18.672 32.1501 18.82 32.0141 19.004C31.8861 19.18 31.7861 19.388 31.7141 19.628C31.6501 19.868 31.5981 20.116 31.5581 20.372C31.5261 20.62 31.5061 20.872 31.4981 21.128C31.4981 21.376 31.4981 21.604 31.4981 21.812ZM30.4181 21.824C30.4181 21.512 30.4261 21.188 30.4421 20.852C30.4581 20.516 30.4981 20.188 30.5621 19.868C30.6261 19.548 30.7181 19.244 30.8381 18.956C30.9581 18.668 31.1221 18.416 31.3301 18.2C31.5381 17.984 31.7981 17.812 32.1101 17.684C32.4301 17.556 32.8101 17.492 33.2501 17.492C33.6901 17.492 34.0661 17.556 34.3781 17.684C34.6981 17.812 34.9621 17.984 35.1701 18.2C35.3781 18.416 35.5421 18.668 35.6621 18.956C35.7821 19.244 35.8741 19.548 35.9381 19.868C36.0021 20.188 36.0421 20.516 36.0581 20.852C36.0741 21.188 36.0821 21.512 36.0821 21.824C36.0821 22.136 36.0741 22.46 36.0581 22.796C36.0421 23.132 36.0021 23.46 35.9381 23.78C35.8741 24.1 35.7821 24.404 35.6621 24.692C35.5421 24.972 35.3781 25.22 35.1701 25.436C34.9621 25.652 34.7021 25.824 34.3901 25.952C34.0781 26.072 33.6981 26.132 33.2501 26.132C32.8101 26.132 32.4301 26.072 32.1101 25.952C31.7981 25.824 31.5381 25.652 31.3301 25.436C31.1221 25.22 30.9581 24.972 30.8381 24.692C30.7181 24.404 30.6261 24.1 30.5621 23.78C30.4981 23.46 30.4581 23.132 30.4421 22.796C30.4261 22.46 30.4181 22.136 30.4181 21.824ZM38.1661 21.812C38.1661 22.132 38.1741 22.492 38.1901 22.892C38.2141 23.284 38.2781 23.656 38.3821 24.008C38.4941 24.352 38.6701 24.644 38.9101 24.884C39.1501 25.124 39.4861 25.244 39.9181 25.244C40.3501 25.244 40.6861 25.124 40.9261 24.884C41.1661 24.644 41.3381 24.352 41.4421 24.008C41.5541 23.656 41.6181 23.284 41.6341 22.892C41.6581 22.492 41.6701 22.132 41.6701 21.812C41.6701 21.604 41.6661 21.376 41.6581 21.128C41.6581 20.872 41.6381 20.62 41.5981 20.372C41.5661 20.116 41.5141 19.868 41.4421 19.628C41.3781 19.388 41.2781 19.18 41.1421 19.004C41.0141 18.82 40.8501 18.672 40.6501 18.56C40.4501 18.448 40.2061 18.392 39.9181 18.392C39.6301 18.392 39.3861 18.448 39.1861 18.56C38.9861 18.672 38.8181 18.82 38.6821 19.004C38.5541 19.18 38.4541 19.388 38.3821 19.628C38.3181 19.868 38.2661 20.116 38.2261 20.372C38.1941 20.62 38.1741 20.872 38.1661 21.128C38.1661 21.376 38.1661 21.604 38.1661 21.812ZM37.0861 21.824C37.0861 21.512 37.0941 21.188 37.1101 20.852C37.1261 20.516 37.1661 20.188 37.2301 19.868C37.2941 19.548 37.3861 19.244 37.5061 18.956C37.6261 18.668 37.7901 18.416 37.9981 18.2C38.2061 17.984 38.4661 17.812 38.7781 17.684C39.0981 17.556 39.4781 17.492 39.9181 17.492C40.3581 17.492 40.7341 17.556 41.0461 17.684C41.3661 17.812 41.6301 17.984 41.8381 18.2C42.0461 18.416 42.2101 18.668 42.3301 18.956C42.4501 19.244 42.5421 19.548 42.6061 19.868C42.6701 20.188 42.7101 20.516 42.7261 20.852C42.7421 21.188 42.7501 21.512 42.7501 21.824C42.7501 22.136 42.7421 22.46 42.7261 22.796C42.7101 23.132 42.6701 23.46 42.6061 23.78C42.5421 24.1 42.4501 24.404 42.3301 24.692C42.2101 24.972 42.0461 25.22 41.8381 25.436C41.6301 25.652 41.3701 25.824 41.0581 25.952C40.7461 26.072 40.3661 26.132 39.9181 26.132C39.4781 26.132 39.0981 26.072 38.7781 25.952C38.4661 25.824 38.2061 25.652 37.9981 25.436C37.7901 25.22 37.6261 24.972 37.5061 24.692C37.3861 24.404 37.2941 24.1 37.2301 23.78C37.1661 23.46 37.1261 23.132 37.1101 22.796C37.0941 22.46 37.0861 22.136 37.0861 21.824ZM45.254 19.904C45.254 20.08 45.262 20.272 45.278 20.48C45.302 20.68 45.35 20.868 45.422 21.044C45.494 21.212 45.594 21.356 45.722 21.476C45.858 21.588 46.038 21.644 46.262 21.644C46.494 21.644 46.678 21.588 46.814 21.476C46.95 21.364 47.054 21.224 47.126 21.056C47.206 20.88 47.258 20.688 47.282 20.48C47.306 20.272 47.318 20.076 47.318 19.892C47.318 19.716 47.306 19.528 47.282 19.328C47.266 19.12 47.222 18.932 47.15 18.764C47.078 18.588 46.974 18.444 46.838 18.332C46.71 18.212 46.53 18.152 46.298 18.152C46.074 18.152 45.894 18.212 45.758 18.332C45.622 18.444 45.514 18.588 45.434 18.764C45.362 18.932 45.314 19.12 45.29 19.328C45.266 19.528 45.254 19.72 45.254 19.904ZM44.354 19.928C44.354 19.6 44.386 19.292 44.45 19.004C44.514 18.708 44.622 18.448 44.774 18.224C44.926 18 45.126 17.824 45.374 17.696C45.622 17.56 45.93 17.492 46.298 17.492C46.674 17.492 46.982 17.556 47.222 17.684C47.47 17.812 47.666 17.984 47.81 18.2C47.962 18.416 48.066 18.672 48.122 18.968C48.186 19.256 48.218 19.564 48.218 19.892C48.218 20.204 48.182 20.508 48.11 20.804C48.046 21.092 47.934 21.348 47.774 21.572C47.622 21.788 47.426 21.964 47.186 22.1C46.946 22.236 46.65 22.304 46.298 22.304C45.938 22.304 45.634 22.244 45.386 22.124C45.138 21.996 44.938 21.824 44.786 21.608C44.634 21.392 44.522 21.14 44.45 20.852C44.386 20.564 44.354 20.256 44.354 19.928ZM51.182 23.744C51.182 23.92 51.19 24.112 51.206 24.32C51.23 24.52 51.278 24.708 51.35 24.884C51.422 25.052 51.522 25.196 51.65 25.316C51.786 25.428 51.966 25.484 52.19 25.484C52.422 25.484 52.606 25.428 52.742 25.316C52.878 25.204 52.982 25.064 53.054 24.896C53.134 24.72 53.186 24.528 53.21 24.32C53.234 24.112 53.246 23.916 53.246 23.732C53.246 23.556 53.234 23.368 53.21 23.168C53.194 22.96 53.15 22.772 53.078 22.604C53.006 22.428 52.902 22.284 52.766 22.172C52.638 22.052 52.458 21.992 52.226 21.992C52.002 21.992 51.822 22.052 51.686 22.172C51.55 22.284 51.442 22.428 51.362 22.604C51.29 22.772 51.242 22.96 51.218 23.168C51.194 23.368 51.182 23.56 51.182 23.744ZM50.282 23.768C50.282 23.44 50.314 23.132 50.378 22.844C50.442 22.548 50.55 22.288 50.702 22.064C50.854 21.84 51.054 21.664 51.302 21.536C51.55 21.4 51.858 21.332 52.226 21.332C52.602 21.332 52.91 21.396 53.15 21.524C53.398 21.652 53.594 21.824 53.738 22.04C53.89 22.256 53.994 22.512 54.05 22.808C54.114 23.096 54.146 23.404 54.146 23.732C54.146 24.044 54.11 24.348 54.038 24.644C53.974 24.932 53.862 25.188 53.702 25.412C53.55 25.628 53.354 25.804 53.114 25.94C52.874 26.068 52.578 26.132 52.226 26.132C51.866 26.132 51.562 26.072 51.314 25.952C51.066 25.824 50.866 25.656 50.714 25.448C50.562 25.232 50.45 24.98 50.378 24.692C50.314 24.404 50.282 24.096 50.282 23.768ZM51.962 17.336H52.982L46.538 26.252H45.506L51.962 17.336ZM63.5699 21.788C63.4899 21.396 63.3219 21.092 63.0659 20.876C62.8099 20.66 62.4659 20.552 62.0339 20.552C61.6659 20.552 61.3579 20.62 61.1099 20.756C60.8619 20.892 60.6619 21.072 60.5099 21.296C60.3659 21.52 60.2619 21.78 60.1979 22.076C60.1339 22.364 60.1019 22.664 60.1019 22.976C60.1019 23.264 60.1339 23.544 60.1979 23.816C60.2699 24.088 60.3779 24.332 60.5219 24.548C60.6659 24.756 60.8539 24.924 61.0859 25.052C61.3179 25.18 61.5939 25.244 61.9139 25.244C62.4179 25.244 62.8099 25.112 63.0899 24.848C63.3779 24.584 63.5539 24.212 63.6179 23.732H64.6619C64.5499 24.5 64.2619 25.092 63.7979 25.508C63.3419 25.924 62.7179 26.132 61.9259 26.132C61.4539 26.132 61.0339 26.056 60.6659 25.904C60.3059 25.752 60.0019 25.536 59.7539 25.256C59.5139 24.976 59.3299 24.644 59.2019 24.26C59.0819 23.868 59.0219 23.44 59.0219 22.976C59.0219 22.512 59.0819 22.08 59.2019 21.68C59.3219 21.272 59.5019 20.92 59.7419 20.624C59.9899 20.32 60.2979 20.084 60.6659 19.916C61.0339 19.74 61.4619 19.652 61.9499 19.652C62.3019 19.652 62.6299 19.696 62.9339 19.784C63.2459 19.864 63.5179 19.992 63.7499 20.168C63.9899 20.344 64.1859 20.568 64.3379 20.84C64.4899 21.104 64.5859 21.42 64.6259 21.788H63.5699ZM66.5472 22.904C66.5472 23.28 66.5952 23.616 66.6912 23.912C66.7952 24.2 66.9352 24.444 67.1112 24.644C67.2872 24.836 67.4912 24.984 67.7232 25.088C67.9632 25.192 68.2152 25.244 68.4792 25.244C68.7432 25.244 68.9912 25.192 69.2232 25.088C69.4632 24.984 69.6712 24.836 69.8472 24.644C70.0232 24.444 70.1592 24.2 70.2552 23.912C70.3592 23.616 70.4112 23.28 70.4112 22.904C70.4112 22.528 70.3592 22.196 70.2552 21.908C70.1592 21.612 70.0232 21.364 69.8472 21.164C69.6712 20.964 69.4632 20.812 69.2232 20.708C68.9912 20.604 68.7432 20.552 68.4792 20.552C68.2152 20.552 67.9632 20.604 67.7232 20.708C67.4912 20.812 67.2872 20.964 67.1112 21.164C66.9352 21.364 66.7952 21.612 66.6912 21.908C66.5952 22.196 66.5472 22.528 66.5472 22.904ZM65.4672 22.904C65.4672 22.448 65.5312 22.024 65.6592 21.632C65.7872 21.232 65.9792 20.888 66.2352 20.6C66.4912 20.304 66.8072 20.072 67.1832 19.904C67.5592 19.736 67.9912 19.652 68.4792 19.652C68.9752 19.652 69.4072 19.736 69.7752 19.904C70.1512 20.072 70.4672 20.304 70.7232 20.6C70.9792 20.888 71.1712 21.232 71.2992 21.632C71.4272 22.024 71.4912 22.448 71.4912 22.904C71.4912 23.36 71.4272 23.784 71.2992 24.176C71.1712 24.568 70.9792 24.912 70.7232 25.208C70.4672 25.496 70.1512 25.724 69.7752 25.892C69.4072 26.052 68.9752 26.132 68.4792 26.132C67.9912 26.132 67.5592 26.052 67.1832 25.892C66.8072 25.724 66.4912 25.496 66.2352 25.208C65.9792 24.912 65.7872 24.568 65.6592 24.176C65.5312 23.784 65.4672 23.36 65.4672 22.904ZM72.6938 19.796H73.6538V20.78H73.6778C74.1018 20.028 74.7738 19.652 75.6938 19.652C76.1018 19.652 76.4418 19.708 76.7138 19.82C76.9858 19.932 77.2058 20.088 77.3738 20.288C77.5418 20.488 77.6578 20.728 77.7218 21.008C77.7938 21.28 77.8298 21.584 77.8298 21.92V26H76.8098V21.8C76.8098 21.416 76.6978 21.112 76.4738 20.888C76.2498 20.664 75.9418 20.552 75.5498 20.552C75.2378 20.552 74.9658 20.6 74.7338 20.696C74.5098 20.792 74.3218 20.928 74.1698 21.104C74.0178 21.28 73.9018 21.488 73.8218 21.728C73.7498 21.96 73.7138 22.216 73.7138 22.496V26H72.6938V19.796ZM82.9738 26V19.796H83.9938V26H82.9738ZM82.9738 18.68V17.432H83.9938V18.68H82.9738ZM79.7818 20.696H78.7378V19.796H79.7818V18.872C79.7818 18.368 79.9258 17.988 80.2138 17.732C80.5098 17.468 80.9378 17.336 81.4978 17.336C81.5938 17.336 81.7018 17.344 81.8218 17.36C81.9498 17.376 82.0618 17.4 82.1578 17.432V18.32C82.0698 18.288 81.9738 18.268 81.8698 18.26C81.7658 18.244 81.6698 18.236 81.5818 18.236C81.3338 18.236 81.1418 18.284 81.0058 18.38C80.8698 18.476 80.8018 18.66 80.8018 18.932V19.796H82.0018V20.696H80.8018V26H79.7818V20.696ZM86.3167 22.952C86.3167 23.24 86.3527 23.524 86.4247 23.804C86.5047 24.076 86.6207 24.32 86.7727 24.536C86.9327 24.752 87.1327 24.924 87.3727 25.052C87.6207 25.18 87.9087 25.244 88.2367 25.244C88.5807 25.244 88.8727 25.176 89.1127 25.04C89.3527 24.904 89.5487 24.728 89.7007 24.512C89.8527 24.288 89.9607 24.036 90.0247 23.756C90.0967 23.476 90.1327 23.192 90.1327 22.904C90.1327 22.6 90.0967 22.308 90.0247 22.028C89.9527 21.74 89.8367 21.488 89.6767 21.272C89.5247 21.056 89.3247 20.884 89.0767 20.756C88.8287 20.62 88.5287 20.552 88.1767 20.552C87.8327 20.552 87.5407 20.62 87.3007 20.756C87.0607 20.892 86.8687 21.072 86.7247 21.296C86.5807 21.52 86.4767 21.776 86.4127 22.064C86.3487 22.352 86.3167 22.648 86.3167 22.952ZM91.1167 26H90.0967V25.16H90.0727C89.9047 25.504 89.6407 25.752 89.2807 25.904C88.9207 26.056 88.5247 26.132 88.0927 26.132C87.6127 26.132 87.1927 26.044 86.8327 25.868C86.4807 25.692 86.1847 25.456 85.9447 25.16C85.7127 24.864 85.5367 24.52 85.4167 24.128C85.2967 23.736 85.2367 23.32 85.2367 22.88C85.2367 22.44 85.2927 22.024 85.4047 21.632C85.5247 21.24 85.7007 20.9 85.9327 20.612C86.1727 20.316 86.4687 20.084 86.8207 19.916C87.1807 19.74 87.5967 19.652 88.0687 19.652C88.2287 19.652 88.4007 19.668 88.5847 19.7C88.7687 19.732 88.9527 19.788 89.1367 19.868C89.3207 19.94 89.4927 20.04 89.6527 20.168C89.8207 20.288 89.9607 20.44 90.0727 20.624H90.0967V17.432H91.1167V26ZM96.994 22.304C96.978 22.064 96.922 21.836 96.826 21.62C96.738 21.404 96.614 21.22 96.454 21.068C96.302 20.908 96.118 20.784 95.902 20.696C95.694 20.6 95.462 20.552 95.206 20.552C94.942 20.552 94.702 20.6 94.486 20.696C94.278 20.784 94.098 20.908 93.946 21.068C93.794 21.228 93.674 21.416 93.586 21.632C93.498 21.84 93.446 22.064 93.43 22.304H96.994ZM97.978 24.032C97.842 24.728 97.542 25.252 97.078 25.604C96.614 25.956 96.03 26.132 95.326 26.132C94.83 26.132 94.398 26.052 94.03 25.892C93.67 25.732 93.366 25.508 93.118 25.22C92.87 24.932 92.682 24.588 92.554 24.188C92.434 23.788 92.366 23.352 92.35 22.88C92.35 22.408 92.422 21.976 92.566 21.584C92.71 21.192 92.91 20.852 93.166 20.564C93.43 20.276 93.738 20.052 94.09 19.892C94.45 19.732 94.842 19.652 95.266 19.652C95.818 19.652 96.274 19.768 96.634 20C97.002 20.224 97.294 20.512 97.51 20.864C97.734 21.216 97.886 21.6 97.966 22.016C98.054 22.432 98.09 22.828 98.074 23.204H93.43C93.422 23.476 93.454 23.736 93.526 23.984C93.598 24.224 93.714 24.44 93.874 24.632C94.034 24.816 94.238 24.964 94.486 25.076C94.734 25.188 95.026 25.244 95.362 25.244C95.794 25.244 96.146 25.144 96.418 24.944C96.698 24.744 96.882 24.44 96.97 24.032H97.978ZM99.1313 19.796H100.091V20.78H100.115C100.539 20.028 101.211 19.652 102.131 19.652C102.539 19.652 102.879 19.708 103.151 19.82C103.423 19.932 103.643 20.088 103.811 20.288C103.979 20.488 104.095 20.728 104.159 21.008C104.231 21.28 104.267 21.584 104.267 21.92V26H103.247V21.8C103.247 21.416 103.135 21.112 102.911 20.888C102.687 20.664 102.379 20.552 101.987 20.552C101.675 20.552 101.403 20.6 101.171 20.696C100.947 20.792 100.759 20.928 100.607 21.104C100.455 21.28 100.339 21.488 100.259 21.728C100.187 21.96 100.151 22.216 100.151 22.496V26H99.1313V19.796ZM107.215 19.796H108.451V20.696H107.215V24.548C107.215 24.668 107.223 24.764 107.239 24.836C107.263 24.908 107.303 24.964 107.359 25.004C107.415 25.044 107.491 25.072 107.587 25.088C107.691 25.096 107.823 25.1 107.983 25.1H108.451V26H107.671C107.407 26 107.179 25.984 106.987 25.952C106.803 25.912 106.651 25.844 106.531 25.748C106.419 25.652 106.335 25.516 106.279 25.34C106.223 25.164 106.195 24.932 106.195 24.644V20.696H105.139V19.796H106.195V17.936H107.215V19.796ZM110.664 18.68H109.644V17.432H110.664V18.68ZM109.644 19.796H110.664V26H109.644V19.796ZM117.741 25.976C117.565 26.08 117.321 26.132 117.009 26.132C116.745 26.132 116.533 26.06 116.373 25.916C116.221 25.764 116.145 25.52 116.145 25.184C115.865 25.52 115.537 25.764 115.161 25.916C114.793 26.06 114.393 26.132 113.961 26.132C113.681 26.132 113.413 26.1 113.157 26.036C112.909 25.972 112.693 25.872 112.509 25.736C112.325 25.6 112.177 25.424 112.065 25.208C111.961 24.984 111.909 24.716 111.909 24.404C111.909 24.052 111.969 23.764 112.089 23.54C112.209 23.316 112.365 23.136 112.557 23C112.757 22.856 112.981 22.748 113.229 22.676C113.485 22.604 113.745 22.544 114.009 22.496C114.289 22.44 114.553 22.4 114.801 22.376C115.057 22.344 115.281 22.304 115.473 22.256C115.665 22.2 115.817 22.124 115.929 22.028C116.041 21.924 116.097 21.776 116.097 21.584C116.097 21.36 116.053 21.18 115.965 21.044C115.885 20.908 115.777 20.804 115.641 20.732C115.513 20.66 115.365 20.612 115.197 20.588C115.037 20.564 114.877 20.552 114.717 20.552C114.285 20.552 113.925 20.636 113.637 20.804C113.349 20.964 113.193 21.272 113.169 21.728H112.149C112.165 21.344 112.245 21.02 112.389 20.756C112.533 20.492 112.725 20.28 112.965 20.12C113.205 19.952 113.477 19.832 113.781 19.76C114.093 19.688 114.425 19.652 114.777 19.652C115.057 19.652 115.333 19.672 115.605 19.712C115.885 19.752 116.137 19.836 116.361 19.964C116.585 20.084 116.765 20.256 116.901 20.48C117.037 20.704 117.105 20.996 117.105 21.356V24.548C117.105 24.788 117.117 24.964 117.141 25.076C117.173 25.188 117.269 25.244 117.429 25.244C117.517 25.244 117.621 25.224 117.741 25.184V25.976ZM116.085 22.796C115.957 22.892 115.789 22.964 115.581 23.012C115.373 23.052 115.153 23.088 114.921 23.12C114.697 23.144 114.469 23.176 114.237 23.216C114.005 23.248 113.797 23.304 113.613 23.384C113.429 23.464 113.277 23.58 113.157 23.732C113.045 23.876 112.989 24.076 112.989 24.332C112.989 24.5 113.021 24.644 113.085 24.764C113.157 24.876 113.245 24.968 113.349 25.04C113.461 25.112 113.589 25.164 113.733 25.196C113.877 25.228 114.029 25.244 114.189 25.244C114.525 25.244 114.813 25.2 115.053 25.112C115.293 25.016 115.489 24.9 115.641 24.764C115.793 24.62 115.905 24.468 115.977 24.308C116.049 24.14 116.085 23.984 116.085 23.84V22.796ZM118.75 17.432H119.77V26H118.75V17.432Z" fill="#4C4C4C"/>
<path fill-rule="evenodd" clip-rule="evenodd" d="M134.918 0.0146947C136.707 -0.134025 137.542 0.855017 137.764 2.57703C136.288 2.43055 135.39 1.50972 134.918 0.0146947ZM138.661 0.152255C139.677 1.34872 140.123 2.6749 139.106 4.33374C138.051 2.86164 137.785 1.45719 138.661 0.152255ZM135.471 3.50228C136.943 2.87218 138.195 2.81907 138.778 4.52711C137.257 5.18237 136.294 4.5081 135.471 3.50228ZM137.128 5.96243C138.68 5.5336 139.691 6.1391 140.161 7.77837C138.804 7.98412 137.794 7.37862 137.128 5.96243ZM140.939 3.50297C139.843 4.67875 139.871 6.09047 140.637 7.65594C141.662 6.44997 141.9 5.09193 140.939 3.50297ZM142.541 6.78522C141.166 7.76196 140.912 9.14908 141.315 10.7766C142.599 10.0051 143.175 8.7812 142.541 6.78522ZM137.997 8.61193C138.695 10.4228 139.719 10.8002 140.825 10.8209C140.623 9.15034 139.758 8.31672 137.997 8.61193ZM143.325 10.6443C141.823 11.4147 141.277 12.6509 141.369 14.1985C142.962 13.7948 143.723 12.7001 143.325 10.6443ZM138.603 11.0327C140.262 11.3687 140.846 12.5574 140.845 14.2101C139.387 13.7857 138.705 12.6675 138.603 11.0327ZM138.595 14.086C138.468 15.9925 139.044 17.0867 140.144 17.5781C140.591 15.6196 140.019 14.5014 138.595 14.086ZM143.829 15.109C142.266 15.308 141.135 16.0114 140.842 17.6937C142.478 17.9727 143.421 17.0183 143.829 15.109ZM142.525 18.4982C140.933 18.5731 139.966 19.4436 139.468 20.9124C141.05 21.1584 142.125 20.4578 142.525 18.4982ZM138.154 16.9005C139.364 17.7397 139.526 18.9815 138.741 20.5878C137.922 19.5657 137.691 18.348 138.154 16.9005ZM137.154 19.2034C138.028 20.6448 137.98 21.9123 136.799 22.9667C136.121 21.484 136.28 20.2411 137.154 19.2034ZM137.442 23.6098C138.65 21.9448 139.928 21.7497 141.228 22.051C140.172 23.593 138.951 24.3143 137.442 23.6098ZM135.474 21.289C134.548 22.0996 133.947 23.1015 134.567 24.8241C135.873 24.0213 136.121 22.8226 135.474 21.289ZM138.989 24.9185C137.602 24.3476 136.301 24.4321 135.149 25.6789C136.511 26.6897 137.786 26.3604 138.989 24.9185ZM133.462 23.0566C132.397 23.7673 131.522 24.6339 131.72 26.3827C133.366 25.8203 133.774 24.6232 133.462 23.0566ZM132.215 27.2757C133.837 26.2743 135.019 26.6897 136.09 27.4657C134.68 28.6946 133.388 28.6315 132.215 27.2757ZM131.19 24.72C129.716 25.1986 129.005 26.1396 128.914 27.4573C130.504 27.1599 131.348 26.3112 131.19 24.72ZM129.232 28.4989C131.421 27.9146 132.421 28.5995 133.036 29.6965C131.294 30.3489 130.026 29.9497 129.232 28.4989Z" fill="#BEC6D5"/>
</svg>
