<svg width="345" height="656" viewBox="0 0 345 656" fill="none" xmlns="http://www.w3.org/2000/svg">
<g filter="url(#filter0_i_730_188)">
<rect x="3" width="339" height="656" rx="62" fill="#E6E6E6"/>
</g>
<rect x="3.5" y="0.5" width="338" height="655" rx="61.5" stroke="url(#paint0_linear_730_188)"/>
<rect x="7" y="4" width="331" height="648" rx="58" fill="black"/>
<g filter="url(#filter1_i_730_188)">
<path d="M0 162.6C0 162.04 0 161.76 0.108993 161.546C0.204867 161.358 0.357847 161.205 0.546009 161.109C0.759921 161 1.03995 161 1.6 161H3V191H1.6C1.03995 191 0.759921 191 0.546009 190.891C0.357847 190.795 0.204867 190.642 0.108993 190.454C0 190.24 0 189.96 0 189.4V162.6Z" fill="#CCCCCC"/>
</g>
<g filter="url(#filter2_i_730_188)">
<path d="M0 224.6C0 224.04 0 223.76 0.108993 223.546C0.204867 223.358 0.357847 223.205 0.546009 223.109C0.759921 223 1.03995 223 1.6 223H3V285H1.6C1.03995 285 0.759921 285 0.546009 284.891C0.357847 284.795 0.204867 284.642 0.108993 284.454C0 284.24 0 283.96 0 283.4V224.6Z" fill="#CCCCCC"/>
</g>
<g filter="url(#filter3_i_730_188)">
<path d="M0 304.6C0 304.04 0 303.76 0.108993 303.546C0.204867 303.358 0.357847 303.205 0.546009 303.109C0.759921 303 1.03995 303 1.6 303H3V365H1.6C1.03995 365 0.759921 365 0.546009 364.891C0.357847 364.795 0.204867 364.642 0.108993 364.454C0 364.24 0 363.96 0 363.4V304.6Z" fill="#CCCCCC"/>
</g>
<g filter="url(#filter4_i_730_188)">
<path d="M342 245H343.4C343.96 245 344.24 245 344.454 245.109C344.642 245.205 344.795 245.358 344.891 245.546C345 245.76 345 246.04 345 246.6V343.4C345 343.96 345 344.24 344.891 344.454C344.795 344.642 344.642 344.795 344.454 344.891C344.24 345 343.96 345 343.4 345H342V245Z" fill="#CCCCCC"/>
</g>
<defs>
<filter id="filter0_i_730_188" x="3" y="0" width="339" height="656" filterUnits="userSpaceOnUse" color-interpolation-filters="sRGB">
<feFlood flood-opacity="0" result="BackgroundImageFix"/>
<feBlend mode="normal" in="SourceGraphic" in2="BackgroundImageFix" result="shape"/>
<feColorMatrix in="SourceAlpha" type="matrix" values="0 0 0 0 0 0 0 0 0 0 0 0 0 0 0 0 0 0 127 0" result="hardAlpha"/>
<feOffset/>
<feGaussianBlur stdDeviation="4"/>
<feComposite in2="hardAlpha" operator="arithmetic" k2="-1" k3="1"/>
<feColorMatrix type="matrix" values="0 0 0 0 0 0 0 0 0 0 0 0 0 0 0 0 0 0 0.3 0"/>
<feBlend mode="normal" in2="shape" result="effect1_innerShadow_730_188"/>
</filter>
<filter id="filter1_i_730_188" x="0" y="161" width="4" height="30" filterUnits="userSpaceOnUse" color-interpolation-filters="sRGB">
<feFlood flood-opacity="0" result="BackgroundImageFix"/>
<feBlend mode="normal" in="SourceGraphic" in2="BackgroundImageFix" result="shape"/>
<feColorMatrix in="SourceAlpha" type="matrix" values="0 0 0 0 0 0 0 0 0 0 0 0 0 0 0 0 0 0 127 0" result="hardAlpha"/>
<feOffset dx="1"/>
<feGaussianBlur stdDeviation="1"/>
<feComposite in2="hardAlpha" operator="arithmetic" k2="-1" k3="1"/>
<feColorMatrix type="matrix" values="0 0 0 0 1 0 0 0 0 1 0 0 0 0 1 0 0 0 1 0"/>
<feBlend mode="normal" in2="shape" result="effect1_innerShadow_730_188"/>
</filter>
<filter id="filter2_i_730_188" x="0" y="223" width="4" height="62" filterUnits="userSpaceOnUse" color-interpolation-filters="sRGB">
<feFlood flood-opacity="0" result="BackgroundImageFix"/>
<feBlend mode="normal" in="SourceGraphic" in2="BackgroundImageFix" result="shape"/>
<feColorMatrix in="SourceAlpha" type="matrix" values="0 0 0 0 0 0 0 0 0 0 0 0 0 0 0 0 0 0 127 0" result="hardAlpha"/>
<feOffset dx="1"/>
<feGaussianBlur stdDeviation="1"/>
<feComposite in2="hardAlpha" operator="arithmetic" k2="-1" k3="1"/>
<feColorMatrix type="matrix" values="0 0 0 0 1 0 0 0 0 1 0 0 0 0 1 0 0 0 1 0"/>
<feBlend mode="normal" in2="shape" result="effect1_innerShadow_730_188"/>
</filter>
<filter id="filter3_i_730_188" x="0" y="303" width="4" height="62" filterUnits="userSpaceOnUse" color-interpolation-filters="sRGB">
<feFlood flood-opacity="0" result="BackgroundImageFix"/>
<feBlend mode="normal" in="SourceGraphic" in2="BackgroundImageFix" result="shape"/>
<feColorMatrix in="SourceAlpha" type="matrix" values="0 0 0 0 0 0 0 0 0 0 0 0 0 0 0 0 0 0 127 0" result="hardAlpha"/>
<feOffset dx="1"/>
<feGaussianBlur stdDeviation="1"/>
<feComposite in2="hardAlpha" operator="arithmetic" k2="-1" k3="1"/>
<feColorMatrix type="matrix" values="0 0 0 0 1 0 0 0 0 1 0 0 0 0 1 0 0 0 1 0"/>
<feBlend mode="normal" in2="shape" result="effect1_innerShadow_730_188"/>
</filter>
<filter id="filter4_i_730_188" x="341" y="245" width="4" height="100" filterUnits="userSpaceOnUse" color-interpolation-filters="sRGB">
<feFlood flood-opacity="0" result="BackgroundImageFix"/>
<feBlend mode="normal" in="SourceGraphic" in2="BackgroundImageFix" result="shape"/>
<feColorMatrix in="SourceAlpha" type="matrix" values="0 0 0 0 0 0 0 0 0 0 0 0 0 0 0 0 0 0 127 0" result="hardAlpha"/>
<feOffset dx="-1"/>
<feGaussianBlur stdDeviation="1"/>
<feComposite in2="hardAlpha" operator="arithmetic" k2="-1" k3="1"/>
<feColorMatrix type="matrix" values="0 0 0 0 1 0 0 0 0 1 0 0 0 0 1 0 0 0 1 0"/>
<feBlend mode="normal" in2="shape" result="effect1_innerShadow_730_188"/>
</filter>
<linearGradient id="paint0_linear_730_188" x1="172.5" y1="0" x2="172.5" y2="656" gradientUnits="userSpaceOnUse">
<stop stop-color="white" stop-opacity="0.6"/>
<stop offset="1" stop-color="white" stop-opacity="0.3"/>
</linearGradient>
</defs>
</svg>