<svg width="74" height="19" viewBox="0 0 74 19" fill="none" xmlns="http://www.w3.org/2000/svg">
<path d="M72.9592 17.5458C73.0047 17.5463 73.0498 17.5374 73.0917 17.5197C73.1336 17.502 73.1714 17.4759 73.2028 17.4429C73.2342 17.41 73.2585 17.371 73.2741 17.3283C73.2898 17.2856 73.2966 17.2402 73.2939 17.1948C73.2939 16.9458 73.1437 16.8268 72.8356 16.8268H72.3376V18.1303H72.5249V17.5621H72.7551L72.7603 17.569L73.1175 18.1303H73.3177L72.9335 17.5494L72.9592 17.5458ZM72.7426 17.4152H72.5255V16.9746H72.8007C72.9429 16.9746 73.105 16.9978 73.105 17.184C73.105 17.3981 72.941 17.4152 72.7415 17.4152M0.000732422 3.29347H2.76506V13.3627H7.88264V15.9137H0.000732422V3.29347ZM9.10478 7.35683H11.7604V15.909H9.10478V7.35683ZM10.4326 3.10508C10.7373 3.10514 11.0351 3.19553 11.2884 3.36484C11.5417 3.53415 11.7391 3.77477 11.8556 4.05627C11.9722 4.33777 12.0027 4.64751 11.9432 4.94633C11.8837 5.24514 11.737 5.51961 11.5215 5.73503C11.3061 5.95045 11.0316 6.09714 10.7327 6.15656C10.4339 6.21598 10.1242 6.18546 9.84271 6.06885C9.56123 5.95225 9.32064 5.75479 9.15138 5.50146C8.98212 5.24813 8.89177 4.95029 8.89177 4.64561C8.89177 4.44329 8.93163 4.24294 9.00907 4.05601C9.0865 3.86909 9.2 3.69925 9.34308 3.5562C9.48616 3.41314 9.65602 3.29967 9.84296 3.22227C10.0299 3.14487 10.2303 3.10505 10.4326 3.10508ZM22.8691 3.29153H25.5248V10.8337L28.5344 7.35295H31.7903L28.3048 11.3123L31.717 15.9126H28.3793L25.5602 11.6852H25.5253V15.912H22.8697L22.8691 3.29153ZM13.2329 7.35766H15.7831V8.5264H15.8193C16.074 8.08999 16.4425 7.73097 16.8854 7.48765C17.3283 7.24434 17.8289 7.12589 18.3339 7.14493C21.0268 7.14493 21.5225 8.91672 21.5225 11.2185V15.9084H18.8669V11.7505C18.8669 10.7579 18.8487 9.48215 17.4838 9.48215C16.1034 9.48215 15.8904 10.5629 15.8904 11.6783V15.9073H13.2348L13.2329 7.35766Z" fill="#2867B2"/>
<path d="M37.3829 10.6381C37.388 10.4227 37.3493 10.2084 37.2691 10.0084C37.189 9.80834 37.069 9.62664 36.9166 9.4743C36.7642 9.32197 36.5824 9.20216 36.3823 9.12215C36.1822 9.04213 35.9679 9.00357 35.7525 9.00879C35.2885 8.97992 34.8317 9.13455 34.4807 9.43934C34.1296 9.74412 33.9124 10.1747 33.8758 10.6381H37.3829ZM39.6324 14.4279C39.1911 14.963 38.6364 15.3933 38.0083 15.6876C37.3802 15.9819 36.6945 16.1328 36.0009 16.1294C33.3453 16.1294 31.2191 14.3568 31.2191 11.6118C31.2191 8.86688 33.345 7.09509 36.0009 7.09509C38.483 7.09509 40.0396 8.8655 40.0396 11.6118V12.4445H33.8758C33.9526 12.9167 34.1974 13.3453 34.5652 13.6513C34.933 13.9572 35.3989 14.12 35.8772 14.1095C36.2552 14.1072 36.6266 14.0103 36.9576 13.8278C37.2886 13.6453 37.5687 13.3828 37.7724 13.0644L39.6324 14.4279ZM45.5749 9.42401C44.2471 9.42401 43.4504 10.3106 43.4504 11.6024C43.4504 12.8943 44.2468 13.7817 45.5749 13.7817C46.903 13.7817 47.7013 12.8965 47.7013 11.6024C47.7013 10.3084 46.9044 9.42401 45.5749 9.42401ZM50.1462 15.9073H47.7013V14.7731H47.6651C47.3584 15.1857 46.9606 15.5218 46.5026 15.7554C46.0447 15.989 45.539 16.1137 45.025 16.1197C42.4734 16.1197 40.7926 14.2782 40.7926 11.6741C40.7926 9.28238 42.28 7.08624 44.7251 7.08624C45.8241 7.08624 46.8507 7.38693 47.4529 8.22041H47.4878V3.29065H50.1459L50.1462 15.9073ZM68.074 15.9123H65.4184V11.7535C65.4184 10.7618 65.4007 9.48514 64.0372 9.48514C62.6541 9.48514 62.4425 10.5656 62.4425 11.6813V15.912H59.7869V7.35982H62.3362V8.52857H62.3719C62.6271 8.09234 62.9957 7.73348 63.4387 7.49021C63.8816 7.24693 64.3823 7.12835 64.8873 7.1471C67.5789 7.1471 68.0751 8.91751 68.0751 11.2207L68.074 15.9123ZM56.7904 6.1908C56.4856 6.19086 56.1877 6.10053 55.9342 5.93124C55.6807 5.76195 55.4832 5.5213 55.3665 5.23972C55.2498 4.95815 55.2192 4.64829 55.2786 4.34934C55.338 4.05039 55.4848 3.77577 55.7003 3.5602C55.9157 3.34464 56.1903 3.19782 56.4892 3.1383C56.7882 3.07878 57.098 3.10925 57.3797 3.22584C57.6613 3.34243 57.902 3.53991 58.0714 3.79331C58.2408 4.04671 58.3312 4.34464 58.3312 4.64944C58.3313 4.85182 58.2915 5.05222 58.214 5.23921C58.1366 5.4262 58.0231 5.59611 57.8801 5.73923C57.737 5.88236 57.5671 5.99591 57.3802 6.07339C57.1932 6.15087 56.9928 6.19077 56.7904 6.1908ZM58.1182 15.9123H55.4599V7.35982H58.1182V15.9123ZM69.3979 0.642511H54.1254C53.7788 0.638599 53.4448 0.772469 53.1968 1.0147C52.9488 1.25694 52.8071 1.58772 52.8029 1.93436V17.2702C52.807 17.617 52.9485 17.948 53.1965 18.1905C53.4445 18.433 53.7786 18.5671 54.1254 18.5635H69.3979C69.7455 18.5678 70.0805 18.4341 70.3294 18.1916C70.5784 17.9491 70.7209 17.6177 70.7258 17.2702V1.93325C70.7208 1.58592 70.5782 1.25477 70.3292 1.01254C70.0802 0.770311 69.7453 0.636824 69.3979 0.641405M72.7653 16.2462C72.4422 16.2493 72.1335 16.3802 71.9067 16.6103C71.6799 16.8404 71.5534 17.151 71.555 17.4741C71.5565 17.7972 71.686 18.1066 71.915 18.3345C72.144 18.5624 72.454 18.6904 72.7771 18.6904C73.1002 18.6904 73.4101 18.5624 73.6392 18.3345C73.8682 18.1066 73.9976 17.7972 73.9992 17.4741C74.0007 17.151 73.8743 16.8404 73.6475 16.6103C73.4207 16.3802 73.1119 16.2493 72.7888 16.2462H72.7653ZM72.7653 18.5505C72.5534 18.554 72.3452 18.4946 72.167 18.3798C71.9889 18.265 71.8487 18.0999 71.7644 17.9055C71.68 17.711 71.6552 17.496 71.6931 17.2874C71.731 17.0789 71.8298 16.8863 71.9772 16.7339C72.1246 16.5816 72.3138 16.4763 72.521 16.4315C72.7281 16.3867 72.9439 16.4044 73.141 16.4822C73.3382 16.56 73.5078 16.6946 73.6285 16.8688C73.7492 17.0431 73.8155 17.2492 73.819 17.4611V17.4791C73.8249 17.7571 73.7202 18.0261 73.5278 18.2269C73.3355 18.4277 73.0713 18.5439 72.7933 18.5499H72.7656" fill="#2867B2"/>
</svg>
