<svg width="74" height="20" viewBox="0 0 74 20" fill="none" xmlns="http://www.w3.org/2000/svg">
<path d="M72.9593 17.88C73.0047 17.8804 73.0498 17.8715 73.0917 17.8538C73.1336 17.8362 73.1714 17.81 73.2028 17.7771C73.2342 17.7442 73.2585 17.7052 73.2742 17.6625C73.2898 17.6198 73.2966 17.5744 73.294 17.5289C73.294 17.28 73.1438 17.161 72.8356 17.161H72.3377V18.4645H72.525V17.8963H72.7551L72.7604 17.9032L73.1175 18.4645H73.3178L72.9335 17.8836L72.9593 17.88ZM72.7427 17.7494H72.5255V17.3088H72.8007C72.9429 17.3088 73.105 17.332 73.105 17.5182C73.105 17.7323 72.941 17.7494 72.7416 17.7494M0.000762939 3.62765H2.76509V13.6968H7.88267V16.2479H0.000762939V3.62765ZM9.10481 7.69101H11.7604V16.2432H9.10481V7.69101ZM10.4326 3.43927C10.7373 3.43932 11.0351 3.52972 11.2884 3.69903C11.5417 3.86834 11.7391 4.10896 11.8557 4.39046C11.9722 4.67196 12.0027 4.9817 11.9432 5.28051C11.8838 5.57933 11.737 5.8538 11.5216 6.06922C11.3061 6.28464 11.0316 6.43133 10.7328 6.49075C10.434 6.55017 10.1242 6.51965 9.84274 6.40304C9.56126 6.28643 9.32067 6.08898 9.15141 5.83565C8.98215 5.58231 8.8918 5.28448 8.8918 4.9798C8.8918 4.77747 8.93166 4.57713 9.0091 4.3902C9.08653 4.20328 9.20003 4.03344 9.34311 3.89038C9.48619 3.74733 9.65605 3.63386 9.84299 3.55646C10.0299 3.47905 10.2303 3.43923 10.4326 3.43927ZM22.8692 3.62572H25.5248V11.1679L28.5345 7.68714H31.7904L28.3049 11.6465L31.7171 16.2468H28.3793L25.5602 12.0194H25.5253V16.2462H22.8697L22.8692 3.62572ZM13.2329 7.69184H15.7831V8.86059H15.8194C16.0741 8.42418 16.4426 8.06515 16.8854 7.82184C17.3283 7.57853 17.8289 7.46007 18.3339 7.47912C21.0268 7.47912 21.5226 9.25091 21.5226 11.5527V16.2426H18.8669V12.0847C18.8669 11.0921 18.8487 9.81633 17.4838 9.81633C16.1034 9.81633 15.8904 10.8971 15.8904 12.0125V16.2415H13.2348L13.2329 7.69184Z" fill="white"/>
<path d="M37.3829 10.9723C37.388 10.7568 37.3493 10.5426 37.2691 10.3426C37.189 10.1425 37.0691 9.96081 36.9166 9.80848C36.7642 9.65614 36.5824 9.53634 36.3823 9.45632C36.1822 9.3763 35.9679 9.33774 35.7525 9.34297C35.2885 9.31409 34.8317 9.46872 34.4807 9.77351C34.1296 10.0783 33.9124 10.5088 33.8758 10.9723H37.3829ZM39.6324 14.7621C39.1912 15.2972 38.6364 15.7275 38.0083 16.0218C37.3802 16.3161 36.6945 16.467 36.0009 16.4636C33.3453 16.4636 31.2191 14.691 31.2191 11.946C31.2191 9.20106 33.345 7.42927 36.0009 7.42927C38.4831 7.42927 40.0396 9.19967 40.0396 11.946V12.7787H33.8758C33.9526 13.2509 34.1974 13.6795 34.5652 13.9854C34.933 14.2914 35.3989 14.4541 35.8772 14.4437C36.2552 14.4413 36.6266 14.3445 36.9576 14.162C37.2886 13.9794 37.5687 13.717 37.7724 13.3986L39.6324 14.7621ZM45.5749 9.75818C44.2471 9.75818 43.4504 10.6448 43.4504 11.9366C43.4504 13.2285 44.2468 14.1159 45.5749 14.1159C46.903 14.1159 47.7013 13.2307 47.7013 11.9366C47.7013 10.6426 46.9044 9.75818 45.5749 9.75818ZM50.1462 16.2415H47.7013V15.1073H47.6651C47.3584 15.5198 46.9606 15.856 46.5026 16.0896C46.0447 16.3231 45.539 16.4478 45.025 16.4539C42.4734 16.4539 40.7926 14.6124 40.7926 12.0083C40.7926 9.61655 42.28 7.42041 44.7251 7.42041C45.8242 7.42041 46.8507 7.72111 47.4529 8.55458H47.4878V3.62483H50.1459L50.1462 16.2415ZM68.074 16.2464H65.4184V12.0876C65.4184 11.0959 65.4007 9.81932 64.0372 9.81932C62.6541 9.81932 62.4425 10.8998 62.4425 12.0155V16.2462H59.7869V7.694H62.3363V8.86274H62.3719C62.6271 8.42651 62.9957 8.06765 63.4387 7.82438C63.8816 7.5811 64.3823 7.46253 64.8873 7.48127C67.5789 7.48127 68.0751 9.25168 68.0751 11.5549L68.074 16.2464ZM56.7905 6.52497C56.4857 6.52503 56.1877 6.4347 55.9342 6.26541C55.6808 6.09612 55.4832 5.85547 55.3665 5.57389C55.2498 5.29232 55.2192 4.98246 55.2787 4.68351C55.3381 4.38456 55.4848 4.10994 55.7003 3.89438C55.9158 3.67881 56.1903 3.53199 56.4893 3.47247C56.7882 3.41296 57.0981 3.44342 57.3797 3.56001C57.6613 3.6766 57.902 3.87408 58.0714 4.12748C58.2408 4.38088 58.3312 4.67882 58.3313 4.98361C58.3313 5.18599 58.2915 5.3864 58.2141 5.57338C58.1366 5.76037 58.0232 5.93028 57.8801 6.07341C57.737 6.21654 57.5671 6.33008 57.3802 6.40756C57.1932 6.48504 56.9928 6.52494 56.7905 6.52497ZM58.1183 16.2464H55.4599V7.694H58.1183V16.2464ZM69.398 0.976684H54.1254C53.7788 0.972773 53.4448 1.10664 53.1968 1.34888C52.9488 1.59111 52.8071 1.92189 52.8029 2.26853V17.6044C52.807 17.9512 52.9486 18.2822 53.1965 18.5247C53.4445 18.7672 53.7786 18.9013 54.1254 18.8976H69.398C69.7455 18.902 70.0805 18.7682 70.3295 18.5258C70.5784 18.2833 70.721 17.9519 70.7258 17.6044V2.26742C70.7208 1.92009 70.5782 1.58894 70.3292 1.34671C70.0802 1.10448 69.7453 0.970997 69.398 0.975578M72.7653 16.5803C72.4422 16.5834 72.1335 16.7144 71.9067 16.9445C71.6799 17.1746 71.5534 17.4852 71.555 17.8083C71.5565 18.1314 71.686 18.4407 71.915 18.6687C72.144 18.8966 72.454 19.0245 72.7771 19.0245C73.1002 19.0245 73.4102 18.8966 73.6392 18.6687C73.8682 18.4407 73.9977 18.1314 73.9992 17.8083C74.0008 17.4852 73.8743 17.1746 73.6475 16.9445C73.4207 16.7144 73.1119 16.5834 72.7888 16.5803H72.7653ZM72.7653 18.8846C72.5534 18.8882 72.3452 18.8288 72.167 18.714C71.9889 18.5992 71.8487 18.4341 71.7644 18.2397C71.68 18.0452 71.6552 17.8301 71.6931 17.6216C71.731 17.413 71.8299 17.2204 71.9772 17.0681C72.1246 16.9157 72.3138 16.8105 72.521 16.7657C72.7281 16.7209 72.9439 16.7385 73.1411 16.8164C73.3382 16.8942 73.5078 17.0287 73.6285 17.203C73.7492 17.3772 73.8155 17.5834 73.819 17.7953V17.8133C73.8249 18.0913 73.7202 18.3602 73.5279 18.5611C73.3355 18.7619 73.0713 18.8781 72.7933 18.8841H72.7656" fill="white"/>
</svg>
