<svg width="119" height="35" viewBox="0 0 119 35" fill="none" xmlns="http://www.w3.org/2000/svg">
<rect x="4.2426" y="7.90445" width="17.2872" height="24.2472" rx="5" transform="rotate(-2.67762 4.2426 7.90445)" stroke="black" stroke-width="4"/>
<path d="M15.1138 18.7146H12.9417L14.0246 16.3623C14.1017 16.2082 14.1471 16.0402 14.1582 15.8682C14.1692 15.6961 14.1457 15.5236 14.0889 15.3609C14.0322 15.1982 13.9434 15.0486 13.8278 14.921C13.7123 14.7935 13.5723 14.6905 13.4163 14.6183C13.2602 14.546 13.0913 14.506 12.9195 14.5006C12.7477 14.4952 12.5766 14.5245 12.4164 14.5868C12.2561 14.6491 12.11 14.743 11.9867 14.8631C11.8634 14.9832 11.7654 15.1269 11.6986 15.2857L10.1736 18.5957C10.0409 18.8844 9.98276 19.2019 10.0044 19.519C10.0261 19.8361 10.1269 20.1427 10.2976 20.4105C10.4682 20.6784 10.7033 20.8989 10.9812 21.0518C11.259 21.2046 11.5707 21.285 11.8876 21.2854H14.0598L12.9769 23.6377C12.8998 23.7918 12.8544 23.9598 12.8433 24.1318C12.8322 24.3039 12.8558 24.4764 12.9125 24.6391C12.9693 24.8018 13.0581 24.9514 13.1736 25.079C13.2892 25.2065 13.4292 25.3095 13.5852 25.3817C13.7413 25.454 13.9102 25.494 14.082 25.4994C14.2537 25.5048 14.4248 25.4755 14.5851 25.4132C14.7453 25.3509 14.8915 25.257 15.0148 25.1369C15.1381 25.0168 15.2361 24.8731 15.3029 24.7143L16.8279 21.4011C16.9598 21.1126 17.0174 20.7954 16.9954 20.4787C16.9734 20.162 16.8725 19.856 16.7019 19.5886C16.5313 19.3212 16.2965 19.1011 16.019 18.9483C15.7416 18.7956 15.4303 18.7153 15.1138 18.7146Z" fill="#873DE6"/>
<path d="M67.1384 12.2507C67.1384 10.8084 67.6251 9.62135 68.5985 8.6895C69.5719 7.75173 70.8865 7.28284 72.5425 7.28284C74.4359 7.28284 75.8663 7.83185 76.8337 8.92988C77.6112 9.81424 78 10.9034 78 12.1973C78 13.6514 77.5163 14.8444 76.5488 15.7763C75.5873 16.7022 74.2548 17.1651 72.5514 17.1651C71.032 17.1651 69.8034 16.7793 68.8656 16.0077C67.7141 15.0521 67.1384 13.7998 67.1384 12.2507ZM70.7708 12.2418C70.7708 13.0846 70.94 13.7078 71.2783 14.1114C71.6225 14.515 72.0528 14.7168 72.5692 14.7168C73.0915 14.7168 73.5189 14.518 73.8512 14.1203C74.1895 13.7226 74.3587 13.0846 74.3587 12.2062C74.3587 11.3871 74.1895 10.7787 73.8512 10.3811C73.5129 9.97746 73.0945 9.77566 72.5959 9.77566C72.0677 9.77566 71.6314 9.98043 71.2872 10.39C70.9429 10.7936 70.7708 11.4108 70.7708 12.2418Z" fill="black"/>
<path d="M64.4002 3.89972V7.49651H66.3945V10.1407H64.4002V13.4971C64.4002 13.9007 64.4388 14.1678 64.5159 14.2984C64.6346 14.5002 64.8424 14.6011 65.1391 14.6011C65.4062 14.6011 65.7802 14.5239 66.2609 14.3696L66.528 16.8713C65.6318 17.0672 64.7949 17.1651 64.0174 17.1651C63.1152 17.1651 62.4505 17.0494 62.0231 16.8179C61.5958 16.5864 61.2782 16.2362 61.0705 15.7674C60.8687 15.2925 60.7678 14.5269 60.7678 13.4704V10.1407H59.4324V7.49651H60.7678V5.76044L64.4002 3.89972Z" fill="black"/>
<path d="M47.9693 12.2507C47.9693 10.8084 48.456 9.62135 49.4294 8.6895C50.4027 7.75173 51.7174 7.28284 53.3734 7.28284C55.2667 7.28284 56.6971 7.83185 57.6646 8.92988C58.4421 9.81424 58.8309 10.9034 58.8309 12.1973C58.8309 13.6514 58.3471 14.8444 57.3797 15.7763C56.4182 16.7022 55.0857 17.1651 53.3823 17.1651C51.8628 17.1651 50.6342 16.7793 49.6964 16.0077C48.545 15.0521 47.9693 13.7998 47.9693 12.2507ZM51.6017 12.2418C51.6017 13.0846 51.7708 13.7078 52.1091 14.1114C52.4534 14.515 52.8837 14.7168 53.4001 14.7168C53.9224 14.7168 54.3497 14.518 54.6821 14.1203C55.0204 13.7226 55.1896 13.0846 55.1896 12.2062C55.1896 11.3871 55.0204 10.7787 54.6821 10.3811C54.3438 9.97746 53.9253 9.77566 53.4268 9.77566C52.8985 9.77566 52.4623 9.98043 52.118 10.39C51.7738 10.7936 51.6017 11.4108 51.6017 12.2418Z" fill="black"/>
<path d="M40.8953 7.49651H44.2874V9.04562C44.6138 8.37493 44.9492 7.91495 45.2934 7.66566C45.6436 7.41045 46.0739 7.28284 46.5843 7.28284C47.1185 7.28284 47.7031 7.44903 48.3382 7.7814L47.2164 10.3633C46.7891 10.1852 46.4508 10.0962 46.2015 10.0962C45.7267 10.0962 45.3587 10.292 45.0975 10.6838C44.7236 11.2357 44.5367 12.2685 44.5367 13.782V16.9514H40.8953V7.49651Z" fill="black"/>
<path d="M29.2631 20.5482V7.49651H32.6551V8.89427C33.124 8.30668 33.5543 7.90901 33.9461 7.70128C34.4743 7.42232 35.0589 7.28284 35.6999 7.28284C36.9642 7.28284 37.9405 7.76656 38.629 8.73402C39.3234 9.70147 39.6707 10.8974 39.6707 12.3219C39.6707 13.8948 39.2938 15.0967 38.54 15.9276C37.7862 16.7526 36.8336 17.1651 35.6821 17.1651C35.1242 17.1651 34.6138 17.0701 34.1508 16.8802C33.6938 16.6903 33.2843 16.4084 32.9222 16.0344V20.5482H29.2631ZM32.8955 12.2507C32.8955 12.9985 33.0528 13.5535 33.3674 13.9155C33.6819 14.2776 34.0796 14.4586 34.5604 14.4586C34.9818 14.4586 35.3349 14.2865 35.6198 13.9422C35.9047 13.5921 36.0472 13.0015 36.0472 12.1706C36.0472 11.4049 35.8988 10.844 35.602 10.4879C35.3052 10.1258 34.9432 9.94482 34.5158 9.94482C34.0529 9.94482 33.6671 10.1258 33.3585 10.4879C33.0498 10.85 32.8955 11.4375 32.8955 12.2507Z" fill="black"/>
<path d="M75.9263 27.2125H68.6615C68.7268 27.7942 68.8841 28.2275 69.1333 28.5124C69.4835 28.9219 69.9405 29.1267 70.5044 29.1267C70.8605 29.1267 71.1988 29.0376 71.5193 28.8596C71.7152 28.7468 71.9259 28.548 72.1514 28.2631L75.7215 28.5925C75.1755 29.5421 74.5167 30.2247 73.7451 30.6402C72.9735 31.0497 71.8665 31.2545 70.4243 31.2545C69.1719 31.2545 68.1867 31.0794 67.4685 30.7292C66.7503 30.3731 66.1538 29.8122 65.679 29.0465C65.2101 28.2749 64.9757 27.3698 64.9757 26.3311C64.9757 24.8532 65.4475 23.6573 66.3912 22.7432C67.3409 21.8292 68.6496 21.3722 70.3174 21.3722C71.6707 21.3722 72.739 21.577 73.5225 21.9865C74.306 22.396 74.9025 22.9896 75.312 23.7671C75.7215 24.5446 75.9263 25.5566 75.9263 26.803V27.2125ZM72.2405 25.4765C72.1692 24.7761 71.9793 24.2746 71.6707 23.9719C71.368 23.6692 70.9673 23.5178 70.4688 23.5178C69.8931 23.5178 69.4331 23.7463 69.0888 24.2033C68.8692 24.4882 68.7297 24.9126 68.6704 25.4765H72.2405Z" fill="black"/>
<path d="M53.8331 34.6376V21.5859H57.2251V22.9836C57.694 22.396 58.1243 21.9984 58.516 21.7906C59.0443 21.5117 59.6289 21.3722 60.2699 21.3722C61.5341 21.3722 62.5105 21.8559 63.199 22.8234C63.8934 23.7908 64.2406 24.9868 64.2406 26.4113C64.2406 27.9841 63.8637 29.186 63.1099 30.017C62.3562 30.842 61.4035 31.2545 60.2521 31.2545C59.6942 31.2545 59.1837 31.1595 58.7208 30.9696C58.2638 30.7796 57.8542 30.4977 57.4922 30.1238V34.6376H53.8331ZM57.4655 26.34C57.4655 27.0879 57.6228 27.6428 57.9373 28.0049C58.2519 28.3669 58.6496 28.548 59.1303 28.548C59.5517 28.548 59.9049 28.3758 60.1898 28.0316C60.4747 27.6814 60.6171 27.0909 60.6171 26.2599C60.6171 25.4943 60.4687 24.9334 60.172 24.5773C59.8752 24.2152 59.5132 24.0342 59.0858 24.0342C58.6229 24.0342 58.2371 24.2152 57.9284 24.5773C57.6198 24.9393 57.4655 25.5269 57.4655 26.34Z" fill="black"/>
<path d="M42.1652 21.5859H45.9935L47.9432 27.8803L49.7505 21.5859H53.3206L49.5725 31.6907C49.1451 32.8422 48.7089 33.6197 48.2637 34.0233C47.6346 34.5931 46.676 34.878 45.3881 34.878C44.8658 34.878 44.0586 34.8068 42.9665 34.6643L42.6816 32.1359C43.2039 32.3021 43.7856 32.3852 44.4266 32.3852C44.8539 32.3852 45.1982 32.2872 45.4593 32.0914C45.7264 31.8955 45.9519 31.5453 46.1359 31.0408L42.1652 21.5859Z" fill="black"/>
<path d="M40.0324 17.9891V21.5859H42.0267V24.23H40.0324V27.5865C40.0324 27.9901 40.071 28.2571 40.1482 28.3877C40.2669 28.5895 40.4746 28.6904 40.7714 28.6904C41.0385 28.6904 41.4124 28.6133 41.8932 28.4589L42.1602 30.9607C41.264 31.1565 40.4271 31.2545 39.6496 31.2545C38.7474 31.2545 38.0827 31.1387 37.6553 30.9073C37.228 30.6758 36.9105 30.3256 36.7027 29.8567C36.5009 29.3819 36.4 28.6162 36.4 27.5597V24.23H35.0646V21.5859H36.4V19.8498L40.0324 17.9891Z" fill="black"/>
<path d="M80.9056 24.1647H80.1879L80.3588 23.3531H81.085C81.142 23.0683 81.2046 22.8205 81.273 22.6097C81.3413 22.3933 81.4353 22.211 81.5549 22.0629C81.6745 21.9148 81.8312 21.8038 82.0248 21.7297C82.2242 21.6557 82.4834 21.6187 82.8023 21.6187C82.9333 21.6187 83.0643 21.6243 83.1954 21.6357C83.3321 21.6471 83.4659 21.6642 83.5969 21.687L83.409 22.5585C83.3463 22.5528 83.2808 22.5471 83.2124 22.5414C83.1441 22.5357 83.0786 22.5328 83.0159 22.5328C82.8621 22.5328 82.7454 22.5528 82.6656 22.5927C82.5859 22.6268 82.5232 22.6809 82.4777 22.755C82.4378 22.8233 82.4065 22.9088 82.3837 23.0113C82.3609 23.1081 82.3324 23.2221 82.2982 23.3531H83.1612L82.9903 24.1647H82.1188L81.3584 27.7703H80.1452L80.9056 24.1647Z" fill="#C0CBD8"/>
<path d="M83.5163 24.6945C83.5562 24.4154 83.6416 24.1847 83.7726 24.0024C83.9036 23.8144 84.0631 23.6635 84.2511 23.5496C84.439 23.4357 84.6498 23.3559 84.8833 23.3103C85.1168 23.2591 85.3589 23.2334 85.6095 23.2334C85.8089 23.2334 86.0168 23.2477 86.2332 23.2762C86.4497 23.3046 86.649 23.3616 86.8313 23.447C87.0136 23.5268 87.1617 23.6436 87.2756 23.7973C87.3952 23.9454 87.4522 24.1448 87.4465 24.3954C87.4465 24.6062 87.4151 24.8539 87.3525 25.1387L86.9595 26.9159C86.9367 26.9956 86.9196 27.0953 86.9082 27.2149C86.9025 27.3288 86.8997 27.4285 86.8997 27.5139C86.8997 27.588 86.9139 27.6734 86.9424 27.7703H85.7292V27.3345C85.564 27.5225 85.3618 27.662 85.1225 27.7532C84.8833 27.8386 84.6355 27.8813 84.3792 27.8813C84.14 27.8813 83.9292 27.85 83.747 27.7873C83.5704 27.7247 83.4223 27.6421 83.3027 27.5396C83.1831 27.4313 83.0948 27.3089 83.0378 27.1722C82.9809 27.0298 82.9524 26.8817 82.9524 26.7279C82.9524 26.3007 83.0976 25.9589 83.3881 25.7026C83.6843 25.4463 84.1001 25.2868 84.6355 25.2242C84.9203 25.19 85.1681 25.1644 85.3789 25.1473C85.5896 25.1302 85.7633 25.1046 85.9 25.0704C86.0424 25.0305 86.1478 24.9764 86.2162 24.908C86.2845 24.834 86.3187 24.7258 86.3187 24.5834C86.3187 24.4695 86.293 24.3783 86.2418 24.31C86.1905 24.2416 86.125 24.1875 86.0453 24.1476C85.9712 24.1078 85.8886 24.0821 85.7975 24.0707C85.7121 24.0537 85.6295 24.0451 85.5497 24.0451C85.3333 24.0451 85.1396 24.0992 84.9687 24.2075C84.7979 24.31 84.6925 24.4723 84.6526 24.6945H83.5163ZM86.0795 25.6514C85.9257 25.7425 85.7605 25.7995 85.5839 25.8222C85.4073 25.8393 85.2308 25.8536 85.0542 25.865C84.9403 25.8764 84.8292 25.8963 84.721 25.9248C84.6128 25.9476 84.5159 25.9846 84.4305 26.0358C84.3507 26.0871 84.2852 26.1583 84.234 26.2494C84.1827 26.3349 84.1571 26.4459 84.1571 26.5827C84.1571 26.7478 84.2226 26.8731 84.3536 26.9586C84.4903 27.0383 84.6469 27.0782 84.8235 27.0782C85.0115 27.0782 85.1681 27.0497 85.2934 26.9928C85.4244 26.9301 85.5326 26.8532 85.6181 26.7621C85.7092 26.6652 85.7804 26.557 85.8317 26.4374C85.8829 26.3178 85.9257 26.1982 85.9598 26.0786L86.0795 25.6514Z" fill="#C0CBD8"/>
<path d="M90.9172 24.6432C90.9115 24.4552 90.8545 24.31 90.7463 24.2075C90.6438 24.0992 90.4729 24.0451 90.2337 24.0451C90.0172 24.0451 89.8378 24.0793 89.6954 24.1476C89.5587 24.2103 89.4903 24.3214 89.4903 24.4809C89.4903 24.5777 89.5302 24.6603 89.6099 24.7286C89.6954 24.797 89.8406 24.8625 90.0457 24.9251L90.6523 25.1216C90.8175 25.1729 90.9684 25.2327 91.1051 25.3011C91.2475 25.3694 91.37 25.4549 91.4725 25.5574C91.5807 25.6542 91.6633 25.771 91.7203 25.9077C91.7829 26.0444 91.8143 26.2039 91.8143 26.3861C91.8143 26.6595 91.7516 26.8931 91.6263 27.0867C91.5067 27.2747 91.3472 27.4285 91.1478 27.5481C90.9485 27.6677 90.7235 27.7532 90.4729 27.8044C90.2223 27.8557 89.9688 27.8813 89.7125 27.8813C89.496 27.8813 89.2767 27.8585 89.0546 27.813C88.8325 27.7674 88.6302 27.6934 88.448 27.5908C88.2714 27.4826 88.1262 27.3431 88.0122 27.1722C87.8983 26.9956 87.8414 26.7763 87.8414 26.5143V26.3349H88.9606V26.4801C88.9606 26.5827 88.9862 26.6709 89.0375 26.745C89.0888 26.819 89.1543 26.8817 89.234 26.933C89.3195 26.9785 89.4134 27.0155 89.516 27.044C89.6242 27.0668 89.7296 27.0782 89.8321 27.0782C89.9232 27.0782 90.0144 27.0697 90.1055 27.0526C90.1966 27.0355 90.2792 27.007 90.3533 26.9671C90.4273 26.9216 90.4871 26.8674 90.5327 26.8048C90.5783 26.7364 90.601 26.651 90.601 26.5485C90.601 26.3947 90.5612 26.2865 90.4814 26.2238C90.4017 26.1612 90.2963 26.107 90.1653 26.0615L89.234 25.7624C89.0802 25.7112 88.9435 25.6571 88.8239 25.6001C88.71 25.5431 88.6103 25.4719 88.5249 25.3865C88.4451 25.3011 88.3825 25.1985 88.3369 25.0789C88.297 24.9593 88.2771 24.8112 88.2771 24.6346C88.2771 24.3726 88.3369 24.1533 88.4565 23.9768C88.5818 23.8002 88.7413 23.6578 88.935 23.5496C89.1286 23.4357 89.3394 23.3559 89.5672 23.3103C89.8008 23.2591 90.0229 23.2334 90.2337 23.2334C90.4729 23.2334 90.7036 23.2534 90.9257 23.2933C91.1478 23.3331 91.3415 23.4072 91.5067 23.5154C91.6776 23.6179 91.8114 23.7603 91.9083 23.9426C92.0051 24.1249 92.0507 24.3584 92.045 24.6432H90.9172Z" fill="#C0CBD8"/>
<path d="M94.7154 23.3531H95.5869L95.3989 24.1647H94.536L94.0831 26.3605C94.0717 26.4061 94.0632 26.4488 94.0575 26.4887C94.0518 26.5228 94.049 26.5485 94.049 26.5656C94.049 26.6453 94.0604 26.708 94.0831 26.7535C94.1116 26.7934 94.1458 26.8247 94.1857 26.8475C94.2255 26.8703 94.2683 26.8845 94.3138 26.8902C94.3651 26.8902 94.4135 26.8902 94.4591 26.8902C94.6072 26.8902 94.7524 26.8817 94.8948 26.8646L94.6898 27.7959C94.5644 27.8073 94.4391 27.8158 94.3138 27.8215C94.1885 27.8329 94.0604 27.8386 93.9293 27.8386C93.787 27.8386 93.6446 27.8244 93.5022 27.7959C93.3655 27.7731 93.2401 27.7304 93.1262 27.6677C93.018 27.5994 92.9297 27.5082 92.8614 27.3943C92.7987 27.2804 92.7702 27.1323 92.7759 26.95C92.7759 26.8931 92.7816 26.8304 92.793 26.7621C92.8044 26.688 92.8186 26.6111 92.8357 26.5314L93.3313 24.1647H92.5367L92.7247 23.3531H93.5022L93.7756 22.0117H94.9888L94.7154 23.3531Z" fill="#C0CBD8"/>
<path fill-rule="evenodd" clip-rule="evenodd" d="M82.0667 21.8408C81.891 21.908 81.7524 22.0073 81.6472 22.1375C81.5385 22.2721 81.4509 22.4405 81.3861 22.6455C81.3196 22.8508 81.2577 23.0948 81.2014 23.3763L81.1823 23.4717H80.4551L80.3342 24.0461H81.0519L80.2915 27.6516H81.2622L82.0226 24.0461H82.894L83.0149 23.4717H82.1447L82.1834 23.3231C82.2174 23.193 82.2455 23.0803 82.268 22.9848C82.2926 22.8743 82.3276 22.7768 82.3752 22.6952L82.3766 22.6928C82.4344 22.5989 82.5149 22.5289 82.6157 22.485C82.7195 22.4341 82.8569 22.4142 83.0159 22.4142C83.0822 22.4142 83.151 22.4172 83.2223 22.4231C83.2538 22.4258 83.2847 22.4284 83.3151 22.431L83.4545 21.7845C83.3662 21.7718 83.2765 21.7616 83.1855 21.754C83.0579 21.7429 82.9299 21.7373 82.8023 21.7373C82.4914 21.7373 82.2479 21.7736 82.0667 21.8408ZM81.9835 21.6185C82.201 21.5377 82.4756 21.5 82.8023 21.5C82.9367 21.5 83.0711 21.5058 83.2054 21.5175C83.3455 21.5292 83.4827 21.5467 83.6173 21.5701L83.739 21.5913L83.5028 22.6862L83.3982 22.6767C83.3359 22.671 83.2707 22.6653 83.2026 22.6597C83.1372 22.6542 83.075 22.6515 83.0159 22.6515C82.869 22.6515 82.7741 22.6711 82.7187 22.6988L82.7125 22.7019C82.6557 22.7263 82.6121 22.7634 82.5795 22.816C82.5797 22.8156 82.5799 22.8152 82.5802 22.8148L82.4777 22.755L82.5787 22.8172C82.579 22.8168 82.5792 22.8164 82.5795 22.816C82.5477 22.8708 82.5203 22.9435 82.4995 23.0371L82.4992 23.0385C82.4853 23.0977 82.4693 23.163 82.4513 23.2344H82.2982V23.3531L82.4131 23.383C82.4267 23.3309 82.4394 23.2813 82.4513 23.2344H83.3074L83.0866 24.2834H82.2151L82.2349 24.1892L82.1188 24.1647V24.2834H82.2151L81.4547 27.8889H79.9989L80.7593 24.2834H80.9056V24.1647L80.7895 24.1403L80.7593 24.2834H80.0417L80.2625 23.2344H80.9882C80.9816 23.2658 80.9751 23.2976 80.9687 23.3298L81.085 23.3531V23.2344H80.9882C81.0406 22.9859 81.0977 22.7655 81.16 22.5736C81.2319 22.3459 81.3322 22.1499 81.4626 21.9884C81.5965 21.8226 81.771 21.6997 81.9825 21.6189L81.9835 21.6185ZM93.6786 21.893H95.1341L94.8607 23.2344H95.7361L95.4932 24.2834H94.6327L94.1984 26.3893C94.1878 26.4316 94.18 26.4702 94.175 26.5055L94.1746 26.5082C94.1691 26.5411 94.1676 26.5587 94.1676 26.5656C94.1676 26.6288 94.176 26.6689 94.1858 26.6927C94.2034 26.7154 94.223 26.7322 94.2445 26.7445C94.2689 26.7584 94.2945 26.7674 94.322 26.7716H94.4588C94.6023 26.7716 94.7431 26.7633 94.8807 26.7468L95.0466 26.7269L94.787 27.9062L94.7005 27.9141C94.5743 27.9255 94.4481 27.9342 94.3219 27.9399C94.1937 27.9515 94.0629 27.9573 93.9293 27.9573C93.7796 27.9573 93.63 27.9424 93.4807 27.9126C93.3324 27.8877 93.1949 27.8409 93.069 27.7717L93.0627 27.7683C92.9382 27.6896 92.8371 27.5846 92.7596 27.4554L92.7573 27.4516C92.6813 27.3134 92.6514 27.1428 92.6573 26.9482C92.6574 26.8842 92.6638 26.8158 92.6758 26.7433C92.6876 26.6671 92.7022 26.5882 92.7197 26.5067C92.7196 26.5068 92.7197 26.5067 92.7197 26.5067L93.1852 24.2834H92.3874L92.6303 23.2344H93.4052L93.6786 21.893ZM93.8725 22.1303L93.5991 23.4717H92.819L92.686 24.0461H93.4774L92.9519 26.5557C92.9352 26.6334 92.9213 26.7086 92.9103 26.7801L92.9101 26.7816C92.8995 26.8448 92.8946 26.9008 92.8946 26.9501V26.9538C92.8893 27.1217 92.9159 27.2461 92.9643 27.3352C93.0226 27.4319 93.0966 27.508 93.1866 27.5655C93.2872 27.6204 93.3986 27.6583 93.5217 27.6788L93.5254 27.6795C93.6603 27.7065 93.7949 27.72 93.9293 27.72C94.0569 27.72 94.1815 27.7144 94.3031 27.7034L94.3084 27.7029C94.4032 27.6986 94.4979 27.6927 94.5926 27.6851L94.7438 26.9984C94.65 27.0054 94.5551 27.0089 94.4591 27.0089H94.3064L94.2991 27.008C94.238 27.0004 94.1803 26.9811 94.1268 26.9506C94.0711 26.9187 94.0243 26.8754 93.9866 26.8225L93.9812 26.8149L93.977 26.8066C93.9426 26.7378 93.9303 26.6544 93.9303 26.5656C93.9303 26.5386 93.9344 26.5055 93.9402 26.4705C93.9465 26.4272 93.9556 26.3817 93.9674 26.3342L94.4393 24.0461H95.3046L95.4376 23.4717H94.5701L94.8435 22.1303H93.8725ZM85.6095 23.3521C85.3671 23.3521 85.1335 23.3769 84.9088 23.4263L84.906 23.4269C84.6851 23.47 84.4876 23.545 84.3126 23.6511C84.1394 23.756 83.9919 23.8953 83.87 24.0703L83.869 24.0717C83.7724 24.2061 83.701 24.3731 83.6577 24.5758H84.5581C84.615 24.3724 84.7302 24.2126 84.9064 24.1065C85.0974 23.9859 85.3129 23.9265 85.5497 23.9265C85.6366 23.9265 85.7256 23.9356 85.8166 23.9536C85.9186 23.9668 86.0135 23.996 86.1 24.0423C86.1947 24.09 86.2743 24.1555 86.3367 24.2388C86.4078 24.3336 86.4373 24.4523 86.4373 24.5834C86.4373 24.7433 86.399 24.885 86.3033 24.9886L86.3001 24.992C86.2117 25.0805 86.0845 25.142 85.932 25.1847L85.9288 25.1856C85.7835 25.2219 85.6028 25.2482 85.3884 25.2656C85.1796 25.2825 84.9334 25.308 84.6497 25.342C84.1295 25.4029 83.7388 25.5563 83.4662 25.792C83.2043 26.0233 83.0711 26.3311 83.0711 26.7279C83.0711 26.8664 83.0966 26.9992 83.1477 27.1273C83.1972 27.2457 83.2742 27.3535 83.3811 27.4505C83.4875 27.5414 83.6216 27.6169 83.7861 27.6753C83.9533 27.7327 84.1503 27.7627 84.3792 27.7627C84.6216 27.7627 84.8555 27.7224 85.0815 27.6418C85.3026 27.5574 85.4882 27.429 85.64 27.2562L85.8478 27.0197V27.6516H86.7931C86.7852 27.6038 86.781 27.5578 86.781 27.5139C86.781 27.426 86.7839 27.3243 86.7897 27.209L86.79 27.2036C86.8016 27.0814 86.8195 26.9752 86.8444 26.8868L87.2366 25.1133C87.2366 25.1133 87.2366 25.1132 87.2366 25.1133C87.298 24.8339 87.3278 24.595 87.3278 24.3954V24.3927C87.3331 24.1612 87.2803 23.9921 87.1833 23.8719L87.1802 23.8681C87.0791 23.7316 86.9478 23.6276 86.7838 23.5558L86.7809 23.5545C86.6106 23.4747 86.4231 23.4209 86.2178 23.3938C86.006 23.366 85.8033 23.3521 85.6095 23.3521ZM84.8592 23.1942C85.1011 23.1412 85.3513 23.1148 85.6095 23.1148C85.8145 23.1148 86.0276 23.1294 86.2487 23.1585C86.4757 23.1884 86.6865 23.2483 86.8803 23.339C87.0794 23.4263 87.2432 23.555 87.3695 23.7248C87.5103 23.9002 87.571 24.1287 87.5651 24.3968C87.565 24.6183 87.5321 24.8746 87.4684 25.1642L87.0738 26.9485C87.0538 27.0184 87.0376 27.1095 87.0266 27.2235C87.0211 27.3349 87.0183 27.4317 87.0183 27.5139C87.0183 27.5734 87.0299 27.6472 87.0562 27.7368L87.101 27.8889H85.6105V27.6114C85.478 27.7171 85.3293 27.8014 85.1648 27.8641L85.1625 27.865C84.9103 27.955 84.649 28 84.3792 28C84.1299 28 83.9057 27.9674 83.7084 27.8996L83.7073 27.8992C83.5195 27.8326 83.358 27.7433 83.2255 27.6297L83.223 27.6276C83.0916 27.5087 82.9926 27.3721 82.9283 27.2178L82.9276 27.2163C82.8651 27.0598 82.8337 26.8968 82.8337 26.7279C82.8337 26.2706 82.9908 25.895 83.3096 25.6137L83.3105 25.6129C83.6302 25.3362 84.0713 25.1708 84.6216 25.1063C84.9074 25.0721 85.1566 25.0463 85.3693 25.029C85.5755 25.0123 85.7417 24.9875 85.8696 24.9557C85.9994 24.9191 86.0822 24.8733 86.1305 24.8259C86.1708 24.7812 86.2 24.7067 86.2 24.5834C86.2 24.4867 86.1783 24.4231 86.1469 24.3812C86.1071 24.3282 86.0562 24.2858 85.9922 24.2538L85.989 24.2522C85.929 24.2199 85.8607 24.1983 85.7828 24.1885L85.7742 24.1874C85.6957 24.1717 85.621 24.1638 85.5497 24.1638C85.3541 24.1638 85.1828 24.2124 85.0322 24.3077L85.0298 24.3092C84.8924 24.3917 84.8041 24.522 84.7694 24.7154L84.7519 24.8131H83.3795L83.3988 24.6777C83.4407 24.3847 83.5314 24.135 83.6757 23.9339C83.8157 23.7332 83.9871 23.5708 84.1896 23.4481C84.39 23.3266 84.6136 23.2422 84.8592 23.1942ZM90.2337 23.3521C90.0325 23.3521 89.8189 23.3766 89.5927 23.4263L89.5905 23.4267C89.3752 23.4698 89.177 23.5449 88.9951 23.6519L88.9929 23.6532C88.8146 23.7528 88.6688 23.883 88.5541 24.0444C88.451 24.1971 88.3958 24.3915 88.3958 24.6347C88.3958 24.8019 88.4146 24.9356 88.4487 25.0391C88.489 25.1439 88.5431 25.2317 88.6102 25.3041C88.6856 25.3791 88.7739 25.4423 88.876 25.4935C88.99 25.5477 89.1215 25.5998 89.271 25.6497C89.2708 25.6496 89.2712 25.6497 89.271 25.6497L90.2043 25.9494C90.3435 25.9978 90.4616 26.0574 90.5547 26.1305C90.6754 26.2253 90.7197 26.3775 90.7197 26.5485C90.7197 26.6686 90.6929 26.7784 90.6314 26.8706L90.6287 26.8747C90.573 26.9513 90.5011 27.0155 90.4155 27.0682L90.4096 27.0718C90.3238 27.118 90.2293 27.1501 90.1274 27.1692C90.0291 27.1876 89.9307 27.1969 89.8321 27.1969C89.7207 27.1969 89.6072 27.1845 89.4915 27.1602L89.4841 27.1586C89.3741 27.128 89.272 27.0877 89.1782 27.0377L89.1696 27.0331C89.0774 26.9738 89.0006 26.9001 88.9399 26.8125C88.8731 26.716 88.8419 26.6033 88.8419 26.4801V26.4536H87.96V26.5143C87.96 26.7587 88.013 26.9541 88.1115 27.1071C88.2153 27.2626 88.3472 27.3895 88.5081 27.4885C88.6783 27.584 88.8681 27.6536 89.0784 27.6967C89.2931 27.7408 89.5044 27.7627 89.7125 27.7627C89.9608 27.7627 90.2063 27.7378 90.4491 27.6882C90.6879 27.6393 90.9 27.5584 91.0868 27.4464C91.2711 27.3358 91.4169 27.1948 91.5262 27.023C91.6369 26.8519 91.6956 26.641 91.6956 26.3862C91.6956 26.2174 91.6666 26.0754 91.6124 25.9571L91.6107 25.9534C91.5604 25.8327 91.4881 25.7306 91.3934 25.6458L91.3885 25.6414C91.2962 25.5492 91.1852 25.4711 91.0538 25.4081L91.0521 25.4072C90.9218 25.3421 90.7769 25.2846 90.6171 25.235L90.6157 25.2346L90.0101 25.0383C89.8022 24.9748 89.6393 24.9041 89.5358 24.8213L89.5327 24.8188C89.4292 24.7301 89.3717 24.6155 89.3717 24.4809C89.3717 24.3841 89.3925 24.2938 89.4405 24.2158C89.4886 24.1376 89.5591 24.0798 89.645 24.0402C89.808 23.9622 90.0061 23.9265 90.2337 23.9265C90.485 23.9265 90.6948 23.9824 90.8302 24.1235C90.9397 24.2283 91.0027 24.3649 91.0259 24.5245H91.9255C91.9179 24.3077 91.8754 24.1338 91.8035 23.9983C91.7164 23.8343 91.5973 23.7082 91.4456 23.6172L91.4416 23.6147C91.2916 23.5164 91.1134 23.4475 90.9047 23.4101C90.6899 23.3715 90.4663 23.3521 90.2337 23.3521ZM89.5429 23.1942C89.7833 23.1415 90.0136 23.1148 90.2337 23.1148C90.4795 23.1148 90.7172 23.1353 90.9467 23.1765C91.1814 23.2186 91.3899 23.2974 91.5698 23.4149C91.7589 23.5288 91.9069 23.687 92.013 23.8869C92.1223 24.0926 92.1695 24.3479 92.1636 24.6456L92.1613 24.7619H90.802L90.7986 24.6468C90.7935 24.4815 90.7446 24.3693 90.6647 24.2936L90.66 24.2892C90.5903 24.2156 90.4594 24.1638 90.2337 24.1638C90.0288 24.1638 89.8683 24.1963 89.7467 24.2546L89.7448 24.2555C89.6945 24.2786 89.6627 24.3075 89.6427 24.3401C89.6223 24.3732 89.609 24.4182 89.609 24.4809C89.609 24.5393 89.6308 24.5897 89.6857 24.6372C89.7533 24.6907 89.8801 24.7505 90.0804 24.8117L90.0823 24.8122L90.6875 25.0083C90.6872 25.0083 90.6877 25.0084 90.6875 25.0083C90.8574 25.0611 91.0146 25.1232 91.1573 25.1945C91.3093 25.2676 91.442 25.3596 91.5541 25.4712C91.6741 25.5792 91.7659 25.7093 91.829 25.8602C91.8995 26.0149 91.9329 26.1912 91.9329 26.3862C91.9329 26.678 91.8659 26.9347 91.7262 27.1509C91.5963 27.3549 91.4232 27.5213 91.2089 27.6499C90.9969 27.7771 90.7591 27.867 90.4967 27.9207C90.2382 27.9736 89.9768 28 89.7125 28C89.4876 28 89.2604 27.9763 89.0307 27.9292C88.7976 27.8814 88.5836 27.8033 88.3898 27.6943L88.3859 27.6921C88.1948 27.575 88.037 27.4233 87.9135 27.238L87.9125 27.2365C87.7835 27.0365 87.7227 26.7935 87.7227 26.5143V26.2162H89.0793V26.4801C89.0793 26.562 89.0994 26.6259 89.1351 26.6775C89.1761 26.7368 89.2288 26.7878 89.2942 26.8306C89.3692 26.8701 89.4523 26.9029 89.5441 26.9287C89.6436 26.9494 89.7395 26.9595 89.8321 26.9595C89.9158 26.9595 89.9996 26.9517 90.0836 26.9359C90.1627 26.9211 90.2325 26.897 90.294 26.8643C90.3542 26.8268 90.4005 26.7842 90.4352 26.737C90.4642 26.6927 90.4824 26.6322 90.4824 26.5485C90.4824 26.4119 90.4469 26.3476 90.4081 26.3171C90.3419 26.2651 90.2498 26.2166 90.1276 26.174L89.1977 25.8754L89.1965 25.875C89.0391 25.8226 88.8977 25.7667 88.7729 25.7073L88.7708 25.7063C88.6461 25.6439 88.5359 25.5654 88.441 25.4704L88.4381 25.4675C88.3469 25.3698 88.2765 25.2538 88.226 25.1212L88.2242 25.1165C88.1791 24.981 88.1584 24.8193 88.1584 24.6347C88.1584 24.3544 88.2226 24.1105 88.3583 23.9102L88.3597 23.9081C88.4953 23.7171 88.6678 23.5632 88.8759 23.4466C89.0808 23.3263 89.3033 23.2422 89.5429 23.1942ZM86.2735 25.3985L86.0741 26.1106C86.0385 26.2352 85.9939 26.3602 85.9408 26.4842C85.8839 26.6168 85.805 26.7366 85.7047 26.8432C85.6076 26.9467 85.4868 27.0318 85.3446 27.0998L85.3425 27.1008C85.1972 27.1669 85.0226 27.1969 84.8235 27.1969C84.6284 27.1969 84.4507 27.1526 84.2938 27.0611L84.2887 27.0581C84.1219 26.9493 84.0384 26.7853 84.0384 26.5827C84.0384 26.4328 84.0663 26.2991 84.1314 26.1899C84.191 26.0843 84.2691 25.9985 84.3663 25.936L84.3694 25.9341C84.4665 25.8758 84.575 25.8345 84.6936 25.8093C84.8071 25.7796 84.9234 25.7588 85.0424 25.7469L85.0465 25.7465C85.2212 25.7352 85.3959 25.7212 85.5705 25.7043C85.7304 25.6835 85.8795 25.6319 86.019 25.5493L86.2735 25.3985ZM85.8953 25.8689C85.8001 25.903 85.7013 25.9268 85.5991 25.9399L85.5953 25.9404C85.4182 25.9576 85.2411 25.9718 85.0639 25.9833C84.9568 25.9941 84.8526 26.0129 84.7512 26.0395L84.7455 26.041C84.6494 26.0613 84.5657 26.0934 84.4931 26.1367C84.432 26.1763 84.3798 26.2322 84.3374 26.3076L84.3358 26.3105C84.2989 26.3719 84.2757 26.4598 84.2757 26.5827C84.2757 26.7094 84.3224 26.7956 84.416 26.8576C84.5319 26.9246 84.6666 26.9595 84.8235 26.9595C84.9998 26.9595 85.1381 26.9328 85.2433 26.8852C85.3626 26.828 85.4579 26.7595 85.5315 26.6809C85.6133 26.594 85.6769 26.4972 85.7226 26.3907C85.772 26.2755 85.8129 26.1607 85.8457 26.0462C85.8456 26.0463 85.8457 26.0461 85.8457 26.0462L85.8953 25.8689Z" fill="#C0CBD8"/>
</svg>
