<svg width="119" height="35" viewBox="0 0 119 35" fill="none" xmlns="http://www.w3.org/2000/svg">
<rect x="4.2426" y="7.40445" width="17.2872" height="24.2472" rx="5" transform="rotate(-2.67762 4.2426 7.40445)" stroke="black" stroke-width="4"/>
<path d="M15.1138 18.2146H12.9417L14.0246 15.8623C14.1017 15.7082 14.1471 15.5402 14.1582 15.3682C14.1692 15.1961 14.1457 15.0236 14.0889 14.8609C14.0322 14.6982 13.9434 14.5486 13.8278 14.421C13.7123 14.2935 13.5723 14.1905 13.4163 14.1183C13.2602 14.046 13.0913 14.006 12.9195 14.0006C12.7477 13.9952 12.5766 14.0245 12.4164 14.0868C12.2561 14.1491 12.11 14.243 11.9867 14.3631C11.8634 14.4832 11.7654 14.6269 11.6986 14.7857L10.1736 18.0957C10.0409 18.3844 9.98276 18.7019 10.0044 19.019C10.0261 19.3361 10.1269 19.6427 10.2976 19.9105C10.4682 20.1784 10.7033 20.3989 10.9812 20.5518C11.259 20.7046 11.5707 20.785 11.8876 20.7854H14.0598L12.9769 23.1377C12.8998 23.2918 12.8544 23.4598 12.8433 23.6318C12.8322 23.8039 12.8558 23.9764 12.9125 24.1391C12.9693 24.3018 13.0581 24.4514 13.1736 24.579C13.2892 24.7065 13.4292 24.8095 13.5852 24.8817C13.7413 24.954 13.9102 24.994 14.082 24.9994C14.2537 25.0048 14.4248 24.9755 14.5851 24.9132C14.7453 24.8509 14.8915 24.757 15.0148 24.6369C15.1381 24.5168 15.2361 24.3731 15.3029 24.2143L16.8279 20.9011C16.9598 20.6126 17.0174 20.2954 16.9954 19.9787C16.9734 19.662 16.8725 19.356 16.7019 19.0886C16.5313 18.8212 16.2965 18.6011 16.019 18.4483C15.7416 18.2956 15.4303 18.2153 15.1138 18.2146Z" fill="#873DE6"/>
<path d="M67.1384 11.7507C67.1384 10.3084 67.6251 9.12135 68.5985 8.1895C69.5719 7.25173 70.8865 6.78284 72.5425 6.78284C74.4359 6.78284 75.8663 7.33185 76.8337 8.42988C77.6112 9.31424 78 10.4034 78 11.6973C78 13.1514 77.5163 14.3444 76.5488 15.2763C75.5873 16.2022 74.2548 16.6651 72.5514 16.6651C71.032 16.6651 69.8034 16.2793 68.8656 15.5077C67.7141 14.5521 67.1384 13.2998 67.1384 11.7507ZM70.7708 11.7418C70.7708 12.5846 70.94 13.2078 71.2783 13.6114C71.6225 14.015 72.0528 14.2168 72.5692 14.2168C73.0915 14.2168 73.5189 14.018 73.8512 13.6203C74.1895 13.2226 74.3587 12.5846 74.3587 11.7062C74.3587 10.8871 74.1895 10.2787 73.8512 9.88106C73.5129 9.47746 73.0945 9.27566 72.5959 9.27566C72.0677 9.27566 71.6314 9.48043 71.2872 9.88997C70.9429 10.2936 70.7708 10.9108 70.7708 11.7418Z" fill="black"/>
<path d="M64.4002 3.39972V6.99651H66.3945V9.64069H64.4002V12.9971C64.4002 13.4007 64.4388 13.6678 64.5159 13.7984C64.6346 14.0002 64.8424 14.1011 65.1391 14.1011C65.4062 14.1011 65.7802 14.0239 66.2609 13.8696L66.528 16.3713C65.6318 16.5672 64.7949 16.6651 64.0174 16.6651C63.1152 16.6651 62.4505 16.5494 62.0231 16.3179C61.5958 16.0864 61.2782 15.7362 61.0705 15.2674C60.8687 14.7925 60.7678 14.0269 60.7678 12.9704V9.64069H59.4324V6.99651H60.7678V5.26044L64.4002 3.39972Z" fill="black"/>
<path d="M47.9693 11.7507C47.9693 10.3084 48.456 9.12135 49.4294 8.1895C50.4027 7.25173 51.7174 6.78284 53.3734 6.78284C55.2667 6.78284 56.6971 7.33185 57.6646 8.42988C58.4421 9.31424 58.8309 10.4034 58.8309 11.6973C58.8309 13.1514 58.3471 14.3444 57.3797 15.2763C56.4182 16.2022 55.0857 16.6651 53.3823 16.6651C51.8628 16.6651 50.6342 16.2793 49.6964 15.5077C48.545 14.5521 47.9693 13.2998 47.9693 11.7507ZM51.6017 11.7418C51.6017 12.5846 51.7708 13.2078 52.1091 13.6114C52.4534 14.015 52.8837 14.2168 53.4001 14.2168C53.9224 14.2168 54.3497 14.018 54.6821 13.6203C55.0204 13.2226 55.1896 12.5846 55.1896 11.7062C55.1896 10.8871 55.0204 10.2787 54.6821 9.88106C54.3438 9.47746 53.9253 9.27566 53.4268 9.27566C52.8985 9.27566 52.4623 9.48043 52.118 9.88997C51.7738 10.2936 51.6017 10.9108 51.6017 11.7418Z" fill="black"/>
<path d="M40.8953 6.99651H44.2874V8.54562C44.6138 7.87493 44.9492 7.41495 45.2934 7.16566C45.6436 6.91045 46.0739 6.78284 46.5843 6.78284C47.1185 6.78284 47.7031 6.94903 48.3382 7.2814L47.2164 9.86326C46.7891 9.6852 46.4508 9.59617 46.2015 9.59617C45.7267 9.59617 45.3587 9.79203 45.0975 10.1838C44.7236 10.7357 44.5367 11.7685 44.5367 13.282V16.4514H40.8953V6.99651Z" fill="black"/>
<path d="M29.2631 20.0482V6.99651H32.6551V8.39427C33.124 7.80668 33.5543 7.40901 33.9461 7.20128C34.4743 6.92232 35.0589 6.78284 35.6999 6.78284C36.9642 6.78284 37.9405 7.26656 38.629 8.23402C39.3234 9.20147 39.6707 10.3974 39.6707 11.8219C39.6707 13.3948 39.2938 14.5967 38.54 15.4276C37.7862 16.2526 36.8336 16.6651 35.6821 16.6651C35.1242 16.6651 34.6138 16.5701 34.1508 16.3802C33.6938 16.1903 33.2843 15.9084 32.9222 15.5344V20.0482H29.2631ZM32.8955 11.7507C32.8955 12.4985 33.0528 13.0535 33.3674 13.4155C33.6819 13.7776 34.0796 13.9586 34.5604 13.9586C34.9818 13.9586 35.3349 13.7865 35.6198 13.4422C35.9047 13.0921 36.0472 12.5015 36.0472 11.6706C36.0472 10.9049 35.8988 10.344 35.602 9.9879C35.3052 9.62585 34.9432 9.44482 34.5158 9.44482C34.0529 9.44482 33.6671 9.62585 33.3585 9.9879C33.0498 10.35 32.8955 10.9375 32.8955 11.7507Z" fill="black"/>
<path d="M75.9263 26.7125H68.6615C68.7268 27.2942 68.8841 27.7275 69.1333 28.0124C69.4835 28.4219 69.9405 28.6267 70.5044 28.6267C70.8605 28.6267 71.1988 28.5376 71.5193 28.3596C71.7152 28.2468 71.9259 28.048 72.1514 27.7631L75.7215 28.0925C75.1755 29.0421 74.5167 29.7247 73.7451 30.1402C72.9735 30.5497 71.8665 30.7545 70.4243 30.7545C69.1719 30.7545 68.1867 30.5794 67.4685 30.2292C66.7503 29.8731 66.1538 29.3122 65.679 28.5465C65.2101 27.7749 64.9757 26.8698 64.9757 25.8311C64.9757 24.3532 65.4475 23.1573 66.3912 22.2432C67.3409 21.3292 68.6496 20.8722 70.3174 20.8722C71.6707 20.8722 72.739 21.077 73.5225 21.4865C74.306 21.896 74.9025 22.4896 75.312 23.2671C75.7215 24.0446 75.9263 25.0566 75.9263 26.303V26.7125ZM72.2405 24.9765C72.1692 24.2761 71.9793 23.7746 71.6707 23.4719C71.368 23.1692 70.9673 23.0178 70.4688 23.0178C69.8931 23.0178 69.4331 23.2463 69.0888 23.7033C68.8692 23.9882 68.7297 24.4126 68.6704 24.9765H72.2405Z" fill="black"/>
<path d="M53.8331 34.1376V21.0859H57.2251V22.4836C57.694 21.896 58.1243 21.4984 58.516 21.2906C59.0443 21.0117 59.6289 20.8722 60.2699 20.8722C61.5341 20.8722 62.5105 21.3559 63.199 22.3234C63.8934 23.2908 64.2406 24.4868 64.2406 25.9113C64.2406 27.4841 63.8637 28.686 63.1099 29.517C62.3562 30.342 61.4035 30.7545 60.2521 30.7545C59.6942 30.7545 59.1837 30.6595 58.7208 30.4696C58.2638 30.2796 57.8542 29.9977 57.4922 29.6238V34.1376H53.8331ZM57.4655 25.84C57.4655 26.5879 57.6228 27.1428 57.9373 27.5049C58.2519 27.8669 58.6496 28.048 59.1303 28.048C59.5517 28.048 59.9049 27.8758 60.1898 27.5316C60.4747 27.1814 60.6171 26.5909 60.6171 25.7599C60.6171 24.9943 60.4687 24.4334 60.172 24.0773C59.8752 23.7152 59.5132 23.5342 59.0858 23.5342C58.6229 23.5342 58.2371 23.7152 57.9284 24.0773C57.6198 24.4393 57.4655 25.0269 57.4655 25.84Z" fill="black"/>
<path d="M42.1652 21.0859H45.9935L47.9432 27.3803L49.7505 21.0859H53.3206L49.5725 31.1907C49.1451 32.3422 48.7089 33.1197 48.2637 33.5233C47.6346 34.0931 46.676 34.378 45.3881 34.378C44.8658 34.378 44.0586 34.3068 42.9665 34.1643L42.6816 31.6359C43.2039 31.8021 43.7856 31.8852 44.4266 31.8852C44.8539 31.8852 45.1982 31.7872 45.4593 31.5914C45.7264 31.3955 45.9519 31.0453 46.1359 30.5408L42.1652 21.0859Z" fill="black"/>
<path d="M40.0324 17.4891V21.0859H42.0267V23.73H40.0324V27.0865C40.0324 27.4901 40.071 27.7571 40.1482 27.8877C40.2669 28.0895 40.4746 28.1904 40.7714 28.1904C41.0385 28.1904 41.4124 28.1133 41.8932 27.9589L42.1602 30.4607C41.264 30.6565 40.4271 30.7545 39.6496 30.7545C38.7474 30.7545 38.0827 30.6387 37.6553 30.4073C37.228 30.1758 36.9105 29.8256 36.7027 29.3567C36.5009 28.8819 36.4 28.1162 36.4 27.0597V23.73H35.0646V21.0859H36.4V19.3498L40.0324 17.4891Z" fill="black"/>
<path d="M79.9056 23.6647H79.1879L79.3588 22.8531H80.085C80.142 22.5683 80.2046 22.3205 80.273 22.1097C80.3413 21.8933 80.4353 21.711 80.5549 21.5629C80.6745 21.4148 80.8312 21.3038 81.0248 21.2297C81.2242 21.1557 81.4834 21.1187 81.8023 21.1187C81.9333 21.1187 82.0643 21.1243 82.1954 21.1357C82.3321 21.1471 82.4659 21.1642 82.5969 21.187L82.409 22.0585C82.3463 22.0528 82.2808 22.0471 82.2124 22.0414C82.1441 22.0357 82.0786 22.0328 82.0159 22.0328C81.8621 22.0328 81.7454 22.0528 81.6656 22.0927C81.5859 22.1268 81.5232 22.1809 81.4777 22.255C81.4378 22.3233 81.4065 22.4088 81.3837 22.5113C81.3609 22.6081 81.3324 22.7221 81.2982 22.8531H82.1612L81.9903 23.6647H81.1188L80.3584 27.2703H79.1452L79.9056 23.6647Z" fill="#873DE6"/>
<path d="M82.5163 24.1945C82.5562 23.9154 82.6416 23.6847 82.7726 23.5024C82.9036 23.3144 83.0631 23.1635 83.2511 23.0496C83.439 22.9357 83.6498 22.8559 83.8833 22.8103C84.1168 22.7591 84.3589 22.7334 84.6095 22.7334C84.8089 22.7334 85.0168 22.7477 85.2332 22.7762C85.4497 22.8046 85.649 22.8616 85.8313 22.947C86.0136 23.0268 86.1617 23.1436 86.2756 23.2973C86.3952 23.4454 86.4522 23.6448 86.4465 23.8954C86.4465 24.1062 86.4151 24.3539 86.3525 24.6387L85.9595 26.4159C85.9367 26.4956 85.9196 26.5953 85.9082 26.7149C85.9025 26.8288 85.8997 26.9285 85.8997 27.0139C85.8997 27.088 85.9139 27.1734 85.9424 27.2703H84.7292V26.8345C84.564 27.0225 84.3618 27.162 84.1225 27.2532C83.8833 27.3386 83.6355 27.3813 83.3792 27.3813C83.14 27.3813 82.9292 27.35 82.747 27.2873C82.5704 27.2247 82.4223 27.1421 82.3027 27.0396C82.1831 26.9313 82.0948 26.8089 82.0378 26.6722C81.9809 26.5298 81.9524 26.3817 81.9524 26.2279C81.9524 25.8007 82.0976 25.4589 82.3881 25.2026C82.6843 24.9463 83.1001 24.7868 83.6355 24.7242C83.9203 24.69 84.1681 24.6644 84.3789 24.6473C84.5896 24.6302 84.7633 24.6046 84.9 24.5704C85.0424 24.5305 85.1478 24.4764 85.2162 24.408C85.2845 24.334 85.3187 24.2258 85.3187 24.0834C85.3187 23.9695 85.293 23.8783 85.2418 23.81C85.1905 23.7416 85.125 23.6875 85.0453 23.6476C84.9712 23.6078 84.8886 23.5821 84.7975 23.5707C84.7121 23.5537 84.6295 23.5451 84.5497 23.5451C84.3333 23.5451 84.1396 23.5992 83.9687 23.7075C83.7979 23.81 83.6925 23.9723 83.6526 24.1945H82.5163ZM85.0795 25.1514C84.9257 25.2425 84.7605 25.2995 84.5839 25.3222C84.4073 25.3393 84.2308 25.3536 84.0542 25.365C83.9403 25.3764 83.8292 25.3963 83.721 25.4248C83.6128 25.4476 83.5159 25.4846 83.4305 25.5358C83.3507 25.5871 83.2852 25.6583 83.234 25.7494C83.1827 25.8349 83.1571 25.9459 83.1571 26.0827C83.1571 26.2478 83.2226 26.3731 83.3536 26.4586C83.4903 26.5383 83.6469 26.5782 83.8235 26.5782C84.0115 26.5782 84.1681 26.5497 84.2934 26.4928C84.4244 26.4301 84.5326 26.3532 84.6181 26.2621C84.7092 26.1652 84.7804 26.057 84.8317 25.9374C84.8829 25.8178 84.9257 25.6982 84.9598 25.5786L85.0795 25.1514Z" fill="#873DE6"/>
<path d="M89.9172 24.1432C89.9115 23.9552 89.8545 23.81 89.7463 23.7075C89.6438 23.5992 89.4729 23.5451 89.2337 23.5451C89.0172 23.5451 88.8378 23.5793 88.6954 23.6476C88.5587 23.7103 88.4903 23.8214 88.4903 23.9809C88.4903 24.0777 88.5302 24.1603 88.6099 24.2286C88.6954 24.297 88.8406 24.3625 89.0457 24.4251L89.6523 24.6216C89.8175 24.6729 89.9684 24.7327 90.1051 24.8011C90.2475 24.8694 90.37 24.9549 90.4725 25.0574C90.5807 25.1542 90.6633 25.271 90.7203 25.4077C90.7829 25.5444 90.8143 25.7039 90.8143 25.8861C90.8143 26.1595 90.7516 26.3931 90.6263 26.5867C90.5067 26.7747 90.3472 26.9285 90.1478 27.0481C89.9485 27.1677 89.7235 27.2532 89.4729 27.3044C89.2223 27.3557 88.9688 27.3813 88.7125 27.3813C88.496 27.3813 88.2767 27.3585 88.0546 27.313C87.8325 27.2674 87.6302 27.1934 87.448 27.0908C87.2714 26.9826 87.1262 26.8431 87.0122 26.6722C86.8983 26.4956 86.8414 26.2763 86.8414 26.0143V25.8349H87.9606V25.9801C87.9606 26.0827 87.9862 26.1709 88.0375 26.245C88.0888 26.319 88.1543 26.3817 88.234 26.433C88.3195 26.4785 88.4134 26.5155 88.516 26.544C88.6242 26.5668 88.7296 26.5782 88.8321 26.5782C88.9232 26.5782 89.0144 26.5697 89.1055 26.5526C89.1966 26.5355 89.2792 26.507 89.3533 26.4671C89.4273 26.4216 89.4871 26.3674 89.5327 26.3048C89.5783 26.2364 89.601 26.151 89.601 26.0485C89.601 25.8947 89.5612 25.7865 89.4814 25.7238C89.4017 25.6612 89.2963 25.607 89.1653 25.5615L88.234 25.2624C88.0802 25.2112 87.9435 25.1571 87.8239 25.1001C87.71 25.0431 87.6103 24.9719 87.5249 24.8865C87.4451 24.8011 87.3825 24.6985 87.3369 24.5789C87.297 24.4593 87.2771 24.3112 87.2771 24.1346C87.2771 23.8726 87.3369 23.6533 87.4565 23.4768C87.5818 23.3002 87.7413 23.1578 87.935 23.0496C88.1286 22.9357 88.3394 22.8559 88.5672 22.8103C88.8008 22.7591 89.0229 22.7334 89.2337 22.7334C89.4729 22.7334 89.7036 22.7534 89.9257 22.7933C90.1478 22.8331 90.3415 22.9072 90.5067 23.0154C90.6776 23.1179 90.8114 23.2603 90.9083 23.4426C91.0051 23.6249 91.0507 23.8584 91.045 24.1432H89.9172Z" fill="#873DE6"/>
<path d="M93.7154 22.8531H94.5869L94.3989 23.6647H93.536L93.0831 25.8605C93.0717 25.9061 93.0632 25.9488 93.0575 25.9887C93.0518 26.0228 93.049 26.0485 93.049 26.0656C93.049 26.1453 93.0604 26.208 93.0831 26.2535C93.1116 26.2934 93.1458 26.3247 93.1857 26.3475C93.2255 26.3703 93.2683 26.3845 93.3138 26.3902C93.3651 26.3902 93.4135 26.3902 93.4591 26.3902C93.6072 26.3902 93.7524 26.3817 93.8948 26.3646L93.6898 27.2959C93.5644 27.3073 93.4391 27.3158 93.3138 27.3215C93.1885 27.3329 93.0604 27.3386 92.9293 27.3386C92.787 27.3386 92.6446 27.3244 92.5022 27.2959C92.3655 27.2731 92.2401 27.2304 92.1262 27.1677C92.018 27.0994 91.9297 27.0082 91.8614 26.8943C91.7987 26.7804 91.7702 26.6323 91.7759 26.45C91.7759 26.3931 91.7816 26.3304 91.793 26.2621C91.8044 26.188 91.8186 26.1111 91.8357 26.0314L92.3313 23.6647H91.5367L91.7247 22.8531H92.5022L92.7756 21.5117H93.9888L93.7154 22.8531Z" fill="#873DE6"/>
<path fill-rule="evenodd" clip-rule="evenodd" d="M81.0667 21.3408C80.891 21.408 80.7524 21.5073 80.6472 21.6375C80.5385 21.7721 80.4509 21.9405 80.3861 22.1455C80.3196 22.3508 80.2577 22.5948 80.2014 22.8763L80.1823 22.9717H79.4551L79.3342 23.5461H80.0519L79.2915 27.1516H80.2622L81.0226 23.5461H81.894L82.0149 22.9717H81.1447L81.1834 22.8231C81.2174 22.693 81.2455 22.5803 81.268 22.4848C81.2926 22.3743 81.3276 22.2768 81.3752 22.1952L81.3766 22.1928C81.4344 22.0989 81.5149 22.0289 81.6157 21.985C81.7195 21.9341 81.8569 21.9142 82.0159 21.9142C82.0822 21.9142 82.151 21.9172 82.2223 21.9231C82.2538 21.9258 82.2847 21.9284 82.3151 21.931L82.4545 21.2845C82.3662 21.2718 82.2765 21.2616 82.1855 21.254C82.0579 21.2429 81.9299 21.2373 81.8023 21.2373C81.4914 21.2373 81.2479 21.2736 81.0667 21.3408ZM80.9835 21.1185C81.201 21.0377 81.4756 21 81.8023 21C81.9367 21 82.0711 21.0058 82.2054 21.0175C82.3455 21.0292 82.4827 21.0467 82.6173 21.0701L82.739 21.0913L82.5028 22.1862L82.3982 22.1767C82.3359 22.171 82.2707 22.1653 82.2026 22.1597C82.1372 22.1542 82.075 22.1515 82.0159 22.1515C81.869 22.1515 81.7741 22.1711 81.7187 22.1988L81.7125 22.2019C81.6557 22.2263 81.6121 22.2634 81.5795 22.316C81.5797 22.3156 81.5799 22.3152 81.5802 22.3148L81.4777 22.255L81.5787 22.3172C81.579 22.3168 81.5792 22.3164 81.5795 22.316C81.5477 22.3708 81.5203 22.4435 81.4995 22.5371L81.4992 22.5385C81.4853 22.5977 81.4693 22.663 81.4513 22.7344H81.2982V22.8531L81.4131 22.883C81.4267 22.8309 81.4394 22.7813 81.4513 22.7344H82.3074L82.0866 23.7834H81.2151L81.2349 23.6892L81.1188 23.6647V23.7834H81.2151L80.4547 27.3889H78.9989L79.7593 23.7834H79.9056V23.6647L79.7895 23.6403L79.7593 23.7834H79.0417L79.2625 22.7344H79.9882C79.9816 22.7658 79.9751 22.7976 79.9687 22.8298L80.085 22.8531V22.7344H79.9882C80.0406 22.4859 80.0977 22.2655 80.16 22.0736C80.2319 21.8459 80.3322 21.6499 80.4626 21.4884C80.5965 21.3226 80.771 21.1997 80.9825 21.1189L80.9835 21.1185ZM92.6786 21.393H94.1341L93.8607 22.7344H94.7361L94.4932 23.7834H93.6327L93.1984 25.8893C93.1878 25.9316 93.18 25.9702 93.175 26.0055L93.1746 26.0082C93.1691 26.0411 93.1676 26.0587 93.1676 26.0656C93.1676 26.1288 93.176 26.1689 93.1858 26.1927C93.2034 26.2154 93.223 26.2322 93.2445 26.2445C93.2689 26.2584 93.2945 26.2674 93.322 26.2716H93.4588C93.6023 26.2716 93.7431 26.2633 93.8807 26.2468L94.0466 26.2269L93.787 27.4062L93.7005 27.4141C93.5743 27.4255 93.4481 27.4342 93.3219 27.4399C93.1937 27.4515 93.0629 27.4573 92.9293 27.4573C92.7796 27.4573 92.63 27.4424 92.4807 27.4126C92.3324 27.3877 92.1949 27.3409 92.069 27.2717L92.0627 27.2683C91.9382 27.1896 91.8371 27.0846 91.7596 26.9554L91.7573 26.9516C91.6813 26.8134 91.6514 26.6428 91.6573 26.4482C91.6574 26.3842 91.6638 26.3158 91.6758 26.2433C91.6876 26.1671 91.7022 26.0882 91.7197 26.0067C91.7196 26.0068 91.7197 26.0067 91.7197 26.0067L92.1852 23.7834H91.3874L91.6303 22.7344H92.4052L92.6786 21.393ZM92.8725 21.6303L92.5991 22.9717H91.819L91.686 23.5461H92.4774L91.9519 26.0557C91.9352 26.1334 91.9213 26.2086 91.9103 26.2801L91.9101 26.2816C91.8995 26.3448 91.8946 26.4008 91.8946 26.4501V26.4538C91.8893 26.6217 91.9159 26.7461 91.9643 26.8352C92.0226 26.9319 92.0966 27.008 92.1866 27.0655C92.2872 27.1204 92.3986 27.1583 92.5217 27.1788L92.5254 27.1795C92.6603 27.2065 92.7949 27.22 92.9293 27.22C93.0569 27.22 93.1815 27.2144 93.3031 27.2034L93.3084 27.2029C93.4032 27.1986 93.4979 27.1927 93.5926 27.1851L93.7438 26.4984C93.65 26.5054 93.5551 26.5089 93.4591 26.5089H93.3064L93.2991 26.508C93.238 26.5004 93.1803 26.4811 93.1268 26.4506C93.0711 26.4187 93.0243 26.3754 92.9866 26.3225L92.9812 26.3149L92.977 26.3066C92.9426 26.2378 92.9303 26.1544 92.9303 26.0656C92.9303 26.0386 92.9344 26.0055 92.9402 25.9705C92.9465 25.9272 92.9556 25.8817 92.9674 25.8342L93.4393 23.5461H94.3046L94.4376 22.9717H93.5701L93.8435 21.6303H92.8725ZM84.6095 22.8521C84.3671 22.8521 84.1335 22.8769 83.9088 22.9263L83.906 22.9269C83.6851 22.97 83.4876 23.045 83.3126 23.1511C83.1394 23.256 82.9919 23.3953 82.87 23.5703L82.869 23.5717C82.7724 23.7061 82.701 23.8731 82.6577 24.0758H83.5581C83.615 23.8724 83.7302 23.7126 83.9064 23.6065C84.0974 23.4859 84.3129 23.4265 84.5497 23.4265C84.6366 23.4265 84.7256 23.4356 84.8166 23.4536C84.9186 23.4668 85.0135 23.496 85.1 23.5423C85.1947 23.59 85.2743 23.6555 85.3367 23.7388C85.4078 23.8336 85.4373 23.9523 85.4373 24.0834C85.4373 24.2433 85.399 24.385 85.3033 24.4886L85.3001 24.492C85.2117 24.5805 85.0845 24.642 84.932 24.6847L84.9288 24.6856C84.7835 24.7219 84.6028 24.7482 84.3884 24.7656C84.1796 24.7825 83.9334 24.808 83.6497 24.842C83.1295 24.9029 82.7388 25.0563 82.4662 25.292C82.2043 25.5233 82.0711 25.8311 82.0711 26.2279C82.0711 26.3664 82.0966 26.4992 82.1477 26.6273C82.1972 26.7457 82.2742 26.8535 82.3811 26.9505C82.4875 27.0414 82.6216 27.1169 82.7861 27.1753C82.9533 27.2327 83.1503 27.2627 83.3792 27.2627C83.6216 27.2627 83.8555 27.2224 84.0815 27.1418C84.3026 27.0574 84.4882 26.929 84.64 26.7562L84.8478 26.5197V27.1516H85.7931C85.7852 27.1038 85.781 27.0578 85.781 27.0139C85.781 26.926 85.7839 26.8243 85.7897 26.709L85.79 26.7036C85.8016 26.5814 85.8195 26.4752 85.8444 26.3868L86.2366 24.6133C86.2366 24.6133 86.2366 24.6132 86.2366 24.6133C86.298 24.3339 86.3278 24.095 86.3278 23.8954V23.8927C86.3331 23.6612 86.2803 23.4921 86.1833 23.3719L86.1802 23.3681C86.0791 23.2316 85.9478 23.1276 85.7838 23.0558L85.7809 23.0545C85.6106 22.9747 85.4231 22.9209 85.2178 22.8938C85.006 22.866 84.8033 22.8521 84.6095 22.8521ZM83.8592 22.6942C84.1011 22.6412 84.3513 22.6148 84.6095 22.6148C84.8145 22.6148 85.0276 22.6294 85.2487 22.6585C85.4757 22.6884 85.6865 22.7483 85.8803 22.839C86.0794 22.9263 86.2432 23.055 86.3695 23.2248C86.5103 23.4002 86.571 23.6287 86.5651 23.8968C86.565 24.1183 86.5321 24.3746 86.4684 24.6642L86.0738 26.4485C86.0538 26.5184 86.0376 26.6095 86.0266 26.7235C86.0211 26.8349 86.0183 26.9317 86.0183 27.0139C86.0183 27.0734 86.0299 27.1472 86.0562 27.2368L86.101 27.3889H84.6105V27.1114C84.478 27.2171 84.3293 27.3014 84.1648 27.3641L84.1625 27.365C83.9103 27.455 83.649 27.5 83.3792 27.5C83.1299 27.5 82.9057 27.4674 82.7084 27.3996L82.7073 27.3992C82.5195 27.3326 82.358 27.2433 82.2255 27.1297L82.223 27.1276C82.0916 27.0087 81.9926 26.8721 81.9283 26.7178L81.9276 26.7163C81.8651 26.5598 81.8337 26.3968 81.8337 26.2279C81.8337 25.7706 81.9908 25.395 82.3096 25.1137L82.3105 25.1129C82.6302 24.8362 83.0713 24.6708 83.6216 24.6063C83.9074 24.5721 84.1566 24.5463 84.3693 24.529C84.5755 24.5123 84.7417 24.4875 84.8696 24.4557C84.9994 24.4191 85.0822 24.3733 85.1305 24.3259C85.1708 24.2812 85.2 24.2067 85.2 24.0834C85.2 23.9867 85.1783 23.9231 85.1469 23.8812C85.1071 23.8282 85.0562 23.7858 84.9922 23.7538L84.989 23.7522C84.929 23.7199 84.8607 23.6983 84.7828 23.6885L84.7742 23.6874C84.6957 23.6717 84.621 23.6638 84.5497 23.6638C84.3541 23.6638 84.1828 23.7124 84.0322 23.8077L84.0298 23.8092C83.8924 23.8917 83.8041 24.022 83.7694 24.2154L83.7519 24.3131H82.3795L82.3988 24.1777C82.4407 23.8847 82.5314 23.635 82.6757 23.4339C82.8157 23.2332 82.9871 23.0708 83.1896 22.9481C83.39 22.8266 83.6136 22.7422 83.8592 22.6942ZM89.2337 22.8521C89.0325 22.8521 88.8189 22.8766 88.5927 22.9263L88.5905 22.9267C88.3752 22.9698 88.177 23.0449 87.9951 23.1519L87.9929 23.1532C87.8146 23.2528 87.6688 23.383 87.5541 23.5444C87.451 23.6971 87.3958 23.8915 87.3958 24.1347C87.3958 24.3019 87.4146 24.4356 87.4487 24.5391C87.489 24.6439 87.5431 24.7317 87.6102 24.8041C87.6856 24.8791 87.7739 24.9423 87.876 24.9935C87.99 25.0477 88.1215 25.0998 88.271 25.1497C88.2708 25.1496 88.2712 25.1497 88.271 25.1497L89.2043 25.4494C89.3435 25.4978 89.4616 25.5574 89.5547 25.6305C89.6754 25.7253 89.7197 25.8775 89.7197 26.0485C89.7197 26.1686 89.6929 26.2784 89.6314 26.3706L89.6287 26.3747C89.573 26.4513 89.5011 26.5155 89.4155 26.5682L89.4096 26.5718C89.3238 26.618 89.2293 26.6501 89.1274 26.6692C89.0291 26.6876 88.9307 26.6969 88.8321 26.6969C88.7207 26.6969 88.6072 26.6845 88.4915 26.6602L88.4841 26.6586C88.3741 26.628 88.272 26.5877 88.1782 26.5377L88.1696 26.5331C88.0774 26.4738 88.0006 26.4001 87.9399 26.3125C87.8731 26.216 87.8419 26.1033 87.8419 25.9801V25.9536H86.96V26.0143C86.96 26.2587 87.013 26.4541 87.1115 26.6071C87.2153 26.7626 87.3472 26.8895 87.5081 26.9885C87.6783 27.084 87.8681 27.1536 88.0784 27.1967C88.2931 27.2408 88.5044 27.2627 88.7125 27.2627C88.9608 27.2627 89.2063 27.2378 89.4491 27.1882C89.6879 27.1393 89.9 27.0584 90.0868 26.9464C90.2711 26.8358 90.4169 26.6948 90.5262 26.523C90.6369 26.3519 90.6956 26.141 90.6956 25.8862C90.6956 25.7174 90.6666 25.5754 90.6124 25.4571L90.6107 25.4534C90.5604 25.3327 90.4881 25.2306 90.3934 25.1458L90.3885 25.1414C90.2962 25.0492 90.1852 24.9711 90.0538 24.9081L90.0521 24.9072C89.9218 24.8421 89.7769 24.7846 89.6171 24.735L89.6157 24.7346L89.0101 24.5383C88.8022 24.4748 88.6393 24.4041 88.5358 24.3213L88.5327 24.3188C88.4292 24.2301 88.3717 24.1155 88.3717 23.9809C88.3717 23.8841 88.3925 23.7938 88.4405 23.7158C88.4886 23.6376 88.5591 23.5798 88.645 23.5402C88.808 23.4622 89.0061 23.4265 89.2337 23.4265C89.485 23.4265 89.6948 23.4824 89.8302 23.6235C89.9397 23.7283 90.0027 23.8649 90.0259 24.0245H90.9255C90.9179 23.8077 90.8754 23.6338 90.8035 23.4983C90.7164 23.3343 90.5973 23.2082 90.4456 23.1172L90.4416 23.1147C90.2916 23.0164 90.1134 22.9475 89.9047 22.9101C89.6899 22.8715 89.4663 22.8521 89.2337 22.8521ZM88.5429 22.6942C88.7833 22.6415 89.0136 22.6148 89.2337 22.6148C89.4795 22.6148 89.7172 22.6353 89.9467 22.6765C90.1814 22.7186 90.3899 22.7974 90.5698 22.9149C90.7589 23.0288 90.9069 23.187 91.013 23.3869C91.1223 23.5926 91.1695 23.8479 91.1636 24.1456L91.1613 24.2619H89.802L89.7986 24.1468C89.7935 23.9815 89.7446 23.8693 89.6647 23.7936L89.66 23.7892C89.5903 23.7156 89.4594 23.6638 89.2337 23.6638C89.0288 23.6638 88.8683 23.6963 88.7467 23.7546L88.7448 23.7555C88.6945 23.7786 88.6627 23.8075 88.6427 23.8401C88.6223 23.8732 88.609 23.9182 88.609 23.9809C88.609 24.0393 88.6308 24.0897 88.6857 24.1372C88.7533 24.1907 88.8801 24.2505 89.0804 24.3117L89.0823 24.3122L89.6875 24.5083C89.6872 24.5083 89.6877 24.5084 89.6875 24.5083C89.8574 24.5611 90.0146 24.6232 90.1573 24.6945C90.3093 24.7676 90.442 24.8596 90.5541 24.9712C90.6741 25.0792 90.7659 25.2093 90.829 25.3602C90.8995 25.5149 90.9329 25.6912 90.9329 25.8862C90.9329 26.178 90.8659 26.4347 90.7262 26.6509C90.5963 26.8549 90.4232 27.0213 90.2089 27.1499C89.9969 27.2771 89.7591 27.367 89.4967 27.4207C89.2382 27.4736 88.9768 27.5 88.7125 27.5C88.4876 27.5 88.2604 27.4763 88.0307 27.4292C87.7976 27.3814 87.5836 27.3033 87.3898 27.1943L87.3859 27.1921C87.1948 27.075 87.037 26.9233 86.9135 26.738L86.9125 26.7365C86.7835 26.5365 86.7227 26.2935 86.7227 26.0143V25.7162H88.0793V25.9801C88.0793 26.062 88.0994 26.1259 88.1351 26.1775C88.1761 26.2368 88.2288 26.2878 88.2942 26.3306C88.3692 26.3701 88.4523 26.4029 88.5441 26.4287C88.6436 26.4494 88.7395 26.4595 88.8321 26.4595C88.9158 26.4595 88.9996 26.4517 89.0836 26.4359C89.1627 26.4211 89.2325 26.397 89.294 26.3643C89.3542 26.3268 89.4005 26.2842 89.4352 26.237C89.4642 26.1927 89.4824 26.1322 89.4824 26.0485C89.4824 25.9119 89.4469 25.8476 89.4081 25.8171C89.3419 25.7651 89.2498 25.7166 89.1276 25.674L88.1977 25.3754L88.1965 25.375C88.0391 25.3226 87.8977 25.2667 87.7729 25.2073L87.7708 25.2063C87.6461 25.1439 87.5359 25.0654 87.441 24.9704L87.4381 24.9675C87.3469 24.8698 87.2765 24.7538 87.226 24.6212L87.2242 24.6165C87.1791 24.481 87.1584 24.3193 87.1584 24.1347C87.1584 23.8544 87.2226 23.6105 87.3583 23.4102L87.3597 23.4081C87.4953 23.2171 87.6678 23.0632 87.8759 22.9466C88.0808 22.8263 88.3033 22.7422 88.5429 22.6942ZM85.2735 24.8985L85.0741 25.6106C85.0385 25.7352 84.9939 25.8602 84.9408 25.9842C84.8839 26.1168 84.805 26.2366 84.7047 26.3432C84.6076 26.4467 84.4868 26.5318 84.3446 26.5998L84.3425 26.6008C84.1972 26.6669 84.0226 26.6969 83.8235 26.6969C83.6284 26.6969 83.4507 26.6526 83.2938 26.5611L83.2887 26.5581C83.1219 26.4493 83.0384 26.2853 83.0384 26.0827C83.0384 25.9328 83.0663 25.7991 83.1314 25.6899C83.191 25.5843 83.2691 25.4985 83.3663 25.436L83.3694 25.4341C83.4665 25.3758 83.575 25.3345 83.6936 25.3093C83.8071 25.2796 83.9234 25.2588 84.0424 25.2469L84.0465 25.2465C84.2212 25.2352 84.3959 25.2212 84.5705 25.2043C84.7304 25.1835 84.8795 25.1319 85.019 25.0493L85.2735 24.8985ZM84.8953 25.3689C84.8001 25.403 84.7013 25.4268 84.5991 25.4399L84.5953 25.4404C84.4182 25.4576 84.2411 25.4718 84.0639 25.4833C83.9568 25.4941 83.8526 25.5129 83.7512 25.5395L83.7455 25.541C83.6494 25.5613 83.5657 25.5934 83.4931 25.6367C83.432 25.6763 83.3798 25.7322 83.3374 25.8076L83.3358 25.8105C83.2989 25.8719 83.2757 25.9598 83.2757 26.0827C83.2757 26.2094 83.3224 26.2956 83.416 26.3576C83.5319 26.4246 83.6666 26.4595 83.8235 26.4595C83.9998 26.4595 84.1381 26.4328 84.2433 26.3852C84.3626 26.328 84.4579 26.2595 84.5315 26.1809C84.6133 26.094 84.6769 25.9972 84.7226 25.8907C84.772 25.7755 84.8129 25.6607 84.8457 25.5462C84.8456 25.5463 84.8457 25.5461 84.8457 25.5462L84.8953 25.3689Z" fill="#873DE6"/>
</svg>
