<svg width="15" height="20" viewBox="0 0 15 20" fill="none" xmlns="http://www.w3.org/2000/svg">
<path fill-rule="evenodd" clip-rule="evenodd" d="M4.28586 3.15784C4.28586 1.41413 5.7252 0 7.5 0C9.2748 0 10.7141 1.41413 10.7141 3.15784V10.5265C10.7141 12.2702 9.2748 13.6843 7.5 13.6843C5.7252 13.6843 4.28586 12.2702 4.28586 10.5265V3.15784ZM1.07172 8.42158C1.66333 8.42158 2.14344 8.8923 2.14344 9.47355C2.14344 12.3808 4.54099 14.7373 7.5 14.7373C10.459 14.7373 12.8566 12.3808 12.8566 9.47355C12.8566 8.8923 13.3367 8.42158 13.9283 8.42158C14.5199 8.42158 15 8.8923 15 9.47355C15 13.1859 12.2058 16.2571 8.57172 16.7672V18.947C8.57172 19.5283 8.09161 20 7.5 20C6.90839 20 6.42828 19.5283 6.42828 18.947V16.7672C2.79424 16.257 0 13.1859 0 9.47355C0 8.8923 0.480115 8.42158 1.07172 8.42158Z" fill="#FF0000"/>
</svg>
