<svg width="150" height="38" viewBox="0 0 150 38" fill="none" xmlns="http://www.w3.org/2000/svg">
<path d="M47.7842 14.2963C47.7891 14.5123 47.1761 15.2644 46.9241 15.2702C46.6722 15.2759 46.0542 15.0199 46.0444 14.588C46.0345 14.1562 45.7261 13.263 45.5894 12.7979C45.4532 12.3509 45.0086 11.8029 44.8618 11.6802C44.6969 11.558 44.4932 11.3105 44.0311 11.5731C43.587 11.8353 43.0336 12.046 42.7224 12.6112C42.3932 13.1769 42.0874 13.9761 42.1655 14.2444C42.2441 14.5307 42.049 14.6611 41.8175 14.7744C41.6036 14.8693 41.6102 15.1573 41.3942 15.1622C41.1963 15.1667 40.4359 14.1938 40.4293 13.9059C40.4232 13.6359 40.3679 11.9988 40.1789 11.607C39.9895 11.1972 39.7886 10.2835 40.4544 10.2683C40.7784 10.2609 41.3231 10.4646 41.3363 11.0404C41.3498 11.6343 41.3176 12.5893 41.7874 11.8764C42.2569 11.1455 42.3996 11.0882 42.6307 10.9569C42.8438 10.826 43.1239 10.4775 43.4298 10.4706C43.7357 10.4636 44.0527 10.1503 44.2326 10.1462C44.4126 10.1421 45.0883 10.5588 45.413 10.5874C45.7382 10.634 46.3468 11.2683 46.537 11.7141C46.7272 12.1599 46.908 12.9839 47.0226 13.2694C47.2909 13.9835 47.7796 14.0984 47.7842 14.2963ZM57.3386 15.3568C57.3447 15.6267 57.0466 15.9756 56.7767 15.9818C56.5067 15.9879 56.0454 15.4943 55.8082 15.3557C55.5709 15.2171 55.2229 14.9549 55.1799 14.6498C55.1373 14.3627 54.6985 14.0667 54.5136 13.8548C54.3471 13.6606 54.3034 13.3195 54.1054 13.324C53.9075 13.3285 53.66 13.5322 53.6327 13.9109C53.6233 14.2892 53.2155 14.5686 53.1113 14.733C53.0254 14.915 52.3576 15.6324 51.5478 15.6509C50.738 15.6693 50.3081 14.977 50.1085 14.9095C49.9089 14.842 49.9522 14.3729 49.8218 14.1778C49.6729 13.9652 49.5346 13.4282 49.5239 12.9603C49.5128 12.4744 49.8702 11.5661 50.1279 11.02C50.3851 10.456 51.2508 9.73411 51.3743 9.62327C51.5163 9.53001 51.9142 9.61096 52.0537 9.40973C52.1751 9.20891 52.56 9.50621 52.6827 9.35938C52.8238 9.23013 52.951 9.28124 53.0949 9.27796C53.4008 9.27099 53.9477 9.5646 54.1849 9.70323C54.4217 9.82386 54.8777 10.0835 54.8896 10.6054C54.9011 11.1093 54.8452 11.8127 54.9233 12.081C55.0014 12.3493 55.2841 12.901 55.5998 13.3259C55.916 13.7688 56.1623 14.3034 56.5283 14.5651C56.9124 14.8264 57.3324 15.0869 57.3386 15.3568ZM53.5531 10.4198C53.4954 10.2591 53.014 10.4681 52.8161 10.4726C52.6541 10.4763 52.5813 10.442 52.3834 10.4465C52.1674 10.4514 52.1192 10.7046 51.9421 10.8346C51.7834 10.9823 51.8616 11.2506 51.6104 11.2923C51.3769 11.3156 51.3925 11.9995 51.1226 12.0056C50.8527 12.0118 50.8016 12.9312 50.8114 13.3631C50.8217 13.813 50.8725 14.46 51.4483 14.4468C52.0242 14.4337 52.5766 13.3948 52.8351 12.8848C53.0935 12.3748 53.2906 11.5421 53.3384 11.2709C53.4042 10.9994 53.6292 10.5981 53.5531 10.4198ZM63.6334 11.3603C63.6383 11.5762 63.53 12.3529 63.1787 12.739C62.8274 13.1251 62.7129 13.6319 62.281 13.6417C61.8491 13.6516 61.5992 13.7473 61.1494 13.7575C60.6815 13.7682 60.3359 13.614 60.2246 13.4725C60.113 13.313 59.9457 13.0828 59.9535 13.4247C59.9608 13.7486 60.4685 15.4835 60.5348 16.0221C60.6007 16.5428 60.7026 17.8548 60.7812 18.1411C60.8597 18.4274 61.0348 18.9995 61.0405 19.2514C61.0467 19.5214 60.8226 19.9586 60.4447 19.9672C60.0488 19.9762 59.8145 19.9636 59.6598 19.499C59.4872 19.0348 58.9383 18.6512 58.9207 17.8774C58.903 17.1036 58.2838 16.0014 58.5102 14.88C58.7547 13.7581 58.7002 12.1569 58.5317 11.8727C58.3816 11.6061 58.1399 11.2695 58.3881 11.1018C58.6359 10.9161 58.9999 11.0878 59.1799 11.0837C59.3598 11.0796 59.3672 10.6113 59.5807 10.4984C59.7766 10.404 60.1463 10.0354 60.3773 9.90413C60.5904 9.77324 60.8006 9.51639 61.5384 9.49957C62.0423 9.48808 62.8431 9.86592 63.0447 10.0234C63.246 10.1628 63.3057 10.4135 63.5417 10.4982C63.7593 10.5652 63.628 11.1264 63.6334 11.3603ZM62.3377 11.3898C62.3319 11.1379 62.1233 10.6745 61.6555 10.6852C61.2776 10.6938 60.7111 11.1208 60.4829 11.3781C60.2547 11.6354 59.9431 12.1826 59.9501 12.4885C59.9567 12.7765 60.1587 12.9519 60.3166 12.7683C60.4569 12.603 60.6376 12.6349 61.0875 12.6247C61.5554 12.614 61.7836 12.3567 61.9414 12.1731C62.1177 12.007 62.3434 11.6418 62.3377 11.3898ZM71.9369 14.0517C71.9427 14.3037 71.3804 14.9106 71.2184 14.9143C71.0384 14.9184 70.4712 14.5173 70.182 14.4698C69.9112 14.44 69.4924 14.2335 69.3799 14.038C69.2855 13.8421 68.9227 13.7244 68.7967 13.7272C68.6707 13.7301 68.4302 13.4475 68.2265 13.2001C68.0229 12.9527 67.9741 12.3956 67.7582 12.4005C67.5243 12.4059 67.4764 12.677 67.4834 12.983C67.4904 13.2889 67.6413 13.5915 67.6466 13.8255C67.652 14.0594 67.3927 14.5334 67.1948 14.5379C66.9788 14.5429 66.3457 14.4133 66.3383 14.0894C66.3305 13.7474 66.0765 12.871 66.1202 12.4199C66.1635 11.9508 65.842 11.2739 65.8829 10.6969C65.9233 10.1018 65.6982 8.12639 65.796 7.67405C65.8753 7.20412 65.7145 6.46959 65.7075 6.16367C65.7005 5.85775 65.8342 5.40459 66.2661 5.39474C66.5181 5.389 66.8874 5.79468 66.8931 6.04662C66.8989 6.29855 66.9322 8.54838 66.9449 9.10623C66.958 9.68208 66.9822 10.7438 67.2882 10.7368C67.5761 10.7303 68.3834 9.81163 68.6516 9.73349C68.9379 9.65495 70.0797 8.4046 70.3856 8.39762C70.6736 8.39106 71.2024 8.68508 71.2069 8.88303C71.2118 9.09897 70.9603 9.12271 70.9836 9.35624C71.007 9.58977 70.6365 9.9223 70.3199 10.2536C70.0038 10.6029 69.7686 10.5542 69.5237 10.8659C69.2787 11.1776 68.8849 11.2766 68.8964 11.7804C68.9083 12.3023 68.9471 12.4275 69.2199 12.5473C69.5107 12.6667 69.6989 13.0225 70.1324 13.0846C70.5659 13.1467 70.8784 13.4277 71.0764 13.4232C71.2743 13.4187 71.9312 13.7998 71.9369 14.0517ZM75.0314 6.02311C75.0441 6.58097 74.6205 6.95072 74.4045 6.95564C74.1706 6.96098 73.8381 6.59046 73.6196 6.48741C73.4192 6.38395 73.1072 6.121 73.1014 5.86906C73.0957 5.61713 73.3922 5.19626 73.6261 5.19093C73.968 5.18313 74.4044 5.37124 74.4445 5.55037C74.4666 5.72991 75.0187 5.46526 75.0314 6.02311ZM75.2307 13.1844C75.0536 13.3145 75.032 13.9452 75.0369 14.1611C75.0414 14.3591 74.8979 14.3803 74.6459 14.3861C74.394 14.3918 74.0112 14.1845 73.9972 13.5726C73.9833 12.9608 73.7988 11.9748 73.7165 11.5265C73.6339 11.0603 73.6899 10.3568 73.559 10.1437C73.4285 9.94867 73.3524 9.77036 73.3495 9.64439C73.3467 9.51842 73.5511 9.00963 73.7851 9.0043C74.037 8.99855 74.5826 9.23818 74.5896 9.5441C74.5965 9.85002 74.6121 10.5338 74.7455 10.8549C74.8793 11.1939 75.0183 11.7669 75.0257 12.0908C75.0335 12.4327 75.4078 13.0544 75.2307 13.1844ZM85.5322 13.4357C85.5371 13.6516 84.9241 14.4038 84.6721 14.4096C84.4202 14.4153 83.8022 14.1593 83.7924 13.7274C83.7825 13.2955 83.4741 12.4023 83.3374 11.9373C83.2012 11.4903 82.7566 10.9423 82.6098 10.8196C82.4449 10.6974 82.2413 10.4499 81.7791 10.7125C81.335 10.9747 80.7816 11.1854 80.4704 11.7506C80.1412 12.3163 79.8354 13.1155 79.9135 13.3837C79.9921 13.67 79.797 13.8005 79.5655 13.9138C79.3516 14.0087 79.3582 14.2966 79.1422 14.3016C78.9443 14.3061 78.1839 13.3332 78.1774 13.0452C78.1712 12.7753 78.1159 11.1381 77.9269 10.7463C77.7375 10.3366 77.5366 9.4229 78.2024 9.40772C78.5264 9.40033 79.0711 9.60397 79.0843 10.1798C79.0978 10.7737 79.0656 11.7286 79.5354 11.0157C80.0049 10.2849 80.1476 10.2276 80.3787 10.0963C80.5918 9.9654 80.8719 9.61692 81.1778 9.60995C81.4838 9.60297 81.8007 9.28967 81.9806 9.28557C82.1606 9.28146 82.8363 9.69817 83.161 9.72678C83.4862 9.77338 84.0948 10.4077 84.285 10.8535C84.4752 11.2992 84.656 12.1233 84.7706 12.4088C85.0389 13.1229 85.5276 13.2377 85.5322 13.4357ZM93.7121 5.59721C93.7248 6.15507 93.3012 6.52482 93.0852 6.52974C92.8513 6.53508 92.5187 6.16456 92.3003 6.06151C92.0999 5.95805 91.7879 5.6951 91.7821 5.44316C91.7764 5.19123 92.0729 4.77036 92.3068 4.76503C92.6487 4.75723 93.0851 4.94533 93.1252 5.12447C93.1473 5.30401 93.6994 5.03936 93.7121 5.59721ZM93.9114 12.7585C93.7343 12.8886 93.7127 13.5193 93.7176 13.7352C93.7221 13.9331 93.5786 13.9544 93.3266 13.9602C93.0747 13.9659 92.6919 13.7586 92.6779 13.1467C92.664 12.5349 92.4795 11.5489 92.3972 11.1006C92.3146 10.6344 92.3706 9.93092 92.2397 9.71784C92.1092 9.52277 92.0331 9.34445 92.0302 9.21849C92.0274 9.09252 92.2318 8.58373 92.4657 8.57839C92.7177 8.57265 93.2633 8.81228 93.2703 9.1182C93.2772 9.42412 93.2928 10.1079 93.4262 10.429C93.5599 10.768 93.699 11.341 93.7064 11.6649C93.7142 12.0068 94.0885 12.6285 93.9114 12.7585ZM103.639 13.0949C103.517 13.2777 103.651 13.6168 103.382 13.6769C103.114 13.755 103.044 13.8647 102.846 13.8692C102.648 13.8737 102.462 13.6079 102.454 13.2659C102.446 12.924 102.285 12.9637 102.278 12.6218C102.27 12.2799 101.995 12.0881 101.931 12.4317C101.885 12.7748 101.514 13.1073 101.251 13.4014C100.987 13.6775 100.01 14.2399 99.4699 14.2522C98.9301 14.2645 98.6998 14.4318 98.2806 14.2073C97.8794 13.9824 96.9063 13.1584 96.7521 12.7118C96.6163 12.2828 96.4081 11.8374 96.3974 11.3695C96.3868 10.9016 96.6693 9.86892 97.1282 9.46235C97.5866 9.03779 98.0782 8.48645 98.9959 8.46552C99.7157 8.44911 100.765 8.65925 101.004 8.88786C101.243 9.11646 101.596 9.55855 101.411 8.5725C101.209 7.60486 101.013 6.11494 101.003 5.70105C100.994 5.30515 100.793 5.1657 100.789 4.96775C100.784 4.7698 101.088 4.65486 101.286 4.65034C101.484 4.64583 101.817 4.26013 101.896 4.56441C101.975 4.86869 101.979 5.04864 102.253 5.24044C102.528 5.43223 102.493 5.50504 102.39 5.70545C102.287 5.92385 102.338 6.58886 102.347 7.00275C102.356 7.39865 102.525 8.49308 102.66 8.85011C102.812 9.22473 102.679 9.69589 102.865 9.96172C103.033 10.228 103.22 10.5298 103.233 11.0876C103.245 11.6275 103.381 12.0565 103.565 12.2144C103.731 12.3906 103.779 12.9297 103.639 13.0949ZM101.535 10.8383C101.528 10.5503 101.254 10.3765 100.834 10.1161C100.414 9.85556 99.9788 9.72145 99.403 9.73457C98.6831 9.75099 98.6709 10.0033 98.3364 10.335C98.0022 10.6847 97.7082 11.2136 97.7205 11.7534C97.7328 12.2933 98.2544 13.0556 99.1001 13.0363C99.9459 13.0171 99.8465 12.6052 100.417 12.3581C100.988 12.1111 100.978 11.6792 101.064 11.4972C101.168 11.3328 101.542 11.1442 101.535 10.8383ZM111.583 12.8058C111.587 12.9857 111.45 13.3129 111.132 13.5722C110.796 13.814 110.357 14.3281 109.152 14.3556C107.928 14.3835 107.547 14.2661 106.792 13.5271C106.02 12.8066 105.429 12.1719 105.677 12.0042C105.907 11.8189 105.652 10.9064 105.641 10.4386C105.631 9.97068 106.074 8.8623 106.57 8.5269C107.066 8.1735 108.316 7.73089 108.658 7.72309C109.432 7.70545 109.635 7.91688 109.897 8.34303C110.141 8.76958 110.242 9.2534 110.157 9.48939C110.054 9.72579 110.136 10.138 109.762 10.3446C109.389 10.5512 109.272 10.9679 109.079 11.1704C108.868 11.3733 108.272 12.107 107.985 12.1496C107.68 12.1926 107.469 12.3954 107.745 12.6592C108.021 12.923 108.332 13.1499 109.484 13.1237C110.635 13.0974 110.322 12.7625 110.7 12.7539C111.077 12.7453 111.579 12.6438 111.583 12.8058ZM108.726 9.08992C108.577 8.87725 108.35 9.2245 108.153 9.22901C107.919 9.23435 107.777 9.3456 107.407 9.71412C107.056 10.1002 106.882 10.3743 106.858 10.879C106.834 11.4016 107.402 11.0466 107.54 10.7734C107.677 10.5002 108.137 10.1116 108.364 9.80035C108.591 9.4891 108.856 9.28499 108.726 9.08992ZM120.762 13.9108C120.768 14.1808 120.47 14.5296 120.2 14.5358C119.93 14.542 119.468 14.0483 119.231 13.9097C118.994 13.7711 118.646 13.5089 118.603 13.2038C118.56 12.9167 118.121 12.6207 117.937 12.4088C117.77 12.2146 117.726 11.8735 117.528 11.878C117.33 11.8825 117.083 12.0862 117.056 12.4649C117.046 12.8432 116.639 13.1226 116.534 13.287C116.448 13.469 115.781 14.1864 114.971 14.2049C114.161 14.2234 113.731 13.531 113.531 13.4635C113.332 13.396 113.375 12.9269 113.245 12.7319C113.096 12.5192 112.958 11.9822 112.947 11.5143C112.936 11.0285 113.293 10.1201 113.551 9.57406C113.808 9.01005 114.674 8.28813 114.797 8.17728C114.939 8.08402 115.337 8.16498 115.477 7.96374C115.598 7.76292 115.983 8.06023 116.106 7.91339C116.247 7.78414 116.374 7.83526 116.518 7.83198C116.824 7.825 117.371 8.11861 117.608 8.25724C117.845 8.37788 118.301 8.63755 118.313 9.15941C118.324 9.66328 118.268 10.3667 118.346 10.635C118.424 10.9033 118.707 11.455 119.023 11.8799C119.339 12.3228 119.585 12.8574 119.951 13.1191C120.335 13.3804 120.755 13.6409 120.762 13.9108ZM116.976 8.97383C116.918 8.8131 116.437 9.02213 116.239 9.02664C116.077 9.03034 116.004 8.99599 115.806 9.0005C115.59 9.00542 115.542 9.25859 115.365 9.38866C115.206 9.53631 115.285 9.8046 115.033 9.84634C114.8 9.86966 114.815 10.5535 114.546 10.5596C114.276 10.5658 114.225 11.4852 114.234 11.9171C114.245 12.367 114.295 13.014 114.871 13.0009C115.447 12.9877 116 11.9489 116.258 11.4388C116.516 10.9288 116.714 10.0961 116.761 9.82494C116.827 9.55337 117.052 9.15214 116.976 8.97383ZM47.5746 30.3773C47.4528 30.5601 47.5865 30.8991 47.3178 30.9593C47.0496 31.0374 46.98 31.147 46.7821 31.1515C46.5841 31.156 46.398 30.8902 46.3902 30.5483C46.3824 30.2064 46.2213 30.2461 46.2135 29.9042C46.2057 29.5623 45.9313 29.3705 45.8671 29.714C45.8209 30.0572 45.4504 30.3897 45.187 30.6838C44.9232 30.9599 43.9458 31.5223 43.4059 31.5346C42.8661 31.5469 42.6358 31.7142 42.2166 31.4897C41.8154 31.2648 40.8423 30.4407 40.6881 29.9941C40.5523 29.5651 40.3441 29.1197 40.3334 28.6519C40.3228 28.184 40.6053 27.1513 41.0642 26.7447C41.5226 26.3202 42.0142 25.7688 42.9319 25.7479C43.6517 25.7315 44.7008 25.9416 44.9401 26.1702C45.1793 26.3988 45.5315 26.8409 45.347 25.8549C45.1449 24.8872 44.9489 23.3973 44.9394 22.9834C44.9304 22.5875 44.7292 22.4481 44.7247 22.2501C44.7201 22.0522 45.0236 21.9372 45.2216 21.9327C45.4195 21.9282 45.7528 21.5425 45.8318 21.8468C45.9107 22.1511 45.9148 22.331 46.1893 22.5228C46.4637 22.7146 46.4293 22.7874 46.3259 22.9878C46.2228 23.2062 46.274 23.8712 46.2834 24.2851C46.2925 24.681 46.4615 25.7754 46.5956 26.1325C46.7482 26.5071 46.6149 26.9783 46.801 27.2441C46.9691 27.5103 47.1561 27.8121 47.1688 28.37C47.1811 28.9099 47.3169 29.3389 47.5006 29.4967C47.6666 29.673 47.7149 30.212 47.5746 30.3773ZM45.4707 28.1206C45.4641 27.8327 45.1901 27.6589 44.77 27.3984C44.35 27.1379 43.9148 27.0038 43.3389 27.0169C42.6191 27.0333 42.6069 27.2857 42.2724 27.6174C41.9382 27.9671 41.6442 28.496 41.6565 29.0358C41.6688 29.5757 42.1903 30.338 43.0361 30.3187C43.8819 30.2994 43.7825 29.8876 44.353 29.6405C44.9235 29.3934 44.9137 28.9616 44.9996 28.7795C45.1038 28.6151 45.4776 28.4266 45.4707 28.1206ZM56.4486 30.5891C56.4531 30.787 56.294 30.9167 56.0961 30.9212C55.8981 30.9257 55.3718 30.7396 54.9902 30.5863C54.6446 30.4321 54.166 29.9749 53.9958 29.6187C53.9018 29.4408 53.824 29.1905 53.7471 28.9762C53.6334 28.7267 53.5213 28.5492 53.3954 28.5521C53.1974 28.5566 52.9897 28.9215 52.885 29.0679C52.7807 29.2323 52.7284 29.3055 52.5689 29.4172C52.5161 29.4724 52.4454 29.528 52.3742 29.5657C52.2503 29.6585 52.1092 29.7878 52.0949 29.9501C52.0634 30.1489 51.2995 30.5984 51.0475 30.6042C50.8316 30.6091 50.0827 30.14 49.931 29.8014L49.8336 29.4795C49.8123 29.336 49.773 29.1929 49.7338 29.0497C49.6732 28.763 49.5951 28.4947 49.5043 28.4608C49.3763 28.3737 49.5018 27.5606 49.6179 27.1258C49.6849 26.9083 49.7892 26.7438 49.8763 26.6158C49.9459 26.5062 50.051 26.3778 50.0657 26.2334C50.0783 25.9991 50.2354 25.7794 50.3793 25.7761C50.6493 25.77 51.0701 26.0665 51.0738 26.2284C51.0759 26.3184 51.0423 26.4272 50.9916 26.5724L50.8048 27.0628C50.7054 27.4431 50.8961 28.6991 51.292 28.6901C51.4899 28.6856 51.6498 28.5919 51.7562 28.5175L51.9337 28.4054C51.9688 28.3686 52.0048 28.3678 52.0408 28.3669C52.1488 28.3645 52.2706 28.1817 52.3737 27.9633L52.4931 27.6725C52.545 27.5812 52.579 27.4905 52.6141 27.4536C52.7012 27.3256 52.8399 27.0884 52.9969 26.8688C53.1368 26.6855 53.2586 26.5027 53.3846 26.4998C53.6005 26.4949 54.0926 26.7538 54.1912 27.1296C54.2296 27.2368 54.2865 27.3615 54.3617 27.5038C54.4186 27.6286 54.5119 27.7705 54.5871 27.9128C54.7372 28.1794 54.8874 28.4461 54.9463 28.6608C55.0285 29.109 55.6011 29.7442 55.9148 30.0791C56.0257 30.2026 56.1533 30.2717 56.2813 30.3588C56.3909 30.4283 56.4466 30.4991 56.4486 30.5891ZM62.1722 25.9214C62.1763 26.1013 61.8904 26.1979 61.6205 26.204C61.3685 26.2098 60.7596 26.3497 60.5486 26.5706C60.3191 26.7738 59.8775 27.144 59.7585 27.4528C59.6391 27.7436 59.3712 27.8397 59.3814 28.2896C59.3917 28.7395 59.4077 29.4413 59.5063 29.8172C59.5869 30.1934 59.4941 30.8617 58.9902 30.8732C58.4864 30.8847 58.1878 30.4234 58.0908 30.1195C57.9759 29.816 57.9517 28.7543 57.8065 28.7036C57.6433 28.6533 57.687 28.2022 57.8072 27.9474C57.9275 27.6926 57.8096 27.2632 57.7114 26.9053C57.5953 26.5479 57.4717 25.8665 58.0656 25.853C58.2635 25.8485 58.6083 25.9666 58.6304 26.1462C58.6525 26.3257 58.7826 26.5028 59.0124 26.3175C59.2422 26.1322 59.4193 26.0022 59.7391 25.8148C60.0589 25.6275 60.4736 25.654 60.7035 25.4687C60.9153 25.2839 61.2752 25.2757 61.5092 25.2703C61.7251 25.2654 62.1681 25.7414 62.1722 25.9214ZM65.1859 22.2517C65.1986 22.8096 64.7749 23.1793 64.559 23.1843C64.325 23.1896 63.9925 22.8191 63.7741 22.716C63.5737 22.6126 63.2616 22.3496 63.2559 22.0977C63.2501 21.8458 63.5466 21.4249 63.7806 21.4196C64.1225 21.4118 64.5589 21.5999 64.599 21.779C64.6211 21.9585 65.1732 21.6939 65.1859 22.2517ZM65.3852 29.4131C65.2081 29.5431 65.1865 30.1738 65.1914 30.3897C65.1959 30.5877 65.0523 30.609 64.8004 30.6147C64.5485 30.6204 64.1656 30.4131 64.1517 29.8013C64.1377 29.1894 63.9532 28.2034 63.871 27.7551C63.7883 27.2889 63.8443 26.5854 63.7134 26.3724C63.5829 26.1773 63.5069 25.999 63.504 25.873C63.5011 25.747 63.7056 25.2383 63.9395 25.2329C64.1914 25.2272 64.737 25.4668 64.744 25.7727C64.751 26.0786 64.7666 26.7625 64.8999 27.0835C65.0337 27.4226 65.1728 27.9955 65.1802 28.3194C65.188 28.6614 65.5622 29.283 65.3852 29.4131ZM75.6866 29.6643C75.6915 29.8803 75.0785 30.6324 74.8266 30.6382C74.5747 30.6439 73.9567 30.3879 73.9468 29.9561C73.937 29.5242 73.6285 28.631 73.4919 28.166C73.3557 27.7189 72.9111 27.1709 72.7642 27.0483C72.5994 26.926 72.3957 26.6786 71.9336 26.9412C71.4894 27.2033 70.9361 27.414 70.6249 27.9793C70.2957 28.5449 69.9898 29.3441 70.068 29.6124C70.1465 29.8987 69.9514 30.0291 69.72 30.1424C69.5061 30.2373 69.5126 30.5253 69.2967 30.5302C69.0987 30.5347 68.3384 29.5618 68.3318 29.2739C68.3257 29.0039 68.2703 27.3668 68.0813 26.975C67.892 26.5652 67.6911 25.6515 68.3569 25.6363C68.6808 25.629 69.2256 25.8326 69.2387 26.4084C69.2523 27.0023 69.22 27.9573 69.6899 27.2444C70.1594 26.5135 70.3021 26.4562 70.5332 26.3249C70.7462 26.194 71.0264 25.8456 71.3323 25.8386C71.6382 25.8316 71.9551 25.5183 72.1351 25.5142C72.3151 25.5101 72.9907 25.9268 73.3155 25.9554C73.6406 26.002 74.2492 26.6363 74.4394 27.0821C74.6296 27.5279 74.8105 28.352 74.925 28.6374C75.1934 29.3515 75.6821 29.4664 75.6866 29.6643ZM84.0677 31.3817C84.1005 32.8214 83.5951 33.5531 83.6025 33.877C83.6098 34.2009 83.3383 34.9273 83.1617 35.0753C82.9854 35.2414 83.0472 35.5821 82.403 35.7588C81.7405 35.918 80.7569 36.2105 80.253 36.2219C79.7312 36.2338 78.7222 36.2028 77.8976 35.5735C77.0735 34.9621 77.3389 34.758 77.1009 34.5834C76.8808 34.4083 76.8865 33.8681 76.99 33.6677C77.0754 33.4677 77.6026 32.8975 77.8987 33.2508C78.1764 33.5866 78.2823 33.4942 78.165 33.8749C78.0476 34.2557 78.1761 34.3608 78.9937 34.6842C79.8117 35.0257 79.7364 34.8834 80.3842 34.8686C81.05 34.8534 81.7105 34.6043 82.1821 33.9634C82.6352 33.3049 82.8474 32.3458 82.824 31.3201C82.8072 30.5823 82.7249 30.134 82.5948 29.9569C82.4648 29.7799 82.3882 28.7913 82.0823 28.7983C81.7764 28.8053 81.7633 29.0216 81.6644 29.42C81.5838 29.836 81.2436 29.9157 81.1785 30.2233C81.1135 30.5308 80.5835 30.975 80.0617 30.9869C79.5218 30.9993 78.7271 30.8913 78.1316 30.0407C77.5181 29.1905 77.442 29.0121 77.4206 28.0764C77.3993 27.1406 78.0597 26.0993 78.4662 25.766C78.8543 25.415 79.5807 24.8943 80.1745 24.8808C80.6964 24.8689 81.1872 25.0738 81.6072 25.3342C82.0097 25.6131 82.3516 25.6054 82.3635 26.1272C82.3758 26.6671 82.7636 27.0903 83.0855 27.7852C83.4078 28.498 84.0341 29.9061 84.0677 31.3817ZM81.0961 27.3984C81.0847 26.8946 80.8519 26.1617 80.384 26.1723C80.1501 26.1777 79.4217 26.6084 79.1951 26.9376C78.9866 27.2665 78.7012 28.1732 78.711 28.6051C78.7209 29.037 78.9941 29.1748 79.1225 29.2799C79.2509 29.385 79.2943 29.7081 79.8162 29.6962C80.356 29.6839 80.3998 29.2328 80.5409 29.1035C80.6995 28.9559 80.8721 28.6279 80.8676 28.4299C80.8631 28.232 81.108 27.9203 81.0961 27.3984ZM100.651 28.1409C100.664 28.7348 100.317 29.3008 100.083 29.3062C99.8491 29.3115 99.4999 28.9954 99.4908 28.5995C99.4822 28.2216 99.218 27.6875 99.0376 27.6736C98.8568 27.6417 98.9488 26.9374 98.7149 26.9427C98.4809 26.9481 98.5455 26.6225 98.1962 26.3064C97.8285 25.9727 97.5729 25.8165 97.3361 26.488C97.0998 27.1776 96.6941 27.5469 96.4737 28.1461C96.2713 28.7449 95.9544 29.8504 95.4326 29.8623C94.8927 29.8746 94.4636 29.2182 94.2579 28.8808C94.0517 28.5254 94.0144 26.8879 93.6365 26.8965C93.2406 26.9055 93.6054 27.1132 93.2901 27.4985C92.9568 27.8842 92.7201 28.5558 92.7287 28.9337C92.7377 29.3296 92.2257 29.7734 91.9198 29.7803C91.6139 29.7873 91.1967 29.6528 91.1811 28.969C91.1655 28.2852 91.1793 26.5204 91.0324 26.3977C90.868 26.2934 90.7997 25.6648 90.8835 25.3928C90.9497 25.1393 91.2127 24.8272 91.4286 24.8223C91.8245 24.8132 92.1333 24.9322 92.1567 25.958C92.1805 27.0017 92.3343 26.6381 92.7158 25.9992C93.1157 25.3779 93.2597 25.3747 93.5476 25.3681C93.8176 25.3619 94.254 25.55 94.5145 25.9222C94.7755 26.3124 94.969 26.9021 94.9751 27.172C94.9813 27.442 95.2226 27.7605 95.499 27.2501C95.7575 26.7401 96.2065 25.9016 96.4682 25.5356C96.7479 25.1691 97.3245 24.3998 97.7204 24.3907C98.0983 24.3821 98.9728 24.8303 99.2562 25.418C99.5577 26.0053 99.9761 26.1938 100.061 26.75C100.174 27.7557 100.637 27.5471 100.651 28.1409ZM108.257 28.8857C108.261 29.0657 108.125 29.3929 107.807 29.6522C107.47 29.8939 107.032 30.4081 105.826 30.4356C104.602 30.4635 104.221 30.3461 103.466 29.6071C102.694 28.8865 102.103 28.2518 102.351 28.0841C102.581 27.8989 102.326 26.9864 102.316 26.5185C102.305 26.0507 102.748 24.9423 103.244 24.6069C103.74 24.2535 104.991 23.8109 105.333 23.8031C106.106 23.7854 106.309 23.9969 106.571 24.423C106.815 24.8496 106.916 25.3334 106.831 25.5694C106.729 25.8058 106.81 26.218 106.437 26.4246C106.063 26.6312 105.947 27.0479 105.753 27.2504C105.542 27.4533 104.946 28.187 104.659 28.2296C104.354 28.2725 104.143 28.4754 104.419 28.7392C104.695 29.003 105.006 29.2299 106.158 29.2037C107.31 29.1774 106.996 28.8425 107.374 28.8339C107.752 28.8252 108.253 28.7238 108.257 28.8857ZM105.4 25.1699C105.251 24.9572 105.025 25.3045 104.827 25.309C104.593 25.3143 104.451 25.4256 104.082 25.7941C103.73 26.1802 103.557 26.4542 103.532 26.9589C103.508 27.4816 104.076 27.1266 104.214 26.8534C104.352 26.5802 104.811 26.1916 105.038 25.8803C105.265 25.5691 105.53 25.365 105.4 25.1699ZM115.462 28.7215C115.466 28.9014 115.33 29.2286 115.012 29.4879C114.675 29.7297 114.237 30.2438 113.031 30.2713C111.807 30.2992 111.427 30.1818 110.672 29.4428C109.899 28.7223 109.308 28.0876 109.557 27.9199C109.786 27.7346 109.532 26.8222 109.521 26.3543C109.51 25.8864 109.953 24.778 110.45 24.4426C110.946 24.0892 112.196 23.6466 112.538 23.6388C113.312 23.6212 113.514 23.8326 113.776 24.2587C114.02 24.6853 114.121 25.1691 114.036 25.4051C113.934 25.6415 114.015 26.0538 113.642 26.2603C113.268 26.4669 113.152 26.8836 112.958 27.0861C112.747 27.289 112.152 28.0227 111.864 28.0653C111.559 28.1083 111.348 28.3111 111.624 28.5749C111.9 28.8387 112.211 29.0657 113.363 29.0394C114.515 29.0131 114.201 28.6782 114.579 28.6696C114.957 28.661 115.459 28.5595 115.462 28.7215ZM112.605 25.0056C112.456 24.793 112.23 25.1402 112.032 25.1447C111.798 25.1501 111.656 25.2613 111.287 25.6298C110.936 26.0159 110.762 26.29 110.737 26.7947C110.713 27.3173 111.281 26.9623 111.419 26.6891C111.557 26.4159 112.016 26.0273 112.243 25.7161C112.47 25.4048 112.735 25.2007 112.605 25.0056ZM122.556 24.4727C122.563 24.7606 122.026 24.8809 121.792 24.9042C121.576 24.9271 121.291 25.0237 120.91 24.9063C120.529 24.789 120.278 24.8307 120.155 24.9595C120.032 25.1064 119.689 25.0602 119.597 24.9722C119.487 24.9027 119.234 24.8365 119.24 25.1244C119.247 25.3943 119.469 27.2438 119.483 27.8736C119.498 28.5214 119.331 29.0834 119.173 29.285C119.034 29.4863 118.806 29.7435 118.554 29.7493C118.302 29.755 117.919 29.5657 117.806 29.3342C117.711 29.1203 117.494 29.0892 117.49 28.9093C117.486 28.7293 117.734 28.5256 117.909 28.3416C118.085 28.1575 118.122 27.4005 118.106 26.7167C118.091 26.0329 118.087 25.0607 117.835 25.0664C117.583 25.0722 117.21 25.2967 117.081 25.1916C116.953 25.0865 116.467 25.0796 116.457 24.6657C116.448 24.2698 116.566 23.9251 116.8 23.9197C117.034 23.9144 117.922 24.1462 117.911 23.6963C117.901 23.2465 117.757 22.4395 117.75 22.1336C117.743 21.8277 117.79 20.7283 118.168 20.7197C118.528 20.7115 118.818 20.8309 118.896 21.0632C118.973 21.2775 119.146 21.7957 119.156 22.1916L119.184 23.4333C119.19 23.6852 119.443 23.7334 119.64 23.7109C119.837 23.6704 119.967 23.8475 120.454 23.8724C120.94 23.8793 121.453 24.2458 121.684 24.1145C121.915 23.9832 122.55 24.2027 122.556 24.4727ZM125.516 20.8763C125.529 21.4341 125.105 21.8039 124.889 21.8088C124.655 21.8141 124.323 21.4436 124.104 21.3406C123.904 21.2371 123.592 20.9742 123.586 20.7222C123.58 20.4703 123.877 20.0494 124.111 20.0441C124.452 20.0363 124.889 20.2244 124.929 20.4035C124.951 20.5831 125.503 20.3184 125.516 20.8763ZM125.715 28.0376C125.538 28.1677 125.516 28.7983 125.521 29.0143C125.526 29.2122 125.382 29.2335 125.13 29.2392C124.878 29.245 124.496 29.0376 124.482 28.4258C124.468 27.814 124.283 26.8279 124.201 26.3797C124.118 25.9134 124.174 25.21 124.043 24.9969C123.913 24.8018 123.837 24.6235 123.834 24.4975C123.831 24.3716 124.036 23.8628 124.27 23.8575C124.521 23.8517 125.067 24.0913 125.074 24.3973C125.081 24.7032 125.097 25.387 125.23 25.708C125.364 26.0471 125.503 26.6201 125.51 26.944C125.518 27.2859 125.892 27.9075 125.715 28.0376ZM136.017 28.2889C136.022 28.5048 135.409 29.257 135.157 29.2627C134.905 29.2685 134.287 29.0125 134.277 28.5806C134.267 28.1487 133.959 27.2555 133.822 26.7905C133.686 26.3435 133.241 25.7955 133.094 25.6728C132.929 25.5505 132.726 25.3031 132.264 25.5657C131.819 25.8279 131.266 26.0385 130.955 26.6038C130.626 27.1694 130.32 27.9686 130.398 28.2369C130.477 28.5232 130.281 28.6537 130.05 28.767C129.836 28.8619 129.843 29.1498 129.627 29.1547C129.429 29.1592 128.668 28.1863 128.662 27.8984C128.656 27.6285 128.6 25.9913 128.411 25.5995C128.222 25.1897 128.021 24.2761 128.687 24.2609C129.011 24.2535 129.556 24.4571 129.569 25.033C129.582 25.6268 129.55 26.5818 130.02 25.8689C130.489 25.138 130.632 25.0807 130.863 24.9494C131.076 24.8186 131.356 24.4701 131.662 24.4631C131.968 24.4561 132.285 24.1428 132.465 24.1387C132.645 24.1346 133.321 24.5513 133.645 24.5799C133.971 24.6265 134.579 25.2608 134.769 25.7066C134.96 26.1524 135.14 26.9765 135.255 27.2619C135.523 27.976 136.012 28.0909 136.017 28.2889ZM144.398 30.0063C144.431 31.4459 143.925 32.1776 143.932 32.5015C143.94 32.8254 143.668 33.5518 143.492 33.6999C143.315 33.8659 143.377 34.2066 142.733 34.3833C142.071 34.5425 141.087 34.835 140.583 34.8465C140.061 34.8584 139.052 34.8274 138.228 34.198C137.404 33.5866 137.669 33.3825 137.431 33.2079C137.211 33.0329 137.217 32.4926 137.32 32.2922C137.405 32.0922 137.933 31.522 138.229 31.8754C138.506 32.2111 138.612 32.1187 138.495 32.4995C138.378 32.8802 138.506 32.9853 139.324 33.3088C140.142 33.6502 140.066 33.5079 140.714 33.4931C141.38 33.478 142.041 33.2288 142.512 32.5879C142.965 31.9294 143.177 30.9703 143.154 29.9446C143.137 29.2068 143.055 28.7586 142.925 28.5815C142.795 28.4044 142.718 27.4159 142.412 27.4229C142.106 27.4298 142.093 27.6462 141.994 28.0445C141.914 28.4605 141.574 28.5403 141.509 28.8478C141.444 29.1554 140.914 29.5996 140.392 29.6115C139.852 29.6238 139.057 29.5159 138.462 28.6652C137.848 27.815 137.772 27.6367 137.751 26.7009C137.729 25.7652 138.39 24.7238 138.796 24.3905C139.184 24.0395 139.911 23.5189 140.505 23.5053C141.026 23.4934 141.517 23.6983 141.937 23.9588C142.34 24.2377 142.682 24.2299 142.694 24.7517C142.706 25.2916 143.094 25.7149 143.415 26.4097C143.738 27.1226 144.364 28.5307 144.398 30.0063ZM141.426 26.023C141.415 25.5191 141.182 24.7862 140.714 24.7969C140.48 24.8022 139.752 25.2329 139.525 25.5622C139.317 25.891 139.031 26.7978 139.041 27.2296C139.051 27.6615 139.324 27.7993 139.453 27.9044C139.581 28.0095 139.624 28.3326 140.146 28.3207C140.686 28.3084 140.73 27.8573 140.871 27.7281C141.03 27.5804 141.202 27.2524 141.198 27.0544C141.193 26.8565 141.438 26.5448 141.426 26.023Z" fill="#1D252F"/>
<path d="M7.84549 34.4295C7.67518 34.8071 7.23102 34.9751 6.85344 34.8048L0.700444 32.0294C0.322865 31.8591 0.154844 31.4149 0.325159 31.0373C0.495474 30.6598 0.93963 30.4917 1.31721 30.662L6.78654 33.1291L9.2536 27.6598C9.42392 27.2822 9.86807 27.1142 10.2457 27.2845C10.6232 27.4548 10.7913 27.899 10.6209 28.2765L7.84549 34.4295ZM8.17582 17.9279L7.579 17.4737L8.17582 17.9279ZM21.1891 12.0078C21.6033 12.0034 21.9426 12.3357 21.947 12.7499C21.9513 13.1641 21.6191 13.5034 21.2049 13.5077L21.1891 12.0078ZM6.46034 34.3865C4.77793 29.9391 3.09341 23.3675 7.579 17.4737L8.77263 18.3821C4.79688 23.6061 6.2078 29.4795 7.86331 33.8558L6.46034 34.3865ZM7.579 17.4737C10.5059 13.6278 15.3823 12.0688 21.1891 12.0078L21.2049 13.5077C15.6106 13.5665 11.2963 15.0661 8.77263 18.3821L7.579 17.4737Z" fill="black"/>
</svg>
