<svg width="146" height="36" viewBox="0 0 146 36" fill="none" xmlns="http://www.w3.org/2000/svg">
<path d="M42.1085 9.46902C42.1151 9.75694 41.5777 9.87722 41.3442 9.90055C41.1286 9.92347 40.8428 10.02 40.462 9.90266C40.0812 9.78531 39.8301 9.82704 39.707 9.95588C39.5843 10.1027 39.2412 10.0565 39.1491 9.9686C39.0395 9.89908 38.786 9.83284 38.7925 10.1208C38.7987 10.3907 39.0209 12.2401 39.0352 12.8699C39.05 13.5178 38.8828 14.0797 38.7253 14.2814C38.5859 14.4826 38.3577 14.7399 38.1058 14.7456C37.8538 14.7514 37.4714 14.562 37.3581 14.3306C37.2632 14.1167 37.0464 14.0856 37.0423 13.9056C37.0382 13.7257 37.2857 13.522 37.4615 13.3379C37.6374 13.1539 37.6741 12.3969 37.6585 11.713C37.6429 11.0292 37.6388 10.057 37.3868 10.0628C37.1349 10.0685 36.7619 10.2931 36.6335 10.188C36.5051 10.0829 36.0188 10.076 36.0093 9.66209C36.0003 9.26619 36.1185 8.9214 36.3524 8.91607C36.5864 8.91074 37.4739 9.14257 37.4636 8.69269C37.4534 8.2428 37.3089 7.43588 37.302 7.12996C37.295 6.82404 37.3419 5.72469 37.7198 5.71607C38.0798 5.70787 38.3705 5.82727 38.4479 6.05957C38.5248 6.27387 38.6986 6.79204 38.7077 7.18794L38.736 8.42962C38.7417 8.68155 38.9949 8.72979 39.1924 8.70729C39.3895 8.66678 39.5196 8.84386 40.0063 8.86878C40.4926 8.87569 41.0051 9.24211 41.2361 9.11081C41.4672 8.97951 42.1024 9.19909 42.1085 9.46902ZM49.9503 13.8994C49.9548 14.0974 49.7957 14.227 49.5978 14.2315C49.3998 14.2361 48.8734 14.05 48.4918 13.8967C48.1462 13.7425 47.6677 13.2853 47.4975 12.9291C47.4034 12.7512 47.3257 12.5009 47.2488 12.2866C47.1351 12.0371 47.023 11.8596 46.8971 11.8625C46.6991 11.867 46.4914 12.2318 46.3867 12.3783C46.2824 12.5427 46.2301 12.6159 46.0706 12.7276C46.0178 12.7828 45.9471 12.8384 45.8759 12.876C45.752 12.9689 45.6109 13.0981 45.5966 13.2605C45.5651 13.4593 44.8012 13.9088 44.5492 13.9145C44.3333 13.9195 43.5844 13.4504 43.4326 13.1118L43.3353 12.7899C43.314 12.6464 43.2747 12.5032 43.2355 12.3601C43.1749 12.0734 43.0968 11.8051 43.006 11.7712C42.8779 11.6841 43.0034 10.871 43.1196 10.4362C43.1866 10.2186 43.2909 10.0542 43.378 9.9262C43.4475 9.81659 43.5526 9.68816 43.5673 9.54378C43.58 9.30943 43.737 9.0898 43.881 9.08652C44.1509 9.08036 44.5718 9.37685 44.5755 9.5388C44.5775 9.62878 44.544 9.73757 44.4933 9.88277L44.3064 10.3732C44.2071 10.7535 44.3978 12.0095 44.7937 12.0005C44.9916 11.996 45.1515 11.9023 45.2578 11.8278L45.4353 11.7158C45.4705 11.679 45.5065 11.6781 45.5425 11.6773C45.6505 11.6749 45.7723 11.492 45.8754 11.2736L45.9948 10.9828C46.0467 10.8916 46.0807 10.8008 46.1158 10.764C46.2029 10.636 46.3416 10.3988 46.4986 10.1791C46.6384 9.9959 46.7603 9.81308 46.8863 9.8102C47.1022 9.80528 47.5943 10.0641 47.6928 10.44C47.7313 10.5471 47.7882 10.6719 47.8634 10.8142C47.9203 10.9389 48.0135 11.0808 48.0888 11.2232C48.2389 11.4898 48.389 11.7565 48.4479 11.9712C48.5302 12.4194 49.1028 13.0545 49.4165 13.3895C49.5274 13.513 49.655 13.5821 49.783 13.6692C49.8926 13.7387 49.9482 13.8095 49.9503 13.8994ZM55.6739 9.23176C55.678 9.41171 55.3921 9.50825 55.1222 9.51441C54.8702 9.52015 54.2613 9.66007 54.0502 9.88093C53.8208 10.0842 53.3791 10.4544 53.2601 10.7632C53.1407 11.054 52.8729 11.1501 52.8831 11.6C52.8934 12.0499 52.9094 12.7517 53.008 13.1275C53.0886 13.5038 52.9958 14.1721 52.4919 14.1836C51.988 14.1951 51.6894 13.7337 51.5925 13.4299C51.4775 13.1264 51.4533 12.0647 51.3081 12.014C51.145 11.9637 51.1887 11.5126 51.3089 11.2578C51.4291 11.003 51.3113 10.5735 51.2131 10.2157C51.097 9.85824 50.9734 9.17688 51.5672 9.16334C51.7652 9.15883 52.11 9.277 52.1321 9.45654C52.1542 9.63609 52.2842 9.81317 52.5141 9.62788C52.7439 9.44259 52.921 9.31252 53.2408 9.12519C53.5606 8.93785 53.9753 8.9644 54.2052 8.77912C54.417 8.59424 54.7769 8.58603 55.0109 8.5807C55.2268 8.57578 55.6698 9.0518 55.6739 9.23176ZM64.5665 13.0801C64.5714 13.296 63.9584 14.0482 63.7064 14.0539C63.4545 14.0597 62.8365 13.8037 62.8266 13.3718C62.8168 12.9399 62.5084 12.0467 62.3717 11.5817C62.2355 11.1347 61.7909 10.5867 61.6441 10.464C61.4792 10.3417 61.2755 10.0943 60.8134 10.3569C60.3693 10.6191 59.8159 10.8298 59.5047 11.395C59.1755 11.9607 58.8697 12.7598 58.9478 13.0281C59.0264 13.3144 58.8313 13.4449 58.5998 13.5582C58.3859 13.6531 58.3925 13.941 58.1765 13.9459C57.9786 13.9505 57.2182 12.9775 57.2116 12.6896C57.2055 12.4197 57.1502 10.7825 56.9612 10.3907C56.7718 9.98093 56.5709 9.06727 57.2367 9.05209C57.5607 9.0447 58.1054 9.24834 58.1186 9.82419C58.1321 10.418 58.0999 11.373 58.5697 10.6601C59.0392 9.92923 59.1819 9.87196 59.413 9.74066C59.6261 9.60977 59.9062 9.2613 60.2121 9.25432C60.518 9.24735 60.835 8.93404 61.0149 8.92994C61.1949 8.92584 61.8706 9.34254 62.1953 9.37115C62.5204 9.41775 63.1291 10.052 63.3193 10.4978C63.5095 10.9436 63.6903 11.7677 63.8048 12.0532C64.0732 12.7672 64.5619 12.8821 64.5665 13.0801ZM76.5878 8.68292C76.5944 8.97084 76.057 9.09112 75.8235 9.11445C75.608 9.13737 75.3221 9.23391 74.9413 9.11656C74.5605 8.99921 74.3094 9.04094 74.1863 9.16978C74.0636 9.31662 73.7205 9.27043 73.6285 9.1825C73.5189 9.11298 73.2653 9.04675 73.2718 9.33467C73.278 9.6046 73.5002 11.454 73.5146 12.0839C73.5293 12.7317 73.3621 13.2936 73.2047 13.4953C73.0652 13.6965 72.837 13.9538 72.5851 13.9595C72.3331 13.9653 71.9507 13.7759 71.8374 13.5445C71.7425 13.3306 71.5258 13.2995 71.5217 13.1195C71.5176 12.9396 71.765 12.7359 71.9408 12.5518C72.1167 12.3678 72.1534 11.6108 72.1378 10.9269C72.1222 10.2431 72.1181 9.27095 71.8662 9.2767C71.6142 9.28244 71.2412 9.507 71.1128 9.4019C70.9844 9.2968 70.4981 9.28988 70.4887 8.87599C70.4796 8.48009 70.5978 8.13531 70.8317 8.12997C71.0657 8.12464 71.9532 8.35647 71.9429 7.90659C71.9327 7.45671 71.7883 6.64979 71.7813 6.34387C71.7743 6.03795 71.8213 4.93859 72.1992 4.92998C72.5591 4.92177 72.8499 5.04117 72.9272 5.27347C73.0041 5.48777 73.1779 6.00595 73.187 6.40184L73.2153 7.64352C73.221 7.89546 73.4742 7.9437 73.6717 7.92119C73.8689 7.88069 73.9989 8.05777 74.4856 8.08268C74.9719 8.0896 75.4844 8.45601 75.7155 8.32471C75.9465 8.19341 76.5817 8.41299 76.5878 8.68292ZM85.5069 12.9807C85.5126 13.2327 85.0979 13.2061 84.8999 13.2106C84.684 13.2156 84.5163 12.9673 84.1523 12.7956C83.7887 12.6418 83.6701 12.1764 83.4676 11.983C83.2651 11.7895 83.2679 11.1233 82.9387 10.8967C82.6094 10.6702 82.4217 10.3324 82.0438 10.341C81.6479 10.35 81.277 10.6646 81.0357 11.1382C80.7948 11.6298 80.4828 12.159 80.4906 12.501C80.4988 12.8609 80.4751 13.4015 80.2249 13.4793C79.9746 13.557 79.9247 13.7382 79.6727 13.7439C79.4208 13.7497 78.8785 13.654 78.8686 13.2221C78.8588 12.7902 78.325 11.4881 78.2517 10.6435C78.1788 9.81695 77.6518 6.44409 77.5647 5.7799C77.4779 5.13371 77.4791 4.39549 77.4725 4.10757C77.4664 3.83764 77.9657 3.6282 78.1277 3.62451C78.4516 3.61712 78.7711 4.20399 78.7776 4.49192C78.7838 4.76185 78.691 5.43014 78.7561 5.91478C78.8211 6.39942 79.4479 9.40992 79.4373 9.73424C79.4087 10.059 79.4693 11.1379 79.6312 11.1342C79.8112 11.1301 79.9805 10.6581 80.1547 10.4021C80.3289 10.146 81.1116 8.93987 82.0114 8.91936C82.8932 8.89926 83.5737 9.53191 83.7271 9.94252C83.8985 10.3527 84.1538 10.4909 84.1984 10.868C84.261 11.2447 84.7596 11.7915 84.9457 12.0573C85.1314 12.3051 85.5011 12.7288 85.5069 12.9807ZM88.5802 4.88059C88.5929 5.43844 88.1692 5.8082 87.9533 5.81312C87.7193 5.81845 87.3868 5.44794 87.1684 5.34489C86.968 5.24143 86.6559 4.97847 86.6502 4.72654C86.6444 4.4746 86.9409 4.05374 87.1749 4.0484C87.5168 4.04061 87.9532 4.22871 87.9933 4.40784C88.0154 4.58739 88.5675 4.32273 88.5802 4.88059ZM88.7795 12.0419C88.6024 12.172 88.5808 12.8026 88.5857 13.0186C88.5902 13.2165 88.4466 13.2378 88.1947 13.2435C87.9428 13.2493 87.5599 13.042 87.546 12.4301C87.532 11.8183 87.3475 10.8322 87.2653 10.384C87.1826 9.91775 87.2386 9.21429 87.1077 9.00122C86.9772 8.80614 86.9012 8.62783 86.8983 8.50186C86.8954 8.3759 87.0999 7.86711 87.3338 7.86177C87.5857 7.85603 88.1314 8.09565 88.1383 8.40157C88.1453 8.70749 88.1609 9.39132 88.2942 9.71236C88.428 10.0514 88.5671 10.6244 88.5745 10.9483C88.5823 11.2902 88.9565 11.9118 88.7795 12.0419ZM95.446 8.43302C95.4517 8.68495 95.0154 9.28905 94.7095 9.29603C94.4035 9.303 94.4506 8.99585 94.2526 9.00037C94.0367 9.00529 94.0072 9.29404 93.7733 9.29937C93.5394 9.3047 93.6011 9.64538 93.6061 9.86133C93.6106 10.0593 93.9309 10.6821 94.1161 10.912C94.3014 11.1418 94.6966 11.889 94.7097 12.4648C94.7232 13.0587 94.2586 13.2133 93.9748 13.3998C93.673 13.5868 93.0636 13.7087 92.7577 13.7157C92.4518 13.7226 92.2129 13.512 91.9107 13.681C91.608 13.8319 91.267 13.8757 90.9946 13.7739C90.7402 13.6716 90.1565 13.3429 90.1487 13.0009C90.1413 12.677 90.6898 12.2504 91.0521 12.3502C91.3965 12.4504 91.376 12.3428 91.6955 12.1375C92.0324 11.9137 92.2194 12.2155 92.2222 12.3415C92.2255 12.4855 92.3192 12.6454 92.8734 12.4707C93.4271 12.278 93.477 12.0968 93.1085 11.7272C92.7575 11.3391 92.2597 10.0361 92.2474 9.4962C92.2355 8.97434 92.5316 8.53547 92.6534 8.35265C92.7753 8.16982 93.1049 7.62217 93.5728 7.6115C93.9867 7.60206 94.4047 7.77258 94.7302 7.83718C95.0562 7.91977 95.4402 8.18108 95.446 8.43302Z" fill="#1D252F"/>
<path d="M7.84549 35.4295C7.67518 35.8071 7.23102 35.9751 6.85344 35.8048L0.700444 33.0294C0.322865 32.8591 0.154844 32.4149 0.325159 32.0373C0.495474 31.6597 0.93963 31.4917 1.31721 31.662L6.78654 34.1291L9.2536 28.6598C9.42392 28.2822 9.86807 28.1142 10.2457 28.2845C10.6232 28.4548 10.7913 28.899 10.6209 29.2765L7.84549 35.4295ZM8.17582 18.9279L7.579 18.4737L8.17582 18.9279ZM21.1891 13.0078C21.6033 13.0034 21.9426 13.3357 21.947 13.7499C21.9513 14.1641 21.6191 14.5034 21.2049 14.5077L21.1891 13.0078ZM6.46034 35.3865C4.77793 30.9391 3.09341 24.3675 7.579 18.4737L8.77263 19.3821C4.79688 24.606 6.2078 30.4795 7.86331 34.8558L6.46034 35.3865ZM7.579 18.4737C10.5059 14.6278 15.3823 13.0688 21.1891 13.0078L21.2049 14.5077C15.6106 14.5665 11.2963 16.0661 8.77263 19.3821L7.579 18.4737Z" fill="black"/>
</svg>
