<svg width="15" height="22" viewBox="0 0 15 22" fill="none" xmlns="http://www.w3.org/2000/svg">
<path d="M0.145817 19.5473L2.9166 5.34999C3.22601 3.76458 4.15255 2.36701 5.4924 1.46474C6.83225 0.562467 8.47564 0.229403 10.0611 0.538816C11.6465 0.848229 13.044 1.77477 13.9463 3.11462C14.8486 4.45447 15.1816 6.09786 14.8722 7.68328L12.8306 18.1445C12.5985 19.3335 11.9036 20.3817 10.8988 21.0584C9.89387 21.7351 8.66132 21.9849 7.47226 21.7529C6.2832 21.5208 5.23502 20.8259 4.55832 19.821C3.88162 18.8161 3.63182 17.5836 3.86388 16.3945L5.90551 5.93332C6.06021 5.14061 6.52348 4.44182 7.19341 3.99069C7.86333 3.53955 8.68503 3.37302 9.47774 3.52773C10.2704 3.68243 10.9692 4.14571 11.4204 4.81563C11.8715 5.48555 12.038 6.30725 11.8833 7.09996L9.55004 19.0556L8.05558 18.7639L10.3889 6.8083C10.4662 6.41194 10.383 6.0011 10.1574 5.66613C9.93182 5.33117 9.58243 5.09954 9.18608 5.02218C8.78972 4.94483 8.37887 5.02809 8.04391 5.25366C7.70895 5.47923 7.47731 5.82862 7.39996 6.22498L5.35833 16.6862C5.20363 17.4789 5.37016 18.3006 5.8213 18.9705C6.27243 19.6404 6.97121 20.1037 7.76392 20.2584C8.55663 20.4131 9.37833 20.2466 10.0483 19.7954C10.7182 19.3443 11.1814 18.6455 11.3362 17.8528L13.3778 7.39162C13.6098 6.20256 13.36 4.97001 12.6833 3.96513C12.0066 2.96024 10.9585 2.26533 9.7694 2.03327C8.58034 1.80121 7.34779 2.05101 6.3429 2.72771C5.33802 3.40442 4.64311 4.45259 4.41105 5.64165L1.64027 19.839L0.145817 19.5473Z" fill="black"/>
</svg>
