<svg width="16" height="16" viewBox="0 0 16 16" fill="none" xmlns="http://www.w3.org/2000/svg">
<path d="M8 1C4.1499 1 1 4.1499 1 8C1 11.8501 4.1499 15 8 15C11.8501 15 15 11.8501 15 8C15 4.1499 11.8501 1 8 1ZM8 13.5996C4.92032 13.5996 2.4004 11.0797 2.4004 8C2.4004 4.92032 4.92032 2.4004 8 2.4004C11.0797 2.4004 13.5996 4.92032 13.5996 8C13.5996 11.0797 11.0797 13.5996 8 13.5996Z" fill="#C0CBD8" stroke="#C0CBD8" stroke-width="0.5"/>
<path d="M7.30048 3.80011H8.70021V7.30045H10.8001V8.70018H7.30048V3.80011Z" fill="#5C708A"/>
</svg>
