<svg width="339" height="368" viewBox="0 0 339 368" fill="none" xmlns="http://www.w3.org/2000/svg">
<path d="M241.846 324.649C256.879 318.565 266.725 307.849 263.839 300.714C260.953 293.579 246.427 292.728 231.394 298.813C216.361 304.897 206.515 315.613 209.401 322.748C212.287 329.882 226.813 330.733 241.846 324.649Z" fill="#C0CBD8" fill-opacity="0.55"/>
<path d="M106.535 318.923C108.465 312.292 99.001 303.705 85.397 299.744C71.793 295.783 59.2004 297.948 57.2706 304.579C55.3409 311.21 64.8047 319.796 78.4087 323.757C92.0127 327.718 104.605 325.554 106.535 318.923Z" fill="#C0CBD8" fill-opacity="0.55"/>
<path d="M94.7822 296.807C109.607 304.098 121.107 316.931 136.487 323.215C150.105 328.78 170.543 329.96 184.034 324.149C194.544 319.624 203.433 312.119 212.568 305.224C221.702 298.329 231.602 291.803 242.865 289.775C257.831 287.082 272.647 292.331 287.572 292.691C302.256 293.042 316.621 287.61 326.093 276.099C339.506 259.789 338.28 235.964 333.05 215.503C327.824 195.041 319.254 174.844 320.302 153.749C321.127 137.124 328.271 121.835 329.578 105.402C330.89 88.8869 330.567 74.2494 320.526 60.0813C310.512 45.9496 293.682 36.8991 276.378 36.3294C243.006 35.2357 214.358 63.2257 180.976 64.0232C145.909 64.8617 116.519 35.8008 81.6656 31.8087C55.724 28.8375 28.5978 41.4106 14.087 63.1254C4.10035 78.0546 0.400912 96.8346 3.16638 114.507C5.95463 132.326 15.8001 148.02 17.5359 166.254C19.1168 182.878 14.3376 199.352 10.2737 215.548C6.20976 231.744 2.8338 248.856 7.15285 264.984C11.1074 279.736 24.3698 295.367 40.7622 294.537C48.5438 294.141 55.5599 290.823 63.3598 290.267C71.4511 289.688 79.6519 290.937 87.2831 293.639C89.8481 294.546 92.3493 295.608 94.7822 296.807Z" fill="#C0CBD8" fill-opacity="0.55"/>
<path d="M183.778 54.0886C202.828 54.0886 218.272 45.5622 218.272 35.0443C218.272 24.5264 202.828 16 183.778 16C164.728 16 149.285 24.5264 149.285 35.0443C149.285 45.5622 164.728 54.0886 183.778 54.0886Z" fill="#C0CBD8" fill-opacity="0.55"/>
<path d="M195.597 80.8937C195.597 78.4055 193.578 76.3867 191.091 76.3867C188.603 76.3867 186.585 78.4055 186.585 80.8937C186.585 83.3819 188.603 85.4007 191.091 85.4007C193.578 85.4007 195.597 83.3819 195.597 80.8937Z" fill="#C0CBD8" fill-opacity="0.55"/>
<path d="M191.091 81.6502C186.48 81.6502 182.73 77.8997 182.73 73.2878C182.73 68.676 186.48 64.9255 191.091 64.9255C195.701 64.9255 199.451 68.676 199.451 73.2878C199.451 77.8997 195.701 81.6502 191.091 81.6502ZM191.091 65.764C186.94 65.764 183.564 69.1408 183.564 73.2924C183.564 77.4439 186.94 80.8208 191.091 80.8208C195.241 80.8208 198.617 77.4439 198.617 73.2924C198.617 69.1408 195.241 65.764 191.091 65.764Z" fill="black"/>
<path d="M134.646 155.019C136.797 154.67 138.258 152.643 137.909 150.492C137.56 148.34 135.533 146.879 133.382 147.228C131.231 147.578 129.771 149.605 130.12 151.756C130.469 153.908 132.496 155.369 134.646 155.019Z" fill="#26BD6C"/>
<path d="M126.865 141.549C126.865 140.141 125.722 138.997 124.314 138.997C122.906 138.997 121.763 140.141 121.763 141.549C121.763 142.957 122.906 144.101 124.314 144.101C125.722 144.101 126.865 142.957 126.865 141.549Z" fill="#26BD6C"/>
<path d="M303.257 84.3141C304.852 80.4612 303.023 76.044 299.171 74.448C295.319 72.8521 290.903 74.6818 289.308 78.5347C287.712 82.3877 289.541 86.8049 293.393 88.4008C297.245 89.9968 301.661 88.1671 303.257 84.3141Z" fill="white"/>
<path d="M306.716 93.4396H295.126C294.894 93.4396 294.711 93.2527 294.711 93.0249V81.4315C294.711 81.1991 294.898 81.0168 295.126 81.0168H306.716C306.949 81.0168 307.131 81.2036 307.131 81.4315V93.0249C307.131 93.2573 306.944 93.4396 306.716 93.4396ZM295.545 92.6056H306.302V81.8462H295.545V92.6056Z" fill="black"/>
<path d="M308.628 111.126C310.026 109.727 310.026 107.46 308.628 106.061C307.229 104.662 304.962 104.662 303.563 106.061C302.165 107.46 302.165 109.727 303.563 111.126C304.962 112.525 307.229 112.525 308.628 111.126Z" fill="#26BD6C"/>
<path d="M32.5439 269.637C34.8312 269.097 36.2477 266.804 35.7079 264.516C35.168 262.228 32.8762 260.811 30.5889 261.351C28.3017 261.891 26.8851 264.184 27.4249 266.472C27.9648 268.76 30.2566 270.177 32.5439 269.637Z" fill="#26BD6C"/>
<path d="M22.4108 238.662C22.1784 238.662 21.9962 238.475 21.9962 238.247V233.831C21.9962 233.599 22.183 233.417 22.4108 233.417C22.6386 233.417 22.8254 233.604 22.8254 233.831V238.247C22.8254 238.48 22.6386 238.662 22.4108 238.662Z" fill="black"/>
<path d="M22.4108 247.234C22.1784 247.234 21.9962 247.047 21.9962 246.819V242.403C21.9962 242.171 22.183 241.989 22.4108 241.989C22.6386 241.989 22.8254 242.176 22.8254 242.403V246.819C22.8254 247.052 22.6386 247.234 22.4108 247.234Z" fill="black"/>
<path d="M28.903 240.74H24.4883C24.2559 240.74 24.0737 240.553 24.0737 240.325C24.0737 240.098 24.2605 239.911 24.4883 239.911H28.903C29.1354 239.911 29.3176 240.098 29.3176 240.325C29.3176 240.553 29.1308 240.74 28.903 240.74Z" fill="black"/>
<path d="M20.3333 240.74H15.9185C15.6862 240.74 15.5039 240.553 15.5039 240.325C15.5039 240.098 15.6907 239.911 15.9185 239.911H20.3333C20.5656 239.911 20.7478 240.098 20.7478 240.325C20.7478 240.553 20.5611 240.74 20.3333 240.74Z" fill="black"/>
<path d="M37.6915 72.8823C35.1584 72.8823 33.0991 70.8224 33.0991 68.2887C33.0991 65.7549 35.1584 63.6951 37.6915 63.6951C40.2246 63.6951 42.2839 65.7549 42.2839 68.2887C42.2839 70.8224 40.2246 72.8823 37.6915 72.8823ZM37.6915 64.5336C35.6185 64.5336 33.9328 66.2197 33.9328 68.2932C33.9328 70.3667 35.6185 72.0529 37.6915 72.0529C39.7644 72.0529 41.4501 70.3667 41.4501 68.2932C41.4501 66.2197 39.7644 64.5336 37.6915 64.5336Z" fill="black"/>
<path d="M317.81 265.444C317.705 265.444 317.596 265.403 317.514 265.321L309.924 257.729C309.76 257.565 309.76 257.301 309.924 257.141C310.088 256.977 310.352 256.977 310.512 257.141L318.102 264.733C318.266 264.897 318.266 265.162 318.102 265.321C318.02 265.403 317.915 265.444 317.806 265.444H317.81Z" fill="black"/>
<path d="M310.22 265.444C310.115 265.444 310.006 265.403 309.924 265.321C309.76 265.157 309.76 264.893 309.924 264.733L317.514 257.141C317.678 256.977 317.942 256.977 318.102 257.141C318.266 257.305 318.266 257.57 318.102 257.729L310.512 265.321C310.429 265.403 310.325 265.444 310.215 265.444H310.22Z" fill="black"/>
<path d="M102.008 257.018C101.707 257.018 101.407 257.018 101.106 257.009C86.4585 256.79 73.4877 250.337 67.2597 240.166C65.1138 236.666 63.6787 232.674 62.2891 228.814C60.1159 222.776 58.0657 217.075 53.5326 212.973C49.6281 209.442 44.3158 207.632 39.1722 205.883C32.6161 203.65 25.8414 201.339 22.2559 195.415C19.7638 191.3 19.372 186.232 21.1214 180.759C22.6249 176.061 25.6227 171.317 29.5545 167.407C32.0922 164.882 34.9214 162.549 37.6596 160.293C42.7531 156.096 48.0198 151.753 51.4687 146.084C56.3755 138.018 57.0771 128.252 57.7514 118.805C58.3528 110.433 58.9724 101.775 62.4668 94.1368C66.189 86.0023 73.6471 79.4947 82.9276 76.2865C92.2081 73.0782 102.09 73.5886 110.04 77.6901C114.664 80.0735 118.942 83.5597 123.084 86.9274C130.829 93.2299 138.141 99.1816 147.44 98.4387C153.727 97.9329 159.213 94.2188 164.52 90.6232C169.892 86.9866 175.441 83.227 181.897 82.6893C193.733 81.714 203.246 92.0041 207.861 98.2291C209.378 100.275 210.85 102.431 212.276 104.518C216.682 110.971 221.238 117.647 227.762 121.967C237.598 128.484 250.51 128.602 260.656 127.974C262.601 127.855 264.546 127.705 266.501 127.559C275.909 126.848 285.641 126.114 294.876 128.489C300.616 129.965 306.01 132.955 310.061 136.906C314.539 141.276 317.036 146.457 317.282 151.899C317.719 161.546 310.917 171.435 299.085 178.348C295.454 180.472 291.572 182.304 287.818 184.077C281.65 186.993 275.267 190.005 269.918 194.357C259.521 202.806 259.972 210.654 260.656 222.53L260.669 222.785C261.166 231.421 255.289 242.736 241.22 247.188C230.381 250.615 218.859 248.865 209.023 246.696C206.649 246.172 204.244 245.598 201.916 245.042C193.897 243.123 185.601 241.141 177.268 240.986C164.11 240.726 150.934 245.097 139.303 248.943C127.298 252.912 114.892 257.014 102.017 257.014L102.008 257.018ZM95.1604 74.9102C91.1876 74.9102 87.1145 75.5892 83.1554 76.9564C74.0572 80.1008 66.7494 86.4717 63.1046 94.433C59.6603 101.952 59.0453 110.547 58.453 118.859C57.7696 128.388 57.0634 138.241 52.0701 146.453C48.5574 152.227 43.2452 156.606 38.1106 160.84C35.3862 163.086 32.5706 165.406 30.0557 167.908C19.9187 177.988 19.2216 189.048 22.8618 195.059C26.3198 200.765 32.6754 202.929 39.4091 205.226C44.6165 206.999 50.0017 208.836 54.0109 212.463C58.6762 216.683 60.8494 222.735 62.9588 228.586C64.3347 232.414 65.7608 236.37 67.8656 239.81C72.6494 247.621 83.898 256.057 101.124 256.316C114.213 256.521 126.852 252.333 139.08 248.287C150.766 244.422 164.015 240.043 177.277 240.293C185.687 240.448 194.02 242.444 202.075 244.368C204.399 244.924 206.804 245.498 209.173 246.017C218.923 248.164 230.327 249.9 241.01 246.523C254.728 242.185 260.455 231.197 259.972 222.826L259.959 222.575C259.289 210.918 258.806 202.497 269.476 193.82C274.893 189.418 281.312 186.382 287.518 183.452C291.258 181.684 295.122 179.861 298.73 177.751C310.334 170.97 317.008 161.323 316.58 151.94C316.197 143.586 309.19 132.9 294.698 129.172C285.572 126.825 275.904 127.554 266.551 128.265C264.597 128.411 262.642 128.561 260.697 128.68C250.441 129.313 237.384 129.195 227.374 122.56C220.741 118.162 216.144 111.431 211.697 104.924C210.276 102.841 208.809 100.69 207.296 98.6575C202.763 92.5509 193.446 82.4432 181.947 83.3956C175.678 83.9151 170.202 87.6246 164.908 91.2111C159.527 94.8568 153.96 98.6256 147.49 99.1451C137.904 99.9107 130.146 93.5945 122.633 87.4788C118.523 84.1339 114.273 80.6704 109.712 78.319C105.316 76.0541 100.313 74.9102 95.1513 74.9102H95.1604Z" fill="white"/>
<path d="M158.994 262.633C154.843 262.633 149.841 261.703 143.827 259.338C135.563 256.093 128.155 250.889 120.997 245.853C119.002 244.45 116.938 243 114.892 241.62C106.701 236.087 95.78 229.689 83.9618 229.338C77.9798 229.151 72.0024 230.523 66.2163 231.84C64.7402 232.177 63.2686 232.51 61.7971 232.824C54.8492 234.292 46.7487 235.426 39.3271 232.715C32.5933 230.254 26.0191 223.291 27.1125 215.234C27.8688 209.638 31.9236 205.495 35.8463 201.485C38.4842 198.787 41.2132 196.003 42.9718 192.772C47.5733 184.336 45.9013 173.313 37.8646 159.076C37.3817 158.224 36.8896 157.363 36.3976 156.497C30.7664 146.635 24.9439 136.441 26.5385 125.417C28.0738 114.781 37.122 105.065 49.5871 100.663C60.4394 96.8301 72.2484 96.9121 83.6611 96.9896H84.504C97.206 97.0807 108.564 96.7982 119.011 92.5099C122.446 91.0972 125.831 89.2242 129.107 87.4059C135.959 83.6052 143.08 79.6724 150.921 79.8638C160.989 80.1054 168.967 86.8545 176.689 93.3758C183.081 98.7805 189.692 104.368 197.56 106.455C205.784 108.633 213.993 106.824 222.691 104.905C227.812 103.775 233.11 102.604 238.354 102.358C253.721 101.624 270.032 109.367 280.866 122.551C293.035 137.352 296.525 155.193 297.308 167.557C298.22 181.93 295.577 193.514 289.449 201.995C281.818 212.559 268.141 219.185 248.801 221.691C244.263 222.279 239.607 222.671 235.106 223.054C224.472 223.952 213.474 224.881 203.296 228.449C189.186 233.394 183.405 242.417 176.079 253.837C173.65 257.624 168.621 262.633 158.998 262.633H158.994ZM82.8866 228.623C83.2511 228.623 83.6156 228.627 83.98 228.636C95.9759 228.992 107.01 235.454 115.279 241.036C117.33 242.422 119.398 243.875 121.394 245.279C128.519 250.287 135.891 255.469 144.078 258.682C152.447 261.967 167.655 265.663 175.482 253.455C182.876 241.92 188.722 232.811 203.055 227.784C213.315 224.189 224.358 223.254 235.037 222.352C239.53 221.974 244.181 221.582 248.701 220.994C267.845 218.515 281.358 211.985 288.875 201.585C294.903 193.241 297.504 181.807 296.602 167.603C295.823 155.344 292.365 137.653 280.315 122.993C269.613 109.977 253.535 102.335 238.372 103.055C233.188 103.301 227.921 104.463 222.828 105.589C214.435 107.444 205.756 109.358 197.369 107.134C189.346 105.006 182.676 99.3684 176.225 93.9135C168.247 87.1689 160.712 80.798 150.893 80.5656C143.203 80.3742 136.205 84.266 129.435 88.0166C126.145 89.8394 122.742 91.7306 119.266 93.157C108.701 97.4954 97.2698 97.778 84.4903 97.6959H83.6474C72.2894 97.6139 60.5442 97.5319 49.8103 101.323C37.5867 105.639 28.7208 115.136 27.2219 125.517C25.6637 136.304 31.427 146.394 36.999 156.15C37.491 157.016 37.983 157.878 38.466 158.73C46.6303 173.194 48.3023 184.437 43.5823 193.104C41.7736 196.422 39.0127 199.243 36.3429 201.972C32.3245 206.078 28.5294 209.961 27.8005 215.325C26.7617 223.017 33.0854 229.684 39.564 232.054C46.8216 234.706 54.8037 233.585 61.6513 232.136C63.1228 231.826 64.5899 231.489 66.0614 231.156C71.5377 229.908 77.1916 228.623 82.8866 228.623Z" fill="white"/>
<path d="M72.3988 244.308H87.2284C87.8936 244.308 88.4312 244.846 88.4312 245.511V246.737C88.4312 247.403 87.8936 247.94 87.2284 247.94H72.3988C71.7336 247.94 71.196 247.403 71.196 246.737V245.511C71.196 244.846 71.7336 244.308 72.3988 244.308Z" fill="#873DE6"/>
<path d="M85.4015 244.308H84.3445C84.3445 243.142 85.6612 242.44 87.1829 241.633C88.8549 240.745 90.7502 239.737 90.7502 238.133C90.7502 236.643 88.6089 235.759 86.8139 235.281C84.4129 234.643 81.6793 234.469 80.4401 234.469C77.2099 234.469 70.1299 235.39 70.1299 238.133C70.1299 239.733 72.0252 240.74 73.6972 241.633C75.2189 242.444 76.5356 243.142 76.5356 244.308H75.4786C75.4786 243.775 74.2667 243.133 73.2006 242.563C71.36 241.583 69.0729 240.366 69.0729 238.133C69.0729 234.26 77.2782 233.412 80.4401 233.412C83.6019 233.412 91.8072 234.26 91.8072 238.133C91.8072 240.371 89.5201 241.588 87.6795 242.563C86.6134 243.133 85.4015 243.775 85.4015 244.308Z" fill="#873DE6"/>
<path d="M57.9291 320.855C57.9291 320.855 51.0131 332.639 52.6806 332.972C54.3481 333.305 61.0863 322.75 61.0863 322.75L57.9291 320.855Z" fill="#873DE6"/>
<path d="M102.956 320.855C102.956 320.855 109.872 332.639 108.204 332.972C106.537 333.305 99.7983 322.75 99.7983 322.75L102.956 320.855Z" fill="#873DE6"/>
<path d="M80.4401 327.636C102.947 327.636 121.193 309.385 121.193 286.872C121.193 264.359 102.947 246.108 80.4401 246.108C57.9328 246.108 39.687 264.359 39.687 286.872C39.687 309.385 57.9328 327.636 80.4401 327.636Z" fill="#873DE6"/>
<path d="M80.4401 325.799C101.933 325.799 119.357 308.371 119.357 286.872C119.357 265.373 101.933 247.945 80.4401 247.945C58.9468 247.945 41.523 265.373 41.523 286.872C41.523 308.371 58.9468 325.799 80.4401 325.799Z" fill="white"/>
<path d="M80.4401 325.922C70.0115 325.922 60.207 321.862 52.8355 314.484C45.4594 307.106 41.4 297.303 41.4 286.872C41.4 276.441 45.4594 266.634 52.8355 259.26C60.2116 251.882 70.016 247.822 80.4401 247.822C90.8641 247.822 100.673 251.882 108.045 259.26C115.421 266.638 119.48 276.441 119.48 286.872C119.48 297.303 115.421 307.11 108.045 314.484C100.669 321.862 90.8687 325.922 80.4401 325.922ZM80.4401 248.068C70.0798 248.068 60.3392 252.106 53.0086 259.433C45.6781 266.761 41.646 276.505 41.646 286.872C41.646 297.24 45.6826 306.978 53.0086 314.311C60.3346 321.643 70.0752 325.676 80.4401 325.676C90.8049 325.676 100.541 321.638 107.871 314.311C115.197 306.983 119.234 297.24 119.234 286.872C119.234 276.505 115.197 266.766 107.871 259.433C100.546 252.106 90.8049 248.068 80.4401 248.068Z" fill="black"/>
<path d="M80.4401 257.419C80.0938 257.419 79.8113 257.137 79.8113 256.79V250.707C79.8113 250.36 80.0938 250.078 80.4401 250.078C80.7863 250.078 81.0688 250.36 81.0688 250.707V256.79C81.0688 257.137 80.7863 257.419 80.4401 257.419Z" fill="#AEAEAE"/>
<path d="M65.7198 261.361C65.4191 261.534 65.0364 261.429 64.8632 261.133L61.8199 255.865C61.6467 255.564 61.7515 255.182 62.0477 255.008C62.3484 254.835 62.7311 254.94 62.9042 255.236L65.9476 260.504C66.1207 260.805 66.0159 261.188 65.7198 261.361Z" fill="#AEAEAE"/>
<path d="M54.9403 272.143C54.7672 272.444 54.3845 272.544 54.0838 272.371L48.8171 269.327C48.5164 269.154 48.4162 268.771 48.5893 268.47C48.7624 268.17 49.1451 268.069 49.4458 268.242L54.7125 271.287C55.0132 271.46 55.1135 271.843 54.9403 272.143Z" fill="#AEAEAE"/>
<path d="M43.6598 286.662V287.086C43.6598 287.315 43.8454 287.501 44.0744 287.501H50.5803C50.8093 287.501 50.9949 287.315 50.9949 287.086V286.662C50.9949 286.433 50.8093 286.248 50.5803 286.248H44.0744C43.8454 286.248 43.6598 286.433 43.6598 286.662Z" fill="#AEAEAE"/>
<path d="M54.9403 301.601C55.1135 301.902 55.0087 302.284 54.7125 302.457L49.4458 305.502C49.1452 305.675 48.7625 305.57 48.5893 305.274C48.4162 304.973 48.521 304.59 48.8171 304.417L54.0838 301.373C54.3845 301.2 54.7672 301.305 54.9403 301.601Z" fill="#AEAEAE"/>
<path d="M65.7198 312.378C66.0204 312.552 66.1207 312.934 65.9475 313.235L62.9042 318.503C62.731 318.804 62.3483 318.904 62.0476 318.731C61.747 318.558 61.6467 318.175 61.8198 317.874L64.8632 312.606C65.0364 312.305 65.4191 312.205 65.7198 312.378Z" fill="#AEAEAE"/>
<path d="M80.4401 316.325C80.7863 316.325 81.0688 316.607 81.0688 316.954V323.038C81.0688 323.384 80.7863 323.666 80.4401 323.666C80.0938 323.666 79.8113 323.384 79.8113 323.038V316.954C79.8113 316.607 80.0938 316.325 80.4401 316.325Z" fill="#AEAEAE"/>
<path d="M95.1649 312.378C95.4656 312.205 95.8483 312.31 96.0215 312.606L99.0648 317.874C99.238 318.175 99.1332 318.558 98.837 318.731C98.5363 318.904 98.1536 318.799 97.9805 318.503L94.9371 313.235C94.764 312.934 94.8688 312.552 95.1649 312.378Z" fill="#AEAEAE"/>
<path d="M105.944 301.601C106.117 301.3 106.5 301.2 106.801 301.373L112.068 304.417C112.368 304.59 112.468 304.973 112.295 305.274C112.122 305.575 111.74 305.675 111.439 305.502L106.172 302.457C105.871 302.284 105.771 301.902 105.944 301.601Z" fill="#AEAEAE"/>
<path d="M117.225 287.082V286.658C117.225 286.429 117.039 286.243 116.81 286.243H110.304C110.075 286.243 109.89 286.429 109.89 286.658V287.082C109.89 287.311 110.075 287.496 110.304 287.496H116.81C117.039 287.496 117.225 287.311 117.225 287.082Z" fill="#AEAEAE"/>
<path d="M105.944 272.143C105.771 271.843 105.876 271.46 106.172 271.287L111.439 268.242C111.739 268.069 112.122 268.174 112.295 268.47C112.468 268.771 112.364 269.154 112.068 269.327L106.801 272.371C106.5 272.544 106.117 272.44 105.944 272.143Z" fill="#AEAEAE"/>
<path d="M95.1649 261.361C94.8642 261.188 94.764 260.805 94.9371 260.504L97.9805 255.236C98.1536 254.936 98.5363 254.835 98.837 255.008C99.1377 255.182 99.238 255.564 99.0648 255.865L96.0214 261.133C95.8483 261.434 95.4656 261.534 95.1649 261.361Z" fill="#AEAEAE"/>
<path d="M109.22 240.895C104.304 237.687 97.8393 238.881 94.7777 243.57C94.3449 244.235 97.976 247.375 102.892 250.588C107.808 253.796 112.145 255.861 112.578 255.195C115.639 250.506 114.131 244.103 109.216 240.895H109.22Z" fill="#F48E2F"/>
<path d="M109.749 241.178C109.544 241.178 109.339 241.118 109.152 241C108.646 240.672 108.505 239.993 108.833 239.487C108.992 239.241 109.238 239.072 109.525 239.013C109.812 238.954 110.104 239.008 110.35 239.168C110.856 239.496 110.997 240.175 110.669 240.681C110.459 241 110.108 241.178 109.753 241.178H109.749ZM109.753 239.241C109.694 239.241 109.635 239.245 109.58 239.259C109.361 239.305 109.17 239.437 109.047 239.624C108.924 239.81 108.883 240.038 108.929 240.257C108.974 240.476 109.106 240.667 109.293 240.79C109.48 240.913 109.708 240.954 109.926 240.909C110.145 240.863 110.336 240.731 110.459 240.544C110.714 240.157 110.605 239.633 110.213 239.377C110.077 239.286 109.917 239.241 109.753 239.241Z" fill="black"/>
<path d="M104.678 240.767C105.334 239.737 102.655 239.546 99.7984 240.667C97.6434 241.515 95.8164 243.374 96.6775 244.176C97.3381 244.787 98.6594 243.174 100.532 242.103L104.678 240.767Z" fill="white"/>
<path d="M106.427 241.045C106.3 241.237 105.994 241.264 105.744 241.1C105.493 240.936 105.393 240.649 105.516 240.453C105.644 240.262 105.949 240.234 106.199 240.398C106.45 240.562 106.55 240.849 106.427 241.045Z" fill="white"/>
<path d="M54.462 239.063C49.2864 241.838 47.2362 248.086 49.8832 253.022C50.2568 253.723 54.7581 252.042 59.9291 249.266C65.1047 246.491 68.9909 243.675 68.6173 242.973C65.9703 238.038 59.633 236.288 54.462 239.063Z" fill="#F48E2F"/>
<path d="M68.6447 243.579C68.5991 243.579 68.5581 243.556 68.5353 243.515C66.6674 240.097 64.1024 238.872 62.2755 238.443C60.2936 237.978 58.7309 238.325 58.7127 238.329C58.6443 238.343 58.576 238.302 58.5623 238.234C58.5487 238.165 58.5897 238.101 58.658 238.083C58.7218 238.07 60.2845 237.719 62.321 238.193C64.1981 238.63 66.8405 239.888 68.754 243.392C68.7859 243.452 68.7631 243.529 68.7039 243.561C68.6857 243.57 68.6629 243.575 68.6447 243.575V243.579Z" fill="black"/>
<path d="M54.0064 239.3C53.6146 239.3 53.2364 239.09 53.0405 238.721C52.9038 238.461 52.8719 238.17 52.9585 237.887C53.0451 237.609 53.2319 237.377 53.487 237.24C53.7467 237.103 54.0383 237.072 54.3207 237.158C54.5987 237.245 54.831 237.432 54.9677 237.687C55.1044 237.947 55.1363 238.238 55.0497 238.521C54.9631 238.799 54.7763 239.031 54.5212 239.168C54.3572 239.254 54.1795 239.295 54.0064 239.295V239.3ZM54.0018 237.363C53.8651 237.363 53.7285 237.395 53.6055 237.463C53.405 237.568 53.2638 237.746 53.1954 237.965C53.1316 238.179 53.1544 238.407 53.2592 238.607C53.4779 239.017 53.9927 239.172 54.4027 238.954C54.6032 238.849 54.7444 238.671 54.8128 238.452C54.8766 238.238 54.8538 238.01 54.749 237.81C54.6442 237.609 54.4665 237.468 54.2478 237.4C54.1658 237.377 54.0838 237.363 54.0018 237.363Z" fill="black"/>
<path d="M51.3229 251.641C52.1749 251.354 51.3912 249.421 51.3548 247.266C51.3047 244.431 52.5849 243.743 52.1703 242.987C51.5826 241.916 50.1292 244.176 49.742 247.22C49.4504 249.517 50.2067 252.014 51.3229 251.641Z" fill="white"/>
<path d="M53.2546 241.583C53.364 241.788 53.2364 242.066 52.9722 242.207C52.7079 242.349 52.4072 242.299 52.2979 242.098C52.1885 241.893 52.3161 241.615 52.5803 241.474C52.8446 241.332 53.1453 241.383 53.2546 241.583Z" fill="white"/>
<path d="M52.6806 333.095C52.6806 333.095 52.6396 333.091 52.6214 333.081C52.5621 333.05 52.5393 332.972 52.5712 332.913L58.7765 321.37C58.8083 321.31 58.8858 321.288 58.945 321.319C59.0043 321.351 59.027 321.429 58.9951 321.488L52.7899 333.031C52.7671 333.072 52.7261 333.095 52.6806 333.095Z" fill="black"/>
<path d="M108.204 333.095C108.163 333.095 108.127 333.077 108.099 333.04L100.7 322.399C100.659 322.345 100.673 322.263 100.732 322.226C100.787 322.185 100.869 322.199 100.905 322.258L108.304 332.899C108.345 332.954 108.332 333.036 108.272 333.072C108.25 333.086 108.227 333.095 108.2 333.095H108.204Z" fill="black"/>
<path d="M112.582 255.323C112.582 255.323 112.537 255.318 112.519 255.305C112.459 255.268 112.441 255.191 112.478 255.132C114.514 251.8 114.027 248.574 113.266 246.455C112.437 244.153 111.106 242.622 111.093 242.608C111.047 242.558 111.052 242.476 111.106 242.431C111.156 242.385 111.238 242.39 111.284 242.444C111.298 242.458 112.655 244.026 113.503 246.373C114.286 248.546 114.783 251.85 112.696 255.264C112.673 255.3 112.632 255.323 112.591 255.323H112.582Z" fill="black"/>
<path d="M111.521 315.81C111.484 315.81 111.453 315.796 111.425 315.769C111.38 315.719 111.384 315.637 111.439 315.591C111.503 315.532 117.972 309.758 120.961 298.698C120.979 298.629 121.047 298.593 121.116 298.611C121.184 298.629 121.22 298.698 121.202 298.766C119.63 304.586 117.106 308.897 115.266 311.494C113.27 314.311 111.621 315.769 111.603 315.783C111.58 315.805 111.548 315.814 111.521 315.814V315.81Z" fill="black"/>
<path d="M114.988 314.32C114.965 314.32 114.942 314.315 114.92 314.301C114.86 314.265 114.847 314.188 114.883 314.128L119.708 306.677C119.744 306.618 119.822 306.604 119.881 306.641C119.94 306.677 119.954 306.755 119.917 306.814L115.093 314.265C115.07 314.301 115.029 314.324 114.988 314.324V314.32Z" fill="black"/>
<path d="M84.8229 246.436H76.3853C76.3169 246.436 76.2622 246.382 76.2622 246.313C76.2622 246.245 76.3169 246.19 76.3853 246.19H84.8229C84.8912 246.19 84.9459 246.245 84.9459 246.313C84.9459 246.382 84.8912 246.436 84.8229 246.436Z" fill="black"/>
<path d="M70.3258 237.741C70.1664 236.055 77.8249 232.71 86.8184 235.276L70.3258 237.741Z" fill="white"/>
<path d="M70.3258 237.869C70.262 237.869 70.2073 237.819 70.2028 237.755C70.1709 237.409 70.4078 237.017 70.8907 236.616C73.0639 234.811 79.6382 233.098 86.8548 235.158C86.9232 235.176 86.9596 235.244 86.9414 235.312C86.9232 235.381 86.8548 235.417 86.7865 235.399C79.661 233.362 73.1824 235.035 71.0502 236.807C70.6402 237.149 70.4306 237.473 70.4534 237.732C70.4579 237.801 70.4078 237.86 70.3395 237.869C70.3395 237.869 70.3304 237.869 70.3258 237.869Z" fill="black"/>
<path d="M80.6041 289.921C82.8007 289.921 84.5814 288.14 84.5814 285.942C84.5814 283.745 82.8007 281.964 80.6041 281.964C78.4074 281.964 76.6267 283.745 76.6267 285.942C76.6267 288.14 78.4074 289.921 80.6041 289.921Z" fill="#C0CBD8" fill-opacity="0.55"/>
<path d="M83.6201 285.942C83.6201 287.565 82.3035 288.877 80.6861 288.877C79.0687 288.877 77.752 287.56 77.752 285.942C77.752 284.325 79.0687 283.008 80.6861 283.008C82.3035 283.008 83.6201 284.325 83.6201 285.942Z" fill="#873DE6"/>
<path d="M92.0942 268.921C92.9325 267.459 92.4268 265.595 90.9643 264.756C89.5019 263.918 87.6385 264.424 86.8002 265.886C85.9619 267.349 81.292 278.25 82.7545 279.088C84.2169 279.927 91.2559 270.384 92.0942 268.921Z" fill="#873DE6"/>
<path d="M87.7843 304.955C88.6681 306.39 90.5452 306.837 91.9803 305.957C93.4154 305.073 93.8619 303.196 92.9826 301.76C92.0987 300.325 84.7682 291.005 83.3331 291.889C81.898 292.774 86.905 303.524 87.7888 304.959L87.7843 304.955Z" fill="#873DE6"/>
<path d="M218.285 196.335L242.345 180.668C243.088 180.185 244.022 180.098 244.842 180.435L281.864 195.647C283.804 196.445 284.133 199.06 282.442 200.309L256.027 219.873C255.179 220.502 254.045 220.575 253.12 220.069L218.454 200.961C216.672 199.976 216.577 197.447 218.285 196.34V196.335Z" fill="#C0CBD8" fill-opacity="0.55"/>
<path d="M254.423 220.816C253.908 220.816 253.389 220.689 252.924 220.429L218.258 201.321C217.292 200.788 216.691 199.812 216.65 198.71C216.609 197.607 217.137 196.586 218.062 195.984L242.122 180.317C242.979 179.756 244.058 179.656 245.001 180.048L282.023 195.26C283.076 195.693 283.791 196.627 283.928 197.757C284.069 198.887 283.604 199.967 282.693 200.642L256.277 220.206C255.731 220.611 255.079 220.816 254.423 220.816ZM218.513 196.682C217.834 197.124 217.447 197.866 217.479 198.678C217.511 199.484 217.948 200.2 218.659 200.592L253.325 219.7C254.104 220.128 255.065 220.064 255.781 219.536L282.196 199.972C282.866 199.475 283.203 198.687 283.103 197.857C282.998 197.028 282.479 196.344 281.709 196.03L244.687 180.818C243.995 180.536 243.206 180.609 242.578 181.019L218.518 196.686L218.513 196.682Z" fill="black"/>
<path d="M261.257 208.617L276.92 197.233L243.694 183.402L228.787 192.762L261.257 208.617Z" fill="#F9F9F9"/>
<path d="M272.269 200.924C272.21 200.924 272.15 200.911 272.096 200.888L246.15 189.085C245.94 188.989 245.849 188.743 245.944 188.533C246.04 188.324 246.286 188.233 246.496 188.328L272.442 200.131C272.652 200.227 272.743 200.473 272.647 200.683C272.579 200.838 272.424 200.929 272.269 200.929V200.924Z" fill="black"/>
<path d="M262.159 201.781C262.1 201.781 262.045 201.767 261.986 201.745L241.279 192.421C241.07 192.325 240.974 192.079 241.07 191.869C241.165 191.66 241.411 191.564 241.621 191.66L262.328 200.984C262.537 201.079 262.633 201.325 262.537 201.535C262.469 201.69 262.314 201.781 262.159 201.781Z" fill="black"/>
<path d="M244.332 176.607L250.724 150.317C251.252 148.153 253.466 146.854 255.612 147.455L296.67 159.008C298.912 159.637 300.119 162.066 299.272 164.23L287.741 193.733C286.939 195.784 284.615 196.777 282.579 195.943L246.66 181.183C244.86 180.445 243.871 178.499 244.332 176.612V176.607Z" fill="#873DE6"/>
<path d="M284.078 196.654C283.517 196.654 282.957 196.545 282.424 196.326L246.505 181.566C244.5 180.741 243.416 178.617 243.931 176.507L250.323 150.217C250.605 149.059 251.325 148.089 252.355 147.487C253.384 146.886 254.583 146.731 255.731 147.054L296.789 158.607C297.969 158.939 298.962 159.76 299.509 160.858C300.056 161.956 300.115 163.241 299.668 164.385L288.137 193.888C287.709 194.986 286.875 195.843 285.795 196.308C285.244 196.545 284.666 196.663 284.082 196.663L284.078 196.654ZM254.542 147.724C253.926 147.724 253.321 147.888 252.774 148.207C251.94 148.695 251.357 149.479 251.129 150.413L244.737 176.703C244.323 178.407 245.197 180.126 246.819 180.791L282.738 195.551C283.618 195.911 284.584 195.907 285.458 195.533C286.333 195.16 287.007 194.462 287.354 193.578L298.885 164.075C299.245 163.15 299.199 162.111 298.757 161.222C298.315 160.334 297.513 159.673 296.561 159.404L255.503 147.852C255.184 147.761 254.865 147.72 254.542 147.72V147.724Z" fill="black"/>
<path d="M254.428 217.831C254.359 217.831 254.286 217.813 254.227 217.781L220.987 199.357C220.786 199.247 220.714 198.992 220.823 198.792C220.937 198.591 221.187 198.518 221.388 198.628L254.396 216.92L280.93 197.356C281.116 197.219 281.376 197.26 281.513 197.443C281.65 197.63 281.609 197.889 281.426 198.026L254.678 217.749C254.605 217.804 254.519 217.831 254.432 217.831H254.428Z" fill="white"/>
<path d="M246.323 177.865L252.892 150.203L295.791 161.952L284.242 193.232L246.323 177.865Z" fill="white"/>
<path d="M280.843 188.178C280.652 188.178 280.479 188.046 280.438 187.85L278.993 181.169C278.943 180.946 279.089 180.722 279.312 180.672C279.54 180.622 279.759 180.768 279.809 180.991L281.253 187.672C281.303 187.895 281.157 188.119 280.934 188.169C280.902 188.173 280.875 188.178 280.848 188.178H280.843Z" fill="black"/>
<path d="M276.925 186.547C276.788 186.547 276.652 186.478 276.574 186.351C276.451 186.155 276.51 185.899 276.706 185.776L282.848 181.907C283.044 181.784 283.299 181.844 283.422 182.039C283.545 182.235 283.486 182.491 283.29 182.614L277.148 186.483C277.08 186.528 277.002 186.547 276.925 186.547Z" fill="black"/>
<path d="M252.505 171.061C252.305 171.061 252.127 170.916 252.095 170.706C252.059 170.478 252.218 170.264 252.446 170.232L291.14 164.371C291.367 164.335 291.581 164.495 291.613 164.722C291.65 164.95 291.49 165.164 291.263 165.196L252.569 171.057C252.569 171.057 252.528 171.061 252.505 171.061Z" fill="#C0CBD8" fill-opacity="0.55"/>
<path d="M267.403 179.706C267.011 179.706 266.633 179.611 266.264 179.419C263.253 177.847 263.362 173.55 263.458 169.758C263.53 166.91 263.599 164.221 262.218 163.829C260.975 163.474 259.968 165.775 258.906 168.209C257.781 170.779 256.505 173.695 254.45 174.493C253.603 174.821 252.683 174.771 251.717 174.342C251.507 174.251 251.412 174.001 251.507 173.791C251.603 173.581 251.849 173.486 252.059 173.581C252.829 173.923 253.512 173.969 254.154 173.718C255.886 173.048 257.088 170.3 258.145 167.876C259.362 165.101 260.505 162.476 262.451 163.032C264.446 163.601 264.378 166.468 264.291 169.781C264.2 173.331 264.1 177.35 266.651 178.681C267.066 178.895 267.485 178.932 267.932 178.79C270.141 178.088 272.542 173.413 274.665 169.289C277.039 164.668 278.911 161.013 280.807 161.665C282.716 162.316 282.734 165.67 282.752 169.22C282.77 172.843 282.793 176.945 284.971 177.419C285.194 177.469 285.34 177.687 285.29 177.915C285.24 178.139 285.021 178.284 284.793 178.234C281.959 177.619 281.937 173.354 281.914 169.225C281.896 166.121 281.882 162.913 280.533 162.453C279.321 162.038 277.239 166.094 275.399 169.671C273.098 174.151 270.72 178.781 268.178 179.588C267.913 179.67 267.654 179.715 267.398 179.715L267.403 179.706Z" fill="#F48E2F"/>
<path d="M244.259 209.364C244.122 209.364 243.985 209.296 243.908 209.173C243.785 208.981 243.84 208.722 244.031 208.599L251.033 204.092L239.849 198.632L232.86 203.139C232.664 203.267 232.409 203.207 232.286 203.016C232.163 202.825 232.217 202.565 232.409 202.442L239.598 197.807C239.721 197.73 239.876 197.721 240.008 197.784L252.068 203.672C252.204 203.736 252.291 203.873 252.3 204.023C252.309 204.174 252.236 204.315 252.109 204.397L244.482 209.305C244.414 209.35 244.336 209.373 244.259 209.373V209.364Z" fill="black"/>
<path d="M241.844 171.772C241.817 171.772 241.789 171.772 241.762 171.763C241.534 171.718 241.388 171.499 241.434 171.271L244.646 155.357C244.692 155.13 244.91 154.988 245.138 155.029C245.366 155.075 245.512 155.294 245.466 155.522L242.254 171.435C242.213 171.631 242.04 171.768 241.844 171.768V171.772Z" fill="black"/>
<path d="M239.347 169.152C239.347 169.152 239.325 169.152 239.316 169.152C239.088 169.134 238.915 168.933 238.933 168.705L239.853 157.271C239.871 157.044 240.072 156.87 240.3 156.889C240.527 156.907 240.701 157.107 240.682 157.335L239.762 168.769C239.744 168.988 239.562 169.152 239.347 169.152Z" fill="black"/>
<path d="M292.356 189.117C292.288 189.117 292.219 189.099 292.16 189.067C291.96 188.957 291.882 188.702 291.992 188.502L299.108 175.336C299.217 175.135 299.472 175.058 299.673 175.167C299.873 175.277 299.951 175.532 299.841 175.732L292.725 188.898C292.648 189.039 292.506 189.117 292.356 189.117Z" fill="black"/>
<path d="M296.411 186.966C296.32 186.966 296.233 186.938 296.156 186.879C295.973 186.738 295.942 186.478 296.083 186.296L300.598 180.454C300.739 180.271 301.003 180.239 301.181 180.381C301.363 180.522 301.395 180.782 301.254 180.964L296.739 186.806C296.657 186.911 296.534 186.97 296.411 186.97V186.966Z" fill="black"/>
<path d="M166.839 318.184L168.229 332.617C168.229 332.617 159.659 336.668 152.506 332.617L153.7 318.184H166.839Z" fill="white"/>
<path d="M159.787 335C157.372 335 154.73 334.531 152.233 333.113C152.042 333.004 151.928 332.794 151.946 332.576L153.14 318.143C153.162 317.851 153.408 317.624 153.704 317.624H166.844C167.135 317.624 167.381 317.847 167.409 318.134L168.798 332.566C168.821 332.803 168.694 333.031 168.475 333.132C168.238 333.245 164.443 335 159.787 335ZM153.103 332.298C159.03 335.433 165.983 332.936 167.627 332.261L166.324 318.749H154.219L153.103 332.298Z" fill="black"/>
<path d="M164.994 326.87H157.276C156.962 326.87 156.711 326.615 156.711 326.305C156.711 325.995 156.967 325.74 157.276 325.74H164.994C165.308 325.74 165.559 325.995 165.559 326.305C165.559 326.615 165.304 326.87 164.994 326.87Z" fill="black"/>
<path d="M174.484 101.606C177.031 103.278 178.767 105.903 180.521 108.392C182.275 110.884 184.239 113.404 187.004 114.68C189.332 115.756 192.034 115.852 194.303 117.036C197.879 118.905 199.688 123.316 199.146 127.317C198.603 131.318 196.034 134.841 192.808 137.261C189.583 139.685 185.728 141.125 181.856 142.256C178.653 143.19 175.336 143.942 172.006 143.728C168.675 143.513 165.295 142.224 163.154 139.663C161.983 138.264 161.24 136.568 160.507 134.896C159.418 132.408 158.333 129.919 157.244 127.431C156.215 125.071 155.171 122.683 154.73 120.144C153.805 114.835 155.951 109.244 159.805 105.562C163.573 101.961 169.523 98.3521 174.48 101.601L174.484 101.606Z" fill="black"/>
<path d="M168.42 218.834V321.967L151.235 322.249C152.593 239.022 128.852 222.794 151.235 192.598H186.507C186.507 192.598 213.798 225.843 211.082 236.023C208.367 246.2 184.471 264.182 184.471 264.182L176.329 251.29L188.202 235.686L168.416 218.838L168.42 218.834Z" fill="#3368F0"/>
<path d="M184.475 264.182C176.051 270.813 174.821 281.736 169.391 280.597L168.092 255.824L176.334 251.29L184.475 264.182Z" fill="white"/>
<path d="M170.179 281.248C169.887 281.248 169.587 281.217 169.272 281.148C169.022 281.094 168.835 280.879 168.821 280.624L167.523 255.852C167.514 255.633 167.623 255.432 167.814 255.327L176.056 250.793C176.32 250.647 176.648 250.734 176.808 250.989L184.949 263.881C185.104 264.127 185.049 264.451 184.822 264.629C181.013 267.627 178.657 271.601 176.767 274.796C174.653 278.364 172.944 281.248 170.179 281.248ZM169.933 280.105C172.097 280.264 173.537 278.031 175.796 274.217C177.669 271.05 179.988 267.14 183.728 264.059L176.143 252.046L168.68 256.152L169.937 280.105H169.933Z" fill="black"/>
<path d="M180.648 268.543C180.466 268.543 180.289 268.457 180.179 268.293L176.475 262.806C176.302 262.546 176.37 262.195 176.626 262.017C176.885 261.844 177.236 261.913 177.409 262.168L181.113 267.655C181.286 267.914 181.218 268.265 180.963 268.443C180.867 268.507 180.758 268.539 180.648 268.539V268.543Z" fill="black"/>
<path d="M179.382 270.193C179.241 270.193 179.099 270.138 178.985 270.033L175.887 267.021C175.664 266.802 175.66 266.442 175.874 266.219C176.092 265.996 176.448 265.991 176.676 266.205L179.774 269.218C179.997 269.436 180.001 269.792 179.783 270.02C179.673 270.134 179.523 270.193 179.377 270.193H179.382Z" fill="black"/>
<path d="M190.922 142.174C190.744 141.75 190.526 141.344 190.271 140.957C190.257 140.934 190.248 140.92 190.248 140.92C183.619 130.972 152.606 132.585 146.037 143.308C146.037 143.308 146.023 143.327 146.005 143.363C145.855 143.614 145.713 143.873 145.586 144.138C143.203 148.581 132.273 169.48 134.692 174.625C135.74 176.853 141.153 177.71 147.404 177.929C149.276 186.227 151.235 192.603 151.235 192.603H186.507C186.507 192.603 187.933 186.268 189.35 177.952C195.902 177.774 201.697 176.935 202.786 174.625C205.155 169.594 193.838 147.674 190.922 142.178V142.174Z" fill="white"/>
<path d="M186.507 193.168H151.235C150.985 193.168 150.766 193.004 150.693 192.767C150.675 192.703 148.77 186.496 146.943 178.476C139.353 178.175 135.175 176.99 134.178 174.862C131.699 169.589 141.9 149.802 145.085 143.864C145.198 143.623 145.344 143.354 145.517 143.067L145.54 143.026C145.558 142.998 145.572 142.971 145.595 142.944C149.408 136.828 160.511 133.907 169.851 133.729C177.596 133.588 187.127 135.297 190.685 140.551C190.708 140.579 190.731 140.61 190.749 140.642L190.758 140.661C191.022 141.066 191.25 141.49 191.437 141.927C192.858 144.607 196.448 151.52 199.36 158.347C203.105 167.133 204.394 172.533 203.301 174.857C202.271 177.049 197.861 178.243 189.833 178.499C188.457 186.515 187.077 192.662 187.063 192.721C187.004 192.981 186.776 193.163 186.512 193.163L186.507 193.168ZM151.659 192.033H186.056C186.403 190.457 187.61 184.824 188.794 177.851C188.84 177.587 189.068 177.387 189.337 177.382C199.492 177.109 201.802 175.381 202.276 174.379C204.048 170.615 196.995 154.82 190.421 142.438C190.412 142.424 190.407 142.406 190.398 142.392C190.234 142.005 190.029 141.622 189.792 141.267C189.788 141.258 189.783 141.248 189.779 141.244C189.779 141.244 189.779 141.244 189.779 141.239C187.04 137.124 179.414 134.682 169.874 134.868C157.295 135.11 149.08 139.43 146.524 143.605C146.52 143.614 146.511 143.627 146.501 143.636C146.337 143.91 146.21 144.147 146.101 144.379C139.95 155.854 133.412 170.574 135.207 174.383C135.663 175.354 137.859 177.031 147.426 177.364C147.681 177.373 147.9 177.555 147.959 177.806C149.545 184.824 151.208 190.516 151.659 192.038V192.033Z" fill="black"/>
<path d="M148.465 178.553C140.027 178.553 135.348 177.341 134.182 174.862C132.984 172.315 134.547 166.158 138.834 156.565C141.982 149.515 145.508 143.09 145.545 143.026C145.695 142.752 146.037 142.652 146.315 142.802C146.588 142.953 146.688 143.299 146.538 143.573C142.665 150.609 133.084 169.867 135.212 174.383C137.248 178.708 155.618 177.428 163.172 176.498V164.062L146.82 165.447C146.643 165.461 146.474 165.392 146.356 165.265C146.237 165.132 146.187 164.955 146.219 164.782L148.283 153.339C148.338 153.029 148.634 152.828 148.939 152.883C149.244 152.938 149.449 153.234 149.395 153.539L147.458 164.253L163.687 162.877C163.846 162.868 164.001 162.918 164.119 163.023C164.238 163.132 164.302 163.282 164.302 163.437V176.99C164.302 177.273 164.092 177.514 163.81 177.551C163.741 177.56 157.117 178.403 150.246 178.53C149.636 178.54 149.048 178.549 148.474 178.549L148.465 178.553Z" fill="black"/>
<path d="M168.73 139.95C166.393 139.95 164.502 138.054 164.502 135.716V126.228C164.502 123.89 166.397 121.995 168.73 121.995C171.067 121.995 172.963 123.89 172.963 126.228V135.716C172.963 138.054 171.067 139.95 168.73 139.95Z" fill="white"/>
<path d="M168.73 140.515C166.088 140.515 163.933 138.364 163.933 135.716V126.228C163.933 123.585 166.083 121.43 168.73 121.43C171.377 121.43 173.527 123.58 173.527 126.228V135.716C173.527 138.359 171.377 140.515 168.73 140.515ZM168.73 122.564C166.712 122.564 165.067 124.209 165.067 126.228V135.716C165.067 137.735 166.712 139.38 168.73 139.38C170.748 139.38 172.393 137.735 172.393 135.716V126.228C172.393 124.209 170.748 122.564 168.73 122.564Z" fill="black"/>
<path d="M168.092 130.179C172.964 130.179 176.913 124.205 176.913 116.836C176.913 109.467 172.964 103.493 168.092 103.493C163.221 103.493 159.272 109.467 159.272 116.836C159.272 124.205 163.221 130.179 168.092 130.179Z" fill="white"/>
<path d="M168.092 130.744C162.917 130.744 158.707 124.506 158.707 116.836C158.707 109.166 162.917 102.927 168.092 102.927C173.268 102.927 177.477 109.166 177.477 116.836C177.477 124.506 173.268 130.744 168.092 130.744ZM168.092 104.058C163.541 104.058 159.841 109.791 159.841 116.836C159.841 123.881 163.545 129.614 168.092 129.614C172.639 129.614 176.343 123.881 176.343 116.836C176.343 109.791 172.639 104.058 168.092 104.058Z" fill="black"/>
<path d="M181.601 113.6C180.366 116.284 174.953 116.435 169.514 113.933C164.074 111.431 160.666 107.225 161.901 104.536C163.135 101.852 168.548 101.702 173.988 104.203C179.427 106.705 182.835 110.912 181.601 113.6Z" fill="black"/>
<path d="M163.668 176.53C163.354 176.53 163.103 176.275 163.103 175.965V164.599C163.103 161.441 165.673 158.871 168.83 158.871C169.145 158.871 169.395 159.126 169.395 159.436V170.802C169.395 173.96 166.826 176.53 163.668 176.53ZM168.261 160.038C165.992 160.316 164.233 162.257 164.233 164.599V175.363C166.502 175.085 168.261 173.144 168.261 170.802V160.038Z" fill="black"/>
<path d="M188.99 178.553C188.416 178.553 187.824 178.549 187.218 178.535C180.348 178.407 173.723 177.564 173.655 177.555C173.373 177.519 173.163 177.277 173.163 176.995V163.442C173.163 163.282 173.231 163.132 173.345 163.027C173.464 162.922 173.619 162.868 173.778 162.881L190.006 164.258L188.07 153.544C188.015 153.234 188.22 152.942 188.526 152.887C188.831 152.833 189.127 153.038 189.182 153.343L191.246 164.786C191.277 164.959 191.227 165.137 191.109 165.269C190.99 165.401 190.817 165.465 190.644 165.451L174.293 164.066V176.503C181.842 177.428 200.216 178.713 202.253 174.388C204.376 169.872 194.795 150.618 190.927 143.577C190.776 143.304 190.877 142.957 191.15 142.807C191.423 142.657 191.77 142.757 191.92 143.03C191.956 143.094 195.483 149.52 198.631 156.57C202.913 166.162 204.481 172.319 203.282 174.867C202.116 177.346 197.437 178.558 188.999 178.558L188.99 178.553Z" fill="black"/>
<path d="M173.792 176.53C170.634 176.53 168.065 173.96 168.065 170.802V159.436C168.065 159.122 168.32 158.871 168.63 158.871C171.787 158.871 174.357 161.441 174.357 164.599V175.965C174.357 176.279 174.102 176.53 173.792 176.53ZM169.195 160.038V170.802C169.195 173.144 170.953 175.081 173.222 175.363V164.599C173.222 162.257 171.464 160.32 169.195 160.038Z" fill="black"/>
<path d="M73.2826 129.883C73.2826 129.883 77.8204 149.862 106.336 162.795L90.7912 182.358C90.7912 182.358 65.2687 178.435 51.5051 152.063C51.5051 152.063 54.2159 144.99 73.2872 129.883H73.2826Z" fill="#C0CBD8" fill-opacity="0.55"/>
<path d="M82.144 114.89C82.144 114.89 83.0962 143.541 106.869 157.941L90.0987 175.751C90.0987 175.751 62.7492 171.435 51.6646 135.178C51.6646 135.178 58.3345 125.057 82.144 114.89Z" fill="white"/>
<path d="M90.0987 176.17C90.0987 176.17 90.0531 176.17 90.0349 176.165C89.7524 176.12 83.0096 175.008 74.8043 169.407C67.246 164.248 57.027 154.145 51.2637 135.301C51.2272 135.183 51.2454 135.055 51.3138 134.951C51.5871 134.531 58.3254 124.61 81.98 114.507C82.1075 114.452 82.2533 114.466 82.3672 114.539C82.4811 114.612 82.554 114.74 82.5586 114.876C82.5677 115.159 83.7841 143.472 107.083 157.586C107.193 157.65 107.266 157.764 107.279 157.887C107.297 158.01 107.256 158.137 107.17 158.228L90.3994 176.038C90.3219 176.12 90.208 176.17 90.0941 176.17H90.0987ZM52.1247 135.256C57.8197 153.721 67.8291 163.629 75.2371 168.696C82.4948 173.659 88.7365 175.067 89.9529 175.304L106.218 158.032C94.1262 150.527 88.1214 139.303 85.2056 131.159C82.5403 123.717 81.9071 117.433 81.7704 115.51C60.3665 124.756 53.0815 133.957 52.1293 135.256H52.1247Z" fill="black"/>
<path d="M58.7719 137.092C58.7719 137.092 67.2824 127.349 79.2692 123.84L82.1576 133.428L62.8586 146.826L58.7719 137.092Z" fill="#C0CBD8" fill-opacity="0.55"/>
<path d="M66.4943 151.707C66.3667 151.707 66.2437 151.648 66.1617 151.543C66.025 151.361 66.0614 151.096 66.2437 150.96L82.9595 138.323C83.1417 138.186 83.406 138.223 83.5427 138.405C83.6793 138.587 83.6429 138.851 83.4607 138.988L66.7448 151.625C66.6674 151.68 66.5808 151.707 66.4943 151.707Z" fill="black"/>
<path d="M70.8817 157.167C70.7586 157.167 70.6402 157.112 70.5582 157.012C70.4124 156.834 70.4443 156.57 70.622 156.424L85.8662 144.16C86.0439 144.015 86.3081 144.047 86.4539 144.224C86.5997 144.402 86.5678 144.666 86.3901 144.812L71.1459 157.075C71.0684 157.139 70.9773 157.167 70.8862 157.167H70.8817Z" fill="black"/>
<path d="M87.7706 169.147C87.6612 169.147 87.5519 169.102 87.4699 169.02C87.3104 168.851 87.3196 168.587 87.4836 168.432L98.2766 158.165C98.4452 158.005 98.7095 158.014 98.8644 158.178C99.0238 158.347 99.0147 158.611 98.8507 158.766L88.0576 169.033C87.9756 169.111 87.8754 169.147 87.7706 169.147Z" fill="black"/>
<path d="M81.8479 166.099C81.734 166.099 81.6201 166.053 81.538 165.962C81.3831 165.789 81.3968 165.529 81.5699 165.374L93.8073 154.314C93.9804 154.159 94.2401 154.173 94.395 154.346C94.5499 154.519 94.5362 154.779 94.3631 154.934L82.1258 165.994C82.0438 166.067 81.9481 166.103 81.8479 166.103V166.099Z" fill="black"/>
<path d="M76.5401 161.819C76.4262 161.819 76.3123 161.774 76.2303 161.683C76.0754 161.51 76.0891 161.25 76.2622 161.095L89.3788 149.315C89.552 149.16 89.8117 149.173 89.9666 149.347C90.1215 149.52 90.1078 149.779 89.9347 149.934L76.8181 161.715C76.7406 161.788 76.6404 161.819 76.5401 161.819Z" fill="black"/>
<path d="M70.7495 196.03C70.7495 196.03 86.2079 204.985 108.723 197.753L114.373 211.629C114.373 211.629 98.0124 226.317 71.2416 222.894L70.7495 196.03Z" fill="#C0CBD8" fill-opacity="0.55"/>
<path d="M68.0615 189.732C68.0615 189.732 82.3444 200.464 105.557 195.962L109.516 210.408C109.516 210.408 90.3402 224.407 65.3507 216.46L68.057 189.727L68.0615 189.732Z" fill="white"/>
<path d="M80.8273 219.299C75.9934 219.299 70.7495 218.615 65.2322 216.861C65.0454 216.801 64.9224 216.619 64.9452 216.423L67.6515 189.691C67.6651 189.541 67.7608 189.413 67.8975 189.349C68.0342 189.29 68.1936 189.308 68.3166 189.399C68.4579 189.504 82.7408 199.963 105.484 195.551C105.698 195.51 105.908 195.643 105.967 195.852L109.926 210.298C109.972 210.467 109.908 210.645 109.771 210.745C109.621 210.854 97.8028 219.299 80.8319 219.299H80.8273ZM65.8017 216.168C88.6727 223.282 106.787 211.761 109.038 210.235L105.256 196.44C93.3562 198.669 83.8616 196.855 77.9753 194.927C72.9409 193.277 69.6743 191.313 68.4032 190.475L65.8017 216.163V216.168Z" fill="black"/>
<path d="M78.7999 214.313C78.7771 214.313 78.7543 214.313 78.7315 214.309L71.8885 213.147C71.6744 213.11 71.524 212.919 71.5422 212.7L72.8361 197.256C72.8452 197.128 72.9136 197.014 73.0184 196.946C73.1232 196.873 73.2553 196.855 73.3783 196.896L79.3466 198.805C79.5243 198.86 79.6427 199.029 79.6382 199.215L79.2236 213.917C79.2236 214.035 79.1644 214.149 79.0732 214.227C79.0003 214.29 78.9047 214.322 78.809 214.322L78.7999 214.313ZM72.4033 212.386L78.399 213.402L78.7953 199.493L73.6243 197.839L72.4079 212.381L72.4033 212.386Z" fill="#E6483D"/>
<path d="M83.9481 214.728C83.8433 214.728 83.7386 214.687 83.6611 214.614C83.5791 214.536 83.5335 214.432 83.529 214.322L83.1144 200.204C83.1144 200.077 83.1645 199.954 83.2602 199.872C83.3558 199.79 83.488 199.758 83.611 199.78C91.7479 201.403 102.605 199.867 102.714 199.853C102.919 199.826 103.11 199.945 103.17 200.14L105.694 208.166C105.748 208.334 105.689 208.516 105.548 208.621C101.653 211.565 95.985 213.065 91.9165 213.807C87.5246 214.609 83.9937 214.723 83.9618 214.723C83.9618 214.723 83.9527 214.723 83.9481 214.723V214.728ZM83.9618 200.701L84.349 213.876C86.6817 213.753 98.2493 212.9 104.81 208.138L102.482 200.728C100.577 200.974 91.3333 202.036 83.9618 200.701Z" fill="#E6483D"/>
<path d="M252.364 87.6566L228.576 101.667L238.794 119.024L262.581 105.014L252.364 87.6566Z" fill="#C0CBD8" fill-opacity="0.55"/>
<path d="M248.353 86.413L224.566 100.423L234.783 117.78L258.57 103.77L248.353 86.413Z" fill="white"/>
<path d="M258.879 104.067C258.851 104.094 258.82 104.122 258.783 104.144L234.996 118.153C234.796 118.271 234.541 118.203 234.427 118.007L224.208 100.649C224.153 100.553 224.135 100.439 224.162 100.335C224.19 100.225 224.258 100.134 224.354 100.079L248.14 86.0707C248.236 86.016 248.35 85.9978 248.455 86.0251C248.56 86.0525 248.655 86.1208 248.71 86.2165L258.929 103.575C259.025 103.739 258.997 103.939 258.874 104.071L258.879 104.067ZM234.937 117.223L258.009 103.638L248.213 86.9958L225.142 100.581L234.937 117.223Z" fill="black"/>
<path d="M241.876 102.394C241.79 102.49 241.662 102.54 241.53 102.526L224.527 100.849C224.299 100.827 224.131 100.622 224.153 100.394C224.176 100.166 224.381 99.9972 224.609 100.02L241.311 101.665L247.977 86.262C248.068 86.0524 248.314 85.9521 248.523 86.0433C248.733 86.1344 248.833 86.3805 248.742 86.5901L241.958 102.276C241.94 102.321 241.913 102.358 241.881 102.394H241.876Z" fill="black"/>
<path d="M239.338 82.2062L228.805 93.5534C228.65 93.7221 228.386 93.7312 228.217 93.5762C228.049 93.4213 228.04 93.157 228.194 92.9884L238.728 81.6411C238.883 81.4725 239.147 81.4634 239.316 81.6183C239.484 81.7732 239.493 82.0375 239.338 82.2062Z" fill="black"/>
<path d="M226.645 90.7189C226.518 90.8602 226.304 90.8966 226.131 90.7964C225.93 90.6825 225.862 90.4273 225.98 90.2267L229.948 83.3728C230.062 83.1723 230.317 83.1039 230.518 83.2224C230.718 83.3363 230.787 83.5915 230.668 83.7921L226.7 90.646C226.686 90.6733 226.664 90.7007 226.645 90.7189Z" fill="black"/>
<path d="M254.974 117.857C254.929 117.907 254.87 117.948 254.797 117.971L243.748 121.553C243.53 121.625 243.293 121.502 243.225 121.284C243.152 121.065 243.275 120.828 243.493 120.76L254.542 117.178C254.76 117.105 254.997 117.228 255.065 117.447C255.116 117.597 255.075 117.752 254.974 117.861V117.857Z" fill="black"/>
<path d="M71.5926 57.5106L57.7802 68.835C56.7099 69.7125 56.5534 71.2918 57.4307 72.3624L68.7522 86.1783C69.6294 87.2489 71.2083 87.4054 72.2786 86.5279L86.091 75.2036C87.1613 74.326 87.3178 72.7468 86.4405 71.6762L75.1191 57.8602C74.2418 56.7896 72.6629 56.6331 71.5926 57.5106Z" fill="white"/>
<path d="M77.0003 54.4349C75.1779 52.211 71.8976 51.8829 69.6698 53.7104C67.4465 55.5332 67.1184 58.8143 68.9454 61.0428C70.7677 63.2667 74.048 63.5948 76.2759 61.7674C78.4992 59.9445 78.8272 56.6634 77.0003 54.4349Z" fill="#F48E2F"/>
<path d="M79.6058 70.3638L68.8659 79.1691L70.5872 81.2697L81.3271 72.4644L79.6058 70.3638Z" fill="#873DE6"/>
<path d="M93.0142 56.9546L74.4142 81.788L90.906 94.1466L109.506 69.3132L93.0142 56.9546Z" fill="#873DE6"/>
<path d="M74.4216 82.3429C74.1984 82.3429 73.9843 82.2016 73.9068 81.9783C73.8066 81.6958 73.9524 81.3813 74.2394 81.2811L91.4427 75.1654L92.4769 56.9323C92.4951 56.6315 92.7457 56.4082 93.0555 56.4173C93.3562 56.4356 93.5886 56.6907 93.5704 56.9961L92.5134 75.5892C92.4997 75.808 92.3585 75.9994 92.1489 76.0723L74.6039 82.3064C74.5447 82.3292 74.4809 82.3384 74.4216 82.3384V82.3429Z" fill="black"/>
<path d="M276 267.792L248.669 234.44C247.854 233.445 246.388 233.299 245.393 234.115L221.267 253.895C220.273 254.71 220.127 256.177 220.943 257.172L248.273 290.524C249.088 291.519 250.555 291.664 251.549 290.849L275.675 271.069C276.669 270.254 276.815 268.786 276 267.792Z" fill="white"/>
<path d="M250.364 291.133C250.204 291.133 250.04 291.124 249.881 291.11C248.596 290.983 247.439 290.363 246.623 289.365L221.766 259.037C220.08 256.977 220.381 253.928 222.44 252.242L243.544 234.939C244.541 234.123 245.794 233.74 247.079 233.868C248.364 233.995 249.521 234.615 250.336 235.613L275.194 265.941C276.879 268.001 276.579 271.05 274.519 272.736L253.416 290.039C252.546 290.755 251.475 291.133 250.364 291.133ZM246.601 234.93C245.739 234.93 244.915 235.226 244.241 235.777L223.137 253.081C221.543 254.389 221.31 256.745 222.618 258.34L247.475 288.668C248.109 289.438 249.002 289.921 249.995 290.016C250.992 290.117 251.958 289.82 252.733 289.187L273.836 271.884C275.431 270.576 275.663 268.22 274.355 266.625L249.498 236.297C248.865 235.527 247.972 235.044 246.979 234.948C246.851 234.934 246.728 234.93 246.605 234.93H246.601Z" fill="black"/>
<path d="M274.77 266.283L249.917 235.955C248.418 234.128 245.721 233.859 243.89 235.358L242.049 236.867L272.333 273.82L274.173 272.312C276 270.813 276.269 268.115 274.77 266.283Z" fill="#F48E2F"/>
<path d="M272.333 274.367C272.333 274.367 272.296 274.367 272.278 274.367C272.132 274.354 272 274.281 271.909 274.171L241.625 237.217C241.534 237.103 241.489 236.962 241.502 236.816C241.516 236.671 241.589 236.538 241.698 236.447L243.539 234.939C244.537 234.123 245.79 233.74 247.074 233.868C248.359 233.995 249.516 234.615 250.332 235.613L275.189 265.941C276.005 266.939 276.387 268.197 276.26 269.477C276.132 270.763 275.513 271.92 274.515 272.736L272.674 274.244C272.574 274.326 272.456 274.367 272.328 274.367H272.333ZM242.819 236.944L272.41 273.05L273.827 271.888C274.597 271.255 275.08 270.361 275.176 269.368C275.276 268.375 274.98 267.404 274.346 266.629L249.489 236.301C248.856 235.531 247.963 235.048 246.97 234.952C245.976 234.852 245.006 235.148 244.236 235.782L242.819 236.944Z" fill="#F48E2F"/>
<path d="M225.306 259.967C225.147 259.967 224.992 259.898 224.882 259.766C224.691 259.534 224.723 259.187 224.96 258.996L244.523 242.955C244.755 242.763 245.102 242.8 245.293 243.032C245.484 243.265 245.452 243.611 245.216 243.802L225.652 259.844C225.552 259.926 225.429 259.967 225.306 259.967Z" fill="#D6E3F1"/>
<path d="M229.634 265.244C229.475 265.244 229.32 265.175 229.21 265.043C229.019 264.811 229.051 264.465 229.288 264.273L248.851 248.232C249.084 248.041 249.43 248.077 249.621 248.309C249.813 248.542 249.781 248.888 249.544 249.08L229.98 265.121C229.88 265.203 229.757 265.244 229.634 265.244Z" fill="#D6E3F1"/>
<path d="M233.962 270.526C233.803 270.526 233.648 270.457 233.539 270.325C233.347 270.093 233.379 269.746 233.616 269.555L253.179 253.514C253.412 253.322 253.758 253.354 253.949 253.591C254.141 253.824 254.109 254.17 253.872 254.361L234.309 270.403C234.208 270.485 234.085 270.526 233.962 270.526Z" fill="#D6E3F1"/>
<path d="M238.286 275.803C238.126 275.803 237.972 275.734 237.862 275.602C237.671 275.37 237.703 275.023 237.94 274.832L257.503 258.791C257.735 258.6 258.082 258.631 258.273 258.868C258.464 259.101 258.428 259.447 258.195 259.639L238.632 275.68C238.532 275.762 238.409 275.803 238.286 275.803Z" fill="#D6E3F1"/>
<path d="M242.614 281.084C242.455 281.084 242.3 281.016 242.19 280.884C241.999 280.652 242.031 280.305 242.268 280.114L261.831 264.073C262.064 263.881 262.41 263.918 262.601 264.15C262.792 264.383 262.756 264.729 262.524 264.92L242.96 280.961C242.86 281.043 242.737 281.084 242.614 281.084Z" fill="#D6E3F1"/>
<path d="M246.938 286.362C246.778 286.362 246.623 286.293 246.514 286.161C246.323 285.929 246.355 285.582 246.591 285.391L266.155 269.35C266.387 269.158 266.733 269.195 266.925 269.427C267.116 269.66 267.08 270.006 266.847 270.197L247.284 286.239C247.184 286.321 247.061 286.362 246.938 286.362Z" fill="#D6E3F1"/>
<path d="M264.127 277.402C263.968 277.402 263.813 277.334 263.704 277.202L236.65 244.19C236.459 243.957 236.491 243.611 236.728 243.42C236.96 243.228 237.306 243.265 237.498 243.497L264.551 276.509C264.742 276.741 264.711 277.088 264.474 277.279C264.373 277.361 264.25 277.402 264.127 277.402Z" fill="#D6E3F1"/>
<path d="M259.239 281.413C259.079 281.413 258.924 281.344 258.815 281.212L231.762 248.2C231.57 247.968 231.602 247.621 231.839 247.43C232.072 247.239 232.418 247.275 232.609 247.507L259.663 280.519C259.854 280.752 259.822 281.098 259.585 281.29C259.485 281.372 259.362 281.413 259.239 281.413Z" fill="#D6E3F1"/>
<path d="M254.346 285.423C254.186 285.423 254.031 285.355 253.922 285.222L226.869 252.21C226.677 251.978 226.709 251.632 226.946 251.44C227.178 251.249 227.525 251.285 227.716 251.518L254.769 284.53C254.961 284.762 254.929 285.108 254.692 285.3C254.592 285.382 254.469 285.423 254.346 285.423Z" fill="#D6E3F1"/>
<path d="M251.138 242.203C251.061 242.203 250.983 242.203 250.901 242.189C250.277 242.125 249.717 241.825 249.32 241.342L248.915 240.845C248.724 240.612 248.756 240.266 248.992 240.075C249.225 239.883 249.571 239.92 249.762 240.152L250.168 240.649C250.377 240.909 250.678 241.068 251.011 241.1C251.343 241.132 251.667 241.036 251.927 240.822L255.302 238.051C255.562 237.837 255.722 237.541 255.754 237.208C255.785 236.876 255.69 236.552 255.476 236.292C255.038 235.759 254.25 235.682 253.717 236.119L251.526 237.915C251.293 238.106 250.947 238.07 250.756 237.837C250.564 237.605 250.596 237.258 250.833 237.067L253.024 235.271C253.507 234.875 254.118 234.688 254.742 234.752C255.366 234.816 255.927 235.117 256.323 235.6C256.719 236.083 256.906 236.693 256.842 237.318C256.779 237.942 256.478 238.502 255.995 238.899L252.619 241.67C252.195 242.016 251.676 242.203 251.138 242.203Z" fill="black"/>
<path d="M257.858 250.406C257.781 250.406 257.703 250.406 257.621 250.392C256.997 250.328 256.437 250.028 256.041 249.544L255.635 249.048C255.444 248.815 255.476 248.469 255.713 248.278C255.945 248.086 256.291 248.123 256.482 248.355L256.888 248.852C257.097 249.112 257.398 249.271 257.731 249.303C258.063 249.335 258.391 249.239 258.647 249.025L262.023 246.254C262.282 246.04 262.442 245.744 262.474 245.411C262.505 245.078 262.41 244.755 262.196 244.495C261.758 243.962 260.97 243.884 260.437 244.322L258.246 246.117C258.013 246.309 257.667 246.272 257.476 246.04C257.284 245.808 257.316 245.461 257.553 245.27L259.745 243.474C260.227 243.078 260.838 242.891 261.462 242.955C262.086 243.019 262.647 243.319 263.043 243.802C263.863 244.8 263.717 246.282 262.715 247.102L259.339 249.873C258.915 250.219 258.396 250.406 257.858 250.406Z" fill="black"/>
<path d="M264.583 258.609C264.506 258.609 264.428 258.609 264.346 258.595C263.722 258.531 263.162 258.23 262.765 257.747L262.36 257.251C262.168 257.018 262.2 256.672 262.437 256.48C262.669 256.289 263.016 256.325 263.207 256.558L263.613 257.055C263.822 257.314 264.123 257.474 264.455 257.506C264.788 257.538 265.111 257.442 265.371 257.228L268.747 254.457C269.007 254.243 269.166 253.947 269.198 253.614C269.23 253.281 269.134 252.958 268.92 252.698C268.483 252.165 267.69 252.087 267.162 252.525L264.97 254.32C264.738 254.512 264.392 254.48 264.2 254.243C264.009 254.01 264.041 253.664 264.278 253.473L266.469 251.677C266.952 251.281 267.563 251.094 268.187 251.158C268.811 251.221 269.371 251.522 269.768 252.005C270.588 253.003 270.442 254.484 269.44 255.305L266.064 258.075C265.64 258.422 265.121 258.609 264.583 258.609Z" fill="black"/>
<path d="M271.303 266.807C271.226 266.807 271.148 266.807 271.066 266.798C270.442 266.734 269.882 266.433 269.485 265.95L269.08 265.453C268.888 265.221 268.92 264.875 269.157 264.683C269.39 264.492 269.736 264.524 269.927 264.761L270.333 265.258C270.542 265.517 270.843 265.677 271.175 265.709C271.508 265.741 271.836 265.645 272.091 265.431L275.467 262.66C275.727 262.446 275.886 262.15 275.918 261.817C275.95 261.484 275.854 261.161 275.64 260.901C275.431 260.641 275.13 260.482 274.797 260.45C274.465 260.418 274.141 260.514 273.882 260.728L271.69 262.523C271.458 262.715 271.112 262.678 270.92 262.446C270.729 262.213 270.761 261.867 270.998 261.676L273.189 259.88C273.672 259.484 274.283 259.297 274.907 259.361C275.531 259.424 276.091 259.725 276.488 260.208C276.884 260.691 277.071 261.302 277.007 261.926C276.943 262.551 276.643 263.111 276.16 263.508L272.784 266.278C272.36 266.625 271.841 266.811 271.303 266.811V266.807Z" fill="black"/>
<path d="M244.651 261.489C243.799 261.489 242.869 261.188 241.949 260.596C240.486 259.652 239.753 258.203 239.94 256.617C240.117 255.091 241.138 253.787 242.532 253.295C243.462 252.967 245.352 252.734 247.539 254.881C247.753 255.091 247.758 255.437 247.548 255.656C247.339 255.87 246.992 255.874 246.774 255.665C245.466 254.38 244.09 253.906 242.897 254.329C241.894 254.685 241.161 255.633 241.029 256.749C240.892 257.902 241.448 258.973 242.546 259.68C243.762 260.463 244.901 260.618 245.744 260.108C246.364 259.734 246.728 259.037 246.664 258.331C246.601 257.611 246.122 257.046 245.32 256.731C245.038 256.622 244.901 256.307 245.011 256.025C245.12 255.742 245.434 255.605 245.717 255.715C246.915 256.18 247.658 257.1 247.758 258.239C247.853 259.356 247.284 260.459 246.309 261.047C245.812 261.343 245.252 261.493 244.655 261.493L244.651 261.489Z" fill="#873DE6"/>
<path d="M247.571 276.227C246.719 276.227 245.79 275.926 244.869 275.333C243.407 274.39 242.673 272.941 242.86 271.355C243.038 269.828 244.058 268.525 245.452 268.033C246.382 267.705 248.273 267.472 250.459 269.623C250.674 269.833 250.678 270.179 250.469 270.398C250.259 270.612 249.913 270.617 249.694 270.407C248.387 269.126 247.011 268.648 245.817 269.072C244.815 269.427 244.081 270.375 243.949 271.492C243.812 272.645 244.368 273.716 245.466 274.422C246.683 275.206 247.822 275.361 248.664 274.85C249.284 274.477 249.649 273.779 249.585 273.073C249.521 272.353 249.047 271.788 248.241 271.473C247.958 271.364 247.822 271.045 247.931 270.767C248.04 270.485 248.355 270.343 248.637 270.457C249.835 270.922 250.578 271.843 250.678 272.982C250.774 274.098 250.204 275.201 249.229 275.789C248.733 276.085 248.172 276.236 247.576 276.236L247.571 276.227Z" fill="#873DE6"/>
<path d="M263.184 272.248C262.332 272.248 261.403 271.947 260.483 271.355C259.02 270.412 258.287 268.962 258.473 267.377C258.651 265.85 259.672 264.547 261.066 264.054C261.995 263.726 263.886 263.494 266.073 265.645C266.287 265.854 266.291 266.201 266.082 266.42C265.872 266.634 265.526 266.638 265.307 266.429C264 265.144 262.624 264.67 261.43 265.093C260.428 265.449 259.694 266.397 259.562 267.513C259.426 268.666 259.981 269.737 261.079 270.444C262.296 271.227 263.43 271.382 264.278 270.872C264.897 270.498 265.262 269.801 265.198 269.095C265.134 268.375 264.66 267.809 263.854 267.495C263.572 267.386 263.435 267.071 263.544 266.789C263.654 266.506 263.968 266.369 264.25 266.479C265.449 266.944 266.191 267.864 266.291 269.003C266.387 270.12 265.818 271.223 264.843 271.811C264.346 272.107 263.786 272.257 263.189 272.257L263.184 272.248Z" fill="#873DE6"/>
<path d="M255.321 302.763C254.428 302.763 253.767 302.453 253.357 302.179C252.008 301.277 251.339 299.491 251.653 297.622C252.045 295.266 253.89 293.439 256.583 292.723C256.874 292.646 257.175 292.819 257.252 293.111C257.33 293.402 257.157 293.703 256.865 293.781C253.598 294.646 252.888 296.879 252.733 297.8C252.496 299.222 252.993 300.616 253.968 301.268C254.911 301.897 256.186 301.774 257.562 300.913C260.209 299.258 259.53 297.422 259.262 296.898C258.751 295.913 257.713 295.38 256.938 295.704C256.66 295.822 256.341 295.69 256.223 295.412C256.104 295.134 256.236 294.815 256.514 294.697C257.822 294.145 259.457 294.893 260.232 296.396C260.979 297.841 260.879 300.133 258.141 301.842C257.038 302.53 256.095 302.763 255.321 302.763Z" fill="#873DE6"/>
<path d="M262.829 287.619C262.332 287.619 261.781 287.56 261.166 287.423C258.277 286.79 257.53 284.99 257.339 283.974C257.011 282.206 257.854 280.264 259.385 279.257C260.774 278.341 262.442 278.4 263.959 279.417C264.209 279.585 264.278 279.922 264.109 280.173C263.941 280.424 263.603 280.492 263.353 280.323C262.2 279.553 261.006 279.499 259.986 280.168C258.829 280.93 258.168 282.447 258.414 283.773C258.656 285.072 259.713 285.988 261.398 286.357C263.594 286.836 265.134 286.261 265.731 284.739C266.478 282.848 265.594 279.726 263.139 278.268C262.879 278.113 262.792 277.781 262.947 277.521C263.102 277.261 263.435 277.174 263.694 277.329C266.387 278.929 267.786 282.506 266.747 285.145C266.424 285.961 265.444 287.624 262.829 287.624V287.619Z" fill="#873DE6"/>
</svg>
