<svg width="43" height="44" viewBox="0 0 43 44" fill="none" xmlns="http://www.w3.org/2000/svg">
<path d="M36.789 37.605C45.0344 29.1834 45.0344 15.5292 36.789 7.10752C28.5435 -1.31413 15.1751 -1.31413 6.92965 7.10752C-1.31577 15.5292 -1.31577 29.1834 6.92965 37.605C15.1751 46.0267 28.5435 46.0266 36.789 37.605Z" fill="url(#paint0_linear_0_1)"/>
<path d="M36.6694 37.4835C44.8492 29.129 44.8492 15.5836 36.6694 7.229C28.4897 -1.12556 15.2277 -1.12555 7.04801 7.22901C-1.13172 15.5836 -1.13171 29.129 7.04802 37.4835C15.2278 45.8381 28.4897 45.8381 36.6694 37.4835Z" fill="url(#paint1_linear_0_1)"/>
<path d="M35.1672 35.9485C42.5169 28.4417 42.5169 16.2708 35.1672 8.76399C27.8175 1.25718 15.9012 1.25718 8.5515 8.76399C1.20178 16.2708 1.20178 28.4417 8.55149 35.9485C15.9012 43.4553 27.8175 43.4553 35.1672 35.9485Z" fill="url(#paint2_linear_0_1)"/>
<path d="M13.3247 16.2693V21.3552H18.3424" stroke="#D2D2D2" stroke-width="2" stroke-linecap="round" stroke-linejoin="round"/>
<path d="M15.5289 26.0086C16.0983 27.6986 17.1775 29.1493 18.6039 30.1422C20.0303 31.135 21.7266 31.6162 23.4373 31.5132C25.148 31.4103 26.7803 30.7287 28.0884 29.5713C29.3964 28.4139 30.3093 26.8433 30.6896 25.0962C31.0698 23.3491 30.8967 21.5201 30.1964 19.8847C29.4961 18.2494 28.3065 16.8964 26.8069 16.0295C25.3073 15.1626 23.5788 14.8288 21.8821 15.0785C20.1853 15.3281 18.612 16.1476 17.3994 17.4136L13.3247 21.4172" stroke="#D2D2D2" stroke-width="2.5" stroke-linecap="round" stroke-linejoin="round"/>
<defs>
<linearGradient id="paint0_linear_0_1" x1="6.92995" y1="7.10859" x2="37.4204" y2="36.9601" gradientUnits="userSpaceOnUse">
<stop stop-color="#CCCCCC"/>
<stop offset="1" stop-color="white"/>
</linearGradient>
<linearGradient id="paint1_linear_0_1" x1="7.04746" y1="7.22919" x2="37.2959" y2="36.8446" gradientUnits="userSpaceOnUse">
<stop stop-color="white"/>
<stop offset="1" stop-color="#E6E6E6"/>
</linearGradient>
<linearGradient id="paint2_linear_0_1" x1="8.55164" y1="8.76489" x2="35.7293" y2="35.3739" gradientUnits="userSpaceOnUse">
<stop stop-color="#E6E6E6"/>
<stop offset="1" stop-color="white"/>
</linearGradient>
</defs>
</svg>
