<svg width="25" height="21" viewBox="0 0 25 21" fill="none" xmlns="http://www.w3.org/2000/svg">
<path d="M2 2.77499V8.50227H7.72727" stroke="#CACACA" stroke-width="2.5" stroke-linecap="round" stroke-linejoin="round"/>
<path d="M23 18.0479V12.3206H17.2727" stroke="#CACACA" stroke-width="2.5" stroke-linecap="round" stroke-linejoin="round"/>
<path d="M20.6041 7.54777C20.12 6.1797 19.2972 4.95656 18.2125 3.99249C17.1278 3.02841 15.8166 2.35482 14.4012 2.03456C12.9858 1.7143 11.5123 1.75782 10.1182 2.16105C8.72417 2.56428 7.45499 3.31409 6.42909 4.3405L2 8.50231M23 12.3205L18.5709 16.4823C17.545 17.5087 16.2758 18.2585 14.8818 18.6618C13.4877 19.065 12.0142 19.1085 10.5988 18.7882C9.1834 18.468 7.87217 17.7944 6.78749 16.8303C5.70281 15.8662 4.88002 14.6431 4.39591 13.275" stroke="#CACACA" stroke-width="2.5" stroke-linecap="round" stroke-linejoin="round"/>
</svg>
