<svg width="48" height="49" viewBox="0 0 48 49" fill="none" xmlns="http://www.w3.org/2000/svg">
<path style="mix-blend-mode:multiply" d="M26.4948 49C38.2784 49 47.8309 39.3741 47.8309 27.5C47.8309 15.6259 38.2784 6 26.4948 6C14.7112 6 5.15869 15.6259 5.15869 27.5C5.15869 39.3741 14.7112 49 26.4948 49Z" fill="url(#paint0_radial_730_198)"/>
<path d="M35.7049 36.7804C42.278 30.1568 42.278 19.4179 35.7049 12.7943C29.1318 6.1707 18.4747 6.1707 11.9016 12.7943C5.32855 19.4179 5.32855 30.1568 11.9016 36.7804C18.4747 43.404 29.1318 43.404 35.7049 36.7804Z" fill="url(#paint1_linear_730_198)"/>
<path d="M35.6099 36.6849C42.1307 30.1141 42.1307 19.4607 35.6099 12.8898C29.0892 6.31901 18.517 6.31901 11.9963 12.8898C5.47554 19.4607 5.47555 30.1141 11.9963 36.6849C18.517 43.2557 29.0892 43.2557 35.6099 36.6849Z" fill="url(#paint2_linear_730_198)"/>
<path d="M34.4122 35.4776C40.2713 29.5735 40.2713 20.0012 34.4122 14.0971C28.5532 8.19303 19.0538 8.19303 13.1947 14.0971C7.33565 20.0012 7.33564 29.5735 13.1947 35.4776C19.0538 41.3817 28.5532 41.3817 34.4122 35.4776Z" fill="url(#paint3_linear_730_198)"/>
<path d="M17 20V24H21" stroke="#D2D2D2" stroke-width="2" stroke-linecap="round" stroke-linejoin="round"/>
<path d="M18.7571 27.6599C19.211 28.9891 20.0714 30.13 21.2085 30.9109C22.3456 31.6918 23.6979 32.0702 25.0616 31.9893C26.4253 31.9083 27.7266 31.3723 28.7693 30.462C29.8121 29.5517 30.5398 28.3164 30.8429 26.9423C31.146 25.5682 31.0081 24.1297 30.4498 22.8435C29.8915 21.5573 28.9432 20.4932 27.7477 19.8114C26.5523 19.1296 25.1744 18.8671 23.8218 19.0634C22.4691 19.2597 21.2149 19.9043 20.2482 20.8999L17 24.0488" stroke="#D2D2D2" stroke-width="2.5" stroke-linecap="round" stroke-linejoin="round"/>
<defs>
<radialGradient id="paint0_radial_730_198" cx="0" cy="0" r="1" gradientUnits="userSpaceOnUse" gradientTransform="translate(26.4948 27.5) scale(21.3361 21.5)">
<stop stop-color="#B3B3B3"/>
<stop offset="0.43" stop-color="#DBDBDB"/>
<stop offset="0.79" stop-color="#F5F5F5"/>
<stop offset="1" stop-color="white"/>
</radialGradient>
<linearGradient id="paint1_linear_730_198" x1="11.9019" y1="12.7951" x2="35.8871" y2="36.5968" gradientUnits="userSpaceOnUse">
<stop stop-color="#CCCCCC"/>
<stop offset="1" stop-color="white"/>
</linearGradient>
<linearGradient id="paint2_linear_730_198" x1="11.9958" y1="12.89" x2="35.7907" y2="36.5034" gradientUnits="userSpaceOnUse">
<stop stop-color="white"/>
<stop offset="1" stop-color="#E6E6E6"/>
</linearGradient>
<linearGradient id="paint3_linear_730_198" x1="13.1948" y1="14.0978" x2="34.5741" y2="35.3141" gradientUnits="userSpaceOnUse">
<stop stop-color="#E6E6E6"/>
<stop offset="1" stop-color="white"/>
</linearGradient>
</defs>
</svg>
