<svg width="49" height="43" viewBox="0 0 49 43" fill="none" xmlns="http://www.w3.org/2000/svg">
<path style="mix-blend-mode:multiply" d="M27.061 46.1987C38.8446 46.1987 48.3971 36.5729 48.3971 24.6987C48.3971 12.8246 38.8446 3.19873 27.061 3.19873C15.2774 3.19873 5.72491 12.8246 5.72491 24.6987C5.72491 36.5729 15.2774 46.1987 27.061 46.1987Z" fill="url(#paint0_radial_587_1822)"/>
<path d="M36.271 33.9791C42.8441 27.3556 42.8441 16.6166 36.271 9.99302C29.6979 3.36943 19.0408 3.36943 12.4677 9.99302C5.89459 16.6166 5.89459 27.3556 12.4677 33.9791C19.0408 40.6027 29.6979 40.6027 36.271 33.9791Z" fill="url(#paint1_linear_587_1822)"/>
<path d="M36.1762 33.8836C42.6969 27.3128 42.6969 16.6594 36.1762 10.0886C29.6554 3.51774 19.0832 3.51775 12.5625 10.0886C6.04177 16.6594 6.04177 27.3128 12.5625 33.8836C19.0832 40.4544 29.6554 40.4544 36.1762 33.8836Z" fill="url(#paint2_linear_587_1822)"/>
<path d="M34.9781 32.6763C40.8371 26.7723 40.8371 17.1999 34.9781 11.2958C29.119 5.39176 19.6196 5.39176 13.7606 11.2958C7.9015 17.1999 7.9015 26.7723 13.7606 32.6763C19.6196 38.5804 29.119 38.5804 34.9781 32.6763Z" fill="url(#paint3_linear_587_1822)"/>
<path d="M26.5749 19.9459H23.7822L25.1744 16.7382C25.2736 16.5281 25.332 16.299 25.3462 16.0644C25.3605 15.8298 25.3302 15.5946 25.2572 15.3727C25.1842 15.1509 25.0701 14.9469 24.9215 14.7729C24.7729 14.5989 24.593 14.4585 24.3923 14.36C24.1917 14.2615 23.9745 14.207 23.7537 14.1996C23.5328 14.1922 23.3128 14.2322 23.1068 14.3171C22.9007 14.402 22.7129 14.5302 22.5543 14.6939C22.3958 14.8576 22.2698 15.0536 22.1839 15.2702L20.2232 19.7837C20.0526 20.1774 19.9778 20.6104 20.0057 21.0428C20.0335 21.4753 20.1631 21.8933 20.3826 22.2586C20.602 22.6238 20.9043 22.9245 21.2615 23.1329C21.6187 23.3414 22.0195 23.451 22.427 23.4516H25.2197L23.8275 26.6593C23.7283 26.8693 23.6699 27.0985 23.6557 27.3331C23.6414 27.5676 23.6717 27.8029 23.7447 28.0247C23.8176 28.2466 23.9318 28.4506 24.0804 28.6246C24.229 28.7986 24.4089 28.939 24.6096 29.0375C24.8102 29.1359 25.0274 29.1905 25.2482 29.1979C25.4691 29.2052 25.6891 29.1653 25.8951 29.0804C26.1011 28.9954 26.289 28.8673 26.4476 28.7036C26.6061 28.5398 26.7321 28.3439 26.818 28.1273L28.7787 23.6093C28.9483 23.2159 29.0224 22.7834 28.9941 22.3515C28.9658 21.9197 28.8361 21.5023 28.6167 21.1377C28.3974 20.7731 28.0955 20.4729 27.7388 20.2647C27.382 20.0564 26.9818 19.9468 26.5749 19.9459Z" fill="#F48E2F"/>
<defs>
<linearGradient id="paint1_linear_587_1822" x1="12.4679" y1="9.99386" x2="36.4532" y2="33.7956" gradientUnits="userSpaceOnUse">
<stop stop-color="#CCCCCC"/>
<stop offset="1" stop-color="white"/>
</linearGradient>
<linearGradient id="paint2_linear_587_1822" x1="12.5621" y1="10.0887" x2="36.3569" y2="33.7022" gradientUnits="userSpaceOnUse">
<stop stop-color="white"/>
<stop offset="1" stop-color="#E6E6E6"/>
</linearGradient>
<linearGradient id="paint3_linear_587_1822" x1="13.7607" y1="11.2965" x2="35.1399" y2="32.5128" gradientUnits="userSpaceOnUse">
<stop stop-color="#E6E6E6"/>
<stop offset="1" stop-color="white"/>
</linearGradient>
</defs>
</svg>
