<svg width="252" height="43" viewBox="0 0 252 43" fill="none" xmlns="http://www.w3.org/2000/svg">
<path d="M8.52676 14H243.473C247.078 14 250 17.5817 250 22C250 26.4183 247.078 30 243.473 30H8.52676C4.92213 30 2 26.4183 2 22C2 17.5817 4.92213 14 8.52676 14Z" fill="#F2F2F2"/>
<path d="M126.953 14H243.78C246.687 14 250 17.5817 250 22C250 26.4183 246.687 30 243.78 30H126.953C124.047 30 121.691 26.4183 121.691 22C121.691 17.5817 124.047 14 126.953 14Z" fill="url(#paint0_linear_567_10825)"/>
<g style="mix-blend-mode:multiply">
<path d="M8.52676 13H243.473C247.811 13 251 17.2293 251 22C251 26.7707 247.811 31 243.473 31H8.52676C4.18924 31 1 26.7707 1 22C1 17.2293 4.18924 13 8.52676 13Z" fill="url(#paint1_linear_567_10825)" style="mix-blend-mode:multiply"/>
<path d="M8.52676 13H243.473C247.811 13 251 17.2293 251 22C251 26.7707 247.811 31 243.473 31H8.52676C4.18924 31 1 26.7707 1 22C1 17.2293 4.18924 13 8.52676 13Z" stroke="#F6F6F6" stroke-width="2"/>
</g>
<path style="mix-blend-mode:multiply" d="M129.061 46.1988C140.845 46.1988 150.397 36.5729 150.397 24.6988C150.397 12.8247 140.845 3.19879 129.061 3.19879C117.277 3.19879 107.725 12.8247 107.725 24.6988C107.725 36.5729 117.277 46.1988 129.061 46.1988Z" fill="url(#paint2_radial_567_10825)"/>
<path d="M138.271 33.9792C144.844 27.3556 144.844 16.6167 138.271 9.99308C131.698 3.36949 121.041 3.36949 114.468 9.99308C107.894 16.6167 107.894 27.3556 114.468 33.9792C121.041 40.6028 131.698 40.6028 138.271 33.9792Z" fill="url(#paint3_linear_567_10825)"/>
<path d="M138.176 33.8837C144.697 27.3129 144.697 16.6594 138.176 10.0886C131.655 3.5178 121.083 3.51781 114.562 10.0886C108.042 16.6594 108.042 27.3128 114.562 33.8837C121.083 40.4545 131.655 40.4545 138.176 33.8837Z" fill="url(#paint4_linear_567_10825)"/>
<path d="M136.978 32.6764C142.837 26.7723 142.837 17.1999 136.978 11.2959C131.119 5.39182 121.619 5.39182 115.76 11.2959C109.901 17.2 109.901 26.7723 115.76 32.6764C121.619 38.5805 131.119 38.5805 136.978 32.6764Z" fill="url(#paint5_linear_567_10825)"/>
<path d="M128.575 19.9459H125.782L127.174 16.7382C127.274 16.5282 127.332 16.299 127.346 16.0645C127.36 15.8299 127.33 15.5947 127.257 15.3728C127.184 15.1509 127.07 14.9469 126.921 14.7729C126.773 14.599 126.593 14.4585 126.392 14.3601C126.192 14.2616 125.974 14.207 125.754 14.1997C125.533 14.1923 125.313 14.2322 125.107 14.3172C124.901 14.4021 124.713 14.5302 124.554 14.6939C124.396 14.8577 124.27 15.0537 124.184 15.2702L122.223 19.7838C122.053 20.1775 121.978 20.6104 122.006 21.0429C122.034 21.4753 122.163 21.8934 122.383 22.2586C122.602 22.6239 122.904 22.9245 123.261 23.133C123.619 23.3415 124.02 23.451 124.427 23.4516H127.22L125.827 26.6593C125.728 26.8694 125.67 27.0985 125.656 27.3331C125.641 27.5677 125.672 27.8029 125.745 28.0248C125.818 28.2467 125.932 28.4507 126.08 28.6246C126.229 28.7986 126.409 28.939 126.61 29.0375C126.81 29.136 127.027 29.1906 127.248 29.1979C127.469 29.2053 127.689 29.1653 127.895 29.0804C128.101 28.9955 128.289 28.8674 128.448 28.7036C128.606 28.5399 128.732 28.3439 128.818 28.1273L130.779 23.6094C130.948 23.2159 131.022 22.7834 130.994 22.3516C130.966 21.9198 130.836 21.5024 130.617 21.1378C130.397 20.7731 130.095 20.473 129.739 20.2647C129.382 20.0565 128.982 19.9469 128.575 19.9459Z" fill="#F48E2F"/>
<defs>
<linearGradient id="paint0_linear_567_10825" x1="249.042" y1="22" x2="121.691" y2="22" gradientUnits="userSpaceOnUse">
<stop offset="0.393097" stop-color="#873DE6"/>
<stop offset="1" stop-color="#6D31BA"/>
</linearGradient>
<linearGradient id="paint1_linear_567_10825" x1="126" y1="30" x2="126" y2="14" gradientUnits="userSpaceOnUse">
<stop stop-color="white"/>
<stop offset="0.318097" stop-color="#FDFDFD"/>
<stop offset="0.553097" stop-color="#F6F6F6"/>
<stop offset="0.83" stop-color="#EAEAEA"/>
<stop offset="0.94" stop-color="#D9D9D9"/>
<stop offset="1" stop-color="#CCCCCC"/>
</linearGradient>
<radialGradient id="paint2_radial_567_10825" cx="0" cy="0" r="1" gradientUnits="userSpaceOnUse" gradientTransform="translate(129.061 24.6988) scale(21.3361 21.5)">
<stop stop-color="#B3B3B3"/>
<stop offset="0.43" stop-color="#DBDBDB"/>
<stop offset="0.79" stop-color="#F5F5F5"/>
<stop offset="1" stop-color="white"/>
</radialGradient>
<linearGradient id="paint3_linear_567_10825" x1="114.468" y1="9.99392" x2="138.453" y2="33.7956" gradientUnits="userSpaceOnUse">
<stop stop-color="#CCCCCC"/>
<stop offset="1" stop-color="white"/>
</linearGradient>
<linearGradient id="paint4_linear_567_10825" x1="114.562" y1="10.0888" x2="138.357" y2="33.7022" gradientUnits="userSpaceOnUse">
<stop stop-color="white"/>
<stop offset="1" stop-color="#E6E6E6"/>
</linearGradient>
<linearGradient id="paint5_linear_567_10825" x1="115.76" y1="11.2966" x2="137.14" y2="32.5129" gradientUnits="userSpaceOnUse">
<stop stop-color="#E6E6E6"/>
<stop offset="1" stop-color="white"/>
</linearGradient>
</defs>
</svg>
