<svg width="139" height="30" viewBox="0 0 139 30" fill="none" xmlns="http://www.w3.org/2000/svg">
<path fill-rule="evenodd" clip-rule="evenodd" d="M9.08284 0.0146947C7.29306 -0.134025 6.45804 0.855017 6.23634 2.57703C7.71188 2.43055 8.61069 1.50972 9.08284 0.0146947ZM5.3394 0.152255C4.32399 1.34872 3.87798 2.6749 4.89496 4.33374C5.94959 2.86164 6.21573 1.45719 5.3394 0.152255ZM8.53002 3.50228C7.05762 2.87218 5.80535 2.81907 5.22288 4.52711C6.7439 5.18237 7.7065 4.5081 8.53002 3.50228ZM6.87149 5.96243C5.32013 5.5336 4.30891 6.1391 3.83832 7.77837C5.19517 7.98412 6.20587 7.37862 6.87149 5.96243ZM3.0613 3.50297C4.15723 4.67875 4.129 6.09047 3.36352 7.65594C2.33817 6.44997 2.09975 5.09193 3.0613 3.50297ZM1.45909 6.78522C2.83476 7.76196 3.08835 9.14908 2.68574 10.7766C1.40105 10.0051 0.824853 8.7812 1.45909 6.78522ZM6.0028 8.61193C5.30529 10.4228 4.28099 10.8002 3.17565 10.8209C3.37695 9.15034 4.2423 8.31672 6.0028 8.61193ZM0.676296 10.6443C2.17797 11.4147 2.72437 12.6509 2.63182 14.1985C1.03864 13.7948 0.278393 12.7001 0.676296 10.6443ZM5.39698 11.0327C3.7374 11.3687 3.15335 12.5574 3.1544 14.2101C4.6132 13.7857 5.2945 12.6675 5.39698 11.0327ZM5.40468 14.086C5.53226 15.9925 4.95553 17.0867 3.85594 17.5781C3.40836 15.6196 3.98038 14.5014 5.40468 14.086ZM0.171387 15.1091C1.73372 15.3081 2.86521 16.0115 3.15854 17.6938C1.52248 17.9728 0.578701 17.0184 0.171387 15.1091ZM1.47538 18.4982C3.06699 18.5731 4.03429 19.4436 4.53259 20.9124C2.95039 21.1584 1.87537 20.4578 1.47538 18.4982ZM5.84614 16.9005C4.63675 17.7397 4.47466 18.9815 5.25949 20.5878C6.07882 19.5657 6.30941 18.348 5.84614 16.9005ZM6.84602 19.2034C5.97231 20.6448 6.02094 21.9123 7.20158 22.9667C7.87921 21.484 7.72026 20.2411 6.84602 19.2034ZM6.55819 23.6098C5.34932 21.9448 4.07195 21.7497 2.77209 22.051C3.82777 23.593 5.04919 24.3143 6.55819 23.6098ZM8.52651 21.289C9.45251 22.0996 10.0533 23.1015 9.43316 24.8241C8.12756 24.0213 7.87919 22.8226 8.52651 21.289ZM5.01131 24.9185C6.39796 24.3476 7.69938 24.4321 8.85073 25.6789C7.48918 26.6897 6.21443 26.3604 5.01131 24.9185ZM10.539 23.0566C11.6035 23.7673 12.4793 24.6339 12.2812 26.3827C10.6352 25.8203 10.2268 24.6232 10.539 23.0566ZM11.7859 27.2757C10.164 26.2743 8.98176 26.6897 7.91092 27.4657C9.3211 28.6946 10.6126 28.6315 11.7859 27.2757ZM12.81 24.7201C14.2834 25.1987 14.995 26.1397 15.0855 27.4575C13.496 27.16 12.6521 26.3113 12.81 24.7201ZM14.7683 28.4989C12.5791 27.9146 11.5788 28.5995 10.9645 29.6965C12.7067 30.3489 13.9746 29.9497 14.7683 28.4989Z" fill="#BEC6D5"/>
<path d="M25.0658 4.736H25.0298L22.8578 7.652H25.0658V4.736ZM25.0658 9.056H21.5138V7.496L25.1618 2.6H26.6858V7.652H27.8018V9.056H26.6858V11H25.0658V9.056ZM28.7097 9.152H30.5937V11H28.7097V9.152ZM37.5336 4.064C37.0936 4.448 36.7016 4.92 36.3576 5.48C36.0216 6.04 35.7376 6.636 35.5056 7.268C35.2816 7.9 35.1056 8.54 34.9776 9.188C34.8576 9.836 34.7936 10.44 34.7856 11H32.9616C33.0576 9.744 33.3496 8.536 33.8376 7.376C34.3336 6.216 34.9816 5.152 35.7816 4.184H31.7976V2.6H37.5336V4.064ZM38.8016 2.432H40.5056V7.028L42.6536 4.796H44.6696L42.3296 7.076L44.9336 11H42.8696L41.1656 8.228L40.5056 8.864V11H38.8016V2.432ZM49.1362 7.328H51.5242V8.612H49.1362V11H47.8522V8.612H45.4642V7.328H47.8522V4.94H49.1362V7.328ZM56.1913 2.432H57.2113V5.708H57.2353C57.3153 5.516 57.4273 5.356 57.5713 5.228C57.7153 5.092 57.8753 4.984 58.0513 4.904C58.2353 4.816 58.4233 4.752 58.6153 4.712C58.8153 4.672 59.0073 4.652 59.1913 4.652C59.5993 4.652 59.9393 4.708 60.2113 4.82C60.4833 4.932 60.7033 5.088 60.8713 5.288C61.0393 5.488 61.1553 5.728 61.2193 6.008C61.2913 6.28 61.3273 6.584 61.3273 6.92V11H60.3073V6.8C60.3073 6.416 60.1953 6.112 59.9713 5.888C59.7473 5.664 59.4393 5.552 59.0473 5.552C58.7353 5.552 58.4633 5.6 58.2313 5.696C58.0073 5.792 57.8193 5.928 57.6673 6.104C57.5153 6.28 57.3993 6.488 57.3193 6.728C57.2473 6.96 57.2113 7.216 57.2113 7.496V11H56.1913V2.432ZM63.9393 3.68H62.9193V2.432H63.9393V3.68ZM62.9193 4.796H63.9393V11H62.9193V4.796ZM70.8715 10.472C70.8715 11.488 70.6395 12.248 70.1755 12.752C69.7115 13.256 68.9835 13.508 67.9915 13.508C67.7035 13.508 67.4075 13.476 67.1035 13.412C66.8075 13.348 66.5355 13.244 66.2875 13.1C66.0475 12.956 65.8475 12.768 65.6875 12.536C65.5275 12.304 65.4395 12.02 65.4235 11.684H66.4435C66.4515 11.868 66.5075 12.024 66.6115 12.152C66.7235 12.28 66.8555 12.384 67.0075 12.464C67.1675 12.544 67.3395 12.6 67.5235 12.632C67.7075 12.672 67.8835 12.692 68.0515 12.692C68.3875 12.692 68.6715 12.632 68.9035 12.512C69.1355 12.4 69.3275 12.24 69.4795 12.032C69.6315 11.832 69.7395 11.588 69.8035 11.3C69.8755 11.012 69.9115 10.696 69.9115 10.352V9.944H69.8875C69.7115 10.328 69.4435 10.612 69.0835 10.796C68.7315 10.972 68.3555 11.06 67.9555 11.06C67.4915 11.06 67.0875 10.976 66.7435 10.808C66.3995 10.64 66.1115 10.416 65.8795 10.136C65.6475 9.848 65.4715 9.516 65.3515 9.14C65.2395 8.756 65.1835 8.352 65.1835 7.928C65.1835 7.56 65.2315 7.184 65.3275 6.8C65.4235 6.408 65.5835 6.056 65.8075 5.744C66.0315 5.424 66.3275 5.164 66.6955 4.964C67.0635 4.756 67.5155 4.652 68.0515 4.652C68.4435 4.652 68.8035 4.74 69.1315 4.916C69.4595 5.084 69.7155 5.34 69.8995 5.684H69.9115V4.796H70.8715V10.472ZM68.0155 10.172C68.3515 10.172 68.6355 10.104 68.8675 9.968C69.1075 9.824 69.2995 9.64 69.4435 9.416C69.5875 9.184 69.6915 8.924 69.7555 8.636C69.8275 8.348 69.8635 8.06 69.8635 7.772C69.8635 7.5 69.8315 7.232 69.7675 6.968C69.7035 6.704 69.5995 6.468 69.4555 6.26C69.3195 6.044 69.1395 5.872 68.9155 5.744C68.6915 5.616 68.4195 5.552 68.0995 5.552C67.7715 5.552 67.4915 5.616 67.2595 5.744C67.0275 5.864 66.8355 6.028 66.6835 6.236C66.5395 6.444 66.4315 6.684 66.3595 6.956C66.2955 7.228 66.2635 7.512 66.2635 7.808C66.2635 8.088 66.2915 8.368 66.3475 8.648C66.4035 8.928 66.4995 9.184 66.6355 9.416C66.7715 9.64 66.9515 9.824 67.1755 9.968C67.3995 10.104 67.6795 10.172 68.0155 10.172ZM72.4101 2.432H73.4301V5.708H73.4541C73.5341 5.516 73.6461 5.356 73.7901 5.228C73.9341 5.092 74.0941 4.984 74.2701 4.904C74.4541 4.816 74.6421 4.752 74.8341 4.712C75.0341 4.672 75.2261 4.652 75.4101 4.652C75.8181 4.652 76.1581 4.708 76.4301 4.82C76.7021 4.932 76.9221 5.088 77.0901 5.288C77.2581 5.488 77.3741 5.728 77.4381 6.008C77.5101 6.28 77.5461 6.584 77.5461 6.92V11H76.5261V6.8C76.5261 6.416 76.4141 6.112 76.1901 5.888C75.9661 5.664 75.6581 5.552 75.2661 5.552C74.9541 5.552 74.6821 5.6 74.4501 5.696C74.2261 5.792 74.0381 5.928 73.8861 6.104C73.7341 6.28 73.6181 6.488 73.5381 6.728C73.4661 6.96 73.4301 7.216 73.4301 7.496V11H72.4101V2.432ZM78.9101 7.184H82.3781V8.144H78.9101V7.184ZM87.3541 11V4.796H88.3741V11H87.3541ZM87.3541 3.68V2.432H88.3741V3.68H87.3541ZM84.1621 5.696H83.1181V4.796H84.1621V3.872C84.1621 3.368 84.3061 2.988 84.5941 2.732C84.8901 2.468 85.3181 2.336 85.8781 2.336C85.9741 2.336 86.0821 2.344 86.2021 2.36C86.3301 2.376 86.4421 2.4 86.5381 2.432V3.32C86.4501 3.288 86.3541 3.268 86.2501 3.26C86.1461 3.244 86.0501 3.236 85.9621 3.236C85.7141 3.236 85.5221 3.284 85.3861 3.38C85.2501 3.476 85.1821 3.66 85.1821 3.932V4.796H86.3821V5.696H85.1821V11H84.1621V5.696ZM90.6971 7.952C90.6971 8.24 90.7331 8.524 90.8051 8.804C90.8851 9.076 91.0011 9.32 91.1531 9.536C91.3131 9.752 91.5131 9.924 91.7531 10.052C92.0011 10.18 92.2891 10.244 92.6171 10.244C92.9611 10.244 93.2531 10.176 93.4931 10.04C93.7331 9.904 93.9291 9.728 94.0811 9.512C94.2331 9.288 94.3411 9.036 94.4051 8.756C94.4771 8.476 94.5131 8.192 94.5131 7.904C94.5131 7.6 94.4771 7.308 94.4051 7.028C94.3331 6.74 94.2171 6.488 94.0571 6.272C93.9051 6.056 93.7051 5.884 93.4571 5.756C93.2091 5.62 92.9091 5.552 92.5571 5.552C92.2131 5.552 91.9211 5.62 91.6811 5.756C91.4411 5.892 91.2491 6.072 91.1051 6.296C90.9611 6.52 90.8571 6.776 90.7931 7.064C90.7291 7.352 90.6971 7.648 90.6971 7.952ZM95.4971 11H94.4771V10.16H94.4531C94.2851 10.504 94.0211 10.752 93.6611 10.904C93.3011 11.056 92.9051 11.132 92.4731 11.132C91.9931 11.132 91.5731 11.044 91.2131 10.868C90.8611 10.692 90.5651 10.456 90.3251 10.16C90.0931 9.864 89.9171 9.52 89.7971 9.128C89.6771 8.736 89.6171 8.32 89.6171 7.88C89.6171 7.44 89.6731 7.024 89.7851 6.632C89.9051 6.24 90.0811 5.9 90.3131 5.612C90.5531 5.316 90.8491 5.084 91.2011 4.916C91.5611 4.74 91.9771 4.652 92.4491 4.652C92.6091 4.652 92.7811 4.668 92.9651 4.7C93.1491 4.732 93.3331 4.788 93.5171 4.868C93.7011 4.94 93.8731 5.04 94.0331 5.168C94.2011 5.288 94.3411 5.44 94.4531 5.624H94.4771V2.432H95.4971V11ZM101.374 7.304C101.358 7.064 101.302 6.836 101.206 6.62C101.118 6.404 100.994 6.22 100.834 6.068C100.682 5.908 100.498 5.784 100.282 5.696C100.074 5.6 99.8423 5.552 99.5863 5.552C99.3223 5.552 99.0823 5.6 98.8663 5.696C98.6583 5.784 98.4783 5.908 98.3263 6.068C98.1743 6.228 98.0543 6.416 97.9663 6.632C97.8783 6.84 97.8263 7.064 97.8103 7.304H101.374ZM102.358 9.032C102.222 9.728 101.922 10.252 101.458 10.604C100.994 10.956 100.41 11.132 99.7063 11.132C99.2103 11.132 98.7783 11.052 98.4103 10.892C98.0503 10.732 97.7463 10.508 97.4983 10.22C97.2503 9.932 97.0623 9.588 96.9343 9.188C96.8143 8.788 96.7463 8.352 96.7303 7.88C96.7303 7.408 96.8023 6.976 96.9463 6.584C97.0903 6.192 97.2903 5.852 97.5463 5.564C97.8103 5.276 98.1183 5.052 98.4703 4.892C98.8303 4.732 99.2223 4.652 99.6463 4.652C100.198 4.652 100.654 4.768 101.014 5C101.382 5.224 101.674 5.512 101.89 5.864C102.114 6.216 102.266 6.6 102.346 7.016C102.434 7.432 102.47 7.828 102.454 8.204H97.8103C97.8023 8.476 97.8343 8.736 97.9063 8.984C97.9783 9.224 98.0943 9.44 98.2543 9.632C98.4143 9.816 98.6183 9.964 98.8663 10.076C99.1143 10.188 99.4063 10.244 99.7423 10.244C100.174 10.244 100.526 10.144 100.798 9.944C101.078 9.744 101.262 9.44 101.35 9.032H102.358ZM103.572 2.432H104.592V11H103.572V2.432ZM107.252 3.68H106.232V2.432H107.252V3.68ZM106.232 4.796H107.252V11H106.232V4.796ZM110.248 4.796H111.484V5.696H110.248V9.548C110.248 9.668 110.256 9.764 110.272 9.836C110.296 9.908 110.336 9.964 110.392 10.004C110.448 10.044 110.524 10.072 110.62 10.088C110.724 10.096 110.856 10.1 111.016 10.1H111.484V11H110.704C110.44 11 110.212 10.984 110.02 10.952C109.836 10.912 109.684 10.844 109.564 10.748C109.452 10.652 109.368 10.516 109.312 10.34C109.256 10.164 109.228 9.932 109.228 9.644V5.696H108.172V4.796H109.228V2.936H110.248V4.796ZM115.053 11.828C114.933 12.132 114.813 12.388 114.693 12.596C114.581 12.804 114.453 12.972 114.309 13.1C114.173 13.236 114.017 13.332 113.841 13.388C113.673 13.452 113.477 13.484 113.253 13.484C113.133 13.484 113.013 13.476 112.893 13.46C112.773 13.444 112.657 13.416 112.545 13.376V12.44C112.633 12.48 112.733 12.512 112.845 12.536C112.965 12.568 113.065 12.584 113.145 12.584C113.353 12.584 113.525 12.532 113.661 12.428C113.805 12.332 113.913 12.192 113.985 12.008L114.405 10.964L111.945 4.796H113.097L114.909 9.872H114.933L116.673 4.796H117.753L115.053 11.828ZM29.0967 20.788C29.0167 20.396 28.8487 20.092 28.5927 19.876C28.3367 19.66 27.9927 19.552 27.5607 19.552C27.1927 19.552 26.8847 19.62 26.6367 19.756C26.3887 19.892 26.1887 20.072 26.0367 20.296C25.8927 20.52 25.7887 20.78 25.7247 21.076C25.6607 21.364 25.6287 21.664 25.6287 21.976C25.6287 22.264 25.6607 22.544 25.7247 22.816C25.7967 23.088 25.9047 23.332 26.0487 23.548C26.1927 23.756 26.3807 23.924 26.6127 24.052C26.8447 24.18 27.1207 24.244 27.4407 24.244C27.9447 24.244 28.3367 24.112 28.6167 23.848C28.9047 23.584 29.0807 23.212 29.1447 22.732H30.1887C30.0767 23.5 29.7887 24.092 29.3247 24.508C28.8687 24.924 28.2447 25.132 27.4527 25.132C26.9807 25.132 26.5607 25.056 26.1927 24.904C25.8327 24.752 25.5287 24.536 25.2807 24.256C25.0407 23.976 24.8567 23.644 24.7287 23.26C24.6087 22.868 24.5487 22.44 24.5487 21.976C24.5487 21.512 24.6087 21.08 24.7287 20.68C24.8487 20.272 25.0287 19.92 25.2687 19.624C25.5167 19.32 25.8247 19.084 26.1927 18.916C26.5607 18.74 26.9887 18.652 27.4767 18.652C27.8287 18.652 28.1567 18.696 28.4607 18.784C28.7727 18.864 29.0447 18.992 29.2767 19.168C29.5167 19.344 29.7127 19.568 29.8647 19.84C30.0167 20.104 30.1127 20.42 30.1527 20.788H29.0967ZM32.074 21.904C32.074 22.28 32.122 22.616 32.218 22.912C32.322 23.2 32.462 23.444 32.638 23.644C32.814 23.836 33.018 23.984 33.25 24.088C33.49 24.192 33.742 24.244 34.006 24.244C34.27 24.244 34.518 24.192 34.75 24.088C34.99 23.984 35.198 23.836 35.374 23.644C35.55 23.444 35.686 23.2 35.782 22.912C35.886 22.616 35.938 22.28 35.938 21.904C35.938 21.528 35.886 21.196 35.782 20.908C35.686 20.612 35.55 20.364 35.374 20.164C35.198 19.964 34.99 19.812 34.75 19.708C34.518 19.604 34.27 19.552 34.006 19.552C33.742 19.552 33.49 19.604 33.25 19.708C33.018 19.812 32.814 19.964 32.638 20.164C32.462 20.364 32.322 20.612 32.218 20.908C32.122 21.196 32.074 21.528 32.074 21.904ZM30.994 21.904C30.994 21.448 31.058 21.024 31.186 20.632C31.314 20.232 31.506 19.888 31.762 19.6C32.018 19.304 32.334 19.072 32.71 18.904C33.086 18.736 33.518 18.652 34.006 18.652C34.502 18.652 34.934 18.736 35.302 18.904C35.678 19.072 35.994 19.304 36.25 19.6C36.506 19.888 36.698 20.232 36.826 20.632C36.954 21.024 37.018 21.448 37.018 21.904C37.018 22.36 36.954 22.784 36.826 23.176C36.698 23.568 36.506 23.912 36.25 24.208C35.994 24.496 35.678 24.724 35.302 24.892C34.934 25.052 34.502 25.132 34.006 25.132C33.518 25.132 33.086 25.052 32.71 24.892C32.334 24.724 32.018 24.496 31.762 24.208C31.506 23.912 31.314 23.568 31.186 23.176C31.058 22.784 30.994 22.36 30.994 21.904ZM38.2206 18.796H39.1806V19.78H39.2046C39.6286 19.028 40.3006 18.652 41.2206 18.652C41.6286 18.652 41.9686 18.708 42.2406 18.82C42.5126 18.932 42.7326 19.088 42.9006 19.288C43.0686 19.488 43.1846 19.728 43.2486 20.008C43.3206 20.28 43.3566 20.584 43.3566 20.92V25H42.3366V20.8C42.3366 20.416 42.2246 20.112 42.0006 19.888C41.7766 19.664 41.4686 19.552 41.0766 19.552C40.7646 19.552 40.4926 19.6 40.2606 19.696C40.0366 19.792 39.8486 19.928 39.6966 20.104C39.5446 20.28 39.4286 20.488 39.3486 20.728C39.2766 20.96 39.2406 21.216 39.2406 21.496V25H38.2206V18.796ZM49.1006 20.788C49.0206 20.396 48.8526 20.092 48.5966 19.876C48.3406 19.66 47.9966 19.552 47.5646 19.552C47.1966 19.552 46.8886 19.62 46.6406 19.756C46.3926 19.892 46.1926 20.072 46.0406 20.296C45.8966 20.52 45.7926 20.78 45.7286 21.076C45.6646 21.364 45.6326 21.664 45.6326 21.976C45.6326 22.264 45.6646 22.544 45.7286 22.816C45.8006 23.088 45.9086 23.332 46.0526 23.548C46.1966 23.756 46.3846 23.924 46.6166 24.052C46.8486 24.18 47.1246 24.244 47.4446 24.244C47.9486 24.244 48.3406 24.112 48.6206 23.848C48.9086 23.584 49.0846 23.212 49.1486 22.732H50.1926C50.0806 23.5 49.7926 24.092 49.3286 24.508C48.8726 24.924 48.2486 25.132 47.4566 25.132C46.9846 25.132 46.5646 25.056 46.1966 24.904C45.8366 24.752 45.5326 24.536 45.2846 24.256C45.0446 23.976 44.8606 23.644 44.7326 23.26C44.6126 22.868 44.5526 22.44 44.5526 21.976C44.5526 21.512 44.6126 21.08 44.7326 20.68C44.8526 20.272 45.0326 19.92 45.2726 19.624C45.5206 19.32 45.8286 19.084 46.1966 18.916C46.5646 18.74 46.9926 18.652 47.4806 18.652C47.8326 18.652 48.1606 18.696 48.4646 18.784C48.7766 18.864 49.0486 18.992 49.2806 19.168C49.5206 19.344 49.7166 19.568 49.8686 19.84C50.0206 20.104 50.1166 20.42 50.1566 20.788H49.1006ZM55.6419 21.304C55.6259 21.064 55.5699 20.836 55.4739 20.62C55.3859 20.404 55.2619 20.22 55.1019 20.068C54.9499 19.908 54.7659 19.784 54.5499 19.696C54.3419 19.6 54.1099 19.552 53.8539 19.552C53.5899 19.552 53.3499 19.6 53.1339 19.696C52.9259 19.784 52.7459 19.908 52.5939 20.068C52.4419 20.228 52.3219 20.416 52.2339 20.632C52.1459 20.84 52.0939 21.064 52.0779 21.304H55.6419ZM56.6259 23.032C56.4899 23.728 56.1899 24.252 55.7259 24.604C55.2619 24.956 54.6779 25.132 53.9739 25.132C53.4779 25.132 53.0459 25.052 52.6779 24.892C52.3179 24.732 52.0139 24.508 51.7659 24.22C51.5179 23.932 51.3299 23.588 51.2019 23.188C51.0819 22.788 51.0139 22.352 50.9979 21.88C50.9979 21.408 51.0699 20.976 51.2139 20.584C51.3579 20.192 51.5579 19.852 51.8139 19.564C52.0779 19.276 52.3859 19.052 52.7379 18.892C53.0979 18.732 53.4899 18.652 53.9139 18.652C54.4659 18.652 54.9219 18.768 55.2819 19C55.6499 19.224 55.9419 19.512 56.1579 19.864C56.3819 20.216 56.5339 20.6 56.6139 21.016C56.7019 21.432 56.7379 21.828 56.7219 22.204H52.0779C52.0699 22.476 52.1019 22.736 52.1739 22.984C52.2459 23.224 52.3619 23.44 52.5219 23.632C52.6819 23.816 52.8859 23.964 53.1339 24.076C53.3819 24.188 53.6739 24.244 54.0099 24.244C54.4419 24.244 54.7939 24.144 55.0659 23.944C55.3459 23.744 55.5299 23.44 55.6179 23.032H56.6259ZM57.8152 18.796H58.8352V19.636H58.8592C59.0272 19.292 59.2912 19.044 59.6512 18.892C60.0112 18.732 60.4072 18.652 60.8392 18.652C61.3192 18.652 61.7352 18.74 62.0872 18.916C62.4472 19.092 62.7432 19.332 62.9752 19.636C63.2152 19.932 63.3952 20.276 63.5152 20.668C63.6352 21.06 63.6952 21.476 63.6952 21.916C63.6952 22.356 63.6352 22.772 63.5152 23.164C63.4032 23.556 63.2272 23.9 62.9872 24.196C62.7552 24.484 62.4592 24.712 62.0992 24.88C61.7472 25.048 61.3352 25.132 60.8632 25.132C60.7112 25.132 60.5392 25.116 60.3472 25.084C60.1632 25.052 59.9792 25 59.7952 24.928C59.6112 24.856 59.4352 24.76 59.2672 24.64C59.1072 24.512 58.9712 24.356 58.8592 24.172H58.8352V27.364H57.8152V18.796ZM62.6152 21.844C62.6152 21.556 62.5752 21.276 62.4952 21.004C62.4232 20.724 62.3072 20.476 62.1472 20.26C61.9952 20.044 61.7952 19.872 61.5472 19.744C61.3072 19.616 61.0232 19.552 60.6952 19.552C60.3512 19.552 60.0592 19.62 59.8192 19.756C59.5792 19.892 59.3832 20.072 59.2312 20.296C59.0792 20.512 58.9672 20.76 58.8952 21.04C58.8312 21.32 58.7992 21.604 58.7992 21.892C58.7992 22.196 58.8352 22.492 58.9072 22.78C58.9792 23.06 59.0912 23.308 59.2432 23.524C59.4032 23.74 59.6072 23.916 59.8552 24.052C60.1032 24.18 60.4032 24.244 60.7552 24.244C61.1072 24.244 61.3992 24.176 61.6312 24.04C61.8712 23.904 62.0632 23.724 62.2072 23.5C62.3512 23.276 62.4552 23.02 62.5192 22.732C62.5832 22.444 62.6152 22.148 62.6152 21.844ZM66.3085 18.796H67.5445V19.696H66.3085V23.548C66.3085 23.668 66.3165 23.764 66.3325 23.836C66.3565 23.908 66.3965 23.964 66.4525 24.004C66.5085 24.044 66.5845 24.072 66.6805 24.088C66.7845 24.096 66.9165 24.1 67.0765 24.1H67.5445V25H66.7645C66.5005 25 66.2725 24.984 66.0805 24.952C65.8965 24.912 65.7445 24.844 65.6245 24.748C65.5125 24.652 65.4285 24.516 65.3725 24.34C65.3165 24.164 65.2885 23.932 65.2885 23.644V19.696H64.2325V18.796H65.2885V16.936H66.3085V18.796ZM69.3017 23.044C69.3097 23.268 69.3617 23.46 69.4577 23.62C69.5537 23.772 69.6777 23.896 69.8297 23.992C69.9897 24.08 70.1657 24.144 70.3577 24.184C70.5577 24.224 70.7617 24.244 70.9697 24.244C71.1297 24.244 71.2977 24.232 71.4737 24.208C71.6497 24.184 71.8097 24.14 71.9537 24.076C72.1057 24.012 72.2297 23.92 72.3257 23.8C72.4217 23.672 72.4697 23.512 72.4697 23.32C72.4697 23.056 72.3697 22.856 72.1697 22.72C71.9697 22.584 71.7177 22.476 71.4137 22.396C71.1177 22.308 70.7937 22.232 70.4417 22.168C70.0897 22.096 69.7617 22 69.4577 21.88C69.1617 21.752 68.9137 21.576 68.7137 21.352C68.5137 21.128 68.4137 20.816 68.4137 20.416C68.4137 20.104 68.4817 19.836 68.6177 19.612C68.7617 19.388 68.9417 19.208 69.1577 19.072C69.3817 18.928 69.6297 18.824 69.9017 18.76C70.1817 18.688 70.4577 18.652 70.7297 18.652C71.0817 18.652 71.4057 18.684 71.7017 18.748C71.9977 18.804 72.2577 18.908 72.4817 19.06C72.7137 19.204 72.8977 19.404 73.0337 19.66C73.1697 19.908 73.2497 20.22 73.2737 20.596H72.2537C72.2377 20.396 72.1857 20.232 72.0977 20.104C72.0097 19.968 71.8977 19.86 71.7617 19.78C71.6257 19.7 71.4737 19.644 71.3057 19.612C71.1457 19.572 70.9817 19.552 70.8137 19.552C70.6617 19.552 70.5057 19.564 70.3457 19.588C70.1937 19.612 70.0537 19.656 69.9257 19.72C69.7977 19.776 69.6937 19.856 69.6137 19.96C69.5337 20.056 69.4937 20.184 69.4937 20.344C69.4937 20.52 69.5537 20.668 69.6737 20.788C69.8017 20.9 69.9617 20.996 70.1537 21.076C70.3457 21.148 70.5617 21.212 70.8017 21.268C71.0417 21.316 71.2817 21.368 71.5217 21.424C71.7777 21.48 72.0257 21.548 72.2657 21.628C72.5137 21.708 72.7297 21.816 72.9137 21.952C73.1057 22.08 73.2577 22.244 73.3697 22.444C73.4897 22.644 73.5497 22.892 73.5497 23.188C73.5497 23.564 73.4697 23.876 73.3097 24.124C73.1577 24.372 72.9537 24.572 72.6977 24.724C72.4497 24.876 72.1657 24.98 71.8457 25.036C71.5337 25.1 71.2217 25.132 70.9097 25.132C70.5657 25.132 70.2377 25.096 69.9257 25.024C69.6137 24.952 69.3377 24.836 69.0977 24.676C68.8577 24.508 68.6657 24.292 68.5217 24.028C68.3777 23.756 68.2977 23.428 68.2817 23.044H69.3017ZM79.4335 18.796H80.6695V19.696H79.4335V23.548C79.4335 23.668 79.4415 23.764 79.4575 23.836C79.4815 23.908 79.5215 23.964 79.5775 24.004C79.6335 24.044 79.7095 24.072 79.8055 24.088C79.9095 24.096 80.0415 24.1 80.2015 24.1H80.6695V25H79.8895C79.6255 25 79.3975 24.984 79.2055 24.952C79.0215 24.912 78.8695 24.844 78.7495 24.748C78.6375 24.652 78.5535 24.516 78.4975 24.34C78.4415 24.164 78.4135 23.932 78.4135 23.644V19.696H77.3575V18.796H78.4135V16.936H79.4335V18.796ZM82.5467 21.904C82.5467 22.28 82.5947 22.616 82.6907 22.912C82.7947 23.2 82.9347 23.444 83.1107 23.644C83.2867 23.836 83.4907 23.984 83.7227 24.088C83.9627 24.192 84.2147 24.244 84.4787 24.244C84.7427 24.244 84.9907 24.192 85.2227 24.088C85.4627 23.984 85.6707 23.836 85.8467 23.644C86.0227 23.444 86.1587 23.2 86.2547 22.912C86.3587 22.616 86.4107 22.28 86.4107 21.904C86.4107 21.528 86.3587 21.196 86.2547 20.908C86.1587 20.612 86.0227 20.364 85.8467 20.164C85.6707 19.964 85.4627 19.812 85.2227 19.708C84.9907 19.604 84.7427 19.552 84.4787 19.552C84.2147 19.552 83.9627 19.604 83.7227 19.708C83.4907 19.812 83.2867 19.964 83.1107 20.164C82.9347 20.364 82.7947 20.612 82.6907 20.908C82.5947 21.196 82.5467 21.528 82.5467 21.904ZM81.4667 21.904C81.4667 21.448 81.5307 21.024 81.6587 20.632C81.7867 20.232 81.9787 19.888 82.2347 19.6C82.4907 19.304 82.8067 19.072 83.1827 18.904C83.5587 18.736 83.9907 18.652 84.4787 18.652C84.9747 18.652 85.4067 18.736 85.7747 18.904C86.1507 19.072 86.4667 19.304 86.7227 19.6C86.9787 19.888 87.1707 20.232 87.2987 20.632C87.4267 21.024 87.4907 21.448 87.4907 21.904C87.4907 22.36 87.4267 22.784 87.2987 23.176C87.1707 23.568 86.9787 23.912 86.7227 24.208C86.4667 24.496 86.1507 24.724 85.7747 24.892C85.4067 25.052 84.9747 25.132 84.4787 25.132C83.9907 25.132 83.5587 25.052 83.1827 24.892C82.8067 24.724 82.4907 24.496 82.2347 24.208C81.9787 23.912 81.7867 23.568 81.6587 23.176C81.5307 22.784 81.4667 22.36 81.4667 21.904ZM92.7771 21.952C92.7771 22.24 92.8131 22.524 92.8851 22.804C92.9651 23.076 93.0811 23.32 93.2331 23.536C93.3931 23.752 93.5931 23.924 93.8331 24.052C94.0811 24.18 94.3691 24.244 94.6971 24.244C95.0411 24.244 95.3331 24.176 95.5731 24.04C95.8131 23.904 96.0091 23.728 96.1611 23.512C96.3131 23.288 96.4211 23.036 96.4851 22.756C96.5571 22.476 96.5931 22.192 96.5931 21.904C96.5931 21.6 96.5571 21.308 96.4851 21.028C96.4131 20.74 96.2971 20.488 96.1371 20.272C95.9851 20.056 95.7851 19.884 95.5371 19.756C95.2891 19.62 94.9891 19.552 94.6371 19.552C94.2931 19.552 94.0011 19.62 93.7611 19.756C93.5211 19.892 93.3291 20.072 93.1851 20.296C93.0411 20.52 92.9371 20.776 92.8731 21.064C92.8091 21.352 92.7771 21.648 92.7771 21.952ZM97.5771 25H96.5571V24.16H96.5331C96.3651 24.504 96.1011 24.752 95.7411 24.904C95.3811 25.056 94.9851 25.132 94.5531 25.132C94.0731 25.132 93.6531 25.044 93.2931 24.868C92.9411 24.692 92.6451 24.456 92.4051 24.16C92.1731 23.864 91.9971 23.52 91.8771 23.128C91.7571 22.736 91.6971 22.32 91.6971 21.88C91.6971 21.44 91.7531 21.024 91.8651 20.632C91.9851 20.24 92.1611 19.9 92.3931 19.612C92.6331 19.316 92.9291 19.084 93.2811 18.916C93.6411 18.74 94.0571 18.652 94.5291 18.652C94.6891 18.652 94.8611 18.668 95.0451 18.7C95.2291 18.732 95.4131 18.788 95.5971 18.868C95.7811 18.94 95.9531 19.04 96.1131 19.168C96.2811 19.288 96.4211 19.44 96.5331 19.624H96.5571V16.432H97.5771V25ZM104.642 24.976C104.466 25.08 104.222 25.132 103.91 25.132C103.646 25.132 103.434 25.06 103.274 24.916C103.122 24.764 103.046 24.52 103.046 24.184C102.766 24.52 102.438 24.764 102.062 24.916C101.694 25.06 101.294 25.132 100.862 25.132C100.582 25.132 100.314 25.1 100.058 25.036C99.8104 24.972 99.5944 24.872 99.4104 24.736C99.2264 24.6 99.0784 24.424 98.9664 24.208C98.8624 23.984 98.8104 23.716 98.8104 23.404C98.8104 23.052 98.8704 22.764 98.9904 22.54C99.1104 22.316 99.2664 22.136 99.4584 22C99.6584 21.856 99.8824 21.748 100.13 21.676C100.386 21.604 100.646 21.544 100.91 21.496C101.19 21.44 101.454 21.4 101.702 21.376C101.958 21.344 102.182 21.304 102.374 21.256C102.566 21.2 102.718 21.124 102.83 21.028C102.942 20.924 102.998 20.776 102.998 20.584C102.998 20.36 102.954 20.18 102.866 20.044C102.786 19.908 102.678 19.804 102.542 19.732C102.414 19.66 102.266 19.612 102.098 19.588C101.938 19.564 101.778 19.552 101.618 19.552C101.186 19.552 100.826 19.636 100.538 19.804C100.25 19.964 100.094 20.272 100.07 20.728H99.0504C99.0664 20.344 99.1464 20.02 99.2904 19.756C99.4344 19.492 99.6264 19.28 99.8664 19.12C100.106 18.952 100.378 18.832 100.682 18.76C100.994 18.688 101.326 18.652 101.678 18.652C101.958 18.652 102.234 18.672 102.506 18.712C102.786 18.752 103.038 18.836 103.262 18.964C103.486 19.084 103.666 19.256 103.802 19.48C103.938 19.704 104.006 19.996 104.006 20.356V23.548C104.006 23.788 104.018 23.964 104.042 24.076C104.074 24.188 104.17 24.244 104.33 24.244C104.418 24.244 104.522 24.224 104.642 24.184V24.976ZM102.986 21.796C102.858 21.892 102.69 21.964 102.482 22.012C102.274 22.052 102.054 22.088 101.822 22.12C101.598 22.144 101.37 22.176 101.138 22.216C100.906 22.248 100.698 22.304 100.514 22.384C100.33 22.464 100.178 22.58 100.058 22.732C99.9464 22.876 99.8904 23.076 99.8904 23.332C99.8904 23.5 99.9224 23.644 99.9864 23.764C100.058 23.876 100.146 23.968 100.25 24.04C100.362 24.112 100.49 24.164 100.634 24.196C100.778 24.228 100.93 24.244 101.09 24.244C101.426 24.244 101.714 24.2 101.954 24.112C102.194 24.016 102.39 23.9 102.542 23.764C102.694 23.62 102.806 23.468 102.878 23.308C102.95 23.14 102.986 22.984 102.986 22.84V21.796ZM107.008 18.796H108.244V19.696H107.008V23.548C107.008 23.668 107.016 23.764 107.032 23.836C107.056 23.908 107.096 23.964 107.152 24.004C107.208 24.044 107.284 24.072 107.38 24.088C107.484 24.096 107.616 24.1 107.776 24.1H108.244V25H107.464C107.2 25 106.972 24.984 106.78 24.952C106.596 24.912 106.444 24.844 106.324 24.748C106.212 24.652 106.128 24.516 106.072 24.34C106.016 24.164 105.988 23.932 105.988 23.644V19.696H104.932V18.796H105.988V16.936H107.008V18.796ZM113.685 21.304C113.669 21.064 113.613 20.836 113.517 20.62C113.429 20.404 113.305 20.22 113.145 20.068C112.993 19.908 112.809 19.784 112.593 19.696C112.385 19.6 112.153 19.552 111.897 19.552C111.633 19.552 111.393 19.6 111.177 19.696C110.969 19.784 110.789 19.908 110.637 20.068C110.485 20.228 110.365 20.416 110.277 20.632C110.189 20.84 110.137 21.064 110.121 21.304H113.685ZM114.669 23.032C114.533 23.728 114.233 24.252 113.769 24.604C113.305 24.956 112.721 25.132 112.017 25.132C111.521 25.132 111.089 25.052 110.721 24.892C110.361 24.732 110.057 24.508 109.809 24.22C109.561 23.932 109.373 23.588 109.245 23.188C109.125 22.788 109.057 22.352 109.041 21.88C109.041 21.408 109.113 20.976 109.257 20.584C109.401 20.192 109.601 19.852 109.857 19.564C110.121 19.276 110.429 19.052 110.781 18.892C111.141 18.732 111.533 18.652 111.957 18.652C112.509 18.652 112.965 18.768 113.325 19C113.693 19.224 113.985 19.512 114.201 19.864C114.425 20.216 114.577 20.6 114.657 21.016C114.745 21.432 114.781 21.828 114.765 22.204H110.121C110.113 22.476 110.145 22.736 110.217 22.984C110.289 23.224 110.405 23.44 110.565 23.632C110.725 23.816 110.929 23.964 111.177 24.076C111.425 24.188 111.717 24.244 112.053 24.244C112.485 24.244 112.837 24.144 113.109 23.944C113.389 23.744 113.573 23.44 113.661 23.032H114.669Z" fill="#1F1F23"/>
<path fill-rule="evenodd" clip-rule="evenodd" d="M130.089 0.0146947C131.879 -0.134025 132.714 0.855017 132.935 2.57703C131.46 2.43055 130.561 1.50972 130.089 0.0146947ZM133.832 0.152255C134.848 1.34872 135.294 2.6749 134.277 4.33374C133.222 2.86164 132.956 1.45719 133.832 0.152255ZM130.642 3.50228C132.114 2.87218 133.367 2.81907 133.949 4.52711C132.428 5.18237 131.465 4.5081 130.642 3.50228ZM132.3 5.96243C133.851 5.5336 134.862 6.1391 135.333 7.77837C133.976 7.98412 132.965 7.37862 132.3 5.96243ZM136.11 3.50297C135.014 4.67875 135.043 6.09047 135.808 7.65594C136.833 6.44997 137.072 5.09193 136.11 3.50297ZM137.713 6.78522C136.337 7.76196 136.083 9.14908 136.486 10.7766C137.771 10.0051 138.347 8.7812 137.713 6.78522ZM133.169 8.61193C133.866 10.4228 134.891 10.8002 135.996 10.8209C135.795 9.15034 134.929 8.31672 133.169 8.61193ZM138.496 10.6443C136.994 11.4147 136.448 12.6509 136.541 14.1985C138.134 13.7948 138.894 12.7001 138.496 10.6443ZM133.774 11.0327C135.434 11.3687 136.018 12.5574 136.017 14.2101C134.558 13.7857 133.877 12.6675 133.774 11.0327ZM133.767 14.086C133.639 15.9925 134.216 17.0867 135.315 17.5781C135.763 15.6196 135.191 14.5014 133.767 14.086ZM139 15.109C137.438 15.308 136.306 16.0114 136.013 17.6937C137.649 17.9727 138.593 17.0183 139 15.109ZM137.696 18.4982C136.105 18.5731 135.137 19.4436 134.639 20.9124C136.221 21.1584 137.296 20.4578 137.696 18.4982ZM133.326 16.9005C134.535 17.7397 134.697 18.9815 133.913 20.5878C133.093 19.5657 132.863 18.348 133.326 16.9005ZM132.326 19.2034C133.2 20.6448 133.151 21.9123 131.97 22.9667C131.293 21.484 131.452 20.2411 132.326 19.2034ZM132.613 23.6098C133.822 21.9448 135.099 21.7497 136.399 22.051C135.343 23.593 134.122 24.3143 132.613 23.6098ZM130.645 21.289C129.719 22.0996 129.118 23.1015 129.739 24.8241C131.044 24.0213 131.292 22.8226 130.645 21.289ZM134.16 24.9185C132.773 24.3476 131.472 24.4321 130.321 25.6789C131.682 26.6897 132.957 26.3604 134.16 24.9185ZM128.633 23.0566C127.569 23.7673 126.693 24.6339 126.891 26.3827C128.537 25.8203 128.945 24.6232 128.633 23.0566ZM127.386 27.2757C129.008 26.2743 130.19 26.6897 131.261 27.4657C129.851 28.6946 128.56 28.6315 127.386 27.2757ZM126.361 24.72C124.888 25.1986 124.176 26.1396 124.085 27.4573C125.675 27.1599 126.519 26.3112 126.361 24.72ZM124.403 28.4989C126.593 27.9146 127.593 28.5995 128.207 29.6965C126.465 30.3489 125.197 29.9497 124.403 28.4989Z" fill="#BEC6D5"/>
</svg>
